<?xml version="1.0" encoding="utf-8"?>
<!DOCTYPE svg PUBLIC "-//W3C//DTD SVG 1.1//EN" "http://www.w3.org/Graphics/SVG/1.1/DTD/svg11.dtd">
<svg xmlns="http://www.w3.org/2000/svg" xmlns:xlink="http://www.w3.org/1999/xlink" version="1.1" baseProfile="full" width="20" height="20" viewBox="0 0 20.00 20.00" enable-background="new 0 0 20.00 20.00" xml:space="preserve">
	<path fill="#{colora}" fill-opacity="1" stroke-width="1.33333" stroke-linejoin="miter" d="M 9.0387,1C 12.3471,1 15.0293,3.68178 15.0293,6.99062C 15.0293,8.82104 14.2083,10.4598 12.9144,11.5587L 17,17.6983C 17.2944,18.1407 17.199,18.7265 16.7879,19C 16.3768,19.2735 15.7996,19.1354 15.5051,18.693L 11.3864,12.5037C 10.6655,12.8111 9.87195,12.9813 9.0387,12.9813C 5.73033,12.9813 3.04807,10.299 3.04807,6.99062C 3.04807,3.68178 5.73033,1 9.0387,1 Z M 9.0387,11.3676C 11.4562,11.3676 13.4157,9.40767 13.4157,6.99063C 13.4157,4.57312 11.4562,2.6136 9.0387,2.6136C 6.62119,2.6136 4.66167,4.57312 4.66167,6.99063C 4.66167,9.40771 6.62119,11.3676 9.0387,11.3676 Z "/>
</svg>
