<?xml version="1.0" encoding="utf-8"?>
<!DOCTYPE svg PUBLIC "-//W3C//DTD SVG 1.1//EN" "http://www.w3.org/Graphics/SVG/1.1/DTD/svg11.dtd">
<svg xmlns="http://www.w3.org/2000/svg" xmlns:xlink="http://www.w3.org/1999/xlink" version="1.1" baseProfile="full" width="192" height="16" viewBox="0 0 192.00 16.00" enable-background="new 0 0 192.00 16.00" xml:space="preserve">
	<g>
		<path fill="#{color}" d="M 14,8C 14,5.74835 14.7442,3.67051 16,1.99902L 16,14.001C 14.7442,12.3295 14,10.2516 14,8 Z "/>
	</g>
	<g>
		<path fill="#{color}" d="M 30.001,16L 17.999,16C 17.2422,15.4314 16.5686,14.7578 16,14.001L 16,1.99902C 16.5686,1.24217 17.2422,0.568635 17.999,0L 30.001,0C 30.7578,0.568638 31.4314,1.24218 32,1.99903L 32,14.001C 31.4314,14.7578 30.7578,15.4314 30.001,16 Z "/>
		<path fill="#FFFFFF" d="M 23.8523,13.1467C 22.8256,13.1467 22.0247,12.712 21.4495,11.8427C 20.8743,10.9734 20.5867,9.71681 20.5867,8.07292C 20.5867,6.26861 20.8865,4.90316 21.4861,3.97656C 22.0858,3.04997 22.9517,2.58667 24.0837,2.58667C 26.2501,2.58667 27.3333,4.33215 27.3333,7.82312C 27.3333,9.55257 27.0274,10.8722 26.4155,11.782C 25.8036,12.6918 24.9492,13.1467 23.8523,13.1467 Z M 24.0196,3.61333C 22.5132,3.61333 21.76,5.07924 21.76,8.01104C 21.76,10.7503 22.4979,12.12 23.9737,12.12C 25.4312,12.12 26.16,10.7267 26.16,7.94C 26.16,5.05556 25.4465,3.61333 24.0196,3.61333 Z "/>
	</g>
	<g>
		<path fill="#{color}" d="M 46.001,16L 33.999,16C 33.2422,15.4314 32.5686,14.7578 32,14.001L 32,1.99902C 32.5686,1.24217 33.2422,0.568635 33.999,0L 46.001,0C 46.7578,0.568638 47.4314,1.24218 48,1.99903L 48,14.001C 47.4314,14.7578 46.7578,15.4314 46.001,16 Z "/>
		<path fill="#FFFFFF" d="M 43.0267,13L 37.16,13L 37.16,11.9733L 39.5067,11.9733L 39.5067,4.07625L 37.1027,4.78667L 37.1027,3.66833L 40.68,2.58667L 40.68,11.9733L 43.0267,11.9733L 43.0267,13 Z "/>
	</g>
	<g>
		<path fill="#{color}" d="M 62.001,16L 49.999,16C 49.2422,15.4314 48.5686,14.7578 48,14.001L 48,1.99902C 48.5686,1.24217 49.2422,0.568637 49.999,9.53674e-007L 62.001,9.53674e-007C 62.7578,0.568639 63.4314,1.24218 64,1.99903L 64,14.001C 63.4314,14.7578 62.7578,15.4314 62.001,16 Z "/>
		<path fill="#FFFFFF" d="M 58.8667,13L 52.7067,13L 52.7067,12.0169L 55.7087,8.99646C 56.4742,8.22799 57.0207,7.58785 57.3484,7.07604C 57.6761,6.56424 57.84,6.01806 57.84,5.4375C 57.84,4.85695 57.6719,4.40778 57.3358,4.09C 56.9997,3.77222 56.5223,3.61333 55.9035,3.61333C 54.996,3.61333 54.126,4.00445 53.2933,4.78667L 53.2933,3.53771C 54.0908,2.90368 55.019,2.58667 56.0777,2.58667C 56.9898,2.58667 57.7071,2.83417 58.2296,3.32917C 58.7521,3.82417 59.0133,4.48875 59.0133,5.32292C 59.0133,5.98597 58.8311,6.63337 58.4668,7.2651C 58.1024,7.89684 57.4474,8.68097 56.5017,9.6175L 54.1183,11.9733L 54.1183,12.0008L 58.8667,12.0008L 58.8667,13 Z "/>
	</g>
	<g>
		<path fill="#{color}" d="M 78.001,16L 65.999,16C 65.2422,15.4314 64.5686,14.7578 64,14.001L 64,1.99902C 64.5686,1.24217 65.2422,0.568637 65.999,9.53674e-007L 78.001,9.53674e-007C 78.7578,0.568639 79.4314,1.24218 80,1.99903L 80,14.001C 79.4314,14.7578 78.7578,15.4314 78.001,16 Z "/>
		<path fill="#FFFFFF" d="M 68.84,12.5073L 68.84,11.24C 69.5581,11.8267 70.3685,12.12 71.2715,12.12C 72.0033,12.12 72.5876,11.9424 73.0246,11.5872C 73.4615,11.232 73.68,10.7542 73.68,10.1537C 73.68,8.82458 72.7007,8.16 70.7421,8.16L 69.8667,8.16L 69.8667,7.13333L 70.7169,7.13333C 72.4967,7.13333 73.3867,6.52375 73.3867,5.30458C 73.3867,4.17708 72.7198,3.61333 71.386,3.61333C 70.642,3.61333 69.94,3.85778 69.28,4.34667L 69.28,3.20083C 69.9507,2.79139 70.7428,2.58667 71.6565,2.58667C 72.5365,2.58667 73.2404,2.8124 73.7682,3.26385C 74.2961,3.71531 74.56,4.29396 74.56,4.99979C 74.56,6.33202 73.8519,7.18833 72.4356,7.56875L 72.4356,7.59854C 73.1751,7.67035 73.7629,7.93007 74.1991,8.37771C 74.6352,8.82535 74.8533,9.38451 74.8533,10.0552C 74.8533,10.981 74.5184,11.7277 73.8484,12.2953C 73.1785,12.8629 72.2951,13.1467 71.1981,13.1467C 70.2112,13.1467 69.4251,12.9335 68.84,12.5073 Z "/>
	</g>
	<g>
		<path fill="#{color}" d="M 94.001,16L 81.999,16C 81.2422,15.4314 80.5686,14.7578 80,14.001L 80,1.99902C 80.5686,1.24217 81.2422,0.568637 81.999,9.53674e-007L 94.001,9.53674e-007C 94.7578,0.568639 95.4314,1.24218 96,1.99903L 96,14.001C 95.4314,14.7578 94.7578,15.4314 94.001,16 Z "/>
		<path fill="#FFFFFF" d="M 91.4267,10.36L 90.1067,10.36L 90.1067,13L 88.9333,13L 88.9333,10.36L 84.0933,10.36L 84.0933,9.51896L 88.6767,2.73333L 90.1067,2.73333L 90.1067,9.33333L 91.4267,9.33333L 91.4267,10.36 Z M 88.9333,9.33333L 88.9333,4.88292C 88.9333,4.5682 88.9433,4.21451 88.9631,3.82188L 88.9333,3.82188C 88.8661,3.99451 88.734,4.25729 88.5369,4.61021L 85.3675,9.33333L 88.9333,9.33333 Z "/>
	</g>
	<g>
		<path fill="#{color}" d="M 110.001,16L 97.999,16C 97.2422,15.4314 96.5686,14.7578 96,14.001L 96,1.99902C 96.5686,1.24217 97.2422,0.568635 97.999,0L 110.001,0C 110.758,0.568638 111.431,1.24218 112,1.99903L 112,14.001C 111.431,14.7578 110.758,15.4314 110.001,16 Z "/>
		<path fill="#FFFFFF" d="M 101.107,12.6333L 101.107,11.3867C 101.806,11.8756 102.518,12.12 103.24,12.12C 103.964,12.12 104.548,11.9141 104.99,11.5024C 105.432,11.0907 105.653,10.5456 105.653,9.86729C 105.653,9.19201 105.426,8.66531 104.97,8.28719C 104.515,7.90906 103.864,7.72 103.016,7.72C 102.728,7.72 102.19,7.74903 101.4,7.80708L 101.4,2.73333L 106.387,2.73333L 106.387,3.76L 102.573,3.76L 102.573,6.72313C 102.883,6.70326 103.17,6.69333 103.433,6.69333C 104.513,6.69333 105.349,6.97139 105.94,7.5275C 106.531,8.08361 106.827,8.84521 106.827,9.81229C 106.827,10.813 106.505,11.6189 105.863,12.23C 105.221,12.8411 104.339,13.1467 103.22,13.1467C 102.275,13.1467 101.571,12.9756 101.107,12.6333 Z "/>
	</g>
	<g>
		<path fill="#{color}" d="M 126.001,16L 113.999,16C 113.242,15.4314 112.569,14.7578 112,14.001L 112,1.99902C 112.569,1.24217 113.242,0.568635 113.999,0L 126.001,0C 126.758,0.568638 127.431,1.24218 128,1.99903L 128,14.001C 127.431,14.7578 126.758,15.4314 126.001,16 Z "/>
		<path fill="#FFFFFF" d="M 122.667,2.89375L 122.667,4.05333C 122.12,3.76 121.542,3.61333 120.934,3.61333C 119.993,3.61333 119.24,4.01399 118.675,4.81531C 118.109,5.61663 117.827,6.68875 117.827,8.03167L 117.856,8.03167C 118.344,7.04167 119.144,6.54667 120.256,6.54667C 121.172,6.54667 121.901,6.83465 122.442,7.41063C 122.983,7.9866 123.253,8.7566 123.253,9.72062C 123.253,10.729 122.947,11.552 122.334,12.1899C 121.722,12.8277 120.943,13.1467 119.997,13.1467C 118.955,13.1467 118.137,12.738 117.544,11.9206C 116.95,11.1033 116.653,9.9559 116.653,8.47854C 116.653,6.68799 117.045,5.25837 117.828,4.18969C 118.611,3.12101 119.645,2.58667 120.93,2.58667C 121.66,2.58667 122.239,2.68903 122.667,2.89375 Z M 120.017,7.57333C 119.39,7.57333 118.88,7.77576 118.49,8.18062C 118.1,8.58549 117.905,9.06292 117.905,9.61292C 117.905,10.305 118.099,10.8959 118.487,11.3855C 118.875,11.8752 119.39,12.12 120.034,12.12C 120.646,12.12 121.14,11.9069 121.516,11.4806C 121.892,11.0544 122.08,10.5143 122.08,9.86042C 122.08,9.14542 121.9,8.58549 121.539,8.18062C 121.179,7.77576 120.671,7.57333 120.017,7.57333 Z "/>
	</g>
	<g>
		<path fill="#{color}" d="M 142.001,16L 129.999,16C 129.242,15.4314 128.569,14.7578 128,14.001L 128,1.99902C 128.569,1.24217 129.242,0.568637 129.999,9.53674e-007L 142.001,9.53674e-007C 142.758,0.568639 143.431,1.24218 144,1.99903L 144,14.001C 143.431,14.7578 142.758,15.4314 142.001,16 Z "/>
		<path fill="#FFFFFF" d="M 139.093,3.09313L 135.03,13L 133.813,13L 137.654,3.76L 132.493,3.76L 132.493,2.73333L 139.093,2.73333L 139.093,3.09313 Z "/>
	</g>
	<g>
		<path fill="#{color}" d="M 158.001,16L 145.999,16C 145.242,15.4314 144.569,14.7578 144,14.001L 144,1.99902C 144.569,1.24217 145.242,0.568637 145.999,9.53674e-007L 158.001,9.53674e-007C 158.758,0.568639 159.431,1.24218 160,1.99903L 160,14.001C 159.431,14.7578 158.758,15.4314 158.001,16 Z "/>
		<path fill="#FFFFFF" d="M 150.797,7.59854L 150.797,7.57104C 149.546,7.00271 148.92,6.17924 148.92,5.10063C 148.92,4.36576 149.206,3.76306 149.779,3.2925C 150.352,2.82195 151.089,2.58667 151.991,2.58667C 152.807,2.58667 153.477,2.80667 154.001,3.24667C 154.525,3.68667 154.787,4.25195 154.787,4.9425C 154.787,6.06847 154.141,6.94389 152.85,7.56875L 152.85,7.59625C 154.337,8.13097 155.08,9.05604 155.08,10.3715C 155.08,11.2209 154.776,11.8958 154.168,12.3961C 153.56,12.8965 152.715,13.1467 151.633,13.1467C 150.759,13.1467 150.04,12.8988 149.475,12.403C 148.909,11.9073 148.627,11.2637 148.627,10.4723C 148.627,9.15688 149.35,8.19896 150.797,7.59854 Z M 153.613,5.1075C 153.613,4.64458 153.459,4.27983 153.149,4.01323C 152.84,3.74663 152.418,3.61333 151.883,3.61333C 151.384,3.61333 150.96,3.75236 150.614,4.03042C 150.267,4.30847 150.093,4.66215 150.093,5.09146C 150.093,5.96535 150.675,6.62458 151.84,7.06917C 153.022,6.61083 153.613,5.95695 153.613,5.1075 Z M 151.759,8.15771C 150.453,8.67257 149.8,9.41813 149.8,10.3944C 149.8,10.8985 149.991,11.3122 150.373,11.6353C 150.755,11.9584 151.258,12.12 151.883,12.12C 152.477,12.12 152.963,11.9607 153.341,11.6422C 153.718,11.3236 153.907,10.9215 153.907,10.4356C 153.907,9.4166 153.191,8.65729 151.759,8.15771 Z "/>
	</g>
	<g>
		<path fill="#{color}" d="M 174.001,16L 161.999,16C 161.242,15.4314 160.569,14.7578 160,14.001L 160,1.99902C 160.569,1.24217 161.242,0.568637 161.999,9.53674e-007L 174.001,9.53674e-007C 174.758,0.568639 175.431,1.24218 176,1.99903L 176,14.001C 175.431,14.7578 174.758,15.4314 174.001,16 Z "/>
		<path fill="#FFFFFF" d="M 165.2,12.8052L 165.2,11.68C 165.764,11.9733 166.36,12.12 166.99,12.12C 167.906,12.12 168.62,11.751 169.129,11.0131C 169.639,10.2752 169.893,9.22715 169.866,7.86896C 169.43,8.74743 168.673,9.18667 167.595,9.18667C 166.724,9.18667 166.009,8.88951 165.451,8.29521C 164.893,7.7009 164.613,6.93625 164.613,6.00125C 164.613,5.00361 164.919,4.1851 165.531,3.54573C 166.143,2.90635 166.927,2.58667 167.884,2.58667C 168.886,2.58667 169.667,2.98465 170.227,3.78063C 170.787,4.5766 171.067,5.73465 171.067,7.25479C 171.067,9.14007 170.705,10.5934 169.98,11.6147C 169.256,12.636 168.25,13.1467 166.962,13.1467C 166.285,13.1467 165.698,13.0328 165.2,12.8052 Z M 167.803,3.61333C 167.227,3.61333 166.747,3.82493 166.363,4.24813C 165.979,4.67132 165.787,5.2091 165.787,5.86146C 165.787,6.57646 165.975,7.1383 166.353,7.54698C 166.73,7.95566 167.24,8.16 167.884,8.16C 168.444,8.16 168.919,7.97323 169.309,7.59969C 169.699,7.22615 169.893,6.76972 169.893,6.23042C 169.893,5.46042 169.7,4.83174 169.312,4.34438C 168.925,3.85701 168.422,3.61333 167.803,3.61333 Z "/>
	</g>
	<g>
	<path fill="#{color}" d="M 178,7.99902C 178,10.2507 177.256,12.3285 176,14L 176,1.99804C 177.256,3.66953 178,5.74737 178,7.99902 Z "/>
	</g>
</svg>
