<?xml version="1.0" encoding="utf-8"?>
<!DOCTYPE svg PUBLIC "-//W3C//DTD SVG 1.1//EN" "http://www.w3.org/Graphics/SVG/1.1/DTD/svg11.dtd">
<svg xmlns="http://www.w3.org/2000/svg" xmlns:xlink="http://www.w3.org/1999/xlink" version="1.1" baseProfile="full" width="192" height="16" viewBox="0 0 192.00 16.00" enable-background="new 0 0 192.00 16.00" xml:space="preserve">
	<g>
		<rect x="11" y="0" fill="#{color}" stroke-linejoin="round" width="5" height="16"/>
	</g>
	<g>
		<rect x="16" y="0" fill="#{color}" width="16" height="16"/>
		<path fill="#FFFFFF" d="M 23.7623,13.2693C 22.717,13.2693 21.9015,12.8268 21.3158,11.9417C 20.7302,11.0566 20.4373,9.77711 20.4373,8.10333C 20.4373,6.26622 20.7426,4.87595 21.3532,3.9325C 21.9637,2.98906 22.8453,2.51733 23.998,2.51733C 26.2038,2.51733 27.3067,4.29456 27.3067,7.849C 27.3067,9.60989 26.9952,10.9535 26.3722,11.8798C 25.7492,12.8062 24.8792,13.2693 23.7623,13.2693 Z M 23.9327,3.56267C 22.3989,3.56267 21.632,5.05522 21.632,8.04033C 21.632,10.8294 22.3833,12.224 23.886,12.224C 25.37,12.224 26.112,10.8053 26.112,7.968C 26.112,5.03111 25.3856,3.56267 23.9327,3.56267 Z "/>
	</g>
	<g>
		<rect x="32" y="0" fill="#{color}" width="16" height="16"/>
		<path fill="#FFFFFF" d="M 43.0165,13.12L 37.0432,13.12L 37.0432,12.0747L 39.4325,12.0747L 39.4325,4.034L 36.9849,4.75734L 36.9849,3.61867L 40.6272,2.51733L 40.6272,12.0747L 43.0165,12.0747L 43.0165,13.12 Z "/>
	</g>
	<g>
		<rect x="48" y="0" fill="#{color}" width="16" height="16"/>
		<path fill="#FFFFFF" d="M 58.8757,13.12L 52.6037,13.12L 52.6037,12.119L 55.6604,9.04367C 56.4397,8.26122 56.9962,7.60944 57.3299,7.08833C 57.6636,6.56722 57.8304,6.01111 57.8304,5.42C 57.8304,4.82889 57.6593,4.37156 57.3171,4.048C 56.9748,3.72445 56.4887,3.56267 55.8587,3.56267C 54.9347,3.56267 54.0488,3.96089 53.2011,4.75734L 53.2011,3.48567C 54.0131,2.84011 54.9581,2.51733 56.0361,2.51733C 56.9647,2.51733 57.6951,2.76933 58.2271,3.27333C 58.7591,3.77734 59.0251,4.454 59.0251,5.30334C 59.0251,5.97845 58.8396,6.63761 58.4686,7.28083C 58.0976,7.92406 57.4306,8.72244 56.4677,9.676L 54.0411,12.0747L 54.0411,12.1027L 58.8757,12.1027L 58.8757,13.12 Z "/>
	</g>
	<g>
		<rect x="64" y="0" fill="#{color}" width="16" height="16"/>
		<path fill="#FFFFFF" d="M 68.7616,12.6183L 68.7616,11.328C 69.4927,11.9253 70.3179,12.224 71.2373,12.224C 71.9824,12.224 72.5774,12.0432 73.0223,11.6815C 73.4671,11.3198 73.6896,10.8333 73.6896,10.222C 73.6896,8.86867 72.6925,8.192 70.6982,8.192L 69.8069,8.192L 69.8069,7.14667L 70.6726,7.14667C 72.4848,7.14667 73.3909,6.526 73.3909,5.28467C 73.3909,4.13667 72.7119,3.56267 71.3539,3.56267C 70.5964,3.56267 69.8816,3.81156 69.2096,4.30933L 69.2096,3.14267C 69.8925,2.72578 70.699,2.51733 71.6292,2.51733C 72.5253,2.51733 73.242,2.74717 73.7794,3.20683C 74.3169,3.6665 74.5856,4.25567 74.5856,4.97434C 74.5856,6.33078 73.8646,7.20267 72.4226,7.59L 72.4226,7.62033C 73.1755,7.69345 73.774,7.95789 74.2181,8.41367C 74.6622,8.86945 74.8843,9.43878 74.8843,10.1217C 74.8843,11.0643 74.5432,11.8246 73.8611,12.4025C 73.179,12.9804 72.2795,13.2693 71.1626,13.2693C 70.1577,13.2693 69.3574,13.0523 68.7616,12.6183 Z "/>
	</g>
	<g>
		<rect x="80" y="0" fill="#{color}" width="16" height="16"/>
		<path fill="#FFFFFF" d="M 91.4901,10.432L 90.1461,10.432L 90.1461,13.12L 88.9514,13.12L 88.9514,10.432L 84.0234,10.432L 84.0234,9.57567L 88.6901,2.66667L 90.1461,2.66667L 90.1461,9.38667L 91.4901,9.38667L 91.4901,10.432 Z M 88.9514,9.38667L 88.9514,4.85534C 88.9514,4.53489 88.9616,4.17478 88.9818,3.775L 88.9514,3.775C 88.883,3.95078 88.7484,4.21834 88.5478,4.57767L 85.3208,9.38667L 88.9514,9.38667 Z "/>
	</g>
	<g>
		<rect x="96" y="0" fill="#{color}" width="16" height="16"/>
		<path fill="#FFFFFF" d="M 101.077,12.7467L 101.077,11.4773C 101.79,11.9751 102.514,12.224 103.25,12.224C 103.987,12.224 104.581,12.0144 105.031,11.5952C 105.481,11.1759 105.707,10.621 105.707,9.93033C 105.707,9.24278 105.475,8.7065 105.011,8.3215C 104.548,7.9365 103.884,7.744 103.021,7.744C 102.729,7.744 102.18,7.77356 101.376,7.83267L 101.376,2.66667L 106.453,2.66667L 106.453,3.712L 102.571,3.712L 102.571,6.729C 102.886,6.70878 103.178,6.69867 103.446,6.69867C 104.545,6.69867 105.396,6.98178 105.998,7.548C 106.6,8.11422 106.901,8.88967 106.901,9.87433C 106.901,10.8932 106.574,11.7138 105.92,12.336C 105.266,12.9582 104.369,13.2693 103.229,13.2693C 102.267,13.2693 101.55,13.0951 101.077,12.7467 Z "/>
	</g>
	<g>
		<rect x="112" y="0" fill="#{color}" width="16" height="16"/>
		<path fill="#FFFFFF" d="M 122.761,2.83L 122.761,4.01067C 122.204,3.712 121.616,3.56267 120.997,3.56267C 120.038,3.56267 119.271,3.97061 118.696,4.7865C 118.12,5.60239 117.833,6.694 117.833,8.06133L 117.863,8.06133C 118.359,7.05333 119.173,6.54934 120.306,6.54934C 121.239,6.54934 121.981,6.84256 122.532,7.429C 123.083,8.01545 123.358,8.79944 123.358,9.781C 123.358,10.8077 123.046,11.6457 122.422,12.2952C 121.798,12.9446 121.005,13.2693 120.042,13.2693C 118.981,13.2693 118.149,12.8532 117.544,12.021C 116.94,11.1888 116.638,10.0206 116.638,8.51633C 116.638,6.69322 117.036,5.23761 117.834,4.1495C 118.631,3.06139 119.684,2.51733 120.992,2.51733C 121.735,2.51733 122.325,2.62156 122.761,2.83 Z M 120.063,7.59467C 119.424,7.59467 118.905,7.80078 118.508,8.213C 118.111,8.62522 117.912,9.11133 117.912,9.67133C 117.912,10.376 118.109,10.9776 118.505,11.4762C 118.9,11.9747 119.425,12.224 120.08,12.224C 120.703,12.224 121.207,12.007 121.589,11.573C 121.972,11.139 122.163,10.5891 122.163,9.92333C 122.163,9.19533 121.98,8.62522 121.613,8.213C 121.245,7.80078 120.729,7.59467 120.063,7.59467 Z "/>
	</g>
	<g>
		<rect x="128" y="0" fill="#{color}" width="16" height="16"/>
		<path fill="#FFFFFF" d="M 139.217,3.033L 135.08,13.12L 133.841,13.12L 137.752,3.712L 132.497,3.712L 132.497,2.66667L 139.217,2.66667L 139.217,3.033 Z "/>
	</g>
	<g>
		<rect x="144" y="0" fill="#{color}" width="16" height="16"/>
		<path fill="#FFFFFF" d="M 150.865,7.62033L 150.865,7.59233C 149.591,7.01367 148.954,6.17522 148.954,5.077C 148.954,4.32878 149.245,3.71511 149.829,3.236C 150.412,2.75689 151.162,2.51733 152.08,2.51733C 152.911,2.51733 153.593,2.74133 154.127,3.18933C 154.66,3.63733 154.927,4.21289 154.927,4.916C 154.927,6.06245 154.27,6.95378 152.955,7.59L 152.955,7.618C 154.469,8.16245 155.226,9.10433 155.226,10.4437C 155.226,11.3086 154.916,11.9957 154.297,12.5052C 153.678,13.0146 152.818,13.2693 151.716,13.2693C 150.826,13.2693 150.094,13.0169 149.518,12.5122C 148.943,12.0074 148.655,11.3521 148.655,10.5463C 148.655,9.207 149.391,8.23167 150.865,7.62033 Z M 153.732,5.084C 153.732,4.61267 153.575,4.24128 153.26,3.96983C 152.945,3.69839 152.515,3.56267 151.971,3.56267C 151.462,3.56267 151.031,3.70422 150.678,3.98734C 150.325,4.27045 150.148,4.63056 150.148,5.06767C 150.148,5.95745 150.741,6.62867 151.926,7.08133C 153.13,6.61467 153.732,5.94889 153.732,5.084 Z M 151.845,8.18967C 150.515,8.71389 149.85,9.473 149.85,10.467C 149.85,10.9803 150.044,11.4015 150.433,11.7305C 150.822,12.0595 151.334,12.224 151.971,12.224C 152.576,12.224 153.07,12.0618 153.455,11.7375C 153.839,11.4132 154.031,11.0037 154.031,10.509C 154.031,9.47145 153.302,8.69833 151.845,8.18967 Z "/>
	</g>
	<g>
		<rect x="160" y="0" fill="#{color}" width="16" height="16"/>
		<path fill="#FFFFFF" d="M 165.261,12.9217L 165.261,11.776C 165.835,12.0747 166.442,12.224 167.083,12.224C 168.016,12.224 168.743,11.8483 169.261,11.097C 169.78,10.3457 170.039,9.27856 170.011,7.89567C 169.568,8.79011 168.797,9.23733 167.699,9.23733C 166.812,9.23733 166.085,8.93478 165.516,8.32967C 164.948,7.72456 164.663,6.946 164.663,5.994C 164.663,4.97822 164.975,4.14484 165.598,3.49383C 166.221,2.84284 167.019,2.51733 167.993,2.51733C 169.014,2.51733 169.809,2.92256 170.379,3.733C 170.949,4.54345 171.234,5.72256 171.234,7.27033C 171.234,9.18989 170.865,10.6696 170.128,11.7095C 169.391,12.7494 168.366,13.2693 167.055,13.2693C 166.366,13.2693 165.768,13.1534 165.261,12.9217 Z M 167.911,3.56267C 167.325,3.56267 166.836,3.77811 166.445,4.209C 166.054,4.63989 165.858,5.18745 165.858,5.85167C 165.858,6.57967 166.05,7.15172 166.434,7.56783C 166.819,7.98394 167.338,8.192 167.993,8.192C 168.564,8.192 169.048,8.00183 169.444,7.6215C 169.841,7.24117 170.039,6.77644 170.039,6.22733C 170.039,5.44333 169.842,4.80322 169.448,4.307C 169.054,3.81078 168.541,3.56267 167.911,3.56267 Z "/>
	</g>
	<g>
		<rect x="176" y="0" fill="#{color}" width="5" height="16"/>
	</g>
</svg>