<?xml version="1.0" encoding="utf-8"?>
<!DOCTYPE svg PUBLIC "-//W3C//DTD SVG 1.1//EN" "http://www.w3.org/Graphics/SVG/1.1/DTD/svg11.dtd">
<svg xmlns="http://www.w3.org/2000/svg" xmlns:xlink="http://www.w3.org/1999/xlink" version="1.1" baseProfile="full" width="192" height="16" viewBox="0 0 192.00 16.00" enable-background="new 0 0 192.00 16.00" xml:space="preserve">
	<g>
	</g>
	<g>
		<rect x="16" y="0" fill="#{color}" width="15" height="16"/>
		<path fill="#FFFFFF" d="M 19.3667,9.15812L 19.3667,6.60417C 19.3667,5.15611 19.7309,4.01229 20.4595,3.17271C 21.188,2.33313 22.1797,1.91333 23.4346,1.91333C 24.6912,1.91333 25.6852,2.33313 26.4165,3.17271C 27.1477,4.01229 27.5133,5.15611 27.5133,6.60417L 27.5133,9.15812C 27.5133,10.664 27.1477,11.8552 26.4165,12.7318C 25.6852,13.6084 24.6912,14.0467 23.4346,14.0467C 22.1797,14.0467 21.188,13.6084 20.4595,12.7318C 19.7309,11.8552 19.3667,10.664 19.3667,9.15812 Z M 22.66,5.92437L 22.66,9.84063C 22.66,10.5647 22.9191,10.9267 23.4373,10.9267C 23.9591,10.9267 24.22,10.5647 24.22,9.84063L 24.22,5.92437C 24.22,5.33035 23.9591,5.03333 23.4373,5.03333C 22.9191,5.03333 22.66,5.33035 22.66,5.92437 Z "/>
	</g>
	<g>
		<rect x="32" y="0" fill="#{color}" width="15" height="16"/>
		<rect x="37.7747" y="2.08667" fill="#FFFFFF" width="3.29333" height="11.6133"/>
	</g>
	<g>
		<rect x="48" y="0" fill="#{color}" width="15" height="16"/>
		<path fill="#FFFFFF" d="M 59.476,10.4067L 59.476,13.7L 52.0118,13.7L 55.7304,6.83437L 55.8577,6.59875C 55.9588,6.41639 56.0093,6.23583 56.0093,6.05708C 56.0093,5.60569 55.7448,5.38 55.2158,5.38C 55.01,5.38 54.8308,5.45042 54.6782,5.59125C 54.5256,5.73208 54.4493,5.89639 54.4493,6.08417C 54.4493,6.29903 54.5396,6.49313 54.7202,6.66646L 53.2387,9.35854C 52.6248,8.97576 52.1531,8.48962 51.8236,7.9001C 51.4941,7.31059 51.3293,6.65833 51.3293,5.94333C 51.3293,4.83653 51.7184,3.88816 52.4966,3.09823C 53.2748,2.3083 54.2146,1.91333 55.316,1.91333C 56.4246,1.91333 57.3662,2.30514 58.1408,3.08875C 58.9154,3.87236 59.3027,4.8257 59.3027,5.94875C 59.3027,6.59153 59.1627,7.18917 58.8829,7.74167L 57.5477,10.4067L 59.476,10.4067 Z "/>
	</g>
	<g>
		<rect x="64" y="0" fill="#{color}" width="15" height="16"/>
		<path fill="#FFFFFF" d="M 68.3507,2.08667L 74.4688,2.08667L 72.5838,6.50125C 73.2843,6.96708 73.794,7.4776 74.1126,8.03281C 74.4313,8.58802 74.5907,9.2457 74.5907,10.0058C 74.5907,11.1397 74.1799,12.0967 73.3584,12.8767C 72.5368,13.6567 71.5248,14.0467 70.3223,14.0467C 69.6597,14.0467 69.0025,13.9031 68.3507,13.616L 68.3507,10.3038C 68.8598,10.719 69.3013,10.9267 69.675,10.9267C 70.0849,10.9267 70.4289,10.7764 70.7069,10.4757C 70.985,10.1751 71.124,9.80271 71.124,9.35854C 71.124,8.84937 70.9109,8.44312 70.4848,8.13979C 70.0587,7.83646 69.4882,7.68479 68.7732,7.68479L 69.629,5.38L 68.3507,5.38L 68.3507,2.08667 Z "/>
	</g>
	<g>
		<rect x="80" y="0" fill="#{color}" width="15" height="16"/>
		<path fill="#FFFFFF" d="M 91.612,2.08667L 91.612,13.7L 88.492,13.7L 88.492,4.8275L 86.9157,7.63333L 87.6253,7.63333L 87.6253,10.2333L 83.1132,10.2333L 86.5339,2.08667L 91.612,2.08667 Z "/>
	</g>
	<g>
		<rect x="96" y="0" fill="#{color}" width="15" height="16"/>
		<path fill="#FFFFFF" d="M 106.553,2.08667L 106.553,5.38L 103.71,5.38L 103.555,5.91083C 104.599,6.21417 105.371,6.65292 105.871,7.22708C 106.557,8.00889 106.9,8.94507 106.9,10.0356C 106.9,11.1894 106.483,12.1463 105.649,12.9065C 104.815,13.6666 103.764,14.0467 102.496,14.0467C 101.642,14.0467 100.799,13.8029 99.9667,13.3154L 99.9667,10.4419C 100.635,10.7651 101.222,10.9267 101.73,10.9267C 102.255,10.9267 102.67,10.8084 102.976,10.5719C 103.281,10.3353 103.433,10.0149 103.433,9.61042C 103.433,9.15361 103.198,8.76767 102.728,8.4526C 102.257,8.13754 101.677,7.98 100.985,7.98C 100.723,7.98 100.376,8.01702 99.9423,8.09104L 101.185,2.08667L 106.553,2.08667 Z "/>
	</g>
	<g>
		<rect x="112" y="0" fill="#{color}" width="15" height="16"/>
		<path fill="#FFFFFF" d="M 117.47,1.74813L 120.506,2.82333L 118.134,9.28813C 118.063,9.4741 118.028,9.63931 118.028,9.78375C 118.028,10.0943 118.149,10.3624 118.391,10.5881C 118.633,10.8138 118.921,10.9267 119.255,10.9267C 119.589,10.9267 119.872,10.808 120.105,10.5705C 120.338,10.3331 120.455,10.0456 120.455,9.70792C 120.455,9.37208 120.343,9.08681 120.12,8.85208C 119.897,8.61736 119.626,8.5 119.306,8.5C 119.23,8.5 119.118,8.50722 118.968,8.52167L 120.346,5.18229C 121.551,5.70771 122.419,6.31212 122.95,6.99552C 123.482,7.67892 123.748,8.52618 123.748,9.53729C 123.748,10.8066 123.32,11.8755 122.463,12.744C 121.606,13.6124 120.556,14.0467 119.312,14.0467C 118.135,14.0467 117.106,13.6124 116.227,12.744C 115.348,11.8755 114.908,10.8599 114.908,9.69708C 114.908,9.16083 115.114,8.31764 115.525,7.1675L 117.47,1.74813 Z "/>
	</g>
	<g>
		<rect x="128" y="0" fill="#{color}" width="15" height="16"/>
		<path fill="#FFFFFF" d="M 139.204,2.08667L 135.846,13.7L 132.333,13.7L 134.946,5.38L 131.409,5.38L 131.409,2.08667L 139.204,2.08667 Z "/>
	</g>
	<g>
		<rect x="144" y="0" fill="#{color}" width="15" height="16"/>
		<path fill="#FFFFFF" d="M 154.113,7.02938C 154.589,7.53313 154.917,7.9967 155.096,8.4201C 155.275,8.84351 155.364,9.35944 155.364,9.96792C 155.364,11.1289 154.976,12.0989 154.199,12.878C 153.423,13.6571 152.455,14.0467 151.296,14.0467C 150.13,14.0467 149.158,13.6571 148.382,12.878C 147.606,12.0989 147.217,11.1289 147.217,9.96792C 147.217,9.3775 147.309,8.86201 147.491,8.42146C 147.673,7.9809 147.987,7.51688 148.433,7.02938C 147.969,6.4859 147.737,5.88195 147.737,5.2175C 147.737,4.26056 148.062,3.47063 148.711,2.84771C 149.36,2.22479 150.187,1.91333 151.19,1.91333C 152.207,1.91333 153.041,2.22344 153.693,2.84365C 154.345,3.46385 154.671,4.25875 154.671,5.22833C 154.671,5.88014 154.485,6.48049 154.113,7.02938 Z M 151.101,4.34C 150.845,4.34 150.624,4.43254 150.44,4.6176C 150.256,4.80267 150.164,5.01799 150.164,5.26354C 150.164,5.54882 150.255,5.78399 150.436,5.96906C 150.618,6.15413 150.85,6.24667 151.134,6.24667C 151.39,6.24667 151.61,6.15142 151.794,5.96094C 151.979,5.77045 152.071,5.54611 152.071,5.28792C 152.071,5.02069 151.977,4.7959 151.79,4.61354C 151.603,4.43118 151.374,4.34 151.101,4.34 Z M 151.291,8.67333C 150.933,8.67333 150.627,8.80559 150.373,9.0701C 150.118,9.33462 149.991,9.65375 149.991,10.0275C 149.991,10.4338 150.114,10.7718 150.36,11.0418C 150.607,11.3117 150.917,11.4467 151.291,11.4467C 151.664,11.4467 151.975,11.3117 152.221,11.0418C 152.467,10.7718 152.591,10.4338 152.591,10.0275C 152.591,9.65917 152.462,9.34139 152.205,9.07417C 151.947,8.80694 151.643,8.67333 151.291,8.67333 Z "/>
	</g>
	<g>
		<rect x="160" y="0" fill="#{color}" width="15" height="16"/>
		<path fill="#FFFFFF" d="M 169.111,14.0385L 166.072,12.9579L 168.472,6.64208C 168.539,6.46153 168.572,6.29813 168.572,6.15188C 168.572,5.84674 168.451,5.58403 168.209,5.36375C 167.967,5.14347 167.679,5.03333 167.345,5.03333C 167.011,5.03333 166.728,5.14302 166.495,5.3624C 166.262,5.58177 166.145,5.84764 166.145,6.16C 166.145,6.47778 166.255,6.745 166.474,6.96167C 166.694,7.17833 166.962,7.28667 167.28,7.28667C 167.349,7.28667 167.457,7.27493 167.605,7.25146L 166.235,10.5908C 165.034,10.0708 164.17,9.47771 163.643,8.81146C 163.116,8.14521 162.852,7.31465 162.852,6.31979C 162.852,5.08299 163.28,4.03938 164.137,3.18896C 164.994,2.33854 166.044,1.91333 167.288,1.91333C 168.465,1.91333 169.494,2.3417 170.373,3.19844C 171.252,4.05517 171.692,5.05681 171.692,6.20333C 171.692,6.73597 171.484,7.56743 171.069,8.69771L 169.111,14.0385 Z "/>
	</g>
	<g>
	</g>
</svg>
