<?xml version="1.0" encoding="utf-8"?>
<!DOCTYPE svg PUBLIC "-//W3C//DTD SVG 1.1//EN" "http://www.w3.org/Graphics/SVG/1.1/DTD/svg11.dtd">
<svg xmlns="http://www.w3.org/2000/svg" xmlns:xlink="http://www.w3.org/1999/xlink"
	version="1.1" baseProfile="full" width="120" height="10" viewBox="0 0 120.00 10.00"
	enable-background="new 0 0 120.00 10.00" xml:space="preserve">

<g>
	<path fill="#{color}" d="M 10,10C 8.34315,10 7,8.65685 7,7L 7,3.00001C 7,1.34315 8.34315,6.67572e-006 10,6.67572e-006L 10,10 Z "/>
</g>
<g>
	<rect x="10" y="0" fill="#{color}" width="10" height="10" />
	<path fill="#FFFFFF" d="M 14.8515,8.29333C 14.1981,8.29333 13.6884,8.01674 13.3224,7.46354C 12.9564,6.91035 12.7733,6.11069 12.7733,5.06458C 12.7733,3.91639 12.9641,3.04747 13.3457,2.45781C 13.7273,1.86816 14.2783,1.57333 14.9987,1.57333C 16.3774,1.57333 17.0667,2.6841 17.0667,4.90562C 17.0667,6.00618 16.872,6.84594 16.4826,7.4249C 16.0932,8.00385 15.5495,8.29333 14.8515,8.29333 Z M 14.9579,2.22667C 13.9993,2.22667 13.52,3.15951 13.52,5.02521C 13.52,6.7684 13.9896,7.64 14.9287,7.64C 15.8562,7.64 16.32,6.75333 16.32,4.98C 16.32,3.14444 15.866,2.22667 14.9579,2.22667 Z " />
</g>

<g>
	<rect x="20" y="0" fill="#{color}" width="10" height="10" />
	<path fill="#FFFFFF" d="M 26.8853,8.2L 23.152,8.2L 23.152,7.54667L 24.6453,7.54667L 24.6453,2.52125L 23.1155,2.97333L 23.1155,2.26167L 25.392,1.57333L 25.392,7.54667L 26.8853,7.54667L 26.8853,8.2 Z " />
</g>
<g>
	<rect x="30" y="0" fill="#{color}" width="10" height="10" />
	<path fill="#FFFFFF" d="M 36.7973,8.2L 32.8773,8.2L 32.8773,7.57438L 34.7877,5.65229C 35.2748,5.16326 35.6226,4.7559 35.8312,4.43021C 36.0397,4.10451 36.144,3.75694 36.144,3.3875C 36.144,3.01806 36.0371,2.73222 35.8232,2.53C 35.6093,2.32778 35.3055,2.22667 34.9117,2.22667C 34.3342,2.22667 33.7805,2.47556 33.2507,2.97333L 33.2507,2.17854C 33.7582,1.77507 34.3488,1.57333 35.0225,1.57333C 35.603,1.57333 36.0594,1.73083 36.3919,2.04583C 36.7244,2.36083 36.8907,2.78375 36.8907,3.31458C 36.8907,3.73653 36.7747,4.14851 36.5429,4.55052C 36.311,4.95254 35.8941,5.45153 35.2923,6.0475L 33.7757,7.54667L 33.7757,7.56417L 36.7973,7.56417L 36.7973,8.2 Z " />
</g>
<g>
	<rect x="40" y="0" fill="#{color}" width="10" height="10" />
	<path fill="#FFFFFF" d="M 42.976,7.88646L 42.976,7.08C 43.4329,7.45333 43.9487,7.64 44.5233,7.64C 44.989,7.64 45.3609,7.52698 45.6389,7.30094C 45.917,7.0749 46.056,6.77083 46.056,6.38875C 46.056,5.54292 45.4328,5.12 44.1864,5.12L 43.6293,5.12L 43.6293,4.46667L 44.1704,4.46667C 45.303,4.46667 45.8693,4.07875 45.8693,3.30292C 45.8693,2.58542 45.445,2.22667 44.5962,2.22667C 44.1227,2.22667 43.676,2.38222 43.256,2.69333L 43.256,1.96417C 43.6828,1.70361 44.1869,1.57333 44.7683,1.57333C 45.3283,1.57333 45.7762,1.71698 46.1121,2.00427C 46.448,2.29156 46.616,2.65979 46.616,3.10896C 46.616,3.95674 46.1654,4.50167 45.2641,4.74375L 45.2641,4.76271C 45.7347,4.8084 46.1087,4.97368 46.3863,5.25854C 46.6639,5.5434 46.8027,5.89924 46.8027,6.32604C 46.8027,6.91521 46.5895,7.39038 46.1632,7.75156C 45.7369,8.11274 45.1747,8.29333 44.4766,8.29333C 43.8486,8.29333 43.3484,8.15771 42.976,7.88646 Z " />
</g>
<g>
	<rect x="50" y="0" fill="#{color}" width="10" height="10" />
	<path fill="#FFFFFF" d="M 57.1813,6.52L 56.3413,6.52L 56.3413,8.2L 55.5947,8.2L 55.5947,6.52L 52.5147,6.52L 52.5147,5.98479L 55.4313,1.66667L 56.3413,1.66667L 56.3413,5.86667L 57.1813,5.86667L 57.1813,6.52 Z M 55.5947,5.86667L 55.5947,3.03458C 55.5947,2.83431 55.601,2.60924 55.6136,2.35938L 55.5947,2.35938C 55.5519,2.46924 55.4678,2.63646 55.3424,2.86104L 53.3255,5.86667L 55.5947,5.86667 Z " />
</g>
<g>
	<rect x="60" y="0" fill="#{color}" width="10" height="10" />
	<path fill="#FFFFFF" d="M 63.1733,7.96667L 63.1733,7.17333C 63.6186,7.48444 64.0712,7.64 64.531,7.64C 64.9919,7.64 65.363,7.50899 65.6445,7.24698C 65.9259,6.98497 66.0667,6.63813 66.0667,6.20646C 66.0667,5.77674 65.9218,5.44156 65.6321,5.20094C 65.3424,4.96031 64.9277,4.84 64.3881,4.84C 64.2053,4.84 63.8626,4.85847 63.36,4.89542L 63.36,1.66667L 66.5333,1.66667L 66.5333,2.32L 64.1067,2.32L 64.1067,4.20563C 64.304,4.19299 64.4863,4.18667 64.6535,4.18667C 65.3409,4.18667 65.8727,4.36361 66.249,4.7175C 66.6252,5.07139 66.8133,5.55604 66.8133,6.17146C 66.8133,6.80826 66.6089,7.32111 66.2001,7.71C 65.7913,8.09889 65.2306,8.29333 64.5179,8.29333C 63.9171,8.29333 63.4689,8.18444 63.1733,7.96667 Z " />
</g>
<g>
	<rect x="70" y="0" fill="#{color}" width="10" height="10" />
	<path fill="#FFFFFF" d="M 76.7253,1.76875L 76.7253,2.50667C 76.3773,2.32 76.0098,2.22667 75.6228,2.22667C 75.0239,2.22667 74.5446,2.48163 74.1849,2.99156C 73.8252,3.50149 73.6453,4.18375 73.6453,5.03833L 73.6643,5.03833C 73.9744,4.40833 74.4834,4.09333 75.1912,4.09333C 75.7745,4.09333 76.2382,4.2766 76.5824,4.64313C 76.9266,5.00965 77.0987,5.49965 77.0987,6.11312C 77.0987,6.75479 76.9037,7.27858 76.5139,7.68448C 76.124,8.09038 75.6282,8.29333 75.0264,8.29333C 74.3633,8.29333 73.8429,8.03326 73.4652,7.51312C 73.0875,6.99299 72.8987,6.26285 72.8987,5.32271C 72.8987,4.18326 73.1478,3.27351 73.6461,2.59344C 74.1443,1.91337 74.8023,1.57333 75.6199,1.57333C 76.0846,1.57333 76.4531,1.63847 76.7253,1.76875 Z M 75.0395,4.74667C 74.6399,4.74667 74.3159,4.87549 74.0675,5.13313C 73.8191,5.39076 73.6949,5.69458 73.6949,6.04458C 73.6949,6.485 73.8184,6.86101 74.0653,7.1726C 74.3123,7.4842 74.6404,7.64 75.0497,7.64C 75.4396,7.64 75.7541,7.50437 75.9932,7.23312C 76.2324,6.96187 76.352,6.61819 76.352,6.20208C 76.352,5.74708 76.2373,5.39076 76.0078,5.13313C 75.7784,4.87549 75.4556,4.74667 75.0395,4.74667 Z " />
</g>
<g>
	<rect x="80" y="0" fill="#{color}" width="10" height="10" />
	<path fill="#FFFFFF" d="M 87.0107,1.89563L 84.425,8.2L 83.6507,8.2L 86.0948,2.32L 82.8107,2.32L 82.8107,1.66667L 87.0107,1.66667L 87.0107,1.89563 Z " />
</g>
<g>
	<rect x="90" y="0" fill="#{color}" width="10" height="10" />
	<path fill="#FFFFFF" d="M 94.2904,4.76271L 94.2904,4.74521C 93.4941,4.38354 93.096,3.85951 93.096,3.17312C 93.096,2.70549 93.2783,2.32195 93.6429,2.0225C 94.0075,1.72306 94.4766,1.57333 95.0502,1.57333C 95.5693,1.57333 95.9957,1.71333 96.3291,1.99333C 96.6626,2.27333 96.8293,2.63306 96.8293,3.0725C 96.8293,3.78903 96.4186,4.34611 95.597,4.74375L 95.597,4.76125C 96.543,5.10153 97.016,5.69021 97.016,6.52729C 97.016,7.06785 96.8225,7.49733 96.4356,7.81573C 96.0486,8.13413 95.511,8.29333 94.8227,8.29333C 94.2666,8.29333 93.8086,8.13559 93.4489,7.8201C 93.0892,7.50462 92.9093,7.09507 92.9093,6.59146C 92.9093,5.75437 93.3697,5.14479 94.2904,4.76271 Z M 96.0827,3.1775C 96.0827,2.88292 95.9842,2.6508 95.7874,2.48115C 95.5905,2.31149 95.3219,2.22667 94.9816,2.22667C 94.6637,2.22667 94.3944,2.31514 94.1737,2.49208C 93.953,2.66903 93.8427,2.8941 93.8427,3.16729C 93.8427,3.7234 94.2131,4.14292 94.9539,4.42583C 95.7064,4.13417 96.0827,3.71806 96.0827,3.1775 Z M 94.9029,5.11854C 94.0716,5.44618 93.656,5.92063 93.656,6.54187C 93.656,6.86271 93.7775,7.12594 94.0206,7.33156C 94.2636,7.53719 94.584,7.64 94.9816,7.64C 95.3598,7.64 95.669,7.53865 95.9091,7.33594C 96.1493,7.13323 96.2693,6.87729 96.2693,6.56812C 96.2693,5.91965 95.8138,5.43646 94.9029,5.11854 Z " />
</g>
<g>
	<rect x="100" y="0" fill="#{color}" width="10" height="10" />
	<path fill="#FFFFFF" d="M 103.288,8.07604L 103.288,7.36C 103.647,7.54667 104.026,7.64 104.427,7.64C 105.01,7.64 105.464,7.40521 105.788,6.93563C 106.113,6.46604 106.275,5.7991 106.257,4.93479C 105.98,5.49382 105.498,5.77333 104.812,5.77333C 104.258,5.77333 103.803,5.58424 103.448,5.20604C 103.092,4.82785 102.915,4.34125 102.915,3.74625C 102.915,3.11139 103.109,2.59052 103.499,2.18365C 103.888,1.77677 104.387,1.57333 104.996,1.57333C 105.633,1.57333 106.131,1.8266 106.487,2.33313C 106.843,2.83965 107.021,3.5766 107.021,4.54396C 107.021,5.74368 106.791,6.66851 106.33,7.31844C 105.869,7.96837 105.229,8.29333 104.409,8.29333C 103.979,8.29333 103.605,8.2209 103.288,8.07604 Z M 104.945,2.22667C 104.578,2.22667 104.273,2.36132 104.028,2.63063C 103.784,2.89993 103.661,3.24215 103.661,3.65729C 103.661,4.11229 103.781,4.46983 104.022,4.7299C 104.262,4.98997 104.586,5.12 104.996,5.12C 105.353,5.12 105.655,5.00115 105.903,4.76344C 106.151,4.52573 106.275,4.23528 106.275,3.89208C 106.275,3.40208 106.151,3.00201 105.905,2.69188C 105.659,2.38174 105.338,2.22667 104.945,2.22667 Z " />
</g>
<g>
	<path fill="#{color}" d="M 110,0C 111.657,0 113,1.34315 113,3L 113,6.99999C 113,8.65685 111.657,9.99999 110,9.99999L 110,0 Z "/>
</g>
</svg>