<?xml version="1.0" encoding="utf-8"?>
<!DOCTYPE svg PUBLIC "-//W3C//DTD SVG 1.1//EN" "http://www.w3.org/Graphics/SVG/1.1/DTD/svg11.dtd">
<svg xmlns="http://www.w3.org/2000/svg" xmlns:xlink="http://www.w3.org/1999/xlink" version="1.1" baseProfile="full" width="192" height="16" viewBox="0 0 192.00 16.00" enable-background="new 0 0 192.00 16.00" xml:space="preserve">
	<g></g>
	<g>
		<ellipse fill="#{color}" cx="24" cy="8" rx="8" ry="8"/>
		<path fill="#FFFFFF" d="M 27.2333,7.98875C 27.2333,8.82903 27.1734,9.58108 27.0534,10.2449C 26.9335,10.9087 26.7402,11.4706 26.4736,11.9304C 26.207,12.3903 25.8641,12.7413 25.4447,12.9834C 25.0253,13.2256 24.5169,13.3467 23.9196,13.3467C 23.3635,13.3467 22.8792,13.2256 22.4667,12.9834C 22.0542,12.7413 21.7127,12.3903 21.4423,11.9304C 21.1719,11.4706 20.9694,10.9087 20.835,10.2449C 20.7006,9.58108 20.6333,8.82903 20.6333,7.98875C 20.6333,7.15 20.6933,6.39872 20.8132,5.7349C 20.9332,5.07108 21.1241,4.51038 21.3861,4.05281C 21.6482,3.59524 21.9873,3.24538 22.4036,3.00323C 22.82,2.76108 23.3253,2.64 23.9196,2.64C 24.4803,2.64 24.9676,2.75993 25.3817,2.99979C 25.7957,3.23965 26.1394,3.58837 26.4129,4.04594C 26.6864,4.50351 26.8915,5.0642 27.0282,5.72802C 27.165,6.39184 27.2333,7.14542 27.2333,7.98875 Z M 21.9579,7.98646C 21.9579,8.69688 21.9931,9.31754 22.0633,9.84844C 22.1336,10.3793 22.2455,10.8213 22.3991,11.1742C 22.5526,11.5271 22.7539,11.7925 23.0029,11.9705C 23.2519,12.1485 23.556,12.2375 23.915,12.2375C 24.274,12.2375 24.5796,12.1497 24.8317,11.974C 25.0837,11.7983 25.29,11.5351 25.4504,11.1845C 25.6108,10.8339 25.7273,10.3919 25.7999,9.85875C 25.8725,9.32556 25.9088,8.70146 25.9088,7.98646C 25.9088,7.27604 25.8725,6.65538 25.7999,6.12448C 25.7273,5.59358 25.6108,5.15281 25.4504,4.80219C 25.29,4.45156 25.0837,4.1884 24.8317,4.01271C 24.5796,3.83702 24.274,3.74917 23.915,3.74917C 23.556,3.74917 23.2519,3.83702 23.0029,4.01271C 22.7539,4.1884 22.5526,4.45156 22.3991,4.80219C 22.2455,5.15281 22.1336,5.59358 22.0633,6.12448C 21.9931,6.65538 21.9579,7.27604 21.9579,7.98646 Z "/>
	</g>
	<g>
		<ellipse fill="#{color}" cx="40" cy="8" rx="8" ry="8"/>
		<path fill="#FFFFFF" d="M 40.9604,13.2L 39.7,13.2L 39.7,6.76271C 39.7,6.55952 39.7011,6.34257 39.7034,6.11188C 39.7057,5.88118 39.7103,5.65011 39.7172,5.41865C 39.7241,5.18719 39.7313,4.96528 39.739,4.75292C 39.7466,4.54056 39.7527,4.3534 39.7573,4.19146C 39.6778,4.27702 39.6076,4.35073 39.5465,4.41261C 39.4853,4.47448 39.4235,4.53406 39.3608,4.59136C 39.2982,4.64865 39.2321,4.70976 39.1626,4.77469C 39.0931,4.83962 39.0094,4.91486 38.9117,5.00042L 37.8781,5.86667L 37.2067,4.96834L 39.8856,2.78667L 40.9604,2.78667L 40.9604,13.2 Z "/>
	</g>
	<g>
		<ellipse fill="#{color}" cx="56" cy="8" rx="8" ry="8"/>
		<path fill="#FFFFFF" d="M 59.0348,13.2L 52.6067,13.2L 52.6067,12.0817L 55.0565,9.37063C 55.4063,8.98715 55.7187,8.63653 55.9937,8.31875C 56.2687,8.00097 56.5033,7.69007 56.6973,7.38604C 56.8913,7.08202 57.0395,6.77722 57.1419,6.47167C 57.2442,6.16611 57.2954,5.83306 57.2954,5.4725C 57.2954,5.19445 57.2561,4.94962 57.1774,4.73802C 57.0987,4.52643 56.9864,4.34653 56.8405,4.19833C 56.6946,4.05014 56.5224,3.93823 56.3237,3.86261C 56.1251,3.78698 55.9036,3.74917 55.6592,3.74917C 55.2192,3.74917 54.8223,3.84045 54.4686,4.02302C 54.115,4.20559 53.7792,4.43896 53.4615,4.72313L 52.7533,3.87063C 52.9397,3.69952 53.1402,3.53872 53.3549,3.38823C 53.5695,3.23774 53.8002,3.1075 54.047,2.9975C 54.2937,2.8875 54.5546,2.80042 54.8296,2.73625C 55.1046,2.67208 55.3941,2.64 55.6981,2.64C 56.1442,2.64 56.5479,2.70417 56.9093,2.8325C 57.2706,2.96084 57.5773,3.14455 57.8294,3.38365C 58.0815,3.62274 58.2762,3.91417 58.4137,4.25792C 58.5512,4.60167 58.62,4.98972 58.62,5.42208C 58.62,5.82542 58.5581,6.20965 58.4344,6.57479C 58.3106,6.93993 58.1403,7.29934 57.9233,7.65302C 57.7064,8.0067 57.4474,8.36115 57.1465,8.71636C 56.8455,9.07156 56.5201,9.44167 56.1702,9.82667L 54.204,11.9533L 54.22,12.0106L 59.0348,12.0106L 59.0348,13.2 Z "/>
	</g>
	<g>
		<ellipse fill="#{color}" cx="72" cy="8" rx="8" ry="8"/>
		<path fill="#FFFFFF" d="M 74.7533,5.25938C 74.7533,5.60924 74.6983,5.92854 74.5883,6.21729C 74.4783,6.50604 74.3244,6.75622 74.1266,6.96781C 73.9287,7.17941 73.6915,7.35358 73.415,7.49031C 73.1385,7.62705 72.8306,7.72445 72.4915,7.7825L 72.4915,7.82604C 73.3363,7.92993 73.9734,8.19424 74.4027,8.61896C 74.832,9.04368 75.0467,9.59597 75.0467,10.2758C 75.0467,10.7265 74.9691,11.1398 74.8141,11.5156C 74.659,11.8915 74.4245,12.2153 74.1105,12.4873C 73.7966,12.7592 73.399,12.9705 72.9177,13.1209C 72.4365,13.2714 71.8674,13.3467 71.2104,13.3467C 70.691,13.3467 70.2017,13.3062 69.7426,13.2252C 69.2835,13.1442 68.8515,12.996 68.4467,12.7806L 68.4467,11.5638C 68.8622,11.7792 69.3121,11.9453 69.7965,12.0622C 70.2808,12.1791 70.7444,12.2375 71.1875,12.2375C 71.6275,12.2375 72.0071,12.1913 72.3265,12.0989C 72.6458,12.0064 72.9093,11.8747 73.1171,11.7035C 73.3249,11.5324 73.4776,11.322 73.5754,11.0722C 73.6732,10.8224 73.7221,10.5424 73.7221,10.2323C 73.7221,9.91757 73.6591,9.6483 73.533,9.42448C 73.407,9.20066 73.2278,9.0158 72.9956,8.8699C 72.7634,8.72399 72.4796,8.61629 72.1443,8.54677C 71.8089,8.47726 71.4296,8.4425 71.0065,8.4425L 70.06,8.4425L 70.06,7.33333L 71.0156,7.33333C 71.4037,7.33333 71.7486,7.28521 72.0503,7.18896C 72.352,7.09271 72.6045,6.95597 72.8077,6.77875C 73.0109,6.60153 73.1652,6.39069 73.2706,6.14625C 73.376,5.90181 73.4287,5.63292 73.4287,5.33958C 73.4287,5.09056 73.3852,4.8675 73.2981,4.67042C 73.211,4.47334 73.0877,4.30642 72.928,4.16969C 72.7684,4.03295 72.577,3.92868 72.354,3.85688C 72.1309,3.78507 71.8842,3.74917 71.6137,3.74917C 71.0958,3.74917 70.6394,3.82861 70.2445,3.9875C 69.8495,4.14639 69.4733,4.3534 69.1158,4.60854L 68.4467,3.71479C 68.63,3.5666 68.8336,3.42795 69.0574,3.29886C 69.2812,3.16976 69.5257,3.05632 69.7907,2.95854C 70.0558,2.86077 70.3388,2.78323 70.6398,2.72594C 70.9408,2.66865 71.2593,2.64 71.5954,2.64C 72.1164,2.64 72.5732,2.70493 72.9658,2.83479C 73.3585,2.96465 73.6869,3.14608 73.9512,3.37906C 74.2156,3.61205 74.4153,3.88858 74.5505,4.20865C 74.6857,4.52872 74.7533,4.87896 74.7533,5.25938 Z "/>
	</g>
	<g>
		<ellipse fill="#{color}" cx="88" cy="8" rx="8" ry="8"/>
		<path fill="#FFFFFF" d="M 91.62,10.8533L 90.0937,10.8533L 90.0937,13.2L 88.8333,13.2L 88.8333,10.8533L 83.9933,10.8533L 83.9933,9.71438L 88.7485,2.78667L 90.0937,2.78667L 90.0937,9.66396L 91.62,9.66396L 91.62,10.8533 Z M 88.8333,9.66396L 88.8333,7.16604C 88.8333,6.90327 88.8368,6.62827 88.8436,6.34104C 88.8505,6.05382 88.8589,5.77309 88.8688,5.49886C 88.8788,5.22462 88.8899,4.96834 88.9021,4.73C 88.9143,4.49167 88.9227,4.29306 88.9273,4.13417L 88.8631,4.13417C 88.8295,4.22736 88.7875,4.33125 88.7371,4.44584C 88.6867,4.56042 88.6317,4.675 88.5721,4.78959C 88.5125,4.90417 88.4514,5.01531 88.3887,5.12302C 88.3261,5.23073 88.2688,5.32201 88.2169,5.39688L 85.2675,9.66396L 88.8333,9.66396 Z "/>
	</g>
	<g>
		<ellipse fill="#{color}" cx="104" cy="8" rx="8" ry="8"/>
		<path fill="#FFFFFF" d="M 103.722,6.74667C 104.187,6.74667 104.619,6.81274 105.019,6.9449C 105.42,7.07705 105.769,7.2726 106.067,7.53156C 106.365,7.79052 106.598,8.11174 106.767,8.49521C 106.936,8.87868 107.02,9.3225 107.02,9.82667C 107.02,10.3736 106.939,10.8656 106.777,11.3025C 106.615,11.7394 106.375,12.1092 106.055,12.4117C 105.736,12.7142 105.342,12.9456 104.873,13.106C 104.404,13.2665 103.865,13.3467 103.257,13.3467C 103.014,13.3467 102.775,13.3348 102.539,13.3111C 102.303,13.2875 102.076,13.2527 101.859,13.2069C 101.642,13.161 101.436,13.1026 101.242,13.0316C 101.047,12.9605 100.871,12.8769 100.713,12.7806L 100.713,11.55C 100.871,11.66 101.056,11.7578 101.268,11.8433C 101.48,11.9289 101.703,12.0003 101.937,12.0576C 102.171,12.1149 102.406,12.1592 102.642,12.1905C 102.878,12.2218 103.097,12.2375 103.298,12.2375C 103.674,12.2375 104.01,12.1932 104.307,12.1046C 104.603,12.016 104.854,11.8777 105.058,11.6898C 105.263,11.5019 105.42,11.2662 105.53,10.9828C 105.64,10.6994 105.695,10.3637 105.695,9.97563C 105.695,9.28813 105.489,8.76295 105.076,8.40011C 104.662,8.03726 104.061,7.85583 103.271,7.85583C 103.144,7.85583 103.007,7.86195 102.858,7.87417C 102.71,7.88639 102.562,7.90205 102.414,7.92115C 102.266,7.94024 102.125,7.96049 101.991,7.98188C 101.857,8.00327 101.741,8.02313 101.641,8.04146L 101.007,7.63813L 101.401,2.78667L 106.252,2.78667L 106.252,3.97604L 102.533,3.97604L 102.253,6.88875C 102.403,6.86125 102.601,6.8307 102.847,6.79708C 103.093,6.76347 103.385,6.74667 103.722,6.74667 Z "/>
	</g>
	<g>
		<ellipse fill="#{color}" cx="120" cy="8" rx="8" ry="8"/>
		<path fill="#FFFFFF" d="M 116.7,8.75188C 116.7,8.25382 116.724,7.75768 116.773,7.26344C 116.822,6.7692 116.909,6.29521 117.032,5.84146C 117.156,5.38771 117.325,4.96643 117.539,4.57761C 117.753,4.18879 118.025,3.85038 118.356,3.5624C 118.686,3.27441 119.083,3.04868 119.544,2.88521C 120.005,2.72174 120.546,2.64 121.166,2.64C 121.254,2.64 121.351,2.64229 121.459,2.64688C 121.566,2.65146 121.675,2.66024 121.784,2.67323C 121.893,2.68622 121.998,2.70111 122.098,2.71792C 122.198,2.73472 122.288,2.75535 122.367,2.77979L 122.367,3.92104C 122.207,3.86452 122.025,3.82174 121.822,3.79271C 121.619,3.76368 121.419,3.74917 121.221,3.74917C 120.807,3.74917 120.443,3.80073 120.127,3.90386C 119.812,4.00698 119.539,4.15174 119.309,4.33813C 119.079,4.52452 118.887,4.74681 118.733,5.005C 118.578,5.2632 118.453,5.54889 118.356,5.86208C 118.259,6.17528 118.187,6.50833 118.141,6.86125C 118.096,7.21417 118.066,7.5816 118.052,7.96354L 118.135,7.96354C 118.228,7.7909 118.34,7.62934 118.473,7.47886C 118.605,7.32837 118.759,7.19965 118.934,7.09271C 119.11,6.98576 119.308,6.90135 119.527,6.83948C 119.746,6.7776 119.992,6.74667 120.266,6.74667C 120.706,6.74667 121.104,6.81618 121.46,6.95521C 121.816,7.09424 122.119,7.29781 122.368,7.56594C 122.618,7.83406 122.811,8.16215 122.948,8.55021C 123.085,8.93826 123.153,9.38208 123.153,9.88167C 123.153,10.4179 123.081,10.8999 122.936,11.3277C 122.79,11.7555 122.583,12.1191 122.312,12.4185C 122.042,12.718 121.715,12.9475 121.331,13.1072C 120.948,13.2668 120.518,13.3467 120.041,13.3467C 119.575,13.3467 119.138,13.2542 118.729,13.0694C 118.321,12.8845 117.967,12.6019 117.667,12.2215C 117.368,11.841 117.132,11.3636 116.959,10.7892C 116.786,10.2147 116.7,9.53563 116.7,8.75188 Z M 120.037,12.2375C 120.312,12.2375 120.563,12.1898 120.789,12.0943C 121.016,11.9988 121.212,11.8544 121.377,11.6611C 121.542,11.4679 121.669,11.2231 121.759,10.9267C 121.848,10.6303 121.893,10.2797 121.893,9.87479C 121.893,9.54938 121.855,9.25719 121.779,8.99823C 121.704,8.73927 121.59,8.51889 121.439,8.33708C 121.288,8.15528 121.099,8.01549 120.872,7.91771C 120.645,7.81993 120.38,7.77104 120.078,7.77104C 119.772,7.77104 119.492,7.82566 119.238,7.9349C 118.984,8.04413 118.767,8.18622 118.588,8.36115C 118.41,8.53608 118.271,8.73545 118.172,8.95927C 118.074,9.18309 118.025,9.40653 118.025,9.62958C 118.025,9.94278 118.067,10.2541 118.152,10.5634C 118.237,10.8728 118.363,11.1513 118.53,11.3988C 118.697,11.6462 118.907,11.8479 119.159,12.0038C 119.411,12.1596 119.704,12.2375 120.037,12.2375 Z "/>
	</g>
	<g>
		<ellipse fill="#{color}" cx="136" cy="8" rx="8" ry="8"/>
		<path fill="#FFFFFF" d="M 133.677,13.2L 137.809,3.97604L 132.393,3.97604L 132.393,2.78667L 139.14,2.78667L 139.14,3.82479L 135.065,13.2L 133.677,13.2 Z "/>
	</g>
	<g>
		<ellipse fill="#{color}" cx="152" cy="8" rx="8" ry="8"/>
		<path fill="#FFFFFF" d="M 151.822,2.64C 152.232,2.64 152.618,2.69233 152.98,2.79698C 153.343,2.90163 153.663,3.05861 153.938,3.26792C 154.214,3.47722 154.432,3.73886 154.593,4.05281C 154.753,4.36677 154.833,4.73382 154.833,5.15396C 154.833,5.47174 154.785,5.75934 154.688,6.01677C 154.591,6.2742 154.457,6.50642 154.287,6.71344C 154.116,6.92045 153.914,7.10608 153.681,7.27031C 153.447,7.43455 153.194,7.58313 152.922,7.71604C 153.199,7.86271 153.469,8.0258 153.732,8.20531C 153.996,8.38483 154.231,8.58688 154.438,8.81146C 154.645,9.03604 154.812,9.28774 154.938,9.56656C 155.064,9.84538 155.127,10.1574 155.127,10.5027C 155.127,10.9381 155.046,11.3319 154.886,11.6841C 154.726,12.0362 154.5,12.3353 154.21,12.5813C 153.92,12.8272 153.572,13.0163 153.167,13.1484C 152.762,13.2806 152.316,13.3467 151.827,13.3467C 151.3,13.3467 150.831,13.2829 150.421,13.1553C 150.011,13.0277 149.665,12.8444 149.385,12.6053C 149.105,12.3662 148.891,12.0744 148.745,11.7299C 148.6,11.3854 148.527,10.9954 148.527,10.56C 148.527,10.2056 148.58,9.88663 148.686,9.60323C 148.792,9.31983 148.935,9.06469 149.116,8.83781C 149.296,8.61094 149.509,8.41004 149.754,8.23511C 149.999,8.06017 150.259,7.90625 150.534,7.77333C 150.296,7.62514 150.072,7.46434 149.863,7.29094C 149.653,7.11754 149.472,6.92389 149.32,6.71C 149.167,6.49611 149.045,6.25931 148.955,5.99958C 148.865,5.73986 148.82,5.45264 148.82,5.13792C 148.82,4.72389 148.902,4.36104 149.065,4.04938C 149.229,3.73771 149.449,3.47722 149.726,3.26792C 150.004,3.05861 150.324,2.90163 150.687,2.79698C 151.049,2.69233 151.428,2.64 151.822,2.64 Z M 149.787,10.5554C 149.787,10.8029 149.826,11.0306 149.904,11.2383C 149.982,11.4461 150.103,11.6237 150.267,11.7711C 150.431,11.9186 150.64,12.0332 150.892,12.1149C 151.144,12.1966 151.445,12.2375 151.795,12.2375C 152.134,12.2375 152.433,12.1966 152.692,12.1149C 152.951,12.0332 153.168,11.9163 153.343,11.7643C 153.518,11.6123 153.649,11.4285 153.736,11.2131C 153.823,10.9977 153.866,10.7594 153.866,10.4981C 153.866,10.2552 153.819,10.0356 153.724,9.83927C 153.629,9.64295 153.494,9.46076 153.317,9.29271C 153.141,9.12465 152.929,8.96576 152.681,8.81604C 152.434,8.66632 152.157,8.51889 151.852,8.37375L 151.634,8.27521C 151.023,8.55632 150.562,8.87792 150.252,9.24C 149.942,9.60208 149.787,10.0406 149.787,10.5554 Z M 151.808,3.74917C 151.28,3.74917 150.86,3.87445 150.548,4.125C 150.236,4.37556 150.08,4.73917 150.08,5.21583C 150.08,5.48472 150.124,5.71618 150.211,5.91021C 150.298,6.10424 150.419,6.27688 150.574,6.42813C 150.729,6.57938 150.915,6.71535 151.131,6.83604C 151.347,6.95674 151.583,7.07361 151.838,7.18667C 152.078,7.08278 152.304,6.96934 152.515,6.84636C 152.727,6.72337 152.911,6.58396 153.069,6.42813C 153.226,6.27229 153.349,6.09507 153.439,5.89646C 153.528,5.69785 153.573,5.47097 153.573,5.21583C 153.573,4.73917 153.416,4.37556 153.102,4.125C 152.788,3.87445 152.357,3.74917 151.808,3.74917 Z "/>
	</g>
	<g>
		<ellipse fill="#{color}" cx="168" cy="8" rx="8" ry="8"/>
		<path fill="#FFFFFF" d="M 171.113,7.17063C 171.113,7.66257 171.088,8.15337 171.038,8.64302C 170.987,9.13268 170.899,9.60017 170.773,10.0455C 170.647,10.4909 170.474,10.9068 170.255,11.2933C 170.036,11.6799 169.757,12.0133 169.417,12.2936C 169.078,12.574 168.673,12.7951 168.201,12.9571C 167.729,13.119 167.175,13.2 166.539,13.2C 166.449,13.2 166.349,13.1977 166.239,13.1931C 166.129,13.1885 166.019,13.1805 165.91,13.1691C 165.801,13.1576 165.694,13.145 165.588,13.1313C 165.483,13.1175 165.389,13.0992 165.309,13.0763L 165.309,11.9969C 165.475,12.058 165.664,12.1031 165.875,12.1321C 166.085,12.1611 166.293,12.1756 166.498,12.1756C 167.144,12.1756 167.675,12.0656 168.091,11.8456C 168.506,11.6256 168.836,11.3273 169.079,10.9507C 169.323,10.5741 169.496,10.1338 169.599,9.62958C 169.701,9.12542 169.764,8.58917 169.789,8.02083L 169.695,8.02083C 169.6,8.19347 169.486,8.35389 169.352,8.50208C 169.218,8.65028 169.061,8.77899 168.879,8.88823C 168.697,8.99747 168.492,9.0834 168.262,9.14604C 168.033,9.20868 167.777,9.24 167.495,9.24C 167.041,9.24 166.63,9.17049 166.262,9.03146C 165.894,8.89243 165.581,8.68924 165.323,8.42188C 165.066,8.15451 164.867,7.82681 164.725,7.43875C 164.584,7.05069 164.513,6.60764 164.513,6.10958C 164.513,5.57333 164.589,5.09018 164.739,4.66011C 164.89,4.23004 165.102,3.86566 165.376,3.56698C 165.65,3.2683 165.984,3.03913 166.378,2.87948C 166.771,2.71983 167.211,2.64 167.699,2.64C 168.182,2.64 168.63,2.73129 169.045,2.91386C 169.46,3.09643 169.82,3.37525 170.126,3.75031C 170.431,4.12538 170.672,4.59747 170.849,5.16656C 171.025,5.73566 171.113,6.40368 171.113,7.17063 Z M 167.712,3.74917C 167.425,3.74917 167.163,3.79576 166.926,3.88896C 166.69,3.98215 166.485,4.12653 166.312,4.32209C 166.14,4.51764 166.007,4.76361 165.914,5.06C 165.82,5.35639 165.774,5.70702 165.774,6.11188C 165.774,6.43729 165.813,6.72948 165.892,6.98844C 165.97,7.2474 166.089,7.46778 166.247,7.64958C 166.405,7.83139 166.603,7.97118 166.84,8.06896C 167.078,8.16674 167.355,8.21563 167.671,8.21563C 167.997,8.21563 168.291,8.16101 168.555,8.05177C 168.818,7.94254 169.043,7.80045 169.23,7.62552C 169.416,7.45059 169.561,7.25122 169.664,7.0274C 169.767,6.80358 169.819,6.58014 169.819,6.35709C 169.819,6.04389 169.774,5.7326 169.686,5.42323C 169.597,5.11386 169.465,4.83427 169.29,4.58448C 169.115,4.33469 168.896,4.13302 168.633,3.97948C 168.369,3.82594 168.062,3.74917 167.712,3.74917 Z "/>
	</g>
	<g></g>
</svg>
