<?xml version="1.0" encoding="utf-8"?>
<!DOCTYPE svg PUBLIC "-//W3C//DTD SVG 1.1//EN" "http://www.w3.org/Graphics/SVG/1.1/DTD/svg11.dtd">
<svg xmlns="http://www.w3.org/2000/svg" xmlns:xlink="http://www.w3.org/1999/xlink" version="1.1" baseProfile="full" width="192" height="16" viewBox="0 0 192.00 16.00" enable-background="new 0 0 192.00 16.00" xml:space="preserve">
	<g>
		<rect x="15" y="0" fill="#{color}" width="1" height="16"/>
	</g>
	<g>
		<rect x="16" y="0" fill="#FFFFFF" width="16" height="16"/>
		<rect x="16" y="0" fill="#{color}" width="16" height="0.999999"/>
		<rect x="16" y="15" fill="#{color}" width="16" height="1"/>
		<path fill="#{color}" d="M 27.3333,8.08875C 27.3333,8.92903 27.2734,9.68108 27.1534,10.3449C 27.0335,11.0087 26.8402,11.5706 26.5736,12.0304C 26.307,12.4903 25.9641,12.8413 25.5447,13.0834C 25.1253,13.3256 24.6169,13.4467 24.0196,13.4467C 23.4635,13.4467 22.9792,13.3256 22.5667,13.0834C 22.1542,12.8413 21.8127,12.4903 21.5423,12.0304C 21.2719,11.5706 21.0694,11.0087 20.935,10.3449C 20.8006,9.68108 20.7333,8.92903 20.7333,8.08875C 20.7333,7.25 20.7933,6.49872 20.9132,5.8349C 21.0332,5.17108 21.2241,4.61038 21.4861,4.15281C 21.7482,3.69524 22.0873,3.34538 22.5036,3.10323C 22.92,2.86108 23.4253,2.74 24.0196,2.74C 24.5803,2.74 25.0676,2.85993 25.4817,3.09979C 25.8957,3.33965 26.2394,3.68837 26.5129,4.14594C 26.7864,4.60351 26.9915,5.1642 27.1282,5.82802C 27.265,6.49184 27.3333,7.24542 27.3333,8.08875 Z M 22.0579,8.08646C 22.0579,8.79688 22.0931,9.41754 22.1633,9.94844C 22.2336,10.4793 22.3455,10.9213 22.4991,11.2742C 22.6526,11.6271 22.8539,11.8925 23.1029,12.0705C 23.3519,12.2485 23.656,12.3375 24.015,12.3375C 24.374,12.3375 24.6796,12.2497 24.9317,12.074C 25.1837,11.8983 25.39,11.6351 25.5504,11.2845C 25.7108,10.9339 25.8273,10.4919 25.8999,9.95875C 25.9725,9.42556 26.0087,8.80146 26.0087,8.08646C 26.0087,7.37604 25.9725,6.75538 25.8999,6.22448C 25.8273,5.69358 25.7108,5.25281 25.5504,4.90219C 25.39,4.55156 25.1837,4.2884 24.9317,4.11271C 24.6796,3.93701 24.374,3.84917 24.015,3.84917C 23.656,3.84917 23.3519,3.93701 23.1029,4.11271C 22.8539,4.2884 22.6526,4.55156 22.4991,4.90219C 22.3455,5.25281 22.2336,5.69358 22.1633,6.22448C 22.0931,6.75538 22.0579,7.37604 22.0579,8.08646 Z "/>
	</g>
	<g>
		<rect x="32" y="0" fill="#FFFFFF" width="16" height="16"/>
		<rect x="32" y="0" fill="#{color}" width="16" height="0.999999"/>
		<rect x="32" y="15" fill="#{color}" width="16" height="1"/>
		<path fill="#{color}" d="M 41.0604,13.3L 39.8,13.3L 39.8,6.86271C 39.8,6.65952 39.8011,6.44257 39.8034,6.21188C 39.8057,5.98118 39.8103,5.75011 39.8172,5.51865C 39.8241,5.28719 39.8313,5.06528 39.839,4.85292C 39.8466,4.64056 39.8527,4.4534 39.8573,4.29146C 39.7778,4.37701 39.7076,4.45073 39.6465,4.5126C 39.5853,4.57448 39.5235,4.63406 39.4608,4.69136C 39.3982,4.74865 39.3321,4.80976 39.2626,4.87469C 39.1931,4.93962 39.1094,5.01486 39.0117,5.10042L 37.9781,5.96667L 37.3067,5.06833L 39.9856,2.88667L 41.0604,2.88667L 41.0604,13.3 Z "/>
	</g>
	<g>
		<rect x="48" y="0" fill="#FFFFFF" width="16" height="16"/>
		<rect x="48" y="0" fill="#{color}" width="16" height="1"/>
		<rect x="48" y="15" fill="#{color}" width="16" height="1"/>
		<path fill="#{color}" d="M 59.1348,13.3L 52.7067,13.3L 52.7067,12.1817L 55.1565,9.47062C 55.5063,9.08715 55.8187,8.73653 56.0937,8.41875C 56.3687,8.10097 56.6033,7.79007 56.7973,7.48604C 56.9913,7.18201 57.1395,6.87722 57.2419,6.57167C 57.3442,6.26611 57.3954,5.93306 57.3954,5.5725C 57.3954,5.29445 57.3561,5.04962 57.2774,4.83802C 57.1987,4.62642 57.0864,4.44653 56.9405,4.29833C 56.7946,4.15014 56.6224,4.03823 56.4237,3.9626C 56.2251,3.88698 56.0036,3.84917 55.7592,3.84917C 55.3192,3.84917 54.9223,3.94045 54.5686,4.12302C 54.215,4.30559 53.8792,4.53896 53.5615,4.82312L 52.8533,3.97063C 53.0397,3.79951 53.2402,3.63872 53.4549,3.48823C 53.6695,3.33774 53.9002,3.2075 54.147,3.0975C 54.3937,2.9875 54.6546,2.90042 54.9296,2.83625C 55.2046,2.77208 55.4941,2.74 55.7981,2.74C 56.2442,2.74 56.6479,2.80417 57.0093,2.9325C 57.3706,3.06083 57.6773,3.24455 57.9294,3.48365C 58.1815,3.72274 58.3762,4.01417 58.5137,4.35792C 58.6512,4.70167 58.72,5.08972 58.72,5.52208C 58.72,5.92542 58.6581,6.30965 58.5344,6.67479C 58.4106,7.03993 58.2403,7.39934 58.0233,7.75302C 57.8064,8.1067 57.5474,8.46115 57.2465,8.81635C 56.9455,9.17156 56.6201,9.54167 56.2702,9.92667L 54.304,12.0533L 54.32,12.1106L 59.1348,12.1106L 59.1348,13.3 Z "/>
	</g>
	<g>
		<rect x="64" y="0" fill="#FFFFFF" width="16" height="16"/>
		<rect x="64" y="0" fill="#{color}" width="16" height="0.999999"/>
		<rect x="64" y="15" fill="#{color}" width="16" height="1"/>
		<path fill="#{color}" d="M 74.8533,5.35938C 74.8533,5.70924 74.7983,6.02854 74.6883,6.31729C 74.5783,6.60604 74.4244,6.85622 74.2266,7.06781C 74.0287,7.27941 73.7915,7.45358 73.515,7.59031C 73.2385,7.72705 72.9306,7.82444 72.5915,7.8825L 72.5915,7.92604C 73.4363,8.02993 74.0734,8.29424 74.5027,8.71896C 74.932,9.14368 75.1467,9.69597 75.1467,10.3758C 75.1467,10.8265 75.0691,11.2398 74.9141,11.6156C 74.759,11.9915 74.5245,12.3153 74.2105,12.5873C 73.8966,12.8592 73.499,13.0705 73.0177,13.2209C 72.5365,13.3714 71.9674,13.4467 71.3104,13.4467C 70.791,13.4467 70.3017,13.4062 69.8426,13.3252C 69.3835,13.2442 68.9515,13.096 68.5467,12.8806L 68.5467,11.6637C 68.9622,11.8792 69.4121,12.0453 69.8965,12.1622C 70.3808,12.2791 70.8444,12.3375 71.2875,12.3375C 71.7275,12.3375 72.1072,12.2913 72.4265,12.1989C 72.7458,12.1064 73.0093,11.9747 73.2171,11.8035C 73.4249,11.6324 73.5776,11.422 73.6754,11.1722C 73.7732,10.9224 73.8221,10.6424 73.8221,10.3323C 73.8221,10.0176 73.7591,9.7483 73.633,9.52448C 73.507,9.30066 73.3278,9.1158 73.0956,8.9699C 72.8634,8.82399 72.5796,8.71629 72.2443,8.64677C 71.9089,8.57726 71.5297,8.5425 71.1065,8.5425L 70.16,8.5425L 70.16,7.43333L 71.1156,7.43333C 71.5037,7.43333 71.8486,7.38521 72.1503,7.28896C 72.452,7.19271 72.7045,7.05597 72.9077,6.87875C 73.1109,6.70153 73.2652,6.49069 73.3706,6.24625C 73.476,6.00181 73.5287,5.73292 73.5287,5.43958C 73.5287,5.19056 73.4852,4.9675 73.3981,4.77042C 73.311,4.57333 73.1877,4.40642 73.028,4.26969C 72.8684,4.13295 72.677,4.02868 72.454,3.95687C 72.2309,3.88507 71.9842,3.84917 71.7138,3.84917C 71.1958,3.84917 70.7394,3.92861 70.3445,4.0875C 69.9495,4.24639 69.5733,4.4534 69.2158,4.70854L 68.5467,3.81479C 68.73,3.6666 68.9336,3.52795 69.1574,3.39885C 69.3812,3.26976 69.6257,3.15632 69.8907,3.05854C 70.1558,2.96076 70.4388,2.88323 70.7398,2.82594C 71.0408,2.76865 71.3593,2.74 71.6954,2.74C 72.2164,2.74 72.6732,2.80493 73.0658,2.93479C 73.4585,3.06465 73.7869,3.24608 74.0512,3.47906C 74.3156,3.71205 74.5153,3.98858 74.6505,4.30865C 74.7857,4.62872 74.8533,4.97896 74.8533,5.35938 Z "/>
	</g>
	<g>
		<rect x="80" y="0" fill="#FFFFFF" width="16" height="16"/>
		<rect x="80" y="0" fill="#{color}" width="16" height="0.999999"/>
		<rect x="80" y="15" fill="#{color}" width="16" height="1"/>
		<path fill="#{color}" d="M 91.72,10.9533L 90.1937,10.9533L 90.1937,13.3L 88.9333,13.3L 88.9333,10.9533L 84.0933,10.9533L 84.0933,9.81437L 88.8485,2.88667L 90.1937,2.88667L 90.1937,9.76396L 91.72,9.76396L 91.72,10.9533 Z M 88.9333,9.76396L 88.9333,7.26604C 88.9333,7.00327 88.9368,6.72826 88.9436,6.44104C 88.9505,6.15382 88.9589,5.87309 88.9688,5.59886C 88.9788,5.32462 88.9899,5.06833 89.0021,4.83C 89.0143,4.59167 89.0227,4.39306 89.0273,4.23417L 88.9631,4.23417C 88.9295,4.32736 88.8875,4.43125 88.8371,4.54583C 88.7867,4.66042 88.7317,4.775 88.6721,4.88958C 88.6125,5.00417 88.5514,5.11531 88.4887,5.22302C 88.4261,5.33073 88.3688,5.42202 88.3169,5.49688L 85.3675,9.76396L 88.9333,9.76396 Z "/>
	</g>
	<g>
		<rect x="96" y="0" fill="#FFFFFF" width="16" height="16"/>
		<rect x="96" y="0" fill="#{color}" width="16" height="1"/>
		<rect x="96" y="15" fill="#{color}" width="16" height="1"/>
		<path fill="#{color}" d="M 103.822,6.84667C 104.287,6.84667 104.719,6.91274 105.119,7.0449C 105.52,7.17705 105.869,7.3726 106.167,7.63156C 106.465,7.89052 106.698,8.21174 106.867,8.59521C 107.036,8.97868 107.12,9.4225 107.12,9.92667C 107.12,10.4736 107.039,10.9656 106.877,11.4025C 106.715,11.8394 106.475,12.2092 106.155,12.5117C 105.836,12.8142 105.442,13.0456 104.973,13.206C 104.504,13.3665 103.965,13.4467 103.357,13.4467C 103.114,13.4467 102.875,13.4348 102.639,13.4111C 102.403,13.3875 102.176,13.3527 101.959,13.3069C 101.742,13.261 101.536,13.2026 101.342,13.1316C 101.147,13.0605 100.971,12.9769 100.813,12.8806L 100.813,11.65C 100.971,11.76 101.156,11.8578 101.368,11.9433C 101.58,12.0289 101.803,12.1003 102.037,12.1576C 102.271,12.2149 102.506,12.2592 102.742,12.2905C 102.978,12.3218 103.197,12.3375 103.398,12.3375C 103.774,12.3375 104.11,12.2932 104.407,12.2046C 104.703,12.116 104.954,11.9777 105.158,11.7898C 105.363,11.6019 105.52,11.3662 105.63,11.0828C 105.74,10.7994 105.795,10.4637 105.795,10.0756C 105.795,9.38812 105.589,8.86295 105.176,8.5001C 104.762,8.13726 104.161,7.95583 103.371,7.95583C 103.244,7.95583 103.107,7.96195 102.958,7.97417C 102.81,7.98639 102.662,8.00205 102.514,8.02115C 102.366,8.04024 102.225,8.06049 102.091,8.08187C 101.957,8.10326 101.841,8.12313 101.741,8.14146L 101.107,7.73813L 101.501,2.88667L 106.352,2.88667L 106.352,4.07604L 102.633,4.07604L 102.353,6.98875C 102.503,6.96125 102.701,6.93069 102.947,6.89708C 103.193,6.86347 103.485,6.84667 103.822,6.84667 Z "/>
	</g>
	<g>
		<rect x="112" y="0" fill="#FFFFFF" width="16" height="16"/>
		<rect x="112" y="0" fill="#{color}" width="16" height="0.999999"/>
		<rect x="112" y="15" fill="#{color}" width="16" height="1"/>
		<path fill="#{color}" d="M 116.8,8.85188C 116.8,8.35382 116.824,7.85767 116.873,7.36344C 116.922,6.8692 117.009,6.39521 117.132,5.94146C 117.256,5.48771 117.425,5.06642 117.639,4.6776C 117.853,4.28878 118.125,3.95038 118.456,3.6624C 118.786,3.37441 119.183,3.14868 119.644,2.98521C 120.105,2.82174 120.646,2.74 121.266,2.74C 121.354,2.74 121.451,2.74229 121.559,2.74688C 121.666,2.75146 121.775,2.76024 121.884,2.77323C 121.993,2.78622 122.098,2.80111 122.198,2.81792C 122.298,2.83472 122.388,2.85535 122.467,2.87979L 122.467,4.02104C 122.307,3.96451 122.125,3.92174 121.922,3.89271C 121.719,3.86368 121.519,3.84917 121.321,3.84917C 120.907,3.84917 120.543,3.90073 120.227,4.00385C 119.912,4.10698 119.639,4.25174 119.409,4.43813C 119.179,4.62451 118.987,4.84681 118.833,5.105C 118.678,5.36319 118.553,5.64889 118.456,5.96208C 118.359,6.27528 118.287,6.60833 118.241,6.96125C 118.196,7.31417 118.166,7.6816 118.152,8.06354L 118.235,8.06354C 118.328,7.8909 118.44,7.72934 118.573,7.57885C 118.705,7.42837 118.859,7.29965 119.034,7.19271C 119.21,7.08576 119.408,7.00135 119.627,6.93948C 119.846,6.8776 120.092,6.84667 120.366,6.84667C 120.806,6.84667 121.204,6.91618 121.56,7.05521C 121.916,7.19424 122.219,7.39781 122.468,7.66594C 122.718,7.93406 122.911,8.26215 123.048,8.65021C 123.185,9.03826 123.253,9.48208 123.253,9.98167C 123.253,10.5179 123.181,10.9999 123.036,11.4277C 122.89,11.8555 122.683,12.2191 122.412,12.5185C 122.142,12.818 121.815,13.0475 121.431,13.2072C 121.048,13.3668 120.618,13.4467 120.141,13.4467C 119.675,13.4467 119.238,13.3542 118.829,13.1694C 118.421,12.9845 118.067,12.7019 117.767,12.3215C 117.468,11.941 117.232,11.4636 117.059,10.8892C 116.886,10.3147 116.8,9.63563 116.8,8.85188 Z M 120.137,12.3375C 120.412,12.3375 120.663,12.2898 120.889,12.1943C 121.116,12.0988 121.312,11.9544 121.477,11.7611C 121.642,11.5679 121.769,11.3231 121.859,11.0267C 121.948,10.7303 121.993,10.3797 121.993,9.97479C 121.993,9.64938 121.955,9.35719 121.879,9.09823C 121.804,8.83927 121.69,8.61889 121.539,8.43708C 121.388,8.25528 121.199,8.11549 120.972,8.01771C 120.745,7.91993 120.48,7.87104 120.178,7.87104C 119.872,7.87104 119.592,7.92566 119.338,8.0349C 119.084,8.14413 118.867,8.28621 118.688,8.46115C 118.51,8.63608 118.371,8.83545 118.272,9.05927C 118.174,9.28309 118.125,9.50653 118.125,9.72958C 118.125,10.0428 118.167,10.3541 118.252,10.6634C 118.337,10.9728 118.463,11.2513 118.63,11.4988C 118.797,11.7463 119.007,11.9479 119.259,12.1038C 119.511,12.2596 119.804,12.3375 120.137,12.3375 Z "/>
	</g>
	<g>
		<rect x="128" y="0" fill="#FFFFFF" width="16" height="16"/>
		<rect x="128" y="0" fill="#{color}" width="16" height="1"/>
		<rect x="128" y="15" fill="#{color}" width="16" height="1"/>
		<path fill="#{color}" d="M 133.777,13.3L 137.909,4.07604L 132.493,4.07604L 132.493,2.88667L 139.24,2.88667L 139.24,3.92479L 135.165,13.3L 133.777,13.3 Z "/>
	</g>
	<g>
		<rect x="144" y="0" fill="#FFFFFF" width="16" height="16"/>
		<rect x="144" y="0" fill="#{color}" width="16" height="1"/>
		<rect x="144" y="15" fill="#{color}" width="16" height="1"/>
		<path fill="#{color}" d="M 151.922,2.74C 152.332,2.74 152.718,2.79233 153.081,2.89698C 153.443,3.00163 153.763,3.15861 154.038,3.36792C 154.314,3.57722 154.532,3.83885 154.693,4.15281C 154.853,4.46677 154.933,4.83382 154.933,5.25396C 154.933,5.57174 154.885,5.85934 154.788,6.11677C 154.691,6.3742 154.557,6.60642 154.387,6.81344C 154.216,7.02045 154.014,7.20608 153.781,7.37031C 153.547,7.53455 153.294,7.68313 153.022,7.81604C 153.299,7.96271 153.569,8.1258 153.832,8.30531C 154.096,8.48483 154.331,8.68688 154.538,8.91146C 154.745,9.13604 154.912,9.38774 155.038,9.66656C 155.164,9.94538 155.227,10.2574 155.227,10.6027C 155.227,11.0381 155.146,11.4319 154.986,11.7841C 154.826,12.1362 154.6,12.4353 154.31,12.6813C 154.02,12.9272 153.672,13.1163 153.267,13.2484C 152.862,13.3806 152.416,13.4467 151.927,13.4467C 151.4,13.4467 150.931,13.3829 150.521,13.2553C 150.111,13.1277 149.765,12.9444 149.485,12.7053C 149.205,12.4662 148.991,12.1744 148.846,11.8299C 148.7,11.4854 148.627,11.0954 148.627,10.66C 148.627,10.3056 148.68,9.98663 148.786,9.70323C 148.892,9.41983 149.035,9.16469 149.216,8.93781C 149.396,8.71094 149.609,8.51003 149.854,8.3351C 150.099,8.16017 150.359,8.00625 150.634,7.87333C 150.396,7.72514 150.172,7.56434 149.963,7.39094C 149.753,7.21754 149.572,7.02389 149.42,6.81C 149.267,6.59611 149.145,6.35931 149.055,6.09958C 148.965,5.83986 148.92,5.55264 148.92,5.23792C 148.92,4.82389 149.002,4.46104 149.165,4.14938C 149.329,3.83771 149.549,3.57722 149.826,3.36792C 150.104,3.15861 150.424,3.00163 150.787,2.89698C 151.149,2.79233 151.528,2.74 151.922,2.74 Z M 149.887,10.6554C 149.887,10.9029 149.926,11.1306 150.004,11.3383C 150.082,11.5461 150.203,11.7237 150.367,11.8711C 150.531,12.0186 150.74,12.1332 150.992,12.2149C 151.244,12.2966 151.545,12.3375 151.895,12.3375C 152.234,12.3375 152.533,12.2966 152.792,12.2149C 153.051,12.1332 153.268,12.0163 153.443,11.8643C 153.618,11.7123 153.749,11.5285 153.836,11.3131C 153.923,11.0977 153.966,10.8594 153.966,10.5981C 153.966,10.3552 153.919,10.1356 153.824,9.93927C 153.729,9.74295 153.594,9.56076 153.417,9.39271C 153.241,9.22465 153.029,9.06576 152.781,8.91604C 152.534,8.76632 152.257,8.61889 151.952,8.47375L 151.734,8.37521C 151.123,8.65632 150.662,8.97792 150.352,9.34C 150.042,9.70208 149.887,10.1406 149.887,10.6554 Z M 151.908,3.84917C 151.38,3.84917 150.96,3.97445 150.648,4.225C 150.336,4.47556 150.18,4.83917 150.18,5.31583C 150.18,5.58472 150.224,5.81618 150.311,6.01021C 150.398,6.20424 150.519,6.37688 150.674,6.52813C 150.829,6.67938 151.015,6.81535 151.231,6.93604C 151.447,7.05674 151.683,7.17361 151.938,7.28667C 152.178,7.18278 152.404,7.06934 152.615,6.94635C 152.827,6.82337 153.011,6.68396 153.169,6.52813C 153.326,6.37229 153.449,6.19507 153.539,5.99646C 153.628,5.79785 153.673,5.57097 153.673,5.31583C 153.673,4.83917 153.516,4.47556 153.202,4.225C 152.888,3.97445 152.457,3.84917 151.908,3.84917 Z "/>
	</g>
	<g>
		<rect x="160" y="0" fill="#FFFFFF" width="16" height="16"/>
		<rect x="160" y="0" fill="#{color}" width="16" height="1"/>
		<rect x="160" y="15" fill="#{color}" width="16" height="1"/>
		<path fill="#{color}" d="M 171.213,7.27063C 171.213,7.76257 171.188,8.25337 171.138,8.74302C 171.087,9.23267 170.999,9.70017 170.873,10.1455C 170.747,10.5909 170.574,11.0068 170.355,11.3933C 170.136,11.7799 169.857,12.1133 169.517,12.3936C 169.178,12.674 168.773,12.8951 168.301,13.0571C 167.829,13.219 167.275,13.3 166.639,13.3C 166.549,13.3 166.449,13.2977 166.339,13.2931C 166.229,13.2885 166.119,13.2805 166.01,13.2691C 165.901,13.2576 165.794,13.245 165.688,13.2312C 165.583,13.2175 165.49,13.1992 165.409,13.1763L 165.409,12.0969C 165.575,12.158 165.764,12.2031 165.975,12.2321C 166.185,12.2611 166.393,12.2756 166.598,12.2756C 167.244,12.2756 167.775,12.1656 168.191,11.9456C 168.606,11.7256 168.936,11.4273 169.179,11.0507C 169.423,10.6741 169.596,10.2338 169.699,9.72958C 169.801,9.22542 169.864,8.68917 169.889,8.12083L 169.795,8.12083C 169.7,8.29347 169.586,8.45389 169.452,8.60208C 169.318,8.75028 169.161,8.87899 168.979,8.98823C 168.797,9.09747 168.592,9.1834 168.362,9.24604C 168.133,9.30868 167.877,9.34 167.595,9.34C 167.141,9.34 166.73,9.27049 166.362,9.13146C 165.994,8.99243 165.681,8.78924 165.423,8.52188C 165.166,8.25451 164.967,7.92681 164.825,7.53875C 164.684,7.15069 164.613,6.70764 164.613,6.20958C 164.613,5.67333 164.689,5.19017 164.839,4.76011C 164.99,4.33004 165.202,3.96566 165.476,3.66698C 165.75,3.3683 166.084,3.13913 166.478,2.97948C 166.871,2.81983 167.311,2.74 167.799,2.74C 168.282,2.74 168.73,2.83128 169.145,3.01385C 169.56,3.19642 169.92,3.47524 170.226,3.85031C 170.531,4.22538 170.772,4.69746 170.949,5.26656C 171.125,5.83566 171.213,6.50368 171.213,7.27063 Z M 167.812,3.84917C 167.525,3.84917 167.263,3.89576 167.026,3.98896C 166.79,4.08215 166.585,4.22653 166.412,4.42208C 166.24,4.61764 166.107,4.86361 166.014,5.16C 165.92,5.45639 165.874,5.80701 165.874,6.21188C 165.874,6.53729 165.913,6.82948 165.992,7.08844C 166.07,7.3474 166.189,7.56778 166.347,7.74958C 166.505,7.93139 166.703,8.07118 166.941,8.16896C 167.178,8.26674 167.455,8.31563 167.771,8.31563C 168.097,8.31563 168.391,8.26101 168.655,8.15177C 168.918,8.04254 169.143,7.90045 169.33,7.72552C 169.516,7.55059 169.661,7.35122 169.764,7.1274C 169.867,6.90358 169.919,6.68014 169.919,6.45708C 169.919,6.14389 169.874,5.8326 169.786,5.52323C 169.697,5.21385 169.565,4.93427 169.39,4.68448C 169.215,4.43469 168.996,4.23302 168.733,4.07948C 168.469,3.92594 168.162,3.84917 167.812,3.84917 Z "/>
	</g>
	<g>
	<rect x="176" y="0" fill="#{color}" width="1" height="16"/>
	</g>
</svg>
