<?xml version="1.0" encoding="utf-8"?>
<!DOCTYPE svg PUBLIC "-//W3C//DTD SVG 1.1//EN" "http://www.w3.org/Graphics/SVG/1.1/DTD/svg11.dtd">
<svg xmlns="http://www.w3.org/2000/svg" xmlns:xlink="http://www.w3.org/1999/xlink" version="1.1" baseProfile="full" width="32" height="32" viewBox="0 0 32.00 32.00" enable-background="new 0 0 32.00 32.00" xml:space="preserve">
	<path fill="#{color}" d="M 16,1C 24.2843,1 31,7.71573 31,16C 31,24.2843 24.2843,31 16,31C 7.71573,31 1,24.2843 1,16C 1,7.71573 7.71573,1 16,1 Z M 15.7095,6.38152C 15.1503,5.82234 14.2437,5.82234 13.6845,6.38152C 13.1253,6.94069 13.1253,7.84729 13.6845,8.40646L 21.2781,16L 13.6845,23.5935C 13.1254,24.1527 13.1254,25.0593 13.6845,25.6185C 14.2437,26.1777 15.1503,26.1777 15.7095,25.6185L 24.3155,17.0125C 24.8747,16.4533 24.8747,15.5467 24.3155,14.9875L 15.7095,6.38152 Z "/>
</svg>
