<?xml version="1.0" encoding="utf-8"?>
<!DOCTYPE svg PUBLIC "-//W3C//DTD SVG 1.1//EN" "http://www.w3.org/Graphics/SVG/1.1/DTD/svg11.dtd">
<svg xmlns="http://www.w3.org/2000/svg" xmlns:xlink="http://www.w3.org/1999/xlink" version="1.1" baseProfile="full" width="32" height="32" viewBox="0 0 32.00 32.00" enable-background="new 0 0 32.00 32.00" xml:space="preserve">
	<path fill="#{color}" fill-opacity="1" stroke-width="1.33333" stroke-linejoin="miter" d="M 25.7534,32L 12.6994,32C 12.0907,32 11.6172,31.5343 11.6172,30.9356C 11.6172,29.2723 10.8056,28.3409 9.58811,26.8773C 8.91173,26.079 8.16772,25.1476 7.4237,24.0166C 5.39457,20.7567 3.56837,17.0312 3.16257,15.5675C 2.75672,14.1039 3.02728,13.2391 3.43309,12.7069C 3.90654,12.0416 4.7182,11.7089 5.66514,11.7089C 6.95025,11.7089 8.30299,12.7734 9.45282,14.1705L 9.45282,3.19334C 9.45282,1.39705 10.9409,0 12.6994,0C 14.458,0 15.946,1.46362 15.946,3.19334L 15.946,7.65072C 16.2842,7.51766 16.6224,7.45116 17.0282,7.45116C 18.178,7.45116 19.1927,8.04987 19.8014,8.91475C 20.2748,8.64866 20.8159,8.5156 21.4246,8.5156C 22.9127,8.5156 24.1977,9.5135 24.5359,10.8441C 24.8741,10.711 25.28,10.6445 25.7534,10.6445C 27.5796,10.6445 29,12.1081 29,13.8379L 29,17.0312C 29,19.7589 28.4589,22.0208 27.9179,24.1497C 27.3768,26.3451 26.8356,28.3409 26.8356,30.8691C 26.8356,31.4677 26.3621,32 25.7534,32 Z M 13.7816,29.871L 24.7389,29.871C 24.8741,27.5426 25.3476,25.6133 25.8211,23.684C 26.3621,21.555 26.8356,19.4927 26.8356,17.0312L 26.8356,13.6382C 26.8356,13.0395 26.3621,12.5738 25.7534,12.5738C 25.1446,12.5738 24.6713,13.0395 24.6713,13.6382L 24.6713,14.9023C 24.6713,15.501 24.1977,15.9667 23.589,15.9667C 22.9803,15.9667 22.5068,15.501 22.5068,14.9023L 22.5068,11.5093C 22.5068,10.9106 22.0334,10.4449 21.4246,10.4449C 20.8159,10.4449 20.3424,10.9106 20.3424,11.5093L 20.3424,13.8378C 20.3424,14.4365 19.869,14.9023 19.2603,14.9023C 18.6515,14.9023 18.178,14.4365 18.178,13.8378L 18.178,10.4449C 18.178,9.84613 17.7045,9.38041 17.0958,9.38041C 16.487,9.38041 16.0136,9.84613 16.0136,10.4449L 16.0136,12.7733C 16.0136,13.3721 15.5402,13.8378 14.9314,13.8378C 14.3227,13.8378 13.8492,13.3721 13.8492,12.7733L 13.8492,2.92722C 13.8492,2.32847 13.3758,1.86275 12.767,1.86275C 12.1582,1.86275 11.6848,2.32847 11.6848,2.92722L 11.6848,19.16C 11.6848,19.7588 11.2113,20.2245 10.6026,20.2245C 9.99388,20.2245 9.52039,19.7588 9.52039,19.16L 9.52039,18.2952C 8.57349,15.8336 6.40908,13.7048 5.73271,13.7048C 5.46214,13.7048 5.32687,13.7713 5.25926,13.9708C 5.19162,14.1039 5.12397,14.4366 5.25926,14.9023C 5.59743,16.0332 7.28838,19.4927 9.38515,22.8856C 10.0615,23.9501 10.7379,24.7484 11.4142,25.5467C 12.4965,26.8773 13.4434,28.0748 13.7816,29.871 Z "/>
</svg>
