<?xml version="1.0" encoding="utf-8"?>
<!DOCTYPE svg PUBLIC "-//W3C//DTD SVG 1.1//EN" "http://www.w3.org/Graphics/SVG/1.1/DTD/svg11.dtd">
<svg xmlns="http://www.w3.org/2000/svg" xmlns:xlink="http://www.w3.org/1999/xlink" version="1.1" baseProfile="full" width="32" height="32" viewBox="0 0 32.00 32.00" enable-background="new 0 0 32.00 32.00" xml:space="preserve">
	<path fill="#{color}" fill-opacity="1" d="M 0,20C 0,17.7832 1.20749,15.8418 3.00201,14.8027C 3.1069,9.92331 7.09521,6 12,6C 15.2334,6 18.0684,7.70511 19.6553,10.2656C 20.2402,10.0928 20.8594,10 21.5,10C 24.2852,10 26.6602,11.751 27.5859,14.2119C 30.1299,14.9072 32,17.2354 32,20C 32,23.3066 29.3135,26 26,26L 6,26C 2.68701,26 0,23.3135 0,20 Z M 25.9727,16C 25.7236,13.75 23.8164,12 21.5,12C 20.4434,12 19.4707,12.3647 18.7031,12.9751C 17.834,10.0962 15.1616,8 12,8C 8.13379,8 5,11.1338 5,15C 5,15.376 5.02979,15.7446 5.0864,16.1045C 3.3179,16.5176 2,18.1074 2,20C 2,22.209 3.79391,24 5.9971,24L 26.0029,24C 28.2109,24 30,22.2051 30,20C 30,17.791 28.2061,16 26.0029,16L 25.9727,16 Z "/>
</svg>
