<?xml version="1.0" encoding="utf-8"?>
<!DOCTYPE svg PUBLIC "-//W3C//DTD SVG 1.1//EN" "http://www.w3.org/Graphics/SVG/1.1/DTD/svg11.dtd">
<svg xmlns="http://www.w3.org/2000/svg" xmlns:xlink="http://www.w3.org/1999/xlink" version="1.1" baseProfile="full" width="32" height="32" viewBox="0 0 32.00 32.00" enable-background="new 0 0 32.00 32.00" xml:space="preserve">
	<path fill="#{color}" fill-opacity="1" stroke-width="1.33333" stroke-linejoin="miter" d="M 16,-1.52588e-005C 7.16372,-1.52588e-005 1.52191e-005,7.16369 1.52191e-005,16C 1.52191e-005,24.8366 7.16372,32 16,32C 24.8367,32 32,24.8366 32,16C 32,7.16369 24.8367,-1.52588e-005 16,-1.52588e-005 Z M 29.2955,12.2823L 21.9716,13.3288C 21.4219,12.1012 20.5043,11.0771 19.3601,10.3899L 20.4269,2.9215C 24.7209,4.37962 28.0653,7.88952 29.2955,12.2823 Z M 16,20.3636C 13.5934,20.3636 11.6364,18.4062 11.6364,16C 11.6364,13.5934 13.5934,11.6363 16,11.6363C 18.4063,11.6363 20.3637,13.5934 20.3637,16C 20.3637,18.4062 18.4063,20.3636 16,20.3636 Z M 12.0945,2.75285L 13.1463,10.1165C 11.798,10.7716 10.7113,11.8729 10.0749,13.2318L 2.7294,12.1825C 4.03413,7.65903 7.58416,4.08521 12.0945,2.75285 Z M 2.95421,20.5128L 10.4414,19.4432C 11.1111,20.522 12.0845,21.3906 13.2443,21.9304L 12.195,29.2727C 7.87215,28.0313 4.41972,24.7372 2.95421,20.5128 Z M 20.3282,29.1136L 19.2642,21.6676C 20.233,21.1079 21.0426,20.3082 21.6165,19.348L 29.0824,20.4148C 27.6946,24.5142 24.4389,27.7528 20.3282,29.1136 Z "/>
</svg>
