<?xml version="1.0" encoding="utf-8"?>
<!DOCTYPE svg PUBLIC "-//W3C//DTD SVG 1.1//EN" "http://www.w3.org/Graphics/SVG/1.1/DTD/svg11.dtd">
<svg xmlns="http://www.w3.org/2000/svg" xmlns:xlink="http://www.w3.org/1999/xlink" version="1.1" baseProfile="full" width="32" height="32" viewBox="0 0 32.00 32.00" enable-background="new 0 0 32.00 32.00" xml:space="preserve">
	<path fill="#{color}" fill-opacity="1" d="M 3.52087,6.24109C 2.66311,5.55798 2.85667,5 3.9503,5L 16.0813,5L 28.2112,5C 29.3034,5 29.4979,5.55798 28.6402,6.24109L 17.891,14.8011C 17.4035,15.1882 16.7319,15.3596 16.0802,15.3291C 15.428,15.3607 14.7565,15.1882 14.269,14.8011L 3.52087,6.24109 Z M 29.4152,8.49919C 30.2888,7.835 31.0021,8.19149 31,9.29106L 31,24.0017C 31,25.0997 30.1046,26 29.0105,26L 16.0813,26L 3.15165,26C 2.058,26 1.16211,25.1007 1.16211,24.0017L 1.16211,9.29106C 1.16211,8.19149 1.87547,7.835 2.74738,8.49919L 14.4929,17.4642C 14.9317,17.7965 15.5071,17.9585 16.0813,17.9521C 16.6556,17.9585 17.2309,17.7965 17.6692,17.4642L 29.4152,8.49919 Z "/>
</svg>
