<?xml version="1.0" encoding="utf-8"?>
<!DOCTYPE svg PUBLIC "-//W3C//DTD SVG 1.1//EN" "http://www.w3.org/Graphics/SVG/1.1/DTD/svg11.dtd">
<svg xmlns="http://www.w3.org/2000/svg" xmlns:xlink="http://www.w3.org/1999/xlink" version="1.1" baseProfile="full" width="32" height="32" viewBox="0 0 32.00 32.00" enable-background="new 0 0 32.00 32.00" xml:space="preserve">
	<path fill="#{color}" fill-opacity="1" stroke-width="1.33333" stroke-linejoin="miter" d="M 32,12.6257C 32,12.903 31.8333,13.2054 31.5,13.5331L 24.5192,20.225L 26.1731,29.6767C 26.1859,29.765 26.1923,29.891 26.1923,30.0548C 26.1923,30.3195 26.125,30.5432 25.9904,30.7259C 25.8558,30.9086 25.6603,31 25.4038,31C 25.1603,31 24.9038,30.9244 24.6346,30.7732L 16,26.3119L 7.36539,30.7732C 7.08333,30.9244 6.82693,31 6.59616,31C 6.32693,31 6.125,30.9086 5.99039,30.7259C 5.85577,30.5432 5.78847,30.3195 5.78847,30.0548C 5.78847,29.9792 5.80129,29.8532 5.82693,29.6767L 7.48077,20.225L 0.480773,13.5331C 0.160263,13.1928 3.74268e-006,12.8904 3.74268e-006,12.6257C 3.74268e-006,12.1594 0.358975,11.8696 1.07693,11.7561L 10.7308,10.3762L 15.0577,1.77505C 15.3013,1.25834 15.6154,0.999998 16,0.999998C 16.3846,0.999998 16.6987,1.25834 16.9423,1.77505L 21.2692,10.3762L 30.9231,11.7561C 31.641,11.8696 32,12.1594 32,12.6257 Z "/>
</svg>
