<?xml version="1.0" encoding="utf-8"?>
<!DOCTYPE svg PUBLIC "-//W3C//DTD SVG 1.1//EN" "http://www.w3.org/Graphics/SVG/1.1/DTD/svg11.dtd">
<svg xmlns="http://www.w3.org/2000/svg" xmlns:xlink="http://www.w3.org/1999/xlink" version="1.1" baseProfile="full" width="64" height="64" viewBox="0 0 64.00 64.00" enable-background="new 0 0 64.00 64.00" xml:space="preserve">
	<path fill="currentColor" d="M 21.932,53.3311C 14.5745,49.8639 9.30991,42.7095 8.49905,34.25L 5.12405,34.25C 6.27219,48.1104 17.8595,59 32.012,59L 33.4974,58.9318L 24.9247,50.3604L 21.932,53.3311 Z M 23.9349,38.66C 23.5075,38.66 23.102,38.5918 22.7647,38.4798C 22.4045,38.3457 22.1122,38.1875 21.865,37.9413C 21.6168,37.715 21.4145,37.4447 21.2795,37.1063C 21.1442,36.7923 21.0772,36.4318 21.0772,36.0495L 18.1516,36.0495C 18.1516,36.8604 18.3099,37.5811 18.6241,38.1875C 18.9393,38.7938 19.3668,39.3125 19.8843,39.7389C 20.4247,40.1452 21.0322,40.4595 21.73,40.6616C 22.4045,40.8879 23.1241,41 23.8897,41C 24.7215,41 25.5093,40.8879 26.2067,40.6616C 26.9275,40.4375 27.557,40.0991 28.0745,39.6729C 28.592,39.2443 29.0192,38.7061 29.3116,38.0514C 29.605,37.4008 29.762,36.6802 29.762,35.8693C 29.762,35.4432 29.717,35.0145 29.605,34.6104C 29.4918,34.2061 29.3347,33.8236 29.0874,33.4633C 28.8622,33.1029 28.547,32.7877 28.1866,32.4943C 27.8043,32.202 27.355,31.9779 26.8143,31.7979C 27.2647,31.5945 27.6472,31.3475 27.9845,31.0552C 28.3218,30.7629 28.592,30.4477 28.8172,30.1104C 29.0425,29.772 29.1995,29.4347 29.3116,29.0754C 29.4247,28.715 29.4697,28.3548 29.4697,27.9943C 29.4697,27.1847 29.3347,26.465 29.0643,25.8345C 28.794,25.205 28.4118,24.6875 27.9175,24.282C 27.467,23.8548 26.8595,23.5404 26.1849,23.3152C 25.4872,23.112 24.7215,23 23.8897,23C 23.079,23 22.3374,23.112 21.6397,23.3604C 20.9641,23.6074 20.3565,23.9447 19.8622,24.3722C 19.3897,24.7995 19.0075,25.2949 18.7141,25.8807C 18.445,26.465 18.3099,27.0945 18.3099,27.7923L 21.2345,27.7923C 21.2345,27.41 21.3025,27.0727 21.4366,26.7804C 21.5718,26.487 21.7518,26.2179 21.9991,26.0146C 22.2474,25.8125 22.5165,25.6322 22.855,25.5202C 23.1922,25.407 23.5295,25.34 23.9349,25.34C 24.8347,25.34 25.5093,25.5652 25.9366,26.0377C 26.365,26.487 26.5891,27.1396 26.5891,27.9725C 26.5891,28.3777 26.5222,28.737 26.409,29.0754C 26.297,29.4127 26.0947,29.6818 25.8465,29.907C 25.5993,30.1322 25.284,30.3125 24.9247,30.4477C 24.5643,30.5827 24.115,30.6498 23.6195,30.6498L 21.887,30.6498L 21.887,32.9679L 23.6195,32.9679C 24.115,32.9679 24.5643,33.0129 24.9697,33.125C 25.3741,33.237 25.7124,33.4173 25.9815,33.6436C 26.2518,33.8895 26.477,34.1818 26.6343,34.5423C 26.7925,34.9025 26.8595,35.3311 26.8595,35.8254C 26.8595,36.7461 26.5891,37.4447 26.0718,37.9173C 25.5543,38.4336 24.8347,38.66 23.9349,38.66 Z M 43.172,25.34C 42.4533,24.5975 41.5965,24.0129 40.6077,23.6074C 39.6408,23.2021 38.5379,23 37.3207,23L 32.012,23L 32.012,41L 37.1866,41C 38.4236,41 39.5707,40.7979 40.5856,40.3936C 41.5965,39.987 42.4754,39.4245 43.1961,38.6818C 43.9145,37.9413 44.477,37.0404 44.8595,36.0034C 45.2418,34.9486 45.4461,33.7775 45.4461,32.4725L 45.4461,31.5727C 45.4461,30.2675 45.2418,29.0975 44.8595,28.0404C 44.4529,26.9824 43.8904,26.0827 43.172,25.34 Z M 42.2952,32.4504C 42.2952,33.3952 42.1809,34.2279 41.9788,34.9927C 41.7547,35.7354 41.4384,36.3879 41.012,36.9043C 40.5856,37.4229 40.0452,37.827 39.4145,38.0975C 38.762,38.3677 38.0192,38.5038 37.1866,38.5038L 35.1408,38.5038L 35.1408,25.5202L 37.3207,25.5202C 38.9422,25.5202 40.1793,26.0377 41.012,27.0727C 41.8668,28.1074 42.2952,29.5929 42.2952,31.5495L 42.2952,32.4504 Z M 32.012,4.99997L 30.5266,5.06816L 39.1004,13.6396L 42.0931,10.647C 49.4495,14.1352 54.7141,21.2675 55.5009,29.7279L 58.8759,29.7279C 57.7509,15.8896 46.1645,4.99997 32.012,4.99997 Z "/>
</svg>
