<?xml version="1.0" encoding="utf-8"?>
<!DOCTYPE svg PUBLIC "-//W3C//DTD SVG 1.1//EN" "http://www.w3.org/Graphics/SVG/1.1/DTD/svg11.dtd">
<svg xmlns="http://www.w3.org/2000/svg" xmlns:xlink="http://www.w3.org/1999/xlink" version="1.1" baseProfile="full" width="64" height="64" viewBox="0 0 64.00 64.00" enable-background="new 0 0 64.00 64.00" xml:space="preserve">
	<path fill="currentColor" d="M 54.0909,14.8181L 54.0909,49.1817L 58.9999,49.1817L 58.9999,14.8181L 54.0909,14.8181 Z M 44.2727,49.1817L 49.1818,49.1817L 49.1818,14.8181L 44.2727,14.8181L 44.2727,49.1817 Z M 36.909,14.8181L 7.45449,14.8181C 6.10497,14.8181 4.99994,15.9231 4.99994,17.2726L 4.99994,46.7272C 4.99994,48.0767 6.10497,49.1817 7.45449,49.1817L 36.909,49.1817C 38.2586,49.1817 39.3636,48.0767 39.3636,46.7272L 39.3636,17.2726C 39.3636,15.9231 38.2586,14.8181 36.909,14.8181 Z M 22.1818,21.5681C 25.2259,21.5681 27.7045,24.0467 27.7045,27.0908C 27.7045,30.135 25.2259,32.6135 22.1818,32.6135C 19.1376,32.6135 16.659,30.135 16.659,27.0908C 16.659,24.0467 19.1376,21.5681 22.1818,21.5681 Z M 33.2272,44.2726L 11.1363,44.2726L 11.1363,42.4317C 11.1363,38.7499 18.4999,36.909 22.1818,36.909C 25.8636,36.909 33.2272,38.7499 33.2272,42.4317L 33.2272,44.2726 Z "/>
</svg>
