<?xml version="1.0" encoding="utf-8"?>
<!DOCTYPE svg PUBLIC "-//W3C//DTD SVG 1.1//EN" "http://www.w3.org/Graphics/SVG/1.1/DTD/svg11.dtd">
<svg xmlns="http://www.w3.org/2000/svg" xmlns:xlink="http://www.w3.org/1999/xlink" version="1.1" baseProfile="full" width="64" height="64" viewBox="0 0 64.00 64.00" enable-background="new 0 0 64.00 64.00" xml:space="preserve">
	<path fill="currentColor" d="M 4,10.2222L 4,53.7778C 4,57.2155 6.78446,60 10.2222,60L 53.7778,60C 57.2155,60 60,57.2155 60,53.7778L 60,10.2222C 60,6.78442 57.2155,3.99996 53.7778,3.99996L 10.2222,3.99996C 6.78446,3.99996 4,6.78442 4,10.2222 Z M 41.3333,22.6666C 41.3333,27.8308 37.1496,32 32,32C 26.851,32 22.6667,27.8308 22.6667,22.6666C 22.6667,17.5176 26.851,13.3333 32,13.3333C 37.1496,13.3333 41.3333,17.5176 41.3333,22.6666 Z M 13.3333,47.5555C 13.3333,41.3333 25.7778,37.9108 32,37.9108C 38.2222,37.9108 50.6667,41.3333 50.6667,47.5555L 50.6667,50.6666L 13.3333,50.6666L 13.3333,47.5555 Z "/>
</svg>
