<?xml version="1.0" encoding="utf-8"?>
<!DOCTYPE svg PUBLIC "-//W3C//DTD SVG 1.1//EN" "http://www.w3.org/Graphics/SVG/1.1/DTD/svg11.dtd">
<svg xmlns="http://www.w3.org/2000/svg" xmlns:xlink="http://www.w3.org/1999/xlink" version="1.1" baseProfile="full" width="64" height="64" viewBox="0 0 64.00 64.00" enable-background="new 0 0 64.00 64.00" xml:space="preserve">
	<path fill="currentColor" d="M 31.7708,25.3333L 37.325,25.3333L 37.325,17.3333L 45.6562,17.3333L 45.6562,12L 37.325,12L 37.325,3.99998L 31.7708,3.99998L 31.7708,12L 23.4396,12L 23.4396,17.3333L 31.7708,17.3333L 31.7708,25.3333 Z M 20.6625,49.3333C 17.5938,49.3333 15.1361,51.72 15.1361,54.6666C 15.1361,57.6133 17.5938,60 20.6625,60C 23.7312,60 26.2167,57.6133 26.2167,54.6666C 26.2167,51.72 23.7312,49.3333 20.6625,49.3333 Z M 48.4333,49.3333C 45.3646,49.3333 42.9062,51.72 42.9062,54.6666C 42.9062,57.6133 45.3646,60 48.4333,60C 51.502,60 53.9875,57.6133 53.9875,54.6666C 53.9875,51.72 51.502,49.3333 48.4333,49.3333 Z M 21.1486,40.6666C 21.1486,40.5469 21.1764,40.4401 21.2321,40.3464L 23.7312,36L 44.4196,36C 46.5024,36 48.3221,34.8932 49.2795,33.2532L 60,14.5598L 55.1401,12L 55.1265,12L 52.0566,17.3333L 44.406,30.6666L 24.925,30.6666L 24.5644,29.9466L 18.3295,17.3333L 15.6914,12L 13.0669,6.66665L 4,6.66665L 4,12L 9.55417,12L 19.5519,32.2265L 15.789,38.7604C 15.3586,39.5338 15.1083,40.3997 15.1083,41.3333C 15.1083,44.28 17.5938,46.6666 20.6625,46.6666L 53.9875,46.6666L 53.9875,41.3333L 21.8429,41.3333C 21.4537,41.3333 21.1486,41.0404 21.1486,40.6666 Z "/>
</svg>
