<?xml version="1.0" encoding="utf-8"?>
<!DOCTYPE svg PUBLIC "-//W3C//DTD SVG 1.1//EN" "http://www.w3.org/Graphics/SVG/1.1/DTD/svg11.dtd">
<svg xmlns="http://www.w3.org/2000/svg" xmlns:xlink="http://www.w3.org/1999/xlink" version="1.1" baseProfile="full" width="64" height="64" viewBox="0 0 64.00 64.00" enable-background="new 0 0 64.00 64.00" xml:space="preserve">
	<path fill="currentColor" d="M 5,23.0007L 5,41.0006L 17,41.0006L 32,56.0007L 32,8.00065L 17,23.0007L 5,23.0007 Z M 45.5,32.0006C 45.5,26.6907 42.4415,22.1306 38,19.9097L 38,44.0592C 42.4415,41.8707 45.5,37.3092 45.5,32.0006 Z M 38,5.69069L 38,11.8707C 46.6718,14.4504 53,22.491 53,32.0006C 53,41.5103 46.6718,49.5495 38,52.1306L 38,58.3092C 50.0294,55.5789 59,44.8416 59,32.0006C 59,19.1597 50.0294,8.42097 38,5.69069 Z "/>
</svg>
