<?xml version="1.0" encoding="utf-8"?>
<!DOCTYPE svg PUBLIC "-//W3C//DTD SVG 1.1//EN" "http://www.w3.org/Graphics/SVG/1.1/DTD/svg11.dtd">
<svg xmlns="http://www.w3.org/2000/svg" xmlns:xlink="http://www.w3.org/1999/xlink" version="1.1" baseProfile="full" width="64" height="64" viewBox="0 0 64.00 64.00" enable-background="new 0 0 64.00 64.00" xml:space="preserve">
	<path fill="currentColor" d="M 44.7883,25.8391L 34.0376,9.73705C 33.5725,9.05045 32.7851,8.70633 32.0001,8.70633C 31.2152,8.70633 30.4289,9.05045 29.9626,9.76229L 19.2119,25.8391L 7.45465,25.8391C 6.10513,25.8391 5.00011,26.9441 5.00011,28.2936C 5.00011,28.5141 5.02415,28.736 5.09831,28.9563L 11.3331,51.71C 11.8976,53.7716 13.7876,55.2936 16.0456,55.2936L 47.9547,55.2936C 50.2126,55.2936 52.1016,53.7716 52.6912,51.71L 58.9282,28.9563L 59.0001,28.2936C 59.0001,26.9441 57.8951,25.8391 56.5456,25.8391L 44.7883,25.8391 Z M 24.6365,25.8391L 32.0001,15.0393L 39.3637,25.8391L 24.6365,25.8391 Z M 32.0001,45.4754C 29.2999,45.4754 27.091,43.2654 27.091,40.5664C 27.091,37.8673 29.2999,35.6573 32.0001,35.6573C 34.6991,35.6573 36.9092,37.8673 36.9092,40.5664C 36.9092,43.2654 34.6991,45.4754 32.0001,45.4754 Z "/>
</svg>
