<?xml version="1.0" encoding="utf-8"?>
<!DOCTYPE svg PUBLIC "-//W3C//DTD SVG 1.1//EN" "http://www.w3.org/Graphics/SVG/1.1/DTD/svg11.dtd">
<svg xmlns="http://www.w3.org/2000/svg" xmlns:xlink="http://www.w3.org/1999/xlink" version="1.1" baseProfile="full" width="64" height="64" viewBox="0 0 64.00 64.00" enable-background="new 0 0 64.00 64.00" xml:space="preserve">
	<path fill="currentColor" d="M 35.3837,39.6804L 39.6728,35.3884L 58.9954,54.7195L 54.7148,59.0001L 35.3837,39.6804 Z M 48.2631,22.4882L 56.8419,13.9064C 44.9936,2.05655 25.7927,2.02596 13.9414,13.8479C 25.7326,9.94677 38.8729,13.0979 48.2631,22.4882 Z M 13.8519,13.9373C 2.02998,25.7887 2.06056,44.9896 13.912,56.8409L 22.4922,48.2591C 13.1019,38.8689 9.95079,25.7286 13.8519,13.9373 Z M 13.912,13.8773L 13.8813,13.9064C 12.7416,22.9379 17.3913,34.5474 26.7815,43.9698L 43.9738,26.7775C 34.5808,17.3873 22.9419,12.7376 13.912,13.8773 Z "/>
</svg>
