<?xml version="1.0" encoding="utf-8"?>
<!DOCTYPE svg PUBLIC "-//W3C//DTD SVG 1.1//EN" "http://www.w3.org/Graphics/SVG/1.1/DTD/svg11.dtd">
<svg xmlns="http://www.w3.org/2000/svg" xmlns:xlink="http://www.w3.org/1999/xlink" version="1.1" baseProfile="full" width="64" height="64" viewBox="0 0 64.00 64.00" enable-background="new 0 0 64.00 64.00" xml:space="preserve">
	<path fill="currentColor" d="M 33.7995,43.4029L 35.6022,54.1332C 35.6893,54.4553 35.7366,54.7935 35.7366,55.143C 35.7366,57.2732 34.0096,59.0001 31.8794,59.0001C 29.7492,59.0001 28.0223,57.2732 28.0223,55.143L 28.1158,54.2999L 29.9976,43.1501L 29.9985,43.1503C 30.1907,42.288 30.9592,41.6429 31.8794,41.6429C 32.8876,41.6429 33.7138,42.4167 33.7995,43.4029 Z M 48.4983,48.1833C 49.6349,49.1145 49.6519,51.2146 48.4982,52.3702C 47.3451,53.5267 45.2625,53.4644 44.322,52.371L 43.9164,51.8654L 38.0151,43.9385C 37.6524,43.3344 37.7194,42.5839 38.2173,42.0846C 38.7634,41.5375 39.5133,41.5245 40.2095,41.9822L 47.879,47.7083L 48.4983,48.1833 Z M 53.6275,40.0126C 54.7713,40.1563 55.1429,40.8387 55.143,42.259C 55.143,43.3807 54.0139,43.8957 53.0148,43.6631L 46.0578,41.5229L 46.0452,41.5198L 46.0436,41.5245C 45.6434,41.3223 45.4082,40.8971 45.4809,40.4619C 45.5611,39.9848 45.984,39.6701 46.4531,39.7374L 53.6275,40.0126 Z M 17.9224,41.5198L 17.9097,41.5227L 10.9528,43.6629C 9.95365,43.8957 8.857,43.3807 8.857,42.259C 8.857,40.8387 9.19607,40.1563 10.3401,40.0126L 17.5145,39.7374C 17.9834,39.6702 18.4065,39.9848 18.4866,40.4619C 18.5594,40.8971 18.3243,41.3222 17.924,41.5245L 17.9224,41.5198 Z M 23.7918,41.9812C 24.3714,41.4936 25.237,41.5376 25.7827,42.0834C 26.2804,42.5815 26.3473,43.3304 25.9848,43.9331L 20.0831,51.8452L 19.6791,52.3497C 18.5264,53.5034 16.6588,53.5024 15.5064,52.3488C 14.3538,51.1962 14.3542,49.3254 15.5068,48.1722L 16.1261,47.6984L 23.7918,41.9812 Z M 43.5714,16.5714C 43.5714,20.4359 42.4062,23.6026 37.5045,26.9776C 33.0107,30.0718 26.2543,32.4946 24.2856,39.7143C 24.2856,39.7143 17.2544,36.8616 18.4999,28.1428C 19.7454,19.4241 33.4485,15.3121 31.9999,4.9999C 34.8507,4.9999 43.5714,9.21867 43.5714,16.5714 Z M 43.5714,32C 41.6428,37.9861 38.2677,39.7143 33.9285,39.7143C 32.1172,39.7143 30.0715,38.6596 28.7039,36.5666C 30.1919,34.8126 32.153,33.5248 34.4088,32.1792C 35.4901,31.5337 36.8492,30.867 37.8839,30.1545C 40.4029,28.4201 42.4867,26.5156 43.5714,24.2857C 44.1633,26.0937 44.1778,30.118 43.5714,32 Z M 19.4687,20.4285C 18.8012,19.9464 18.352,18.741 18.4999,17.1327C 18.7446,14.47 22.6383,12.5134 22.3571,8.85704C 24.0255,8.59872 26.0967,9.23478 27.3823,11.8059C 26.733,13.0959 25.6915,14.2069 24.0719,15.8045C 22.4647,17.3899 20.8815,18.5057 19.4687,20.4285 Z "/>
</svg>
