<?xml version="1.0" encoding="utf-8"?>
<!DOCTYPE svg PUBLIC "-//W3C//DTD SVG 1.1//EN" "http://www.w3.org/Graphics/SVG/1.1/DTD/svg11.dtd">
<svg xmlns="http://www.w3.org/2000/svg" xmlns:xlink="http://www.w3.org/1999/xlink" version="1.1" baseProfile="full" width="64" height="64" viewBox="0 0 64.00 64.00" enable-background="new 0 0 64.00 64.00" xml:space="preserve">
	<path fill="currentColor" d="M 54.0909,12.3638C 51.3678,11.5044 48.3715,11.1365 45.4999,11.1365C 40.7131,11.1365 35.5595,12.1181 31.9999,14.8183C 28.4404,12.1181 23.2868,11.1365 18.4999,11.1365C 13.7131,11.1365 8.55951,12.1181 4.99994,14.8183L 4.99994,50.7783C 4.99994,51.392 5.61358,52.0056 6.22722,52.0056C 6.47291,52.0056 6.59516,51.881 6.84085,51.881C 10.1547,50.287 14.9404,49.1819 18.4999,49.1819C 23.2868,49.1819 28.4404,50.1647 31.9999,52.8638C 35.3126,50.7783 41.3267,49.1819 45.4999,49.1819C 49.5509,49.1819 53.7217,49.9178 57.159,51.7587C 57.4035,51.881 57.5282,51.881 57.7727,51.881C 58.3863,51.881 58.9999,51.2673 58.9999,50.6537L 58.9999,14.8183C 57.5282,13.7133 55.9318,12.9774 54.0909,12.3638 Z M 54.0909,45.5001C 51.3918,44.642 48.4459,44.2728 45.4999,44.2728C 41.3267,44.2728 35.3126,45.8693 31.9999,47.9547L 31.9999,19.7274C 35.3126,17.6408 41.3267,16.0456 45.4999,16.0456C 48.4459,16.0456 51.3918,16.4135 54.0909,17.2728L 54.0909,45.5001 Z "/>
</svg>
