<?xml version="1.0" encoding="utf-8"?>
<!DOCTYPE svg PUBLIC "-//W3C//DTD SVG 1.1//EN" "http://www.w3.org/Graphics/SVG/1.1/DTD/svg11.dtd">
<svg xmlns="http://www.w3.org/2000/svg" xmlns:xlink="http://www.w3.org/1999/xlink" version="1.1" baseProfile="full" width="64" height="64" viewBox="0 0 64.00 64.00" enable-background="new 0 0 64.00 64.00" xml:space="preserve">
	<path fill="currentColor" d="M 53.0001,4.99971L 11.0001,4.99971C 7.69985,4.99971 5.00014,7.69941 5.00014,10.9997L 5.00014,52.9997C 5.00014,56.2985 7.69985,58.9997 11.0001,58.9997L 53.0001,58.9997C 56.299,58.9997 59.0001,56.2985 59.0001,52.9997L 59.0001,10.9997C 59.0001,7.69941 56.299,4.99971 53.0001,4.99971 Z M 41.0001,22.9997L 29.0001,22.9997L 29.0001,28.9997L 35.0001,28.9997C 38.299,28.9997 41.0001,31.67 41.0001,34.9997L 41.0001,40.9997C 41.0001,44.3279 38.299,46.9997 35.0001,46.9997L 23.0001,46.9997L 23.0001,40.9997L 35.0001,40.9997L 35.0001,34.9997L 23.0001,34.9997L 23.0001,16.9997L 41.0001,16.9997L 41.0001,22.9997 Z "/>
</svg>
