<?xml version="1.0" encoding="utf-8"?>
<!DOCTYPE svg PUBLIC "-//W3C//DTD SVG 1.1//EN" "http://www.w3.org/Graphics/SVG/1.1/DTD/svg11.dtd">
<svg xmlns="http://www.w3.org/2000/svg" xmlns:xlink="http://www.w3.org/1999/xlink" version="1.1" baseProfile="full" width="64" height="64" viewBox="0 0 64.00 64.00" enable-background="new 0 0 64.00 64.00" xml:space="preserve">
	<path fill="currentColor" d="M 15.8007,29.3006C 21.7646,29.3006 26.5997,34.1357 26.5997,40.1013C 26.5997,46.067 21.7646,50.8987 15.8007,50.8987C 9.83498,50.8987 5,46.067 5,40.1013C 5,34.1357 9.83498,29.3006 15.8007,29.3006 Z M 41.4493,45.5C 45.177,45.5 48.1993,48.5223 48.1993,52.25C 48.1993,55.9777 45.177,59 41.4493,59C 37.7217,59 34.6993,55.9777 34.6993,52.25C 34.6993,48.5223 37.7217,45.5 41.4493,45.5 Z M 42.8007,4.99999C 51.7491,4.99999 59,12.2525 59,21.1993C 59,30.1478 51.7491,37.3987 42.8007,37.3987C 33.8522,37.3987 26.5997,30.1478 26.5997,21.1993C 26.5997,12.2525 33.8522,4.99999 42.8007,4.99999 Z "/>
</svg>
