<?xml version="1.0" encoding="utf-8"?>
<!DOCTYPE svg PUBLIC "-//W3C//DTD SVG 1.1//EN" "http://www.w3.org/Graphics/SVG/1.1/DTD/svg11.dtd">
<svg xmlns="http://www.w3.org/2000/svg" xmlns:xlink="http://www.w3.org/1999/xlink" version="1.1" baseProfile="full" width="64" height="64" viewBox="0 0 64.00 64.00" enable-background="new 0 0 64.00 64.00" xml:space="preserve">
	<path fill="currentColor" d="M 55.9998,20.0002L 47.5684,20.0002C 46.2204,17.6593 44.3601,15.6496 42.1101,14.1202L 46.9998,9.23078L 42.7693,5.00022L 36.2595,11.5099C 34.8798,11.1805 33.4704,11.0002 31.9998,11.0002C 30.5292,11.0002 29.1199,11.1805 27.7693,11.5099L 21.2304,5.00022L 16.9998,9.23078L 21.8601,14.1202C 19.6396,15.6496 17.7792,17.6593 16.4301,20.0002L 7.99983,20.0002L 7.99983,26.0002L 14.2693,26.0002C 14.1199,26.9905 13.9998,27.9808 13.9998,29.0002L 13.9998,32.0002L 7.99983,32.0002L 7.99983,38.0002L 13.9998,38.0002L 13.9998,41.0002C 13.9998,42.0197 14.1199,43.0099 14.2693,44.0002L 7.99983,44.0002L 7.99983,50.0002L 16.4301,50.0002C 19.5501,55.3702 25.3392,59.0002 31.9998,59.0002C 38.6619,59.0002 44.451,55.3702 47.5684,50.0002L 55.9998,50.0002L 55.9998,44.0002L 49.7304,44.0002C 49.8798,43.0099 49.9998,42.0197 49.9998,41.0002L 49.9998,38.0002L 55.9998,38.0002L 55.9998,32.0002L 49.9998,32.0002L 49.9998,29.0002C 49.9998,27.9808 49.8798,26.9905 49.7304,26.0002L 55.9998,26.0002L 55.9998,20.0002 Z M 37.9998,44.0002L 25.9998,44.0002L 25.9998,38.0002L 37.9998,38.0002L 37.9998,44.0002 Z M 37.9998,32.0002L 25.9998,32.0002L 25.9998,26.0002L 37.9998,26.0002L 37.9998,32.0002 Z "/>
</svg>
