<?xml version="1.0" encoding="utf-8"?>
<!DOCTYPE svg PUBLIC "-//W3C//DTD SVG 1.1//EN" "http://www.w3.org/Graphics/SVG/1.1/DTD/svg11.dtd">
<svg xmlns="http://www.w3.org/2000/svg" xmlns:xlink="http://www.w3.org/1999/xlink" version="1.1" baseProfile="full" width="64" height="64" viewBox="0 0 64.00 64.00" enable-background="new 0 0 64.00 64.00" xml:space="preserve">
	<path fill="currentColor" d="M 47.75,5.00001L 16.25,5.00001C 13.7609,5.00001 11.75,7.01092 11.75,9.50001L 11.75,54.5C 11.75,56.9891 13.7609,59 16.25,59L 47.75,59C 50.2391,59 52.25,56.9891 52.25,54.5L 52.25,9.50001C 52.25,7.01092 50.2391,5.00001 47.75,5.00001 Z M 46.625,35.375L 46.625,53.375L 39.875,53.375L 39.875,35.375L 46.625,35.375 Z M 46.625,24.125L 46.625,30.875L 39.875,30.875L 39.875,24.125L 46.625,24.125 Z M 35.375,46.625L 35.375,53.375L 28.625,53.375L 28.625,46.625L 35.375,46.625 Z M 35.375,35.375L 35.375,42.125L 28.625,42.125L 28.625,35.375L 35.375,35.375 Z M 35.375,24.125L 35.375,30.875L 28.625,30.875L 28.625,24.125L 35.375,24.125 Z M 24.125,46.625L 24.125,53.375L 17.375,53.375L 17.375,46.625L 24.125,46.625 Z M 24.125,35.375L 24.125,42.125L 17.375,42.125L 17.375,35.375L 24.125,35.375 Z M 24.125,24.125L 24.125,30.875L 17.375,30.875L 17.375,24.125L 24.125,24.125 Z M 17.375,17.375L 17.375,10.625L 46.625,10.625L 46.625,17.375L 17.375,17.375 Z "/>
</svg>
