<?xml version="1.0" encoding="utf-8"?>
<!DOCTYPE svg PUBLIC "-//W3C//DTD SVG 1.1//EN" "http://www.w3.org/Graphics/SVG/1.1/DTD/svg11.dtd">
<svg xmlns="http://www.w3.org/2000/svg" xmlns:xlink="http://www.w3.org/1999/xlink" version="1.1" baseProfile="full" width="64" height="64" viewBox="0 0 64.00 64.00" enable-background="new 0 0 64.00 64.00" xml:space="preserve">
	<path fill="currentColor" d="M 52.7597,11.0294C 52.1621,9.25967 50.4806,8 48.5,8L 15.5,8C 13.5194,8 11.87,9.25967 11.2403,11.0294L 5,29L 5,53C 5,54.6494 6.35059,56 8,56L 11,56C 12.6494,56 14,54.6494 14,53L 14,50L 50,50L 50,53C 50,54.6494 51.3506,56 53,56L 56,56C 57.6494,56 59,54.6494 59,53L 59,29L 52.7597,11.0294 Z M 15.5,41C 13.0097,41 11,38.9903 11,36.5C 11,34.0097 13.0097,32 15.5,32C 17.9903,32 20,34.0097 20,36.5C 20,38.9903 17.9903,41 15.5,41 Z M 48.5,41C 46.0097,41 44,38.9903 44,36.5C 44,34.0097 46.0097,32 48.5,32C 50.9903,32 53,34.0097 53,36.5C 53,38.9903 50.9903,41 48.5,41 Z M 11,26L 15.5,12.5L 48.5,12.5L 53,26L 11,26 Z "/>
</svg>
