<?xml version="1.0" encoding="utf-8"?>
<!DOCTYPE svg PUBLIC "-//W3C//DTD SVG 1.1//EN" "http://www.w3.org/Graphics/SVG/1.1/DTD/svg11.dtd">
<svg xmlns="http://www.w3.org/2000/svg" xmlns:xlink="http://www.w3.org/1999/xlink" version="1.1" baseProfile="full" width="64" height="64" viewBox="0 0 64.00 64.00" enable-background="new 0 0 64.00 64.00" xml:space="preserve">
	<path fill="currentColor" d="M 21.2,48.2C 18.2297,48.2 15.8264,50.6311 15.8264,53.6C 15.8264,56.569 18.2297,59 21.2,59C 24.1703,59 26.6,56.569 26.6,53.6C 26.6,50.6311 24.1703,48.2 21.2,48.2 Z M 4.99999,5.00004L 4.99999,10.4L 10.4,10.4L 20.1203,30.8925L 16.475,37.5081C 16.0425,38.2649 15.8,39.1561 15.8,40.1C 15.8,43.069 18.2297,45.5 21.2,45.5L 53.6,45.5L 53.6,40.1L 22.3337,40.1C 21.9554,40.1 21.6587,39.8046 21.6587,39.425L 21.7405,39.1008L 24.1703,34.7L 44.2845,34.7C 46.3095,34.7 48.092,33.5925 49.0095,31.9182L 58.6758,14.3961C 58.892,14.0175 59,13.5588 59,13.1C 59,11.6156 57.7845,10.4 56.3,10.4L 16.367,10.4L 13.829,5.00004L 4.99999,5.00004 Z M 48.2,48.2C 45.231,48.2 42.8264,50.6311 42.8264,53.6C 42.8264,56.569 45.231,59 48.2,59C 51.1689,59 53.6,56.569 53.6,53.6C 53.6,50.6311 51.1689,48.2 48.2,48.2 Z "/>
</svg>
