<?xml version="1.0" encoding="utf-8"?>
<!DOCTYPE svg PUBLIC "-//W3C//DTD SVG 1.1//EN" "http://www.w3.org/Graphics/SVG/1.1/DTD/svg11.dtd">
<svg xmlns="http://www.w3.org/2000/svg" xmlns:xlink="http://www.w3.org/1999/xlink" version="1.1" baseProfile="full" width="64" height="64" viewBox="0 0 64.00 64.00" enable-background="new 0 0 64.00 64.00" xml:space="preserve">
	<path fill="currentColor" d="M 36.9456,46.2139L 40.3077,48.6154C 39.7236,51.2894 36.5562,52.7692 33.5706,52.7692L 21.9139,52.7692C 20.8885,52.7692 20.4471,52.9769 20.2005,53.1586L 13.3077,59L 13.3077,52.7692L 11.1919,52.7692C 7.77788,52.7692 5,50.7443 5,47.4991L 5,30.7668C 5,27.5216 7.58316,24.8606 10.9971,24.8606L 11.2308,24.8606L 11.2308,37.9452C 11.2308,42.2419 15.099,45.6298 19.6034,45.6298L 34.674,45.6298C 36.0111,45.6298 36.6082,45.9803 36.9456,46.2139 Z M 50.8221,5C 55.3394,5 59,8.47882 59,12.7625L 59,34.6091C 59,38.8927 55.3394,42.3846 50.8221,42.3846L 48.6154,42.3846L 48.6154,50.6923L 38.9187,42.9298C 38.5942,42.6831 37.9971,42.3846 36.6471,42.3846L 23.5236,42.3846C 19.0192,42.3846 15.3846,38.8927 15.3846,34.5962L 15.3846,21.8101L 15.3846,12.7625C 15.3846,8.47882 18.1106,5 22.6149,5L 50.8221,5 Z "/>
</svg>
