<?xml version="1.0" encoding="utf-8"?>
<!DOCTYPE svg PUBLIC "-//W3C//DTD SVG 1.1//EN" "http://www.w3.org/Graphics/SVG/1.1/DTD/svg11.dtd">
<svg xmlns="http://www.w3.org/2000/svg" xmlns:xlink="http://www.w3.org/1999/xlink" version="1.1" baseProfile="full" width="64" height="64" viewBox="0 0 64.00 64.00" enable-background="new 0 0 64.00 64.00" xml:space="preserve">
	<path fill="currentColor" d="M 50.9,10.3999L 39.6149,10.3999C 38.4811,7.26741 35.5095,4.99991 32,4.99991C 28.4906,4.99991 25.5203,7.26741 24.3866,10.3999L 13.1,10.3999C 10.1298,10.3999 7.70004,12.8297 7.70004,15.7999L 7.70004,53.5999C 7.70004,56.5689 10.1298,58.9999 13.1,58.9999L 50.9,58.9999C 53.869,58.9999 56.3,56.5689 56.3,53.5999L 56.3,15.7999C 56.3,12.8297 53.869,10.3999 50.9,10.3999 Z M 32,10.3999C 33.4845,10.3999 34.7,11.6154 34.7,13.0999C 34.7,14.5844 33.4845,15.7999 32,15.7999C 30.5156,15.7999 29.3,14.5844 29.3,13.0999C 29.3,11.6154 30.5156,10.3999 32,10.3999 Z M 26.6,48.1999L 15.8,37.3999L 19.6075,33.5924L 26.6,40.5586L 44.3925,22.7662L 48.2,26.5999L 26.6,48.1999 Z "/>
</svg>
