<?xml version="1.0" encoding="utf-8"?>
<!DOCTYPE svg PUBLIC "-//W3C//DTD SVG 1.1//EN" "http://www.w3.org/Graphics/SVG/1.1/DTD/svg11.dtd">
<svg xmlns="http://www.w3.org/2000/svg" xmlns:xlink="http://www.w3.org/1999/xlink" version="1.1" baseProfile="full" width="64" height="64" viewBox="0 0 64.00 64.00" enable-background="new 0 0 64.00 64.00" xml:space="preserve">
	<path fill="currentColor" d="M 49.8734,32.2039C 49.9579,31.4445 50,30.7976 50,30.2633C 50,27.507 49.536,27.4929 47.75,27.4929L 37.1328,27.4929C 38.1594,25.8054 38.75,24.0617 38.75,22.2898C 38.75,16.9601 30.6922,14.3586 30.6922,9.91479C 30.6922,8.26953 31.4094,6.91951 32,5.007C 28.2735,5.99137 25.3344,9.71794 25.3344,13.6695C 25.3344,20.4617 33.2516,20.5179 33.2516,25.5945C 33.2516,26.2273 33.0547,26.7898 32.9562,27.4929L 25.0953,27.4929C 25.2079,27.071 25.2782,26.6211 25.2782,26.1851C 25.2782,22.9788 19.7797,21.418 19.7797,18.7601C 19.7797,17.7757 19.9203,16.9601 20.2297,15.807C 18.4156,16.5242 16.25,18.6195 16.25,20.982C 16.25,24.7367 20.7359,25.1023 21.425,27.4929L 7.25002,27.4929C 5.46405,27.4929 5.00002,27.507 5.00002,30.2633C 5.00002,33.0195 6.08286,38.8836 8.97968,45.8726C 11.8766,52.8617 15.2235,55.9414 17.586,57.9945L 17.6,57.9663C 18.3172,58.6133 19.2594,58.993 20.3,58.993L 34.7,58.993C 35.7406,58.993 36.6828,58.6133 37.4001,57.9663L 37.4141,57.9945C 38.6797,56.8976 40.2266,55.4914 41.8298,53.368C 42.4906,53.6492 43.2079,53.8882 43.9953,54.0711C 45.1766,54.3524 46.3578,54.493 47.4828,54.493C 50.8578,54.493 53.8954,53.1992 56.0329,50.8647C 57.9172,48.8117 59,46.0273 59,43.243C 59,37.7726 55.0625,33.2023 49.8734,32.2039 Z M 47.4828,50.0351C 46.2735,50.0351 45.2891,49.8664 44.375,49.4445C 44.9375,48.3195 45.486,47.2085 46.0204,45.9149C 47.4406,42.4836 48.425,39.3055 49.0578,36.6616C 52.1516,37.2664 54.5,40.0086 54.5,43.2851C 54.5,46.4774 52.0812,50.0351 47.4828,50.0351 Z "/>
</svg>
