<?xml version="1.0" encoding="utf-8"?>
<!DOCTYPE svg PUBLIC "-//W3C//DTD SVG 1.1//EN" "http://www.w3.org/Graphics/SVG/1.1/DTD/svg11.dtd">
<svg xmlns="http://www.w3.org/2000/svg" xmlns:xlink="http://www.w3.org/1999/xlink" version="1.1" baseProfile="full" width="64" height="64" viewBox="0 0 64.00 64.00" enable-background="new 0 0 64.00 64.00" xml:space="preserve">
	<path fill="currentColor" d="M 5.83916,53.0327L 9.64842,54.6232L 9.64842,28.9597L 2.74163,45.6138C 1.57602,48.5141 2.96922,51.8394 5.83916,53.0327 Z M 61.2586,42.5164L 47.1647,8.49603C 46.2822,6.36446 44.2061,5.05703 42.0191,5.00022C 41.2807,5.00022 40.5148,5.11393 39.7764,5.42625L 18.8284,14.0955C 16.6969,14.9754 15.3895,17.0223 15.3326,19.2107C 15.3036,19.978 15.4466,20.7455 15.7587,21.4838L 29.8555,55.5028C 30.7365,57.6651 32.8391,58.9722 35.0579,59C 35.7963,59 36.5347,58.8585 37.2452,58.5726L 58.1614,49.9048C 61.0617,48.7114 62.4549,45.3864 61.2586,42.5164 Z M 21.0447,22.0528C 19.4821,22.0528 18.2026,20.7733 18.2026,19.2107C 18.2026,17.6481 19.4821,16.3686 21.0447,16.3686C 22.6087,16.3686 23.8868,17.6481 23.8868,19.2107C 23.8868,20.7733 22.6087,22.0528 21.0447,22.0528 Z M 15.3605,53.3158C 15.3605,56.441 17.9181,59 21.0447,59L 25.1663,59L 15.3605,35.2975L 15.3605,53.3158 Z "/>
</svg>
