<?xml version="1.0" encoding="utf-8"?>
<!DOCTYPE svg PUBLIC "-//W3C//DTD SVG 1.1//EN" "http://www.w3.org/Graphics/SVG/1.1/DTD/svg11.dtd">
<svg xmlns="http://www.w3.org/2000/svg" xmlns:xlink="http://www.w3.org/1999/xlink" version="1.1" baseProfile="full" width="64" height="64" viewBox="0 0 64.00 64.00" enable-background="new 0 0 64.00 64.00" xml:space="preserve">
	<path fill="currentColor" d="M 32,4.9998C 17.0961,4.9998 5.00004,17.0958 5.00004,31.9998C 5.00004,46.9025 17.0961,58.9998 32,58.9998C 46.9027,58.9998 59,46.9025 59,31.9998C 59,17.0958 46.9027,4.9998 32,4.9998 Z M 21.2,46.8498C 17.4743,46.8498 14.45,43.8256 14.45,40.0998C 14.45,36.374 17.4743,33.3498 21.2,33.3498C 24.9258,33.3498 27.95,36.374 27.95,40.0998C 27.95,43.8256 24.9258,46.8498 21.2,46.8498 Z M 25.25,21.1998C 25.25,17.474 28.2743,14.4498 32,14.4498C 35.7258,14.4498 38.75,17.474 38.75,21.1998C 38.75,24.9256 35.7258,27.9498 32,27.9498C 28.2743,27.9498 25.25,24.9256 25.25,21.1998 Z M 42.8,46.8498C 39.0743,46.8498 36.05,43.8256 36.05,40.0998C 36.05,36.374 39.0743,33.3498 42.8,33.3498C 46.5258,33.3498 49.55,36.374 49.55,40.0998C 49.55,43.8256 46.5258,46.8498 42.8,46.8498 Z "/>
</svg>
