<?xml version="1.0" encoding="utf-8"?>
<!DOCTYPE svg PUBLIC "-//W3C//DTD SVG 1.1//EN" "http://www.w3.org/Graphics/SVG/1.1/DTD/svg11.dtd">
<svg xmlns="http://www.w3.org/2000/svg" xmlns:xlink="http://www.w3.org/1999/xlink" version="1.1" baseProfile="full" width="64" height="64" viewBox="0 0 64.00 64.00" enable-background="new 0 0 64.00 64.00" xml:space="preserve">
	<path fill="currentColor" d="M 32.0025,28.9163C 30.2948,28.9163 28.9222,30.2889 28.9222,31.9966C 28.9222,33.703 30.2948,35.0755 32.0025,35.0755C 33.7088,35.0755 35.0814,33.703 35.0814,31.9966C 35.0814,30.2889 33.7088,28.9163 32.0025,28.9163 Z M 32.0025,3.99654C 16.5465,3.99654 4.00241,16.5406 4.00241,31.9966C 4.00241,47.4513 16.5465,59.9967 32.0025,59.9967C 47.4571,59.9967 60.0026,47.4513 60.0026,31.9966C 60.0026,16.5406 47.4571,3.99654 32.0025,3.99654 Z M 38.1331,38.1273L 15.2024,48.7967L 25.8707,25.8648L 48.8025,15.1966L 38.1331,38.1273 Z "/>
</svg>
