<?xml version="1.0" encoding="utf-8"?>
<!DOCTYPE svg PUBLIC "-//W3C//DTD SVG 1.1//EN" "http://www.w3.org/Graphics/SVG/1.1/DTD/svg11.dtd">
<svg xmlns="http://www.w3.org/2000/svg" xmlns:xlink="http://www.w3.org/1999/xlink" version="1.1" baseProfile="full" width="64" height="64" viewBox="0 0 64.00 64.00" enable-background="new 0 0 64.00 64.00" xml:space="preserve">
	<path fill="currentColor" d="M 26.8163,28.9222C 26.9508,28.0323 27.2486,27.2491 27.6258,26.5741C 28.004,25.8991 28.5446,25.3323 29.2196,24.8997C 29.867,24.4937 30.6765,24.3052 31.6758,24.2788C 32.2967,24.3052 32.8635,24.4133 33.3765,24.6295C 33.917,24.8722 34.4046,25.1965 34.7791,25.6013C 35.1587,26.0073 35.4541,26.4925 35.6993,27.033C 35.942,27.5722 36.05,28.1668 36.0765,28.76L 40.9095,28.76C 40.8541,27.4918 40.6117,26.3302 40.1527,25.277C 39.694,24.2247 39.0743,23.3073 38.2649,22.5505C 37.4527,21.7937 36.4825,21.2005 35.3486,20.768C 34.2149,20.3371 32.9717,20.1472 31.5953,20.1472C 29.8406,20.1472 28.3008,20.4437 27.0048,21.066C 25.7087,21.6871 24.629,22.4965 23.7656,23.5497C 22.9008,24.602 22.2533,25.8175 21.8486,27.2215C 21.4425,28.6255 21.2,30.0835 21.2,31.6497L 21.2,32.3788C 21.2,33.9437 21.4163,35.402 21.8211,36.8073C 22.2258,38.21 22.8743,39.4255 23.7378,40.4513C 24.6015,41.477 25.6825,42.3153 26.9783,42.9085C 28.2743,43.502 29.8128,43.8263 31.5675,43.8263C 32.8373,43.8263 34.025,43.61 35.1325,43.2066C 36.2399,42.8005 37.2102,42.2335 38.0486,41.5032C 38.8845,40.7755 39.5595,39.9372 40.0474,38.9668C 40.5325,37.9964 40.8277,36.968 40.8541,35.8607L 36.0236,35.8607C 35.9974,36.4301 35.8602,36.9418 35.6175,37.427C 35.375,37.9122 35.0508,38.318 34.6474,38.6714C 34.2413,39.0194 33.7825,39.291 33.242,39.4782C 32.729,39.668 32.1885,39.7209 31.6217,39.7497C 30.65,39.7209 29.8406,39.5335 29.2196,39.1301C 28.5446,38.6979 28.004,38.1282 27.6258,37.4532C 27.2486,36.7782 26.9508,35.9714 26.8163,35.0801C 26.6804,34.1888 26.6,33.2701 26.6,32.3788L 26.6,31.6497C 26.6,30.7045 26.6804,29.8133 26.8163,28.9222 Z M 32,5.0005C 17.0961,5.0005 5.00003,17.0965 5.00003,32.0005C 5.00003,46.9032 17.0961,59.0005 32,59.0005C 46.9027,59.0005 59,46.9032 59,32.0005C 59,17.0965 46.9027,5.0005 32,5.0005 Z M 32,53.6005C 20.0925,53.6005 10.4,43.908 10.4,32.0005C 10.4,20.093 20.0925,10.4005 32,10.4005C 43.9075,10.4005 53.6,20.093 53.6,32.0005C 53.6,43.908 43.9075,53.6005 32,53.6005 Z "/>
</svg>
