<?xml version="1.0" encoding="utf-8"?>
<!DOCTYPE svg PUBLIC "-//W3C//DTD SVG 1.1//EN" "http://www.w3.org/Graphics/SVG/1.1/DTD/svg11.dtd">
<svg xmlns="http://www.w3.org/2000/svg" xmlns:xlink="http://www.w3.org/1999/xlink" version="1.1" baseProfile="full" width="64" height="64" viewBox="0 0 64.00 64.00" enable-background="new 0 0 64.00 64.00" xml:space="preserve">
	<path fill="currentColor" d="M 32.0001,12.3636L 32.0001,4.99991L 22.1818,14.8182L 32.0001,24.6364L 32.0001,17.2727C 40.1259,17.2727 46.7275,23.8753 46.7275,32.0001C 46.7275,34.4787 46.1138,36.8348 45.0088,38.8724L 48.5924,42.456C 50.5075,39.4382 51.6366,35.8545 51.6366,32.0001C 51.6366,21.1512 42.849,12.3636 32.0001,12.3636 Z M 32.0001,46.7275C 23.8753,46.7275 17.2727,40.1259 17.2727,32.0001C 17.2727,29.5215 17.8864,27.1654 18.9914,25.1278L 15.4077,21.5442C 13.4927,24.562 12.3636,28.1469 12.3636,32.0001C 12.3636,42.849 21.1512,51.6366 32.0001,51.6366L 32.0001,59.0003L 41.8183,49.182L 32.0001,39.3638L 32.0001,46.7275 Z "/>
</svg>
