<?xml version="1.0" encoding="utf-8"?>
<!DOCTYPE svg PUBLIC "-//W3C//DTD SVG 1.1//EN" "http://www.w3.org/Graphics/SVG/1.1/DTD/svg11.dtd">
<svg xmlns="http://www.w3.org/2000/svg" xmlns:xlink="http://www.w3.org/1999/xlink" version="1.1" baseProfile="full" width="64" height="64" viewBox="0 0 64.00 64.00" enable-background="new 0 0 64.00 64.00" xml:space="preserve">
	<path fill="currentColor" d="M 54.9091,3.99719L 9.09087,3.99719C 6.29062,3.99719 3.99996,6.51692 3.99996,9.5972L 3.99996,43.1973C 3.99996,46.2762 6.29062,48.7973 9.09087,48.7973L 26.9091,48.7973L 26.9091,54.3973L 21.8181,54.3973L 21.8181,59.9973L 42.1818,59.9973L 42.1818,54.3973L 37.0909,54.3973L 37.0909,48.7973L 54.9091,48.7973C 57.7081,48.7973 60,46.2762 60,43.1973L 60,9.5972C 60,6.51692 57.7081,3.99719 54.9091,3.99719 Z M 54.9091,43.1973L 9.09087,43.1973L 9.09087,9.5972L 54.9091,9.5972L 54.9091,43.1973 Z "/>
</svg>
