<?xml version="1.0" encoding="utf-8"?>
<!DOCTYPE svg PUBLIC "-//W3C//DTD SVG 1.1//EN" "http://www.w3.org/Graphics/SVG/1.1/DTD/svg11.dtd">
<svg xmlns="http://www.w3.org/2000/svg" xmlns:xlink="http://www.w3.org/1999/xlink" version="1.1" baseProfile="full" width="64" height="64" viewBox="0 0 64.00 64.00" enable-background="new 0 0 64.00 64.00" xml:space="preserve">
	<path fill="currentColor" d="M 48.2,11.7501L 37.4,22.5501L 45.5,22.5501L 45.5,41.4501C 45.5,44.419 43.069,46.8501 40.1,46.8501C 37.1311,46.8501 34.7,44.419 34.7,41.4501L 34.7,22.5501C 34.7,16.5831 29.867,11.7501 23.9,11.7501C 17.9331,11.7501 13.1,16.5831 13.1,22.5501L 13.1,41.4501L 5.00004,41.4501L 15.8,52.2501L 26.6,41.4501L 18.5,41.4501L 18.5,22.5501C 18.5,19.5798 20.9298,17.1501 23.9,17.1501C 26.8703,17.1501 29.3,19.5798 29.3,22.5501L 29.3,41.4501C 29.3,47.417 34.1331,52.2501 40.1,52.2501C 46.067,52.2501 50.9,47.417 50.9,41.4501L 50.9,22.5501L 59,22.5501L 48.2,11.7501 Z "/>
</svg>
