<?xml version="1.0" encoding="utf-8"?>
<!DOCTYPE svg PUBLIC "-//W3C//DTD SVG 1.1//EN" "http://www.w3.org/Graphics/SVG/1.1/DTD/svg11.dtd">
<svg xmlns="http://www.w3.org/2000/svg" xmlns:xlink="http://www.w3.org/1999/xlink" version="1.1" baseProfile="full" width="64" height="64" viewBox="0 0 64.00 64.00" enable-background="new 0 0 64.00 64.00" xml:space="preserve">
	<path fill="currentColor" d="M 29.3,40.1L 34.7,40.1L 34.7,45.5L 29.3,45.5L 29.3,40.1 Z M 29.3,18.5L 34.7,18.5L 34.7,34.7L 29.3,34.7L 29.3,18.5 Z M 31.9736,5.00004C 17.0696,5.00004 5.00004,17.0961 5.00004,32C 5.00004,46.9027 17.0696,59 31.9736,59C 46.9027,59 59,46.9027 59,32C 59,17.0961 46.9027,5.00004 31.9736,5.00004 Z M 32,53.6C 20.0663,53.6 10.4,43.9338 10.4,32C 10.4,20.0663 20.0663,10.4 32,10.4C 43.9337,10.4 53.6,20.0663 53.6,32C 53.6,43.9338 43.9337,53.6 32,53.6 Z "/>
</svg>
