<?xml version="1.0" encoding="utf-8"?>
<!DOCTYPE svg PUBLIC "-//W3C//DTD SVG 1.1//EN" "http://www.w3.org/Graphics/SVG/1.1/DTD/svg11.dtd">
<svg xmlns="http://www.w3.org/2000/svg" xmlns:xlink="http://www.w3.org/1999/xlink" version="1.1" baseProfile="full" viewBox="0 0 64.00 64.00" enable-background="new 0 0 64.00 64.00" xml:space="preserve">
	<path fill="currentColor" d="M 31.9999,13.5909C 19.7272,13.5909 9.24634,21.2243 4.99994,32C 9.24634,42.7769 19.7272,50.4091 31.9999,50.4091C 44.2727,50.4091 54.7524,42.7769 58.9999,32C 54.7524,21.2243 44.2727,13.5909 31.9999,13.5909 Z M 31.9999,44.2727C 25.2259,44.2727 19.7272,38.774 19.7272,32C 19.7272,25.226 25.2259,19.7273 31.9999,19.7273C 38.774,19.7273 44.2727,25.226 44.2727,32C 44.2727,38.774 38.774,44.2727 31.9999,44.2727 Z M 31.9999,24.6364C 27.9249,24.6364 24.6363,27.925 24.6363,32C 24.6363,36.075 27.9249,39.3636 31.9999,39.3636C 36.0749,39.3636 39.3636,36.075 39.3636,32C 39.3636,27.925 36.0749,24.6364 31.9999,24.6364 Z "/>
</svg>
