<?xml version="1.0" encoding="utf-8"?>
<!DOCTYPE svg PUBLIC "-//W3C//DTD SVG 1.1//EN" "http://www.w3.org/Graphics/SVG/1.1/DTD/svg11.dtd">
<svg xmlns="http://www.w3.org/2000/svg" xmlns:xlink="http://www.w3.org/1999/xlink" version="1.1" baseProfile="full" width="64" height="64" viewBox="0 0 64.00 64.00" enable-background="new 0 0 64.00 64.00" xml:space="preserve">
	<path fill="currentColor" d="M 28.1429,16.5714L 28.1429,12.7143L 24.2857,12.7143L 24.2857,16.5714L 28.1429,16.5714 Z M 32,20.4286L 32,16.5714L 28.1429,16.5714L 28.1429,20.4286L 32,20.4286 Z M 28.1429,24.2857L 28.1429,20.4286L 24.2857,20.4286L 24.2857,24.2857L 28.1429,24.2857 Z M 32,28.1429L 32,24.2857L 28.1429,24.2857L 28.1429,28.1429L 32,28.1429 Z M 53.0938,16.4509C 53.6563,17.0134 54.1384,17.7768 54.5402,18.7411C 54.942,19.7054 55.1429,20.5893 55.1429,21.3929L 55.1429,56.1071C 55.1429,56.9107 54.8616,57.5937 54.2991,58.1563C 53.7366,58.7188 53.0536,59 52.25,59L 11.75,59C 10.9464,59 10.2634,58.7188 9.70089,58.1563C 9.1384,57.5937 8.85714,56.9107 8.85714,56.1071L 8.85714,7.89286C 8.85714,7.08929 9.1384,6.40625 9.70089,5.84375C 10.2634,5.28125 10.9464,5 11.75,5L 38.75,5C 39.5536,5 40.4375,5.20089 41.4018,5.60268C 42.3661,6.00447 43.1295,6.48661 43.692,7.04911L 53.0938,16.4509 Z M 39.7143,9.09822L 39.7143,20.4286L 51.0446,20.4286C 50.8437,19.846 50.6228,19.4342 50.3817,19.1931L 40.9498,9.76117C 40.7087,9.52009 40.2969,9.2991 39.7143,9.09822 Z M 51.2857,55.1429L 51.2857,24.2857L 38.75,24.2857C 37.9464,24.2857 37.2634,24.0045 36.7009,23.442C 36.1384,22.8795 35.8571,22.1964 35.8571,21.3929L 35.8571,8.85715L 32,8.85715L 32,12.7143L 28.1429,12.7143L 28.1429,8.85715L 12.7143,8.85715L 12.7143,55.1429L 51.2857,55.1429 Z M 32.3917,33.4163L 35.6161,43.933C 35.7768,44.4754 35.8571,44.9978 35.8571,45.5C 35.8571,47.1674 35.1289,48.5486 33.6724,49.6434C 32.216,50.7383 30.3728,51.2857 28.1429,51.2857C 25.9129,51.2857 24.0697,50.7383 22.6133,49.6434C 21.1568,48.5486 20.4286,47.1674 20.4286,45.5C 20.4286,44.9978 20.5089,44.4754 20.6696,43.933C 21.0915,42.6674 22.2969,38.6897 24.2857,32L 24.2857,28.1429L 28.1429,28.1429L 28.1429,32L 30.5234,32C 30.9654,32 31.3572,32.1306 31.6987,32.3917C 32.0402,32.6529 32.2712,32.9944 32.3917,33.4163 Z M 28.1429,47.4286C 29.2076,47.4286 30.1166,47.2377 30.87,46.856C 31.6233,46.4743 32,46.0223 32,45.5C 32,44.9777 31.6233,44.5257 30.87,44.144C 30.1166,43.7623 29.2076,43.5714 28.1429,43.5714C 27.0781,43.5714 26.1691,43.7623 25.4157,44.144C 24.6624,44.5257 24.2857,44.9777 24.2857,45.5C 24.2857,46.0223 24.6624,46.4743 25.4157,46.856C 26.1691,47.2377 27.0781,47.4286 28.1429,47.4286 Z "/>
</svg>
