<?xml version="1.0" encoding="utf-8"?>
<!DOCTYPE svg PUBLIC "-//W3C//DTD SVG 1.1//EN" "http://www.w3.org/Graphics/SVG/1.1/DTD/svg11.dtd">
<svg xmlns="http://www.w3.org/2000/svg" xmlns:xlink="http://www.w3.org/1999/xlink" version="1.1" baseProfile="full" width="64" height="64" viewBox="0 0 64.00 64.00" enable-background="new 0 0 64.00 64.00" xml:space="preserve">
	<path fill="currentColor" d="M 47.4286,29.8786L 47.4286,49.55C 47.4286,50.0563 47.2047,50.4118 46.757,50.6167L 46.3265,50.7071C 46.0166,50.7071 45.7583,50.5926 45.5517,50.3636L 38.6122,43.0772L 38.6122,46.0786C 38.6122,47.5129 38.1272,48.7394 37.1572,49.7579C 36.1872,50.7765 35.0191,51.2857 33.6531,51.2857L 21.5306,51.2857C 20.1645,51.2857 18.9965,50.7765 18.0265,49.7579C 17.0564,48.7394 16.5714,47.5129 16.5714,46.0786L 16.5714,33.35C 16.5714,31.9156 17.0564,30.6892 18.0265,29.6706C 18.9965,28.6521 20.1645,28.1428 21.5306,28.1428L 33.6531,28.1428C 35.0191,28.1428 36.1872,28.6521 37.1572,29.6706C 38.1272,30.6892 38.6122,31.9156 38.6122,33.35L 38.6122,36.3333L 45.5517,29.0649C 45.7583,28.8359 46.0166,28.7214 46.3265,28.7214L 46.757,28.8118C 47.2047,29.0167 47.4286,29.3723 47.4286,29.8786 Z M 53.0938,16.4509C 53.6563,17.0134 54.1384,17.7768 54.5402,18.7411C 54.942,19.7054 55.1429,20.5893 55.1429,21.3929L 55.1429,56.1072C 55.1429,56.9107 54.8616,57.5938 54.2991,58.1563C 53.7366,58.7188 53.0536,59 52.25,59L 11.75,59C 10.9464,59 10.2634,58.7188 9.70089,58.1563C 9.1384,57.5938 8.85715,56.9107 8.85715,56.1072L 8.85715,7.89287C 8.85715,7.0893 9.1384,6.40625 9.70089,5.84377C 10.2634,5.28127 10.9464,5.00002 11.75,5.00002L 38.75,5.00002C 39.5536,5.00002 40.4375,5.2009 41.4018,5.60269C 42.3661,6.00448 43.1295,6.48662 43.692,7.04912L 53.0938,16.4509 Z M 39.7143,9.09823L 39.7143,20.4286L 51.0446,20.4286C 50.8437,19.846 50.6228,19.4342 50.3817,19.1931L 40.9498,9.76117C 40.7087,9.52011 40.2969,9.29911 39.7143,9.09823 Z M 51.2857,55.1429L 51.2857,24.2857L 38.75,24.2857C 37.9464,24.2857 37.2634,24.0045 36.7009,23.442C 36.1384,22.8795 35.8571,22.1964 35.8571,21.3929L 35.8571,8.85716L 12.7143,8.85716L 12.7143,55.1429L 51.2857,55.1429 Z "/>
</svg>
