<?xml version="1.0" encoding="utf-8"?>
<!DOCTYPE svg PUBLIC "-//W3C//DTD SVG 1.1//EN" "http://www.w3.org/Graphics/SVG/1.1/DTD/svg11.dtd">
<svg xmlns="http://www.w3.org/2000/svg" xmlns:xlink="http://www.w3.org/1999/xlink" version="1.1" baseProfile="full" width="64" height="64" viewBox="0 0 64.00 64.00" enable-background="new 0 0 64.00 64.00" xml:space="preserve">
	<path fill="currentColor" d="M 53.0938,16.4509C 53.6563,17.0134 54.1384,17.7768 54.5402,18.7411C 54.942,19.7054 55.1429,20.5893 55.1429,21.3929L 55.1429,56.1071C 55.1429,56.9107 54.8616,57.5937 54.2991,58.1562C 53.7366,58.7188 53.0536,59 52.25,59L 11.75,59C 10.9464,59 10.2634,58.7188 9.70089,58.1562C 9.1384,57.5937 8.85714,56.9107 8.85714,56.1071L 8.85714,7.89285C 8.85714,7.08929 9.1384,6.40625 9.70089,5.84375C 10.2634,5.28125 10.9464,5 11.75,5L 38.75,5C 39.5536,5 40.4375,5.20089 41.4018,5.60268C 42.3661,6.00447 43.1295,6.48661 43.692,7.0491L 53.0938,16.4509 Z M 39.7143,9.09821L 39.7143,20.4286L 51.0446,20.4286C 50.8437,19.846 50.6228,19.4341 50.3817,19.1931L 40.9498,9.76116C 40.7087,9.52008 40.2969,9.2991 39.7143,9.09821 Z M 51.2857,55.1429L 51.2857,24.2857L 38.75,24.2857C 37.9464,24.2857 37.2634,24.0045 36.7009,23.442C 36.1384,22.8795 35.8571,22.1964 35.8571,21.3929L 35.8571,8.85714L 12.7143,8.85714L 12.7143,55.1429L 51.2857,55.1429 Z M 20.4286,29.1071C 20.4286,28.8259 20.519,28.5949 20.6998,28.4141C 20.8806,28.2333 21.1116,28.1429 21.3929,28.1429L 42.6071,28.1429C 42.8884,28.1429 43.1194,28.2333 43.3002,28.4141C 43.481,28.5949 43.5714,28.8259 43.5714,29.1071L 43.5714,31.0357C 43.5714,31.317 43.481,31.548 43.3002,31.7288C 43.1194,31.9096 42.8884,32 42.6071,32L 21.3929,32C 21.1116,32 20.8806,31.9096 20.6998,31.7288C 20.519,31.548 20.4286,31.317 20.4286,31.0357L 20.4286,29.1071 Z M 42.6071,35.8571C 42.8884,35.8571 43.1194,35.9475 43.3002,36.1283C 43.481,36.3092 43.5714,36.5402 43.5714,36.8214L 43.5714,38.75C 43.5714,39.0312 43.481,39.2623 43.3002,39.4431C 43.1194,39.6239 42.8884,39.7143 42.6071,39.7143L 21.3929,39.7143C 21.1116,39.7143 20.8806,39.6239 20.6998,39.4431C 20.519,39.2623 20.4286,39.0312 20.4286,38.75L 20.4286,36.8214C 20.4286,36.5402 20.519,36.3092 20.6998,36.1283C 20.8806,35.9475 21.1116,35.8571 21.3929,35.8571L 42.6071,35.8571 Z M 42.6071,43.5714C 42.8884,43.5714 43.1194,43.6618 43.3002,43.8426C 43.481,44.0234 43.5714,44.2545 43.5714,44.5357L 43.5714,46.4643C 43.5714,46.7455 43.481,46.9766 43.3002,47.1574C 43.1194,47.3382 42.8884,47.4286 42.6071,47.4286L 21.3929,47.4286C 21.1116,47.4286 20.8806,47.3382 20.6998,47.1574C 20.519,46.9766 20.4286,46.7455 20.4286,46.4643L 20.4286,44.5357C 20.4286,44.2545 20.519,44.0234 20.6998,43.8426C 20.8806,43.6618 21.1116,43.5714 21.3929,43.5714L 42.6071,43.5714 Z "/>
</svg>
