<?xml version="1.0" encoding="utf-8"?>
<!DOCTYPE svg PUBLIC "-//W3C//DTD SVG 1.1//EN" "http://www.w3.org/Graphics/SVG/1.1/DTD/svg11.dtd">
<svg xmlns="http://www.w3.org/2000/svg" xmlns:xlink="http://www.w3.org/1999/xlink" version="1.1" baseProfile="full" width="64" height="64" viewBox="0 0 64.00 64.00" enable-background="new 0 0 64.00 64.00" xml:space="preserve">
	<path fill="currentColor" d="M 37.143,15.2854C 37.143,12.4566 34.8277,10.1425 32.0001,10.1425L 29.4287,10.1425L 29.4287,7.57106C 29.4287,6.15727 28.271,4.99961 26.8572,4.99961L 16.5714,4.99961C 15.1576,4.99961 14,6.15727 14,7.57106L 14,10.1425L 11.4285,10.1425C 8.59968,10.1425 6.28563,12.4566 6.28563,15.2854L 6.28563,53.8572C 6.28563,56.6848 8.59968,59.0001 11.4285,59.0001L 32.0001,59.0001C 34.8277,59.0001 37.143,56.6848 37.143,53.8572L 57.7146,53.8572L 57.7146,15.2854L 37.143,15.2854 Z M 32.0001,48.7143L 26.8572,48.7143L 26.8572,43.5714L 32.0001,43.5714L 32.0001,48.7143 Z M 32.0001,25.5712L 26.8572,25.5712L 26.8572,20.4283L 32.0001,20.4283L 32.0001,25.5712 Z M 42.2859,48.7143L 37.143,48.7143L 37.143,43.5714L 42.2859,43.5714L 42.2859,48.7143 Z M 42.2859,25.5712L 37.143,25.5712L 37.143,20.4283L 42.2859,20.4283L 42.2859,25.5712 Z M 52.5717,48.7143L 47.4288,48.7143L 47.4288,43.5714L 52.5717,43.5714L 52.5717,48.7143 Z M 52.5717,25.5712L 47.4288,25.5712L 47.4288,20.4283L 52.5717,20.4283L 52.5717,25.5712 Z "/>
</svg>
