<?xml version="1.0" encoding="utf-8"?>
<!DOCTYPE svg PUBLIC "-//W3C//DTD SVG 1.1//EN" "http://www.w3.org/Graphics/SVG/1.1/DTD/svg11.dtd">
<svg xmlns="http://www.w3.org/2000/svg" xmlns:xlink="http://www.w3.org/1999/xlink" version="1.1" baseProfile="full" viewBox="0 0 64.00 64.00" enable-background="new 0 0 64.00 64.00" xml:space="preserve">
	<path fill="currentColor" d="M 32,5.00004C 17.0961,5.00004 5.00004,17.0961 5.00004,32C 5.00004,46.9027 17.0961,59 32,59C 46.9027,59 59,46.9027 59,32C 59,17.0961 46.9027,5.00004 32,5.00004 Z M 32,53.6C 20.0663,53.6 10.4,43.9338 10.4,32C 10.4,27.0048 12.1008,22.4156 14.9628,18.7703L 45.2311,49.0384C 41.5845,51.8993 36.994,53.6 32,53.6 Z M 49.0383,45.2311L 18.7703,14.9628C 22.4156,12.1008 27.0048,10.4 32,10.4C 43.9337,10.4 53.6,20.0663 53.6,32C 53.6,36.994 51.8993,41.5845 49.0383,45.2311 Z "/>
</svg>
