<?xml version="1.0" encoding="utf-8"?>
<!DOCTYPE svg PUBLIC "-//W3C//DTD SVG 1.1//EN" "http://www.w3.org/Graphics/SVG/1.1/DTD/svg11.dtd">
<svg xmlns="http://www.w3.org/2000/svg" xmlns:xlink="http://www.w3.org/1999/xlink" version="1.1" baseProfile="full" width="64" height="64" viewBox="0 0 64.00 64.00" enable-background="new 0 0 64.00 64.00" xml:space="preserve">
	<path fill="currentColor" d="M 47.7016,11.6682C 47.4857,11.6682 47.2694,11.6155 47.0796,11.5075C 41.8958,8.83366 37.4132,7.69995 32.0396,7.69995C 26.6936,7.69995 21.6178,8.96814 17.0008,11.5075C 16.3536,11.858 15.5428,11.6155 15.1645,10.967C 14.8138,10.3181 15.0576,9.48247 15.705,9.13178C 20.7265,6.4039 26.2348,4.99992 32.0396,4.99992C 37.7928,4.99992 42.8133,6.26811 48.3214,9.10393C 48.9964,9.4547 49.2391,10.2655 48.8883,10.9127C 48.6458,11.3992 48.1869,11.6682 47.7016,11.6682 Z M 9.06297,25.8433C 8.7927,25.8433 8.52244,25.7629 8.27994,25.6009C 7.65899,25.1683 7.52451,24.3326 7.95546,23.7117C 10.6293,19.9319 14.0305,16.9616 18.0805,14.8825C 26.5592,10.508 37.4132,10.4818 45.9194,14.8547C 49.9694,16.9337 53.3709,19.8765 56.0445,23.6298C 56.4767,24.2243 56.3398,25.0879 55.7175,25.5204C 55.0979,25.9516 54.2619,25.8171 53.8297,25.1961C 51.3985,21.7933 48.3214,19.1211 44.675,17.2581C 36.9281,13.2884 27.0179,13.2884 19.2961,17.2845C 15.6246,19.175 12.546,21.8751 10.1163,25.2766C 9.90022,25.6548 9.49548,25.8433 9.06297,25.8433 Z M 25.9381,58.4334C 25.5874,58.4334 25.2367,58.299 24.9929,58.03C 22.6435,55.678 21.3753,54.1673 19.5664,50.9003C 17.7036,47.578 16.7305,43.5279 16.7305,39.1827C 16.7305,31.1629 23.5889,24.6291 32.0132,24.6291C 40.4375,24.6291 47.2958,31.1629 47.2958,39.1827C 47.2958,39.9369 46.7,40.5328 45.9458,40.5328C 45.1891,40.5328 44.5958,39.9369 44.5958,39.1827C 44.5958,32.6487 38.9531,27.3291 32.0132,27.3291C 25.0747,27.3291 19.4306,32.6487 19.4306,39.1827C 19.4306,43.0692 20.2956,46.6605 21.9421,49.5768C 23.6706,52.6829 24.8584,54.0064 26.9374,56.1105C 27.4504,56.6512 27.4504,57.4871 26.9374,58.03C 26.6396,58.299 26.2889,58.4334 25.9381,58.4334 Z M 45.297,53.437C 42.0856,53.437 39.2484,52.63 36.9281,51.0348C 32.9045,48.3083 30.5009,43.8813 30.5009,39.1827C 30.5009,38.426 31.0957,37.8327 31.8509,37.8327C 32.6078,37.8327 33.201,38.426 33.201,39.1827C 33.201,42.9901 35.1457,46.5814 38.439,48.7935C 40.3558,50.0909 42.597,50.7105 45.297,50.7105C 45.9458,50.7105 47.0266,50.6314 48.1053,50.4416C 48.8357,50.3072 49.5369,50.7923 49.6714,51.5489C 49.8058,52.2768 49.3208,52.978 48.5641,53.1152C 47.0266,53.4105 45.6766,53.437 45.297,53.437 Z M 39.8708,59.0004C 39.7625,59.0004 39.6281,58.974 39.5173,58.9478C 35.2249,57.7584 32.4179,56.1659 29.4754,53.2761C 25.6956,49.5239 23.6164,44.5299 23.6164,39.1827C 23.6164,34.8082 27.3421,31.2433 31.9328,31.2433C 36.5219,31.2433 40.2477,34.8082 40.2477,39.1827C 40.2477,42.0726 42.7606,44.4192 45.8641,44.4192C 48.9674,44.4192 51.4803,42.0726 51.4803,39.1827C 51.4803,29.0034 42.7053,20.7414 31.9052,20.7414C 24.2373,20.7414 17.217,25.0076 14.0583,31.6219C 13.005,33.8089 12.4645,36.3744 12.4645,39.1827C 12.4645,41.2869 12.6543,44.609 14.2746,48.928C 14.5434,49.6321 14.1928,50.4152 13.4913,50.6578C 12.7888,50.9268 12.0055,50.5496 11.763,49.8746C 10.4394,46.3386 9.79195,42.8267 9.79195,39.1827C 9.79195,35.9422 10.413,32.9994 11.6285,30.4339C 15.2184,22.9009 23.1841,18.0135 31.9052,18.0135C 44.1897,18.0135 54.1804,27.4914 54.1804,39.1563C 54.1804,43.5279 50.4546,47.0928 45.8641,47.0928C 41.2734,47.0928 37.5477,43.5279 37.5477,39.1563C 37.5477,36.2665 35.0374,33.9172 31.9328,33.9172C 28.8266,33.9172 26.3164,36.2665 26.3164,39.1563C 26.3164,43.7707 28.0976,48.0923 31.3646,51.3328C 33.9302,53.8693 36.3875,55.2746 40.1924,56.3268C 40.9227,56.5167 41.3288,57.2708 41.139,57.9746C 41.0046,58.5944 40.4375,59.0004 39.8708,59.0004 Z "/>
</svg>
