<?xml version="1.0" encoding="utf-8"?>
<!DOCTYPE svg PUBLIC "-//W3C//DTD SVG 1.1//EN" "http://www.w3.org/Graphics/SVG/1.1/DTD/svg11.dtd">
<svg xmlns="http://www.w3.org/2000/svg" xmlns:xlink="http://www.w3.org/1999/xlink" version="1.1" baseProfile="full" width="64" height="64" viewBox="0 0 64.00 64.00" enable-background="new 0 0 64.00 64.00" xml:space="preserve">
	<path fill="currentColor" d="M 53.0001,4.99989L 11.0001,4.99989C 7.69978,4.99989 5.00007,7.6996 5.00007,10.9999L 5.00007,52.9999C 5.00007,56.2987 7.69978,58.9999 11.0001,58.9999L 53.0001,58.9999C 56.2989,58.9999 59.0001,56.2987 59.0001,52.9999L 59.0001,10.9999C 59.0001,7.6996 56.2989,4.99989 53.0001,4.99989 Z M 18.5001,49.9999C 16.0097,49.9999 14.0001,47.9902 14.0001,45.4999C 14.0001,43.0096 16.0097,40.9999 18.5001,40.9999C 20.9904,40.9999 23.0001,43.0096 23.0001,45.4999C 23.0001,47.9902 20.9904,49.9999 18.5001,49.9999 Z M 18.5001,22.9999C 16.0097,22.9999 14.0001,20.9902 14.0001,18.4999C 14.0001,16.0096 16.0097,13.9999 18.5001,13.9999C 20.9904,13.9999 23.0001,16.0096 23.0001,18.4999C 23.0001,20.9902 20.9904,22.9999 18.5001,22.9999 Z M 32.0001,36.4999C 29.5097,36.4999 27.5001,34.4902 27.5001,31.9999C 27.5001,29.5096 29.5097,27.4999 32.0001,27.4999C 34.4904,27.4999 36.5001,29.5096 36.5001,31.9999C 36.5001,34.4902 34.4904,36.4999 32.0001,36.4999 Z M 45.5001,49.9999C 43.0097,49.9999 41.0001,47.9902 41.0001,45.4999C 41.0001,43.0096 43.0097,40.9999 45.5001,40.9999C 47.9904,40.9999 50.0001,43.0096 50.0001,45.4999C 50.0001,47.9902 47.9904,49.9999 45.5001,49.9999 Z M 45.5001,22.9999C 43.0097,22.9999 41.0001,20.9902 41.0001,18.4999C 41.0001,16.0096 43.0097,13.9999 45.5001,13.9999C 47.9904,13.9999 50.0001,16.0096 50.0001,18.4999C 50.0001,20.9902 47.9904,22.9999 45.5001,22.9999 Z "/>
</svg>
