<?xml version="1.0" encoding="utf-8"?>
<!DOCTYPE svg PUBLIC "-//W3C//DTD SVG 1.1//EN" "http://www.w3.org/Graphics/SVG/1.1/DTD/svg11.dtd">
<svg xmlns="http://www.w3.org/2000/svg" xmlns:xlink="http://www.w3.org/1999/xlink" version="1.1" baseProfile="full" width="64" height="64" viewBox="0 0 64.00 64.00" enable-background="new 0 0 64.00 64.00" xml:space="preserve">
	<path fill="currentColor" d="M 31.9726,3.99629C 16.5166,3.99629 4.00005,16.5404 4.00005,31.9964C 4.00005,47.451 16.5166,59.9964 31.9726,59.9964C 47.4546,59.9964 59.9999,47.451 59.9999,31.9964C 59.9999,16.5404 47.4546,3.99629 31.9726,3.99629 Z M 51.3757,20.7963L 43.1179,20.7963C 42.2211,17.2963 40.9306,13.9358 39.2515,10.8281C 44.4031,12.5917 48.6879,16.1766 51.3757,20.7963 Z M 32,9.70833C 34.3243,13.0689 36.1454,16.7917 37.3485,20.7963L 26.6515,20.7963C 27.856,16.7917 29.6757,13.0689 32,9.70833 Z M 10.3275,37.5964C 9.88031,35.8027 9.60004,33.927 9.60004,31.9964C 9.60004,30.0646 9.88031,28.1887 10.3275,26.3964L 19.7923,26.3964C 19.5683,28.2449 19.4,30.0918 19.4,31.9964C 19.4,33.8995 19.5683,35.7479 19.7923,37.5964L 10.3275,37.5964 Z M 12.6243,43.1964L 20.8834,43.1964C 21.7803,46.6964 23.0683,50.057 24.7485,53.1658C 19.5954,51.3995 15.312,47.8449 12.6243,43.1964 Z M 20.8834,20.7963L 12.6243,20.7963C 15.312,16.1478 19.5954,12.5917 24.7485,10.8281C 23.0683,13.9358 21.7803,17.2963 20.8834,20.7963 Z M 32,54.2844C 29.6757,50.9239 27.856,47.1995 26.6515,43.1964L 37.3485,43.1964C 36.1454,47.1995 34.3243,50.9239 32,54.2844 Z M 38.5515,37.5964L 25.4485,37.5964C 25.1954,35.7479 25,33.8995 25,31.9964C 25,30.0918 25.1954,28.2161 25.4485,26.3964L 38.5515,26.3964C 38.8031,28.2161 39,30.0918 39,31.9964C 39,33.8995 38.8031,35.7479 38.5515,37.5964 Z M 39.2515,53.1658C 40.9306,50.057 42.2211,46.6964 43.1179,43.1964L 51.3757,43.1964C 48.6879,47.8175 44.4031,51.3995 39.2515,53.1658 Z M 44.2063,37.5964C 44.4306,35.7479 44.6,33.8995 44.6,31.9964C 44.6,30.0918 44.4306,28.2449 44.2063,26.3964L 53.6725,26.3964C 54.121,28.1887 54.4,30.0646 54.4,31.9964C 54.4,33.927 54.121,35.8027 53.6725,37.5964L 44.2063,37.5964 Z "/>
</svg>
