<?xml version="1.0" encoding="utf-8"?>
<!DOCTYPE svg PUBLIC "-//W3C//DTD SVG 1.1//EN" "http://www.w3.org/Graphics/SVG/1.1/DTD/svg11.dtd">
<svg xmlns="http://www.w3.org/2000/svg" xmlns:xlink="http://www.w3.org/1999/xlink" version="1.1" baseProfile="full" width="64" height="64" viewBox="0 0 64.00 64.00" enable-background="new 0 0 64.00 64.00" xml:space="preserve">
	<path fill="currentColor" d="M 50.9001,48.2C 53.1359,48.2 54.95,50.0142 54.95,52.2501C 54.95,54.4859 53.1359,56.3 50.9001,56.3C 48.6642,56.3 46.8501,54.4859 46.8501,52.2501C 46.8501,50.0142 48.6642,48.2 50.9001,48.2 Z M 44.1501,15.5837L 27.95,23.8461L 27.95,48.2819C 35.6176,48.7118 41.45,50.9265 41.45,53.6001C 41.45,56.569 34.1884,59.0001 25.2501,59.0001C 16.3128,59.0001 9.05005,56.569 9.05005,53.6001C 9.05005,51.6015 12.3171,49.8743 17.1501,48.9277L 17.1501,53.6001L 22.55,53.6001L 22.55,5L 44.1501,15.5837 Z "/>
</svg>
