<?xml version="1.0" encoding="utf-8"?>
<!DOCTYPE svg PUBLIC "-//W3C//DTD SVG 1.1//EN" "http://www.w3.org/Graphics/SVG/1.1/DTD/svg11.dtd">
<svg xmlns="http://www.w3.org/2000/svg" xmlns:xlink="http://www.w3.org/1999/xlink" version="1.1" baseProfile="full" width="64" height="64" viewBox="0 0 64.00 64.00" enable-background="new 0 0 64.00 64.00" xml:space="preserve">
	<path fill="currentColor" d="M 43.2169,41.4879C 46.5904,42.6566 48.7349,45.7892 48.7349,49.3434L 45.3494,49.3434L 15.241,49.3434C 15.241,46.7289 16.3374,44.3073 18.4458,42.753C 20.253,41.4036 22.253,41.1988 24.4217,40.753C 25.2289,40.5843 27.241,40.1987 27.4819,39.2831C 27.7229,38.3675 27.6988,37.3554 27.7108,36.4157C 27.7229,36.1024 27.6145,36.0784 27.3976,35.8374C 26.9638,35.3433 26.5904,34.8012 26.4097,34.1627C 26.1446,33.2108 26.0361,32.2108 25.9397,31.235C 24.8434,31.5362 24.6747,29.3313 24.4819,28.7168C 24.3494,28.2832 23.7229,25.8012 24.8916,26.1506C 24.5301,25.5 24.4096,24.6928 24.3253,23.9699C 24.1325,22.3795 24.0843,20.7289 24.6627,19.2108C 25.8675,16.0904 29.0964,14.5482 32.3133,14.6566C 35.4819,14.753 38.482,16.5121 39.4578,19.6446C 39.9277,21.1506 39.8313,22.8374 39.5903,24.3795C 39.5061,24.9699 39.3856,25.6205 39.0844,26.1506C 40.3373,25.765 39.5301,28.5844 39.3976,28.994C 39.2169,29.5843 39.0844,31.5241 38.0362,31.235C 37.9157,32.4639 37.8554,33.9217 37.2048,35.006C 37.0362,35.2831 36.265,35.9216 36.265,36.2228L 36.3012,37.5964C 36.3373,38.1747 36.3373,38.8253 36.5301,39.3795C 36.735,39.9458 37.7108,40.1506 38.2048,40.3192C 39.8313,40.8855 41.5904,40.9216 43.2169,41.4879 Z M 18.4096,40.006C 17.3253,40.5723 16.3253,41.3554 15.506,42.2591C 15.3373,42.4398 14.7349,43.5602 14.5783,43.5602L 11.6024,43.5602L 5,43.5602C 5,41.1506 6.56626,39.4397 8.67469,38.741C 9.43371,38.488 11.9518,38.259 12.2891,37.3915C 12.506,36.8374 12.3976,36.0784 12.3615,35.488C 11.1566,35.5843 9.46989,35.3434 8.46985,34.6326C 8.20483,34.4519 8.87954,33.5844 9.01202,33.2349C 9.18074,32.7771 9.28916,32.3072 9.36147,31.8253C 9.51807,30.7048 9.46989,29.5723 9.43371,28.4518C 9.37346,26.4879 9.31322,24.3434 10.4217,22.6205C 11.4217,21.0543 13.1928,20.4398 14.9879,20.4398C 17.8916,20.4398 20.1687,21.9217 20.7108,24.8735C 21.0723,26.8012 20.7711,28.753 20.8915,30.6928C 20.9518,31.6807 21.1325,32.6686 21.5421,33.5722C 21.6747,33.8615 22.1807,34.3916 21.8916,34.6085L 21.1084,35.018C 20.4578,35.2711 19.759,35.4157 19.0723,35.5C 18.9036,35.5241 18.1446,35.476 18.0241,35.5964C 17.8554,35.753 17.9759,36.7169 17.9879,36.9337C 18.0241,37.4157 18.1446,37.5723 18.5783,37.741C 19.2771,38.0181 20.9397,38.1386 21.4217,38.753C 21.6747,39.0783 21.5181,39.3073 21.1807,39.3434C 20.3012,39.4277 19.4217,39.5241 18.6024,39.9097L 18.506,39.9578L 18.4096,40.006 Z M 55.2771,38.729C 57.3976,39.4277 58.9759,41.1506 59,43.5722L 49.3373,43.5722C 49.0722,42.6084 48.0964,41.8133 47.3735,41.2228C 46.4096,40.4397 45.3132,39.7531 44.0722,39.5241C 43.6867,39.4519 42.1325,39.6446 42.494,38.8734C 42.7349,38.3554 43.5542,38.3193 44.0481,38.1868C 44.5301,38.0542 45.8192,37.8856 45.9518,37.2952C 45.9879,37.1386 46.0723,35.6204 45.9518,35.6204C 45.2289,35.5964 44.506,35.5 43.8072,35.3314C 43.3493,35.2229 42.8915,35.0783 42.4699,34.8614C 41.7108,34.4759 42.1445,34.247 42.4457,33.5964C 44.1927,29.7169 41.1807,22.9458 46.2892,20.8976C 48.0603,20.1747 50.506,20.2109 52.1567,21.235C 53.9879,22.3675 54.518,24.5723 54.5663,26.5844C 54.6265,29.0061 54.0361,31.8012 55.3494,34.0061C 55.5904,34.4156 55.8072,34.4639 55.3373,34.7409L 54.6988,35.0301C 54.2288,35.1987 53.7469,35.2952 53.253,35.3675C 52.7108,35.4397 52.1325,35.5241 51.6024,35.476C 51.5662,35.9819 51.3735,37.0542 51.7228,37.4759C 52.4216,38.3193 54.3012,38.4156 55.2771,38.729 Z "/>
</svg>
