<?xml version="1.0" encoding="utf-8"?>
<!DOCTYPE svg PUBLIC "-//W3C//DTD SVG 1.1//EN" "http://www.w3.org/Graphics/SVG/1.1/DTD/svg11.dtd">
<svg xmlns="http://www.w3.org/2000/svg" xmlns:xlink="http://www.w3.org/1999/xlink" version="1.1" baseProfile="full" width="64" height="64" viewBox="0 0 64.00 64.00" enable-background="new 0 0 64.00 64.00" xml:space="preserve">
	<path fill="currentColor" d="M 29.2024,48.7967L 34.8024,48.7967L 34.8024,43.1966L 29.2024,43.1966L 29.2024,48.7967 Z M 32.0024,3.99654C 16.5464,3.99654 4.00233,16.5406 4.00233,31.9966C 4.00233,47.4513 16.5464,59.9967 32.0024,59.9967C 47.4571,59.9967 60.0025,47.4513 60.0025,31.9966C 60.0025,16.5406 47.4571,3.99654 32.0024,3.99654 Z M 32.0024,54.3967C 19.6539,54.3967 9.60235,44.3452 9.60235,31.9966C 9.60235,19.6481 19.6539,9.59655 32.0024,9.59655C 44.351,9.59655 54.4025,19.6481 54.4025,31.9966C 54.4025,44.3452 44.351,54.3967 32.0024,54.3967 Z M 32.0024,15.1966C 25.8144,15.1966 20.8024,20.2086 20.8024,26.3966L 26.4024,26.3966C 26.4024,23.3163 28.9221,20.7966 32.0024,20.7966C 35.0813,20.7966 37.6024,23.3163 37.6024,26.3966C 37.6024,31.9966 29.2024,31.2966 29.2024,40.3966L 34.8024,40.3966C 34.8024,34.0966 43.2024,33.3966 43.2024,26.3966C 43.2024,20.2086 38.1904,15.1966 32.0024,15.1966 Z "/>
</svg>
