<?xml version="1.0" encoding="utf-8"?>
<!DOCTYPE svg PUBLIC "-//W3C//DTD SVG 1.1//EN" "http://www.w3.org/Graphics/SVG/1.1/DTD/svg11.dtd">
<svg xmlns="http://www.w3.org/2000/svg" xmlns:xlink="http://www.w3.org/1999/xlink" version="1.1" baseProfile="full" width="64" height="64" viewBox="0 0 64.00 64.00" enable-background="new 0 0 64.00 64.00" xml:space="preserve">
	<path fill="currentColor" d="M 19.7274,33.2272C 23.8024,33.2272 27.091,29.9385 27.091,25.8635C 27.091,21.7885 23.8024,18.4999 19.7274,18.4999C 15.6524,18.4999 12.3637,21.7885 12.3637,25.8635C 12.3637,29.9385 15.6524,33.2272 19.7274,33.2272 Z M 49.1819,18.4999L 29.5456,18.4999L 29.5456,35.6817L 9.9092,35.6817L 9.9092,13.5908L 5.00011,13.5908L 5.00011,50.409L 9.9092,50.409L 9.9092,43.0453L 54.091,43.0453L 54.091,50.409L 59.0001,50.409L 59.0001,28.3181C 59.0001,22.8936 54.6064,18.4999 49.1819,18.4999 Z "/>
</svg>
