<?xml version="1.0" encoding="utf-8"?>
<!DOCTYPE svg PUBLIC "-//W3C//DTD SVG 1.1//EN" "http://www.w3.org/Graphics/SVG/1.1/DTD/svg11.dtd">
<svg xmlns="http://www.w3.org/2000/svg" xmlns:xlink="http://www.w3.org/1999/xlink" version="1.1" baseProfile="full" width="64" height="64" viewBox="0 0 64.00 64.00" enable-background="new 0 0 64.00 64.00" xml:space="preserve">
	<path fill="currentColor" d="M 53.6001,13.0999L 10.4001,13.0999C 7.42984,13.0999 5.02656,15.5296 5.02656,18.4999L 5.00011,45.4999C 5.00011,48.4688 7.42984,50.8999 10.4001,50.8999L 53.6001,50.8999C 56.569,50.8999 59.0001,48.4688 59.0001,45.4999L 59.0001,18.4999C 59.0001,15.5296 56.569,13.0999 53.6001,13.0999 Z M 29.3001,21.1999L 34.7001,21.1999L 34.7001,26.5999L 29.3001,26.5999L 29.3001,21.1999 Z M 29.3001,29.2999L 34.7001,29.2999L 34.7001,34.6999L 29.3001,34.6999L 29.3001,29.2999 Z M 21.2001,21.1999L 26.6001,21.1999L 26.6001,26.5999L 21.2001,26.5999L 21.2001,21.1999 Z M 21.2001,29.2999L 26.6001,29.2999L 26.6001,34.6999L 21.2001,34.6999L 21.2001,29.2999 Z M 18.5001,34.6999L 13.1001,34.6999L 13.1001,29.2999L 18.5001,29.2999L 18.5001,34.6999 Z M 18.5001,26.5999L 13.1001,26.5999L 13.1001,21.1999L 18.5001,21.1999L 18.5001,26.5999 Z M 42.8001,45.4999L 21.2001,45.4999L 21.2001,40.0999L 42.8001,40.0999L 42.8001,45.4999 Z M 42.8001,34.6999L 37.4001,34.6999L 37.4001,29.2999L 42.8001,29.2999L 42.8001,34.6999 Z M 42.8001,26.5999L 37.4001,26.5999L 37.4001,21.1999L 42.8001,21.1999L 42.8001,26.5999 Z M 50.9001,34.6999L 45.5001,34.6999L 45.5001,29.2999L 50.9001,29.2999L 50.9001,34.6999 Z M 50.9001,26.5999L 45.5001,26.5999L 45.5001,21.1999L 50.9001,21.1999L 50.9001,26.5999 Z "/>
</svg>
