<?xml version="1.0" encoding="utf-8"?>
<!DOCTYPE svg PUBLIC "-//W3C//DTD SVG 1.1//EN" "http://www.w3.org/Graphics/SVG/1.1/DTD/svg11.dtd">
<svg xmlns="http://www.w3.org/2000/svg" xmlns:xlink="http://www.w3.org/1999/xlink" version="1.1" baseProfile="full" width="64" height="64" viewBox="0 0 64.00 64.00" enable-background="new 0 0 64.00 64.00" xml:space="preserve">
	<path fill="currentColor" d="M 57.687,47.703C 50.9684,46.6792 50.4566,45.6938 50.4566,45.6938C 51.8386,37.3884 47.5516,26.8691 40.5515,21.1743C 31.2351,13.5984 17.0685,19.1012 6.03737,7.5837C 3.46511,4.89629 4.96241,37.7212 18.7706,50.1601C 28.8676,59.2461 40.7563,56.4562 44.0196,54.9718C 46.9757,53.6154 49.0489,51.1454 49.0489,51.1454C 54.4365,52.809 57.0982,52.7067 57.0982,52.7067C 58.9923,52.937 59.9521,48.0486 57.687,47.703 Z M 45.3888,48.266C 27.7031,43.032 14.4067,24.6552 14.4067,24.6552C 14.4067,24.6552 26.0778,38.4378 46.6558,45.1563C 46.6814,46.193 46.0671,47.6774 45.3888,48.266 Z "/>
</svg>
