<?xml version="1.0" encoding="utf-8"?>
<!DOCTYPE svg PUBLIC "-//W3C//DTD SVG 1.1//EN" "http://www.w3.org/Graphics/SVG/1.1/DTD/svg11.dtd">
<svg xmlns="http://www.w3.org/2000/svg" xmlns:xlink="http://www.w3.org/1999/xlink" version="1.1" baseProfile="full" width="64" height="64" viewBox="0 0 64.00 64.00" enable-background="new 0 0 64.00 64.00" xml:space="preserve">
	<path fill="currentColor" d="M 24.9799,27.9502L 37.8588,5.64876C 35.971,5.2427 34.0251,5.0002 32.0001,5.0002C 25.5204,5.0002 19.5799,7.29547 14.9367,11.0752L 24.8176,28.2205L 24.9799,27.9502 Z M 57.7581,23.9002C 55.2744,16.0165 49.2547,9.69876 41.5581,6.78271L 31.6759,23.9002L 57.7581,23.9002 Z M 58.4596,26.6002L 38.2384,26.6002L 39.0191,27.9502L 51.8705,50.2252C 56.3001,45.4184 59.0001,39.0456 59.0001,32.0002C 59.0001,30.1374 58.8103,28.3549 58.4596,26.6002 Z M 22.6581,32.0002L 12.1284,13.7752C 7.72657,18.582 5.00012,24.9535 5.00012,32.0002C 5.00012,33.8619 5.18856,35.6441 5.54065,37.4002L 25.7629,37.4002L 22.6581,32.0002 Z M 6.24209,40.1002C 8.72588,47.9839 14.7468,54.3017 22.4421,57.2177L 32.3244,40.1002L 6.24209,40.1002 Z M 36.6725,40.1002L 26.1414,58.3517C 28.0305,58.7577 29.9751,59.0002 32.0001,59.0002C 38.4812,59.0002 44.4191,56.7063 49.065,52.9252L 39.1826,35.7813L 36.6725,40.1002 Z "/>
</svg>
