<?xml version="1.0" encoding="utf-8"?>
<!DOCTYPE svg PUBLIC "-//W3C//DTD SVG 1.1//EN" "http://www.w3.org/Graphics/SVG/1.1/DTD/svg11.dtd">
<svg xmlns="http://www.w3.org/2000/svg" xmlns:xlink="http://www.w3.org/1999/xlink" version="1.1" baseProfile="full" viewBox="0 0 64.00 64.00" enable-background="new 0 0 64.00 64.00" xml:space="preserve">
	<path fill="currentColor" d="M 4.99994,56.5454L 14.8181,56.5454L 14.8181,27.0909L 4.99994,27.0909L 4.99994,56.5454 Z M 58.9999,29.5454C 58.9999,26.8452 56.7899,24.6363 54.0909,24.6363L 38.6015,24.6363L 40.9359,13.4196L 41.0079,12.6333C 41.0079,11.6277 40.5909,10.694 39.9293,10.0313L 37.326,7.45451L 21.1749,23.6295C 20.2677,24.5141 19.7272,25.7413 19.7272,27.0909L 19.7272,51.6363C 19.7272,54.3354 21.9361,56.5454 24.6363,56.5454L 46.7272,56.5454C 48.7648,56.5454 50.5072,55.3181 51.2431,53.5516L 58.6548,36.2476C 58.8777,35.6818 58.9999,35.0922 58.9999,34.4545L 58.9999,29.7659L 58.9759,29.742L 58.9999,29.5454 Z "/>
</svg>
