<?xml version="1.0" encoding="utf-8"?>
<!DOCTYPE svg PUBLIC "-//W3C//DTD SVG 1.1//EN" "http://www.w3.org/Graphics/SVG/1.1/DTD/svg11.dtd">
<svg xmlns="http://www.w3.org/2000/svg" xmlns:xlink="http://www.w3.org/1999/xlink" version="1.1" baseProfile="full" width="64" height="64" viewBox="0 0 64.00 64.00" enable-background="new 0 0 64.00 64.00" xml:space="preserve">
	<path fill="currentColor" d="M 47.8203,18.5C 54.036,18.5 59,23.464 59,29.6797L 59,34.1797C 59,40.3953 54.036,45.5 47.8203,45.5L 32.0703,45.5C 27.4719,45.5 23.4922,42.7157 21.7203,38.75C 21.1016,37.3438 20.75,35.7969 20.75,34.1797L 20.75,29.75L 27.5,29.75L 27.5,34.1797C 27.5,36.6546 29.5953,38.75 32.0703,38.75L 47.8203,38.75C 50.2953,38.75 52.25,36.6546 52.25,34.1797L 52.25,29.6797C 52.25,27.2047 50.2953,25.25 47.8203,25.25L 47.75,25.25L 45.4437,25.25C 44.6563,20.8906 41,18.5 41,18.5L 47.8203,18.5 Z M 42.3499,25.25C 42.9266,26.6 43.25,28.1047 43.25,29.6797L 43.25,34.1797L 43.25,34.25L 36.5,34.25L 36.5,34.1797L 36.5,29.6797C 36.5,27.2047 34.5453,25.25 32.0703,25.25L 32,25.25L 16.3203,25.25C 13.8453,25.25 11.75,27.2047 11.75,29.6797L 11.75,34.1797C 11.75,36.6546 13.8453,38.75 16.3203,38.75L 18.4859,38.75C 19.3719,43.1094 23,45.5 23,45.5L 16.3203,45.5C 10.1047,45.5 5,40.3953 5,34.1797L 5,29.6797C 5,23.464 10.1047,18.5 16.3203,18.5L 32.0703,18.5C 36.7109,18.5 40.6484,21.2703 42.3499,25.25 Z "/>
</svg>
