<?xml version="1.0" encoding="utf-8"?>
<!DOCTYPE svg PUBLIC "-//W3C//DTD SVG 1.1//EN" "http://www.w3.org/Graphics/SVG/1.1/DTD/svg11.dtd">
<svg xmlns="http://www.w3.org/2000/svg" xmlns:xlink="http://www.w3.org/1999/xlink" version="1.1" baseProfile="full" width="64" height="64" viewBox="0 0 64.00 64.00" enable-background="new 0 0 64.00 64.00" xml:space="preserve">
	<path fill="currentColor" d="M 9.3224,29.9962C 9.3224,25.2082 13.2147,21.3159 18.0027,21.3159L 29.2027,21.3159L 29.2027,15.9962L 18.0027,15.9962C 10.2752,15.9962 4.00266,22.2688 4.00266,29.9962C 4.00266,37.7237 10.2752,43.9962 18.0027,43.9962L 29.2027,43.9962L 29.2027,38.6751L 18.0027,38.6751C 13.2147,38.6751 9.3224,34.7842 9.3224,29.9962 Z M 20.8027,32.7962L 43.2028,32.7962L 43.2028,27.1962L 20.8027,27.1962L 20.8027,32.7962 Z M 46.0028,15.9962L 34.8027,15.9962L 34.8027,21.3159L 46.0028,21.3159C 50.7908,21.3159 54.6817,25.2082 54.6817,29.9962C 54.6817,34.7842 50.7908,38.6751 46.0028,38.6751L 34.8027,38.6751L 34.8027,43.9962L 46.0028,43.9962C 53.7302,43.9962 60.0028,37.7237 60.0028,29.9962C 60.0028,22.2688 53.7302,15.9962 46.0028,15.9962 Z "/>
</svg>
