<?xml version="1.0" encoding="utf-8"?>
<!DOCTYPE svg PUBLIC "-//W3C//DTD SVG 1.1//EN" "http://www.w3.org/Graphics/SVG/1.1/DTD/svg11.dtd">
<svg xmlns="http://www.w3.org/2000/svg" xmlns:xlink="http://www.w3.org/1999/xlink" version="1.1" baseProfile="full" width="64" height="64" viewBox="0 0 64.00 64.00" enable-background="new 0 0 64.00 64.00" xml:space="preserve">
	<path fill="currentColor" d="M 54.0908,17.2727L 35.4612,17.2727L 43.5367,9.19725L 41.818,7.45454L 31.9999,17.2727L 22.1817,7.45454L 20.439,9.19725L 28.5385,17.2727L 9.90895,17.2727C 7.20871,17.2727 4.99986,19.4575 4.99986,22.1818L 4.99986,51.6364C 4.99986,54.3354 7.20871,56.5454 9.90895,56.5454L 54.0908,56.5454C 56.7898,56.5454 58.9999,54.3354 58.9999,51.6364L 58.9999,22.1818C 58.9999,19.4575 56.7898,17.2727 54.0908,17.2727 Z M 54.0908,51.6364L 9.90895,51.6364L 9.90895,22.1818L 54.0908,22.1818L 54.0908,51.6364 Z M 24.6362,27.0909L 24.6362,46.7273L 41.818,36.9091L 24.6362,27.0909 Z "/>
</svg>
