<?xml version="1.0" encoding="utf-8"?>
<!DOCTYPE svg PUBLIC "-//W3C//DTD SVG 1.1//EN" "http://www.w3.org/Graphics/SVG/1.1/DTD/svg11.dtd">
<svg xmlns="http://www.w3.org/2000/svg" xmlns:xlink="http://www.w3.org/1999/xlink" version="1.1" baseProfile="full" width="64" height="64" viewBox="0 0 64.00 64.00" enable-background="new 0 0 64.00 64.00" xml:space="preserve">
	<path fill="currentColor" d="M 32,13.9914C 29.5171,13.9914 27.5043,11.9785 27.5043,9.49556C 27.5043,7.01271 29.5171,4.99983 32,4.99983C 34.4829,4.99983 36.4957,7.01271 36.4957,9.49556C 36.4957,11.9906 34.4829,14.0034 32,13.9914 Z M 36.5079,15.0038C 39.8947,15.0038 42.1245,18.005 42.1245,20.8374L 42.1245,34.5296C 42.1245,37.1813 38.2675,37.1813 38.2675,34.5296L 38.2675,21.874L 37.6649,21.874L 37.6649,56.2972C 37.6649,59.7083 32.687,60.0699 32.4821,56.3094L 32.4821,36.4581L 32.3616,36.4581L 31.5179,36.4581L 31.5179,56.2972C 31.3973,59.8409 26.3351,59.9614 26.3351,56.2972L 26.3351,21.874L 25.6119,21.874L 25.6119,34.5296C 25.6119,37.1813 21.8755,37.1813 21.8755,34.5296L 21.8755,20.8374C 21.8755,17.9929 24.0932,15.0038 27.4922,15.0038L 32,15.0038L 36.5079,15.0038 Z "/>
</svg>
