<?xml version="1.0" encoding="utf-8"?>
<!DOCTYPE svg PUBLIC "-//W3C//DTD SVG 1.1//EN" "http://www.w3.org/Graphics/SVG/1.1/DTD/svg11.dtd">
<svg xmlns="http://www.w3.org/2000/svg" xmlns:xlink="http://www.w3.org/1999/xlink" version="1.1" baseProfile="full" viewBox="0 0 64.00 64.00" enable-background="new 0 0 64.00 64.00" xml:space="preserve">
	<path fill="currentColor" d="M 31.9999,39.1052C 36.7183,39.1052 40.4983,35.2973 40.4983,30.5789L 40.5262,13.5262C 40.5262,8.80782 36.7183,4.99993 31.9999,4.99993C 27.2814,4.99993 23.4736,8.80782 23.4736,13.5262L 23.4736,30.5789C 23.4736,35.2973 27.2814,39.1052 31.9999,39.1052 Z M 47.0625,30.5789C 47.0625,39.1052 39.8435,45.0725 31.9999,45.0725C 24.1562,45.0725 16.9373,39.1052 16.9373,30.5789L 12.1051,30.5789C 12.1051,40.271 19.8363,48.2866 29.1578,49.677L 29.1578,58.9999L 34.842,58.9999L 34.842,49.677C 44.1621,48.3142 51.8946,40.2986 51.8946,30.5789L 47.0625,30.5789 Z "/>
</svg>
