<?xml version="1.0" encoding="utf-8"?>
<!DOCTYPE svg PUBLIC "-//W3C//DTD SVG 1.1//EN" "http://www.w3.org/Graphics/SVG/1.1/DTD/svg11.dtd">
<svg xmlns="http://www.w3.org/2000/svg" xmlns:xlink="http://www.w3.org/1999/xlink" version="1.1" baseProfile="full" width="64" height="64" viewBox="0 0 64.00 64.00" enable-background="new 0 0 64.00 64.00" xml:space="preserve">
	<path fill="currentColor" d="M 5.00013,30.4117L 20.8825,30.4117L 20.8825,11.3529L 5.00013,11.3529L 5.00013,30.4117 Z M 5.00013,52.647L 20.8825,52.647L 20.8825,33.5882L 5.00013,33.5882L 5.00013,52.647 Z M 24.059,52.647L 39.9413,52.647L 39.9413,33.5882L 24.059,33.5882L 24.059,52.647 Z M 43.1178,52.647L 59.0001,52.647L 59.0001,33.5882L 43.1178,33.5882L 43.1178,52.647 Z M 24.059,30.4117L 39.9413,30.4117L 39.9413,11.3529L 24.059,11.3529L 24.059,30.4117 Z M 43.1178,11.3529L 43.1178,30.4117L 59.0001,30.4117L 59.0001,11.3529L 43.1178,11.3529 Z "/>
</svg>
