<?xml version="1.0" encoding="utf-8"?>
<!DOCTYPE svg PUBLIC "-//W3C//DTD SVG 1.1//EN" "http://www.w3.org/Graphics/SVG/1.1/DTD/svg11.dtd">
<svg xmlns="http://www.w3.org/2000/svg" xmlns:xlink="http://www.w3.org/1999/xlink" version="1.1" baseProfile="full" width="64" height="64" viewBox="0 0 64.00 64.00" enable-background="new 0 0 64.00 64.00" xml:space="preserve">
	<path fill="currentColor" d="M 5,18.5002L 18.5,18.5002L 18.5,5.00016L 5,5.00016L 5,18.5002 Z M 25.25,59.0002L 38.75,59.0002L 38.75,45.5002L 25.25,45.5002L 25.25,59.0002 Z M 5,59.0002L 18.5,59.0002L 18.5,45.5002L 5,45.5002L 5,59.0002 Z M 5,38.7502L 18.5,38.7502L 18.5,25.2502L 5,25.2502L 5,38.7502 Z M 25.25,38.7502L 38.75,38.7502L 38.75,25.2502L 25.25,25.2502L 25.25,38.7502 Z M 45.5,5.00016L 45.5,18.5002L 59,18.5002L 59,5.00016L 45.5,5.00016 Z M 25.25,18.5002L 38.75,18.5002L 38.75,5.00016L 25.25,5.00016L 25.25,18.5002 Z M 45.5,38.7502L 59,38.7502L 59,25.2502L 45.5,25.2502L 45.5,38.7502 Z M 45.5,59.0002L 59,59.0002L 59,45.5002L 45.5,45.5002L 45.5,59.0002 Z "/>
</svg>
