<?xml version="1.0" encoding="utf-8"?>
<!DOCTYPE svg PUBLIC "-//W3C//DTD SVG 1.1//EN" "http://www.w3.org/Graphics/SVG/1.1/DTD/svg11.dtd">
<svg xmlns="http://www.w3.org/2000/svg" xmlns:xlink="http://www.w3.org/1999/xlink" version="1.1" baseProfile="full" width="64" height="64" viewBox="0 0 64.00 64.00" enable-background="new 0 0 64.00 64.00" xml:space="preserve">
	<path fill="currentColor" d="M 6.28563,15.2855L 24.2606,33.2856L 6.28563,33.2856L 6.28563,41L 31.9749,41L 49.9751,59.0001L 53.2146,55.7858L 9.49994,12.0712L 6.28563,15.2855 Z M 53.8575,33.2856L 57.7146,33.2856L 57.7146,41L 53.8575,41L 53.8575,33.2856 Z M 47.4288,33.2856L 51.286,33.2856L 51.286,41L 47.4288,41L 47.4288,33.2856 Z M 49.6136,12.4052C 51.2107,10.8369 52.185,8.6774 52.185,6.28542L 48.3278,6.28542C 48.3278,8.90827 46.1933,11.0429 43.5717,11.0429L 43.5717,14.9C 49.3322,14.9 53.8575,19.6061 53.8575,25.3653L 53.8575,30.7142L 57.7146,30.7142L 57.7146,25.3653C 57.7146,19.631 54.425,14.694 49.6136,12.4052 Z M 38.4288,22.2289L 42.3613,22.2289C 45.0634,22.2289 47.4288,24.1311 47.4288,27.4999L 47.4288,30.7142L 51.286,30.7142L 51.286,26.6261C 51.286,21.9967 47.1727,18.4998 42.3613,18.4998L 38.4288,18.4998C 35.8072,18.4998 33.6726,15.9798 33.6726,13.3569C 33.6726,10.7341 35.8072,8.85687 38.4288,8.85687L 38.4288,4.99969C 33.6726,4.99969 29.8141,8.85687 29.8141,13.6143C 29.8141,18.3717 33.6726,22.2289 38.4288,22.2289 Z M 44.8574,40.8192L 44.8574,33.2856L 37.3238,33.2856L 44.8574,40.8192 Z "/>
</svg>
