<?xml version="1.0" encoding="utf-8"?>
<!DOCTYPE svg PUBLIC "-//W3C//DTD SVG 1.1//EN" "http://www.w3.org/Graphics/SVG/1.1/DTD/svg11.dtd">
<svg xmlns="http://www.w3.org/2000/svg" xmlns:xlink="http://www.w3.org/1999/xlink" version="1.1" baseProfile="full" width="64" height="64" viewBox="0 0 64.00 64.00" enable-background="new 0 0 64.00 64.00" xml:space="preserve">
	<path fill="currentColor" d="M 32.0001,59C 35.0451,59 37.5385,56.5066 37.5385,53.4615L 26.4616,53.4615C 26.4616,56.5066 28.9265,59 32.0001,59 Z M 48.6154,42.3846L 48.6154,28.5385C 48.6154,20.0375 44.0723,12.9197 36.1539,11.0375L 36.1539,9.15384C 36.1539,6.85508 34.2988,5 32.0001,5C 29.7013,5 27.8462,6.85508 27.8462,9.15384L 27.8462,11.0375C 19.8983,12.9197 15.3847,20.0089 15.3847,28.5385L 15.3847,42.3846L 9.84621,47.9231L 9.84621,50.6923L 54.1539,50.6923L 54.1539,47.9231L 48.6154,42.3846 Z "/>
</svg>
