<?xml version="1.0" encoding="utf-8"?>
<!DOCTYPE svg PUBLIC "-//W3C//DTD SVG 1.1//EN" "http://www.w3.org/Graphics/SVG/1.1/DTD/svg11.dtd">
<svg xmlns="http://www.w3.org/2000/svg" xmlns:xlink="http://www.w3.org/1999/xlink" version="1.1" baseProfile="full" width="64" height="64" viewBox="0 0 64.00 64.00" enable-background="new 0 0 64.00 64.00" xml:space="preserve">
	<path fill="currentColor" d="M 32.0001,4.99989C 17.0894,4.99989 5.00007,17.0908 5.00007,31.9999C 5.00007,46.909 17.0894,58.9999 32.0001,58.9999C 34.4904,58.9999 36.5001,56.9902 36.5001,54.4999C 36.5001,53.3281 36.0489,52.2793 35.3283,51.4705C 34.6398,50.6914 34.1916,49.6396 34.1916,48.4999C 34.1916,46.0096 36.2012,43.9999 38.6916,43.9999L 44.0001,43.9999C 52.2795,43.9999 59.0001,37.2793 59.0001,28.9999C 59.0001,15.7402 46.9122,4.99989 32.0001,4.99989 Z M 15.5001,31.9999C 13.0097,31.9999 11.0001,29.9902 11.0001,27.4999C 11.0001,25.0096 13.0097,22.9999 15.5001,22.9999C 17.9904,22.9999 20.0001,25.0096 20.0001,27.4999C 20.0001,29.9902 17.9904,31.9999 15.5001,31.9999 Z M 24.5001,19.9999C 22.0097,19.9999 20.0001,17.9902 20.0001,15.4999C 20.0001,13.0096 22.0097,10.9999 24.5001,10.9999C 26.9904,10.9999 29.0001,13.0096 29.0001,15.4999C 29.0001,17.9902 26.9904,19.9999 24.5001,19.9999 Z M 39.5001,19.9999C 37.0097,19.9999 35.0001,17.9902 35.0001,15.4999C 35.0001,13.0096 37.0097,10.9999 39.5001,10.9999C 41.9904,10.9999 44.0001,13.0096 44.0001,15.4999C 44.0001,17.9902 41.9904,19.9999 39.5001,19.9999 Z M 48.5001,31.9999C 46.0097,31.9999 44.0001,29.9902 44.0001,27.4999C 44.0001,25.0096 46.0097,22.9999 48.5001,22.9999C 50.9904,22.9999 53.0001,25.0096 53.0001,27.4999C 53.0001,29.9902 50.9904,31.9999 48.5001,31.9999 Z "/>
</svg>
