<?xml version="1.0" encoding="utf-8"?>
<!DOCTYPE svg PUBLIC "-//W3C//DTD SVG 1.1//EN" "http://www.w3.org/Graphics/SVG/1.1/DTD/svg11.dtd">
<svg xmlns="http://www.w3.org/2000/svg" xmlns:xlink="http://www.w3.org/1999/xlink" version="1.1" baseProfile="full" width="64" height="64" viewBox="0 0 64.00 64.00" enable-background="new 0 0 64.00 64.00" xml:space="preserve">
	<path fill="currentColor" d="M 53.6,17.2581L 53.6,46.7156C 46.5811,44.6352 39.3459,43.5831 32,43.5831C 24.6555,43.5831 17.4203,44.6352 10.4,46.7156L 10.4,17.2581C 17.4203,19.3373 24.6555,20.3906 32,20.3906C 39.3459,20.417 46.5811,19.3635 53.6,17.2581M 57.4602,10.4C 57.1913,10.4 56.9224,10.454 56.6243,10.5623C 48.6852,13.5325 40.3425,14.9906 32,14.9906C 23.6575,14.9906 15.3135,13.5048 7.3758,10.5623C 7.07901,10.454 6.78254,10.4 6.53848,10.4C 5.62107,10.4 5.00004,11.0211 5.00004,12.1008L 5.00004,51.9258C 5.00004,52.9777 5.62107,53.6 6.53848,53.6C 6.80874,53.6 7.07901,53.5474 7.3758,53.4367C 15.3135,50.4675 23.6575,49.0095 32,49.0095C 40.3425,49.0095 48.6852,50.494 56.6243,53.4367C 56.9224,53.5474 57.1913,53.6 57.4602,53.6C 58.3515,53.6 59,52.9777 59,51.8993L 59,12.1008C 59,11.0211 58.3515,10.4 57.4602,10.4 Z "/>
</svg>
