<?xml version="1.0" encoding="utf-8"?>
<!DOCTYPE svg PUBLIC "-//W3C//DTD SVG 1.1//EN" "http://www.w3.org/Graphics/SVG/1.1/DTD/svg11.dtd">
<svg xmlns="http://www.w3.org/2000/svg" xmlns:xlink="http://www.w3.org/1999/xlink" version="1.1" baseProfile="full" width="64" height="64" viewBox="0 0 64.00 64.00" enable-background="new 0 0 64.00 64.00" xml:space="preserve">
	<path fill="currentColor" d="M 26.6001,44.1498L 42.8001,31.9999L 26.6001,19.8499L 26.6001,44.1498 Z M 32.0001,4.99985C 17.0961,4.99985 5.00011,17.0959 5.00011,31.9999C 5.00011,46.9025 17.0961,58.9999 32.0001,58.9999C 46.9028,58.9999 59.0001,46.9025 59.0001,31.9999C 59.0001,17.0959 46.9028,4.99985 32.0001,4.99985 Z M 32.0001,53.5998C 20.0926,53.5998 10.4001,43.9074 10.4001,31.9999C 10.4001,20.0924 20.0926,10.3999 32.0001,10.3999C 43.9076,10.3999 53.6001,20.0924 53.6001,31.9999C 53.6001,43.9074 43.9076,53.5998 32.0001,53.5998 Z "/>
</svg>
