<?xml version="1.0" encoding="utf-8"?>
<!DOCTYPE svg PUBLIC "-//W3C//DTD SVG 1.1//EN" "http://www.w3.org/Graphics/SVG/1.1/DTD/svg11.dtd">
<svg xmlns="http://www.w3.org/2000/svg" xmlns:xlink="http://www.w3.org/1999/xlink" version="1.1" baseProfile="full" width="64" height="64" viewBox="0 0 64.00 64.00" enable-background="new 0 0 64.00 64.00" xml:space="preserve">
	<path fill="currentColor" d="M 26.6001,42.7999L 26.6001,40.0999L 7.72656,40.0999L 7.70011,50.8999C 7.70011,53.8952 10.1034,56.2999 13.1001,56.2999L 50.9001,56.2999C 53.8955,56.2999 56.3001,53.8952 56.3001,50.8999L 56.3001,40.0999L 37.4001,40.0999L 37.4001,42.7999L 26.6001,42.7999 Z M 53.6001,18.4999L 42.7737,18.4999L 42.7737,13.0999L 37.3737,7.69986L 26.5737,7.69986L 21.1737,13.0999L 21.1737,18.4999L 10.4001,18.4999C 7.42984,18.4999 5.00011,20.9296 5.00011,23.8999L 5.00011,31.9999C 5.00011,34.9952 7.40339,37.3998 10.4001,37.3998L 26.6001,37.3998L 26.6001,31.9999L 37.4001,31.9999L 37.4001,37.3998L 53.6001,37.3998C 56.569,37.3998 59.0001,34.9688 59.0001,31.9999L 59.0001,23.8999C 59.0001,20.9296 56.569,18.4999 53.6001,18.4999 Z M 37.4001,18.4999L 26.6001,18.4999L 26.6001,13.0999L 37.4001,13.0999L 37.4001,18.4999 Z "/>
</svg>
