<?xml version="1.0" encoding="utf-8"?>
<!DOCTYPE svg PUBLIC "-//W3C//DTD SVG 1.1//EN" "http://www.w3.org/Graphics/SVG/1.1/DTD/svg11.dtd">
<svg xmlns="http://www.w3.org/2000/svg" xmlns:xlink="http://www.w3.org/1999/xlink" version="1.1" baseProfile="full" width="64" height="64" viewBox="0 0 64.00 64.00" enable-background="new 0 0 64.00 64.00" xml:space="preserve">
	<path fill="currentColor" d="M 52.5714,30.7141L 48.7143,30.7141L 48.7143,20.4284C 48.7143,17.5996 46.399,15.2856 43.5714,15.2856L 33.2857,15.2856L 33.2857,11.4284C 33.2857,7.88008 30.4055,4.99985 26.8571,4.99985C 23.3088,4.99985 20.4285,7.88008 20.4285,11.4284L 20.4285,15.2856L 10.1428,15.2856C 7.314,15.2856 5.02516,17.5996 5.02516,20.4284L 5.02516,30.1994L 8.85711,30.1994C 12.6891,30.1994 15.8005,33.3108 15.8005,37.1427C 15.8005,40.9747 12.6891,44.0861 8.85711,44.0861L 4.99997,44.0861L 4.99997,53.857C 4.99997,56.6846 7.314,58.9999 10.1428,58.9999L 19.9138,58.9999L 19.9138,55.1427C 19.9138,51.3108 23.0252,48.1994 26.8571,48.1994C 30.6891,48.1994 33.8005,51.3108 33.8005,55.1427L 33.8005,58.9999L 43.5714,58.9999C 46.399,58.9999 48.7143,56.6846 48.7143,53.857L 48.7143,43.5713L 52.5714,43.5713C 56.1197,43.5713 59,40.6911 59,37.1427C 59,33.5944 56.1197,30.7141 52.5714,30.7141 Z "/>
</svg>
