<?xml version="1.0" encoding="utf-8"?>
<!DOCTYPE svg PUBLIC "-//W3C//DTD SVG 1.1//EN" "http://www.w3.org/Graphics/SVG/1.1/DTD/svg11.dtd">
<svg xmlns="http://www.w3.org/2000/svg" xmlns:xlink="http://www.w3.org/1999/xlink" version="1.1" baseProfile="full" width="64" height="64" viewBox="0 0 64.00 64.00" enable-background="new 0 0 64.00 64.00" xml:space="preserve">
	<path fill="currentColor" d="M 43.5715,4.99972L 53.2145,16.5713L 45.5238,32.6919C 42.6522,29.1271 38.4,26.7229 33.579,26.288L 43.5715,4.99972 Z M 20.4285,4.99974L 30.4209,26.288C 25.5999,26.7229 21.3478,29.1271 18.4763,32.6919L 10.7855,16.5713L 20.4285,4.99974 Z M 33.578,4.99974L 41.6429,4.99974L 35.306,18.4999L 32,18.4999L 28.6939,18.4999L 22.357,4.99974L 32,4.99974L 33.578,4.99974 Z M 32,28.1428C 40.521,28.1428 47.4287,35.0506 47.4287,43.5715C 47.4287,52.0926 40.521,59.0003 32,59.0003C 23.479,59.0003 16.5713,52.0926 16.5713,43.5715C 16.5713,35.0506 23.479,28.1428 32,28.1428 Z M 32,55.1431C 38.3908,55.1431 43.5715,49.9623 43.5715,43.5715C 43.5715,37.1807 38.3909,32 32,32C 25.6091,32 20.4285,37.1807 20.4285,43.5715C 20.4285,49.9623 25.6091,55.1431 32,55.1431 Z M 32,32.9643C 37.8489,32.9643 42.6073,37.7227 42.6073,43.5715C 42.6073,49.4204 37.8489,54.1788 32,54.1788C 26.1512,54.1788 21.3928,49.4204 21.3928,43.5715C 21.3928,37.7227 26.1512,32.9643 32,32.9643 Z "/>
</svg>
