<?xml version="1.0" encoding="utf-8"?>
<!DOCTYPE svg PUBLIC "-//W3C//DTD SVG 1.1//EN" "http://www.w3.org/Graphics/SVG/1.1/DTD/svg11.dtd">
<svg xmlns="http://www.w3.org/2000/svg" xmlns:xlink="http://www.w3.org/1999/xlink" version="1.1" baseProfile="full" width="64" height="64" viewBox="0 0 64.00 64.00" enable-background="new 0 0 64.00 64.00" xml:space="preserve">
	<path fill="currentColor" d="M 44.4518,39.4777L 41.832,39.4777L 40.9025,38.584C 44.154,34.8013 46.1099,29.8937 46.1099,24.555C 46.1099,12.6507 36.4593,3.0001 24.555,3.0001C 12.6506,3.0001 3.00004,12.6507 3.00004,24.555C 3.00004,36.4594 12.6506,46.1099 24.555,46.1099C 29.8936,46.1099 34.8012,44.154 38.5839,40.9026L 39.4776,41.8321L 39.4776,44.4519L 56.0583,61.0001L 61,56.0584L 44.4518,39.4777 Z M 24.555,39.4777C 16.2971,39.4777 9.63233,32.8129 9.63233,24.555C 9.63233,16.2971 16.2971,9.63238 24.555,9.63238C 32.8128,9.63238 39.4776,16.2971 39.4776,24.555C 39.4776,32.8129 32.8128,39.4777 24.555,39.4777 Z "/>
</svg>
