<?xml version="1.0" encoding="utf-8"?>
<!DOCTYPE svg PUBLIC "-//W3C//DTD SVG 1.1//EN" "http://www.w3.org/Graphics/SVG/1.1/DTD/svg11.dtd">
<svg xmlns="http://www.w3.org/2000/svg" xmlns:xlink="http://www.w3.org/1999/xlink" version="1.1" baseProfile="full" width="64" height="64" viewBox="0 0 64.00 64.00" enable-background="new 0 0 64.00 64.00" xml:space="preserve">
	<path fill="currentColor" d="M 48.0002,22.6664L 45.3335,22.6664L 45.3335,17.3331C 45.3335,9.97362 39.3597,3.99974 32.0002,3.99974C 24.6407,3.99974 18.6669,9.97362 18.6669,17.3331L 18.6669,22.6664L 16.0002,22.6664C 13.0666,22.6664 10.6669,25.0661 10.6669,27.9997L 10.6669,54.6664C 10.6669,57.5987 13.0666,59.9997 16.0002,59.9997L 48.0002,59.9997C 50.9325,59.9997 53.3335,57.5987 53.3335,54.6664L 53.3335,27.9997C 53.3335,25.0661 50.9325,22.6664 48.0002,22.6664 Z M 32.0002,46.6664C 29.0666,46.6664 26.6669,44.2654 26.6669,41.3331C 26.6669,38.4008 29.0666,35.9997 32.0002,35.9997C 34.9325,35.9997 37.3335,38.4008 37.3335,41.3331C 37.3335,44.2654 34.9325,46.6664 32.0002,46.6664 Z M 40.2658,22.6664L 23.7333,22.6664L 23.7333,17.3331C 23.7333,12.7731 27.4402,9.06615 32.0002,9.06615C 36.5602,9.06615 40.2658,12.7731 40.2658,17.3331L 40.2658,22.6664 Z "/>
</svg>
