<?xml version="1.0" encoding="utf-8"?>
<!DOCTYPE svg PUBLIC "-//W3C//DTD SVG 1.1//EN" "http://www.w3.org/Graphics/SVG/1.1/DTD/svg11.dtd">
<svg xmlns="http://www.w3.org/2000/svg" xmlns:xlink="http://www.w3.org/1999/xlink" version="1.1" baseProfile="full" width="64" height="64" viewBox="0 0 64.00 64.00" enable-background="new 0 0 64.00 64.00" xml:space="preserve">
	<path fill="currentColor" d="M 5.00004,53.6L 59,53.6L 59,42.8L 5.00004,42.8L 5.00004,53.6 Z M 10.4,45.5L 15.8,45.5L 15.8,50.9L 10.4,50.9L 10.4,45.5 Z M 5.00004,10.4L 5.00004,21.2L 59,21.2L 59,10.4L 5.00004,10.4 Z M 15.8,18.5L 10.4,18.5L 10.4,13.1L 15.8,13.1L 15.8,18.5 Z M 5.00004,37.4L 59,37.4L 59,26.6L 5.00004,26.6L 5.00004,37.4 Z M 10.4,29.3L 15.8,29.3L 15.8,34.7L 10.4,34.7L 10.4,29.3 Z "/>
</svg>
