<?xml version="1.0" encoding="utf-8"?>
<!DOCTYPE svg PUBLIC "-//W3C//DTD SVG 1.1//EN" "http://www.w3.org/Graphics/SVG/1.1/DTD/svg11.dtd">
<svg xmlns="http://www.w3.org/2000/svg" xmlns:xlink="http://www.w3.org/1999/xlink" version="1.1" baseProfile="full" width="64" height="64" viewBox="0 0 64.00 64.00" enable-background="new 0 0 64.00 64.00" xml:space="preserve">
	<path fill="currentColor" d="M 53.5461,34.8438C 53.665,33.9149 53.75,32.9858 53.75,32.0004C 53.75,31.0149 53.665,30.0858 53.5461,29.1584L 59.666,24.3736C 60.2184,23.9375 60.3599,23.156 60.0145,22.5174L 54.2145,12.4834C 53.866,11.8448 53.0815,11.6125 52.4444,11.8448L 45.2254,14.7448C 43.716,13.5851 42.0934,12.6278 40.3232,11.9028L 39.2216,4.21807C 39.134,3.52298 38.525,3.00039 37.8,3.00039L 26.2,3.00039C 25.475,3.00039 24.866,3.52298 24.7784,4.21807L 23.6767,11.9028C 21.9079,12.6278 20.284,13.6149 18.7757,14.7448L 11.5555,11.8448C 10.8886,11.5844 10.134,11.8448 9.78544,12.4834L 3.98544,22.5174C 3.60896,23.156 3.78295,23.9375 4.33396,24.3736L 10.4524,29.1584C 10.3364,30.0858 10.25,31.0431 10.25,32.0004C 10.25,32.9577 10.3364,33.9149 10.4524,34.8438L 4.33396,39.6271C 3.78295,40.0633 3.6386,40.8448 3.98544,41.4819L 9.78544,51.5188C 10.134,52.156 10.917,52.3883 11.5555,52.156L 18.7757,49.256C 20.284,50.4143 21.9079,51.3715 23.6767,52.0965L 24.7784,59.7827C 24.866,60.4793 25.475,61.0004 26.2,61.0004L 37.8,61.0004C 38.525,61.0004 39.134,60.4793 39.2216,59.7827L 40.3232,52.0965C 42.0934,51.3715 43.716,50.3858 45.2254,49.256L 52.4444,52.156C 53.1099,52.4164 53.866,52.156 54.2145,51.5188L 60.0145,41.4819C 60.3599,40.8448 60.2184,40.0633 59.666,39.6271L 53.5461,34.8438 Z M 32,42.1504C 26.4024,42.1504 21.85,37.5965 21.85,32.0004C 21.85,26.4028 26.4024,21.8504 32,21.8504C 37.5961,21.8504 42.15,26.4028 42.15,32.0004C 42.15,37.5965 37.5961,42.1504 32,42.1504 Z "/>
</svg>
