<?xml version="1.0" encoding="utf-8"?>
<!DOCTYPE svg PUBLIC "-//W3C//DTD SVG 1.1//EN" "http://www.w3.org/Graphics/SVG/1.1/DTD/svg11.dtd">
<svg xmlns="http://www.w3.org/2000/svg" xmlns:xlink="http://www.w3.org/1999/xlink" version="1.1" baseProfile="full" width="64" height="64" viewBox="0 0 64.00 64.00" enable-background="new 0 0 64.00 64.00" xml:space="preserve">
	<path fill="currentColor" d="M 19.1377,15.5782L 14.72,11.1645L 11.2586,14.6416L 15.6523,19.0553L 19.1377,15.5782 Z M 12.3637,29.5345L 5.00003,29.5345L 5.00003,34.466L 12.3637,34.466L 12.3637,29.5345 Z M 34.4546,5.00024L 29.5455,5.00024L 29.5455,12.2746L 34.4546,12.2746L 34.4546,5.00024 Z M 52.7414,14.6416L 49.28,11.1645L 44.8864,15.5782L 48.3478,19.0553L 52.7414,14.6416 Z M 44.8623,48.4223L 49.2538,52.8601L 52.7152,49.383L 48.2997,44.9694L 44.8623,48.4223 Z M 51.6364,29.5345L 51.6364,34.466L 59,34.466L 59,29.5345L 51.6364,29.5345 Z M 32,17.206C 23.8753,17.206 17.2728,23.8385 17.2728,32.0002C 17.2728,40.1629 23.8753,46.7945 32,46.7945C 40.1258,46.7945 46.7273,40.1629 46.7273,32.0002C 46.7273,23.8385 40.1258,17.206 32,17.206 Z M 29.5455,59.0002L 34.4546,59.0002L 34.4546,51.7259L 29.5455,51.7259L 29.5455,59.0002 Z M 11.2586,49.3589L 14.72,52.836L 19.1137,48.3982L 15.6523,44.9211L 11.2586,49.3589 Z "/>
</svg>
