<?xml version="1.0" encoding="utf-8"?>
<!DOCTYPE svg PUBLIC "-//W3C//DTD SVG 1.1//EN" "http://www.w3.org/Graphics/SVG/1.1/DTD/svg11.dtd">
<svg xmlns="http://www.w3.org/2000/svg" xmlns:xlink="http://www.w3.org/1999/xlink" version="1.1" baseProfile="full" width="64" height="64" viewBox="0 0 64.00 64.00" enable-background="new 0 0 64.00 64.00" xml:space="preserve">
	<path fill="currentColor" d="M 53.6,10.4L 10.4,10.4C 7.42977,10.4 5.00004,12.8298 5.00004,15.8L 5.00004,48.2C 5.00004,51.169 7.42977,53.6 10.4,53.6L 53.6,53.6C 56.569,53.6 59,51.169 59,48.2L 59,15.8C 59,12.8298 56.569,10.4 53.6,10.4 Z M 20.5515,43.4486L 16.7453,47.2561C 12.5055,43.069 10.4,37.5345 10.4,32C 10.4,26.4656 12.5055,20.9298 16.7175,16.7175L 20.525,20.525C 17.3925,23.7116 15.8,27.842 15.8,32C 15.8,36.1581 17.3925,40.2899 20.5515,43.4486 Z M 32,42.8C 26.0331,42.8 21.2,37.967 21.2,32C 21.2,26.0331 26.0331,21.2 32,21.2C 37.967,21.2 42.8,26.0331 42.8,32C 42.8,37.967 37.967,42.8 32,42.8 Z M 47.2825,47.2825L 43.475,43.475C 46.6075,40.2899 48.2,36.1581 48.2,32C 48.2,27.842 46.6075,23.7116 43.4486,20.5515L 47.2561,16.7453C 51.4959,20.9298 53.6,26.4656 53.6,32C 53.6,37.5345 51.4959,43.069 47.2825,47.2825 Z M 32,26.6C 29.0298,26.6 26.6,29.0298 26.6,32C 26.6,34.969 29.0298,37.4 32,37.4C 34.969,37.4 37.4,34.969 37.4,32C 37.4,29.0298 34.969,26.6 32,26.6 Z "/>
</svg>
