<?xml version="1.0" encoding="utf-8"?>
<!DOCTYPE svg PUBLIC "-//W3C//DTD SVG 1.1//EN" "http://www.w3.org/Graphics/SVG/1.1/DTD/svg11.dtd">
<svg xmlns="http://www.w3.org/2000/svg" xmlns:xlink="http://www.w3.org/1999/xlink" version="1.1" baseProfile="full" width="64" height="64" viewBox="0 0 64.00 64.00" enable-background="new 0 0 64.00 64.00" xml:space="preserve">
	<path fill="currentColor" d="M 59,56.3C 56.0046,56.3 54.3276,55.3008 53.1148,54.5704C 52.1155,53.9796 51.4959,53.6 50.0087,53.6C 48.4954,53.6 47.9046,53.9508 46.9026,54.5704C 45.6633,55.3008 44.0155,56.3 41.0175,56.3C 38.0223,56.3 36.3454,55.3008 35.1325,54.5704C 34.133,53.9796 33.5133,53.6 32.0264,53.6C 30.5155,53.6 29.921,53.9508 28.9217,54.5704C 27.6797,55.3008 26.0054,56.3 23.0087,56.3C 20.0122,56.3 18.3378,55.3008 17.1235,54.5704C 16.1242,53.9508 15.5033,53.6 14.0175,53.6C 12.533,53.6 11.9122,53.9508 10.9128,54.5704C 9.67102,55.3008 7.99671,56.3 4.99999,56.3L 4.99999,50.9C 6.51223,50.9 7.10541,50.5492 8.10473,49.9296C 9.34671,49.1992 11.021,48.2 14.0175,48.2C 17.0155,48.2 18.6884,49.1992 19.904,49.9296C 20.9033,50.5492 21.4967,50.9 23.0087,50.9C 24.521,50.9 25.1155,50.5492 26.1134,49.9296C 27.3554,49.1992 29.0297,48.2 32.0264,48.2C 35.0242,48.2 36.6985,49.1992 37.9117,49.9296C 38.9133,50.5204 39.533,50.9 41.0175,50.9C 42.5046,50.9 43.1242,50.5492 44.1235,49.9296C 45.3367,49.1992 47.0133,48.2 50.0087,48.2C 53.0041,48.2 54.681,49.1992 55.8939,49.9296C 56.8959,50.5492 57.4867,50.9 59,50.9L 59,56.3 Z M 58.9473,44.15C 55.9849,44.1384 54.3205,43.1465 53.1148,42.4204C 52.1155,41.8296 51.4959,41.45 50.0087,41.45C 48.4954,41.45 47.9046,41.8008 46.9026,42.4204C 45.6898,43.1508 44.0155,44.15 41.0175,44.15C 38.0223,44.15 36.3454,43.1508 35.1325,42.4204C 34.133,41.8296 33.5133,41.45 32.0264,41.45C 30.5155,41.45 29.921,41.8008 28.9217,42.4204C 27.7075,43.1508 26.033,44.15 23.0365,44.15C 20.0384,44.15 18.3655,43.1508 17.15,42.4204C 16.1508,41.8296 15.5297,41.45 14.0453,41.45C 12.5595,41.45 11.9384,41.8008 10.9405,42.4204C 9.67102,43.1508 7.9967,44.15 4.99999,44.15L 4.99999,38.75C 6.51223,38.75 7.10541,38.3993 8.10473,37.7796C 9.32025,37.0493 10.9946,36.05 13.9913,36.05C 16.9877,36.05 18.6622,37.0493 19.8764,37.7796C 20.8758,38.3704 21.4967,38.75 22.9825,38.75C 24.4946,38.75 25.0877,38.3993 26.0872,37.7796C 27.3014,37.0493 28.9758,36.05 31.9735,36.05C 34.9689,36.05 36.6459,37.0493 37.8587,37.7796C 38.858,38.3704 39.4776,38.75 40.9648,38.75C 42.4492,38.75 43.0689,38.3993 44.0709,37.7796C 45.2837,37.0493 46.958,36.05 49.956,36.05C 52.9514,36.05 54.6257,37.0493 55.8413,37.7796C 56.8405,38.3704 57.4601,38.75 58.9473,38.75L 58.9473,44.15L 59,44.15 Z M 23.0087,32C 21.4967,32 20.9033,31.6493 19.904,31.0283C 19.3372,30.704 18.6622,30.2993 17.825,29.975L 26.6,21.2L 23.9,18.5C 20.9033,15.5033 18.0134,14.4236 13.1,14.45L 13.1,7.70003C 19.85,7.67358 23.7115,8.91556 27.896,13.1L 45.231,30.4075L 44.1235,31.0283C 43.1242,31.6493 42.5046,32 41.0175,32C 39.533,32 38.9133,31.6217 37.9117,31.0283C 36.6985,30.2993 35.0242,29.3 32.0264,29.3C 29.0297,29.3 27.3554,30.2993 26.1134,31.0283C 25.1155,31.6493 24.521,32 23.0087,32 Z M 44.15,7.70003C 47.8784,7.70003 50.9,10.7216 50.9,14.45C 50.9,18.1784 47.8784,21.2 44.15,21.2C 40.4216,21.2 37.4,18.1784 37.4,14.45C 37.4,10.7216 40.4216,7.70003 44.15,7.70003 Z "/>
</svg>
