<?xml version="1.0" encoding="utf-8"?>
<!DOCTYPE svg PUBLIC "-//W3C//DTD SVG 1.1//EN" "http://www.w3.org/Graphics/SVG/1.1/DTD/svg11.dtd">
<svg xmlns="http://www.w3.org/2000/svg" xmlns:xlink="http://www.w3.org/1999/xlink" version="1.1" baseProfile="full" width="64" height="64" viewBox="0 0 64.00 64.00" enable-background="new 0 0 64.00 64.00" xml:space="preserve">
	<path fill="currentColor" d="M 47.7502,4.99968L 16.2502,4.99968C 13.1454,4.99968 10.6252,7.51987 10.6252,10.6247L 10.6252,53.3747C 10.6252,56.4795 13.1454,58.9997 16.2502,58.9997L 47.7502,58.9997C 50.855,58.9997 53.3752,56.4795 53.3752,53.3747L 53.3752,10.6247C 53.3752,7.51987 50.855,4.99968 47.7502,4.99968 Z M 32.0002,56.7497C 30.1324,56.7497 28.6252,55.2424 28.6252,53.3747C 28.6252,51.5069 30.1324,49.9997 32.0002,49.9997C 33.8679,49.9997 35.3752,51.5069 35.3752,53.3747C 35.3752,55.2424 33.8679,56.7497 32.0002,56.7497 Z M 48.8752,47.7497L 15.1252,47.7497L 15.1252,11.7497L 48.8752,11.7497L 48.8752,47.7497 Z "/>
</svg>
