<?xml version="1.0" encoding="utf-8"?>
<!DOCTYPE svg PUBLIC "-//W3C//DTD SVG 1.1//EN" "http://www.w3.org/Graphics/SVG/1.1/DTD/svg11.dtd">
<svg xmlns="http://www.w3.org/2000/svg" xmlns:xlink="http://www.w3.org/1999/xlink" version="1.1" baseProfile="full" width="64" height="64" viewBox="0 0 64.00 64.00" enable-background="new 0 0 64.00 64.00" xml:space="preserve">
	<path fill="currentColor" d="M 5.00008,23L 47.0001,23L 47.0001,17L 5.00008,17L 5.00008,23 Z M 5.00008,35L 47.0001,35L 47.0001,29L 5.00008,29L 5.00008,35 Z M 5.00008,47L 47.0001,47L 47.0001,41L 5.00008,41L 5.00008,47 Z M 53.0001,47L 59.0001,47L 59.0001,41L 53.0001,41L 53.0001,47 Z M 53.0001,17L 53.0001,23L 59.0001,23L 59.0001,17L 53.0001,17 Z M 53.0001,35L 59.0001,35L 59.0001,29L 53.0001,29L 53.0001,35 Z "/>
</svg>
