<?xml version="1.0" encoding="utf-8"?>
<!DOCTYPE svg PUBLIC "-//W3C//DTD SVG 1.1//EN" "http://www.w3.org/Graphics/SVG/1.1/DTD/svg11.dtd">
<svg xmlns="http://www.w3.org/2000/svg" xmlns:xlink="http://www.w3.org/1999/xlink" version="1.1" baseProfile="full" width="64" height="64" viewBox="0 0 64.00 64.00" enable-background="new 0 0 64.00 64.00" xml:space="preserve">
	<path fill="currentColor" d="M 46.6251,19.6246C 39.7851,19.6246 34.2501,25.1596 34.2501,31.9996C 34.2501,34.9923 35.3092,37.7367 37.0847,39.8746L 26.9156,39.8746C 28.6921,37.7367 29.7501,34.9923 29.7501,31.9996C 29.7501,25.1596 24.2151,19.6246 17.3751,19.6246C 10.5351,19.6246 5.00012,25.1596 5.00012,31.9996C 5.00012,38.8396 10.5351,44.3746 17.3751,44.3746L 46.6251,44.3746C 53.4651,44.3746 59.0001,38.8396 59.0001,31.9996C 59.0001,25.1596 53.4651,19.6246 46.6251,19.6246 Z M 17.3751,39.8746C 13.0322,39.8746 9.50012,36.3414 9.50012,31.9996C 9.50012,27.6566 13.0322,24.1246 17.3751,24.1246C 21.7181,24.1246 25.2501,27.6566 25.2501,31.9996C 25.2501,36.3414 21.7181,39.8746 17.3751,39.8746 Z M 46.6251,39.8746C 42.2833,39.8746 38.7501,36.3414 38.7501,31.9996C 38.7501,27.6566 42.2833,24.1246 46.6251,24.1246C 50.9669,24.1246 54.5001,27.6566 54.5001,31.9996C 54.5001,36.3414 50.9669,39.8746 46.6251,39.8746 Z "/>
</svg>
