<?xml version="1.0" encoding="utf-8"?>
<!DOCTYPE svg PUBLIC "-//W3C//DTD SVG 1.1//EN" "http://www.w3.org/Graphics/SVG/1.1/DTD/svg11.dtd">
<svg xmlns="http://www.w3.org/2000/svg" xmlns:xlink="http://www.w3.org/1999/xlink" version="1.1" baseProfile="full" width="64" height="64" viewBox="0 0 64.00 64.00" enable-background="new 0 0 64.00 64.00" xml:space="preserve">
	<path fill="currentColor" d="M 34.5116,15.0465C 37.2734,15.0465 39.5348,12.7863 39.5348,10.0233C 39.5348,7.26025 37.2734,5.00004 34.5116,5.00004C 31.7486,5.00004 29.4884,7.26025 29.4884,10.0233C 29.4884,12.7863 31.7486,15.0465 34.5116,15.0465 Z M 25.2181,23.5858L 18.1861,58.9998L 23.4607,58.9998L 27.9812,38.9069L 33.2558,43.9301L 33.2558,58.9998L 38.279,58.9998L 38.279,40.1627L 33.0056,35.1394L 34.5116,27.6046C 37.7762,31.372 42.7994,33.8836 48.3255,33.8836L 48.3255,28.8604C 43.5524,28.8604 39.5348,26.3488 37.526,22.8328L 35.0144,18.8139C 34.0088,17.3067 32.5028,16.3023 30.7442,16.3023C 29.9912,16.3023 29.4884,16.5537 28.7354,16.5537L 15.6745,22.0785L 15.6745,33.8836L 20.6977,33.8836L 20.6977,25.3444L 25.2181,23.5858"/>
</svg>
