<?xml version="1.0" encoding="utf-8"?>
<!DOCTYPE svg PUBLIC "-//W3C//DTD SVG 1.1//EN" "http://www.w3.org/Graphics/SVG/1.1/DTD/svg11.dtd">
<svg xmlns="http://www.w3.org/2000/svg" xmlns:xlink="http://www.w3.org/1999/xlink" version="1.1" baseProfile="full" width="64" height="64" viewBox="0 0 64.00 64.00" enable-background="new 0 0 64.00 64.00" xml:space="preserve">
	<path fill="currentColor" d="M 41.4236,25.6008C 40.9384,18.0675 37.8852,10.7243 32.1623,5.00004C 26.3837,10.7783 23.1986,18.1218 22.5765,25.6008C 26.0331,27.4373 29.2196,29.8128 32,32.7015C 34.7791,29.8406 37.967,27.4635 41.4236,25.6008 Z M 23.8736,32.7569C 23.4953,32.4866 23.0628,32.2425 22.6581,31.9736C 23.0628,32.2703 23.4953,32.4866 23.8736,32.7569 Z M 41.2075,32.0819C 40.8541,32.3243 40.4796,32.5128 40.1265,32.7831C 40.4796,32.5128 40.8541,32.3243 41.2075,32.0819 Z M 32,41.3156C 26.1953,32.4587 16.2866,26.6 5.00004,26.6C 5.00004,40.9649 14.0718,53.1149 26.6805,57.6236C 28.3825,58.2432 30.1635,58.7047 32,59C 33.8352,58.6758 35.5913,58.217 37.3209,57.6236C 49.9296,53.1149 59,40.9649 59,26.6C 47.7149,26.6 37.8061,32.4587 32,41.3156 Z "/>
</svg>
