<?xml version="1.0" encoding="utf-8"?>
<!DOCTYPE svg PUBLIC "-//W3C//DTD SVG 1.1//EN" "http://www.w3.org/Graphics/SVG/1.1/DTD/svg11.dtd">
<svg xmlns="http://www.w3.org/2000/svg" xmlns:xlink="http://www.w3.org/1999/xlink" version="1.1" baseProfile="full" width="64" height="64" viewBox="0 0 64.00 64.00" enable-background="new 0 0 64.00 64.00" xml:space="preserve">
	<path fill="currentColor" d="M 36.6899,36.7562C 35.3637,37.2385 33.8084,37.6844 33.8084,40.5779L 33.8084,51.935C 33.8084,53.225 34.2907,54.2256 35.2552,54.9129C 35.6049,55.166 36.1111,55.4313 37.0756,55.6965C 40.8855,56.7333 42.7542,57.5773 43.0315,57.7702C 43.2846,57.9389 43.586,58.2042 43.586,58.6262C 43.586,58.6262 41.9464,59 32.0121,59C 22.0777,59 20.4139,58.6262 20.4139,58.6262C 20.4139,58.2042 20.7153,57.9389 20.9565,57.7702C 21.2338,57.5773 23.0904,56.7333 26.8882,55.6965C 27.8527,55.4313 28.2746,55.166 28.6122,54.9129C 29.6008,54.2136 29.9504,53.213 29.9504,51.923L 29.9504,40.5659C 29.9504,37.6363 28.576,37.2022 27.2619,36.7321C 25.9477,36.2618 25.1159,35.9001 24.1273,35.3215C 22.6926,34.4895 21.3905,33.4286 20.2934,32.1868C 17.846,29.426 16.568,26.0382 16.568,21.8064C 16.568,15.7903 17.0141,9.59344 17.5446,7.96585C 18.075,6.33826 19.1722,5 21.2338,5L 42.7542,5C 44.8279,5 45.925,6.32619 46.4555,7.98993C 46.9859,9.62959 47.432,15.8024 47.432,21.8185C 47.432,26.0382 46.1541,29.438 43.6946,32.1989C 42.5975,33.4407 41.2953,34.5137 39.8486,35.3456C 38.8601,35.9243 38.0161,36.2618 36.6899,36.7562 Z M 31.9879,33.73C 35.1346,33.73 37.992,32.4521 40.0536,30.3784L 40.7891,29.6068C 42.6698,27.4849 43.369,25.4595 43.5379,21.7823C 43.7066,18.1172 43.369,11.7515 42.6095,8.85801L 21.2699,8.85801C 20.3778,13.0777 20.3054,18.4186 20.3899,21.8185C 20.4742,25.2063 21.2941,27.5211 23.1748,29.6309L 24.0911,30.5593C 26.1407,32.5244 28.9257,33.73 31.9879,33.73 Z M 41.6691,21.71C 41.6691,22.9759 41.4883,24.2177 41.1145,25.3027C 40.7408,26.3998 40.1621,27.3764 39.3663,28.2686L 38.7395,28.9075C 37.0033,30.6316 34.6282,31.6925 32,31.6925C 29.4441,31.6925 27.1172,30.6798 25.4052,29.0402L 24.6336,28.2686C 23.8379,27.3764 23.2472,26.3878 22.8734,25.2906C 22.5117,24.2297 22.4394,23.4099 22.3309,21.7461C 22.2586,20.6611 22.355,17.647 22.5117,15.3684C 22.5961,14.1145 22.7046,13.0777 22.8131,12.716L 41.2592,12.716L 41.5124,15.3684C 41.657,17.864 41.6691,20.8058 41.6691,21.71 Z M 39.716,22.7227L 39.704,22.7227L 39.704,19.6001C 39.704,19.0697 39.2699,18.6356 38.7395,18.6356C 38.209,18.6356 37.775,19.0697 37.775,19.6001L 37.775,22.7348C 37.775,23.0723 37.9317,23.3737 38.197,23.5425C 38.3537,23.639 38.5224,23.6993 38.7154,23.6993C 39.2458,23.6993 39.716,23.3255 39.716,22.7227 Z M 39.5834,17.0321C 39.728,16.8151 39.7763,16.5499 39.716,16.3087C 39.6557,16.0556 39.511,15.8386 39.294,15.6939C 39.0891,15.5613 38.8238,15.5131 38.5707,15.5613C 38.3175,15.6216 38.1004,15.7662 37.9558,15.9833C 37.8231,16.1882 37.775,16.4534 37.8231,16.7066C 37.8834,16.9598 38.0281,17.1768 38.2451,17.3215C 38.4501,17.4541 38.7154,17.5024 38.9685,17.4541C 39.2217,17.3938 39.4387,17.2492 39.5834,17.0321 Z "/>
</svg>
