<?xml version="1.0" encoding="utf-8"?>
<!DOCTYPE svg PUBLIC "-//W3C//DTD SVG 1.1//EN" "http://www.w3.org/Graphics/SVG/1.1/DTD/svg11.dtd">
<svg xmlns="http://www.w3.org/2000/svg" xmlns:xlink="http://www.w3.org/1999/xlink" version="1.1" baseProfile="full" width="64" height="64" viewBox="0 0 64.00 64.00" enable-background="new 0 0 64.00 64.00" xml:space="preserve">
	<path fill="currentColor" d="M 24.0924,19.0556C 24.5019,17.6103 26.2001,15.1292 29.163,15.0087L 34.8599,15.0087C 37.7263,15.1292 39.4366,17.6343 39.9184,19.0556L 43.4594,31.6296C 44.1821,34.3637 40.9543,35.4958 40.1714,32.8582L 37.0037,21.2717L 35.9921,21.2717L 41.5565,41.6263L 36.3293,41.6263L 36.3293,56.9224C 36.3293,59.6925 32.5956,59.6925 32.5956,56.9224L 32.5956,41.6263L 31.3912,41.6263L 31.3912,56.9224C 31.3912,59.6925 27.537,59.6925 27.537,56.9224L 27.537,41.6263L 22.4544,41.6263L 27.8984,21.2717L 27.0071,21.2717L 23.8395,32.8582C 23.0446,35.4356 19.7927,34.3637 20.5514,31.6176L 24.0924,19.0556 Z M 36.4015,9.49253C 36.4015,11.9736 34.4263,13.985 31.9934,13.985C 29.5604,13.985 27.5852,11.9736 27.5852,9.49253C 27.5852,7.01142 29.5604,5.00003 31.9934,5.00003C 34.4263,5.00003 36.4015,7.01142 36.4015,9.49253 Z "/>
</svg>
