<?xml version="1.0" encoding="utf-8"?>
<!DOCTYPE svg PUBLIC "-//W3C//DTD SVG 1.1//EN" "http://www.w3.org/Graphics/SVG/1.1/DTD/svg11.dtd">
<svg xmlns="http://www.w3.org/2000/svg" xmlns:xlink="http://www.w3.org/1999/xlink" version="1.1" baseProfile="full" width="64" height="64" viewBox="0 0 64.00 64.00" enable-background="new 0 0 64.00 64.00" xml:space="preserve">
	<path fill="currentColor" d="M 32,5.00004C 17.0961,5.00004 5.00004,17.0961 5.00004,32C 5.00004,46.9027 17.0961,59 32,59C 46.9027,59 59,46.9027 59,32C 59,17.0961 46.9027,5.00004 32,5.00004 Z M 29.3,53.4102C 18.6345,52.0867 10.4,43.0163 10.4,32C 10.4,30.3258 10.6163,28.7331 10.967,27.167L 23.9,40.1L 23.9,42.8C 23.9,45.769 26.3298,48.2 29.3,48.2L 29.3,53.4102 Z M 47.9311,46.5546C 47.2296,44.3663 45.2311,42.8 42.8,42.8L 40.1,42.8L 40.1,34.7C 40.1,33.2156 38.8845,32 37.4,32L 21.2,32L 21.2,26.6L 26.6,26.6C 28.0845,26.6 29.3,25.3845 29.3,23.9L 29.3,18.5L 34.7,18.5C 37.669,18.5 40.1,16.0703 40.1,13.1L 40.1,11.9925C 48.0102,15.2069 53.6,22.9548 53.6,32C 53.6,37.6163 51.4406,42.7182 47.9311,46.5546 Z "/>
</svg>
