<?xml version="1.0" encoding="utf-8"?>
<!DOCTYPE svg PUBLIC "-//W3C//DTD SVG 1.1//EN" "http://www.w3.org/Graphics/SVG/1.1/DTD/svg11.dtd">
<svg xmlns="http://www.w3.org/2000/svg" xmlns:xlink="http://www.w3.org/1999/xlink" version="1.1" baseProfile="full" width="64" height="64" viewBox="0 0 64.00 64.00" enable-background="new 0 0 64.00 64.00" xml:space="preserve">
	<path fill="currentColor" d="M 31.9999,22.1818C 26.5754,22.1818 22.1818,26.5755 22.1818,32C 22.1818,37.4245 26.5754,41.8182 31.9999,41.8182C 37.4245,41.8182 41.8181,37.4245 41.8181,32C 41.8181,26.5755 37.4245,22.1818 31.9999,22.1818 Z M 53.9424,29.5455C 52.8157,19.3103 44.6897,11.1854 34.4545,10.0566L 34.4545,5L 29.5454,5L 29.5454,10.0566C 19.3102,11.1854 11.1854,19.3103 10.0565,29.5455L 4.99994,29.5455L 4.99994,34.4545L 10.0565,34.4545C 11.1854,44.6897 19.3102,52.8158 29.5454,53.9424L 29.5454,59L 34.4545,59L 34.4545,53.9424C 44.6897,52.8158 52.8157,44.6897 53.9424,34.4545L 58.9999,34.4545L 58.9999,29.5455L 53.9424,29.5455 Z M 31.9999,49.1818C 22.5006,49.1818 14.8181,41.4993 14.8181,32C 14.8181,22.5007 22.5006,14.8182 31.9999,14.8182C 41.4992,14.8182 49.1818,22.5007 49.1818,32C 49.1818,41.4993 41.4992,49.1818 31.9999,49.1818 Z "/>
</svg>
