<?xml version="1.0" encoding="utf-8"?>
<!DOCTYPE svg PUBLIC "-//W3C//DTD SVG 1.1//EN" "http://www.w3.org/Graphics/SVG/1.1/DTD/svg11.dtd">
<svg xmlns="http://www.w3.org/2000/svg" xmlns:xlink="http://www.w3.org/1999/xlink" version="1.1" baseProfile="full" width="20" height="40" viewBox="0 0 20.00 40.00" enable-background="new 0 0 20.00 40.00" xml:space="preserve">
	<path fill="#{colora}" fill-opacity="1" stroke-linejoin="round" d="M 7,3L 13,3C 15.2091,3 17,4.79087 17,7L 17,13C 17,15.2091 15.2091,17 13,17L 7,17C 4.79086,17 3,15.2091 3,13L 3,7C 3,4.79087 4.79086,3 7,3 Z "/>
	<path fill="#FFFFFF" fill-opacity="1" stroke-linejoin="round" d="M 6.99998,4.00004L 13,4.00004C 14.6568,4.00004 16,5.34319 16,7.00005L 16,13C 16,14.6569 14.6568,16 13,16L 6.99998,16C 5.34313,16 3.99998,14.6569 3.99998,13L 3.99998,7.00005C 3.99998,5.34319 5.34313,4.00004 6.99998,4.00004 Z "/>
	<path fill="#{colora}" fill-opacity="1" stroke-linejoin="round" d="M 7,23L 13,23C 15.2091,23 17,24.7909 17,27L 17,33C 17,35.2091 15.2091,37 13,37L 7,37C 4.79086,37 3,35.2091 3,33L 3,27C 3,24.7909 4.79086,23 7,23 Z "/>
	<path fill="#FFFFFF" fill-opacity="1" stroke-linejoin="round" d="M 6.99998,24.0001L 13,24.0001C 14.6568,24.0001 16,25.3432 16,27.0001L 16,33.0001C 16,34.6569 14.6568,36.0001 13,36.0001L 6.99998,36.0001C 5.34312,36.0001 3.99998,34.6569 3.99998,33.0001L 3.99998,27.0001C 3.99998,25.3432 5.34312,24.0001 6.99998,24.0001 Z "/>
	<path fill="#{colorb}" fill-opacity="1" stroke-linejoin="round" d="M 6.99999,25L 13,25C 14.1046,25 15,25.8954 15,27L 15,33C 15,34.1046 14.1046,35 13,35L 6.99999,35C 5.89543,35 4.99999,34.1046 4.99999,33L 4.99999,27C 4.99999,25.8954 5.89543,25 6.99999,25 Z "/>
</svg>
