<?xml version="1.0" encoding="utf-8"?>
<!DOCTYPE svg PUBLIC "-//W3C//DTD SVG 1.1//EN" "http://www.w3.org/Graphics/SVG/1.1/DTD/svg11.dtd">
<svg xmlns="http://www.w3.org/2000/svg" xmlns:xlink="http://www.w3.org/1999/xlink" version="1.1" baseProfile="full" width="16" height="16" viewBox="0 0 16.00 16.00" enable-background="new 0 0 16.00 16.00" xml:space="preserve">
	<path fill="#{color}" d="M 6,3.00001L 8.99999,3.00001C 10.6568,3.00001 12,4.34315 12,6.00001L 12,9C 12,10.6569 10.6568,12 8.99999,12L 6,12C 4.34314,12 3,10.6569 3,9L 3,6.00001C 3,4.34315 4.34314,3.00001 6,3.00001 Z M 6,4.00001C 4.89543,4.00001 4,4.89544 4,6L 4,9C 4,10.1046 4.89543,11 6,11L 9,11C 10.1046,11 11,10.1046 11,9L 11,6C 11,4.89544 10.1046,4.00001 9,4.00001L 6,4.00001 Z "/>
	<rect x="5" y="7" fill="#{color}" width="5" height="1"/>
	<rect x="7" y="5" fill="#{color}" width="1" height="5"/>
</svg>
