<?xml version="1.0" encoding="utf-8"?>
<!DOCTYPE svg PUBLIC "-//W3C//DTD SVG 1.1//EN" "http://www.w3.org/Graphics/SVG/1.1/DTD/svg11.dtd">
<svg xmlns="http://www.w3.org/2000/svg" xmlns:xlink="http://www.w3.org/1999/xlink" version="1.1" baseProfile="full" width="18" height="18" viewBox="0 0 18.00 18.00" enable-background="new 0 0 18.00 18.00" xml:space="preserve">
	<path fill="#{color}" fill-opacity="1" stroke-width="0.2" stroke-linejoin="miter" d="M 7,1C 10.3137,1 13,3.68629 13,7C 13,8.50022 12.4494,9.87184 11.5393,10.9238L 17.348,16.7326L 16.6409,17.4397L 10.8245,11.6233C 9.78622,12.4832 8.45346,13 7,13C 3.68629,13 1,10.3137 1,7C 1,3.68629 3.68629,1 7,1 Z M 7,2C 4.23858,2 2,4.23858 2,7C 2,9.76143 4.23858,12 7,12C 9.76142,12 12,9.76143 12,7C 12,4.23858 9.76142,2 7,2 Z "/>
</svg>
