<?xml version="1.0" encoding="utf-8"?>
<!DOCTYPE svg PUBLIC "-//W3C//DTD SVG 1.1//EN" "http://www.w3.org/Graphics/SVG/1.1/DTD/svg11.dtd">
<svg xmlns="http://www.w3.org/2000/svg" xmlns:xlink="http://www.w3.org/1999/xlink" version="1.1" baseProfile="full" width="32" height="128" viewBox="0 0 32.00 128.00" enable-background="new 0 0 32.00 128.00" xml:space="preserve">
	<ellipse fill="#F3F3F3" cx="16" cy="16" rx="15" ry="15"/>
	<ellipse fill="#E6E6E6" cx="16" cy="16" rx="12" ry="12"/>
	<ellipse fill="#FFFFFF" cx="16" cy="16" rx="9" ry="9"/>
	<rect x="12" y="11" fill="#{color}" width="3" height="10"/>
	<rect x="17" y="11" fill="#{color}" width="3" height="10"/>
	<ellipse fill="#E6E6E6" cx="16" cy="48" rx="12" ry="12"/>
	<ellipse fill="#FFFFFF" cx="16" cy="48" rx="9" ry="9"/>
	<path fill="#{color}" d="M 13,54L 13,42L 21,48L 13,54 Z "/>
	<path fill="#{color}" d="M 16,95C 7.71573,95 1,88.2843 1,80C 1,71.7157 7.71574,65 16,65L 16,68C 9.37259,68 4,73.3726 4,80C 4,86.6274 9.37258,92 16,92L 16,95 Z "/>
	<path fill="#{color}" fill-opacity="0.3" d="M 16.5,4.01023L 16.5,1.00819C 16.334,1.00275 16.1673,1.00001 16,1.00001C 15.8327,1.00001 15.666,1.00275 15.5,1.00819L 15.5,4.01023L 16,4.00001L 16.5,4.01023 Z M 19.5869,4.54531L 20.3641,1.64477C 20.0464,1.5483 19.7243,1.4621 19.398,1.38654L 18.6208,4.28709L 19.5869,4.54531 Z M 22.4285,5.86544L 23.9298,3.26511C 23.6475,3.08891 23.3588,2.92184 23.0643,2.76431L 21.563,5.36463L 22.4285,5.86544 Z M 24.8315,7.87564L 26.9543,5.75284C 26.7265,5.5094 26.4906,5.27356 26.2472,5.04574L 24.1244,7.16854L 24.8315,7.87564 Z M 26.6354,10.437L 29.2357,8.93573C 29.0782,8.6412 28.9111,8.35255 28.7349,8.07017L 26.1346,9.57147L 26.6354,10.437 Z M 27.7129,13.3792L 30.6135,12.602C 30.5379,12.2758 30.4517,11.9536 30.3553,11.6359L 27.4547,12.4131L 27.7129,13.3792 Z M 27.9898,16.5L 30.9918,16.5C 30.9973,16.334 31,16.1674 31,16C 31,15.8327 30.9973,15.666 30.9918,15.5L 27.9898,15.5L 28,16L 27.9898,16.5 Z M 27.4547,19.587L 30.3553,20.3641C 30.4517,20.0464 30.5379,19.7243 30.6135,19.398L 27.7129,18.6209L 27.4547,19.587 Z M 26.1346,22.4286L 28.7349,23.9299C 28.9111,23.6475 29.0782,23.3589 29.2357,23.0643L 26.6354,21.563L 26.1346,22.4286 Z M 24.1244,24.8316L 26.2472,26.9543C 26.4906,26.7265 26.7265,26.4907 26.9543,26.2472L 24.8315,24.1244L 24.1244,24.8316 Z M 21.563,26.6354L 23.0643,29.2357C 23.3588,29.0782 23.6475,28.9111 23.9298,28.7349L 22.4286,26.1346L 21.563,26.6354 Z M 18.6208,27.713L 19.398,30.6135C 19.7243,30.5379 20.0464,30.4517 20.3641,30.3553L 19.5869,27.4548L 18.6208,27.713 Z M 15.5,27.9898L 15.5,30.9918C 15.666,30.9973 15.8327,31 16,31C 16.1673,31 16.334,30.9973 16.5,30.9918L 16.5,27.9898L 16,28L 15.5,27.9898 Z M 12.4131,27.4548L 11.6359,30.3553C 11.9536,30.4517 12.2757,30.5379 12.602,30.6135L 13.3792,27.713L 12.4131,27.4548 Z M 9.57143,26.1346L 8.07014,28.7349C 8.35252,28.9111 8.64118,29.0782 8.93571,29.2357L 10.437,26.6354L 9.57143,26.1346 Z M 7.16849,24.1245L 5.04571,26.2472C 5.27354,26.4907 5.50938,26.7265 5.75282,26.9543L 7.8756,24.8316L 7.16849,24.1245 Z M 5.36459,21.563L 2.76429,23.0643C 2.92182,23.3589 3.08889,23.6475 3.26509,23.9299L 5.86539,22.4286L 5.36459,21.563 Z M 4.28705,18.6209L 1.38653,19.3981C 1.46208,19.7243 1.54828,20.0464 1.64474,20.3641L 4.54526,19.587L 4.28705,18.6209 Z M 4.01023,15.5L 1.00817,15.5C 1.00274,15.666 0.999999,15.8327 0.999999,16C 0.999999,16.1674 1.00274,16.334 1.00818,16.5L 4.01023,16.5L 4,16L 4.01023,15.5 Z M 4.54527,12.4131L 1.64474,11.6359C 1.54828,11.9536 1.46208,12.2758 1.38652,12.602L 4.28705,13.3792L 4.54527,12.4131 Z M 5.86541,9.57146L 3.26508,8.07017C 3.08888,8.35254 2.92181,8.6412 2.76428,8.93573L 5.3646,10.437L 5.86541,9.57146 Z M 7.8756,7.16852L 5.75281,5.04572C 5.50937,5.27355 5.27352,5.50939 5.0457,5.75284L 7.1685,7.87563L 7.8756,7.16852 Z M 10.437,5.36463L 8.9357,2.76431C 8.64118,2.92184 8.35252,3.08891 8.07014,3.26511L 9.57144,5.86544L 10.437,5.36463 Z M 13.3792,4.28709L 12.602,1.38654C 12.2757,1.4621 11.9536,1.5483 11.6359,1.64475L 12.4131,4.5453L 13.3792,4.28709 Z "/>
	<path fill="#{color}" fill-opacity="0.8" d="M 24.9863,112.5L 27.9898,112.5C 27.9966,112.334 28,112.167 28,112C 28,111.833 27.9966,111.666 27.9898,111.5L 24.9863,111.5L 25,112L 24.9863,112.5 Z M 24.5528,114.809L 27.4547,115.587C 27.5538,115.27 27.64,114.948 27.7129,114.621L 24.8111,113.843L 24.5528,114.809 Z M 23.5331,116.927L 26.1346,118.429C 26.3131,118.148 26.4802,117.859 26.6354,117.563L 24.0339,116.061L 23.5331,116.927 Z M 22.0006,118.708L 24.1244,120.832C 24.3698,120.606 24.6057,120.37 24.8315,120.124L 22.7077,118.001L 22.0006,118.708 Z M 20.061,120.034L 21.563,122.635C 21.859,122.48 22.1478,122.313 22.4286,122.135L 20.9266,119.533L 20.061,120.034 Z M 17.8433,120.811L 18.6208,123.713C 18.9481,123.64 19.2703,123.554 19.5869,123.455L 18.8094,120.553L 17.8433,120.811 Z M 15.5,120.986L 15.5,123.99C 15.6658,123.997 15.8325,124 16,124C 16.1675,124 16.3342,123.997 16.5,123.99L 16.5,120.986L 16,121L 15.5,120.986 Z M 13.1906,120.553L 12.4131,123.455C 12.7297,123.554 13.0519,123.64 13.3792,123.713L 14.1567,120.811L 13.1906,120.553 Z M 11.0734,119.533L 9.57143,122.135C 9.85225,122.313 10.141,122.48 10.437,122.635L 11.939,120.034L 11.0734,119.533 Z M 9.29225,118.001L 7.16849,120.124C 7.39432,120.37 7.63024,120.606 7.87559,120.832L 9.99936,118.708L 9.29225,118.001 Z M 7.96613,116.061L 5.3646,117.563C 5.51975,117.859 5.6869,118.148 5.8654,118.429L 8.46692,116.927L 7.96613,116.061 Z M 7.18893,113.843L 4.28705,114.621C 4.35996,114.948 4.44623,115.27 4.54527,115.587L 7.44715,114.809L 7.18893,113.843 Z M 7.01365,111.5L 4.01023,111.5C 4.00343,111.666 4,111.833 4,112C 4,112.167 4.00343,112.334 4.01023,112.5L 7.01365,112.5L 7,112L 7.01365,111.5 Z M 7.44715,109.191L 4.54527,108.413C 4.44623,108.73 4.35996,109.052 4.28705,109.379L 7.18893,110.157L 7.44715,109.191 Z M 8.46692,107.073L 5.8654,105.571C 5.6869,105.852 5.51975,106.141 5.3646,106.437L 7.96613,107.939L 8.46692,107.073 Z M 9.99936,105.292L 7.87559,103.168C 7.63024,103.394 7.39432,103.63 7.16849,103.876L 9.29225,105.999L 9.99936,105.292 Z M 11.939,103.966L 10.437,101.365C 10.141,101.52 9.85225,101.687 9.57144,101.865L 11.0734,104.467L 11.939,103.966 Z M 14.1567,103.189L 13.3792,100.287C 13.0519,100.36 12.7297,100.446 12.4131,100.545L 13.1906,103.447L 14.1567,103.189 Z M 16.5,103.014L 16.5,100.01C 16.3342,100.003 16.1675,100 16,100C 15.8325,100 15.6658,100.003 15.5,100.01L 15.5,103.014L 16,103L 16.5,103.014 Z M 18.8094,103.447L 19.5869,100.545C 19.2703,100.446 18.9481,100.36 18.6208,100.287L 17.8433,103.189L 18.8094,103.447 Z M 20.9266,104.467L 22.4286,101.865C 22.1477,101.687 21.859,101.52 21.563,101.365L 20.061,103.966L 20.9266,104.467 Z M 22.7077,105.999L 24.8315,103.876C 24.6057,103.63 24.3698,103.394 24.1244,103.168L 22.0006,105.292L 22.7077,105.999 Z M 24.0339,107.939L 26.6354,106.437C 26.4802,106.141 26.3131,105.852 26.1346,105.571L 23.5331,107.073L 24.0339,107.939 Z M 24.8111,110.157L 27.7129,109.379C 27.64,109.052 27.5538,108.73 27.4547,108.413L 24.5528,109.191L 24.8111,110.157 Z "/>
</svg>
