<?xml version="1.0" encoding="utf-8"?>
<!DOCTYPE svg PUBLIC "-//W3C//DTD SVG 1.1//EN" "http://www.w3.org/Graphics/SVG/1.1/DTD/svg11.dtd">
<svg xmlns="http://www.w3.org/2000/svg" xmlns:xlink="http://www.w3.org/1999/xlink" version="1.1" baseProfile="full" width="32" height="32" viewBox="0 0 32.00 32.00" enable-background="new 0 0 32.00 32.00" xml:space="preserve">
	<path fill="#{color}" d="M 1.0049e-006,21.0171C 1.0049e-006,21.0171 1.25163,23.1348 3.5685,24.4817C 6.19711,26.0097 8.18429,26.8037 11.0546,26.9512C 13.9249,27.0985 15.4814,27.3226 19.5776,25.7942C 23.976,24.1529 25.4312,22.06 26.6371,20.4902C 27.8429,18.9203 28.2377,17.1102 28.2377,17.1102C 28.2377,17.1102 29.3913,17.1155 30.2444,16.798C 31.2726,16.4152 32,15.7096 32,15.7096C 32,15.7096 30.9658,15.7788 29.9832,15.6727C 29.2591,15.5946 28.5868,15.341 28.5868,15.341C 28.5868,15.341 29.8983,15.2636 30.7589,14.825C 31.5416,14.4262 31.8734,13.6663 31.8734,13.6663C 31.8734,13.6663 31.1639,13.9193 30.3801,13.9428C 29.2788,13.9757 28.1524,13.7953 28.1524,13.7953C 28.1524,13.7953 27.9197,12.1713 26.3371,10.0336C 24.7545,7.89583 21.3432,7.93502 21.3432,7.93502C 21.3432,7.93502 24.1593,7.08525 24.0124,6.59673C 23.8655,6.10819 21.7213,6.82698 21.7213,6.82698C 21.7213,6.82698 22.6255,6.01703 22.3516,6C 21.9031,5.97212 20.2765,6.73716 20.2765,6.73716L 20.3735,6.18428C 20.3735,6.18428 17.8547,8.58114 16.7952,10.2916C 15.8571,11.8062 15.3213,13.4244 15.3213,13.4244L 12.994,11.729C 12.994,11.729 6.2061,7.63783 4.69337,8.37499C 3.18062,9.11213 7.33095,12.1713 7.33095,12.1713C 7.33095,12.1713 4.73215,11.4341 5.5079,13.1296C 6.28368,14.825 8.88246,15.341 8.88246,15.341C 8.88246,15.341 6.36126,15.341 7.02063,16.631C 7.68006,17.921 10.5116,18.1053 10.5116,18.1053C 10.5116,18.1053 9.0764,18.5476 9.5031,19.6533C 9.92976,20.7591 11.8691,20.7591 11.8691,20.7591C 11.8691,20.7591 10.2013,22.4545 6.74912,23.0442C 3.29698,23.6339 1.0049e-006,21.0171 1.0049e-006,21.0171 Z "/>
</svg>
