<?xml version="1.0" encoding="utf-8"?>
<!DOCTYPE svg PUBLIC "-//W3C//DTD SVG 1.1//EN" "http://www.w3.org/Graphics/SVG/1.1/DTD/svg11.dtd">
<svg xmlns="http://www.w3.org/2000/svg" xmlns:xlink="http://www.w3.org/1999/xlink" version="1.1" baseProfile="full" width="32" height="32" viewBox="0 0 32.00 32.00" enable-background="new 0 0 32.00 32.00" xml:space="preserve">
	<path fill="#{color}" d="M 21.3333,16C 21.3333,14.5278 20.8125,13.2708 19.7708,12.2292C 18.7292,11.1875 17.4722,10.6667 16,10.6667C 14.5278,10.6667 13.2708,11.1875 12.2292,12.2292C 11.1875,13.2708 10.6667,14.5278 10.6667,16C 10.6667,17.4722 11.1875,18.7292 12.2292,19.7708C 13.2708,20.8125 14.5278,21.3333 16,21.3333C 17.4722,21.3333 18.7292,20.8125 19.7708,19.7708C 20.8125,18.7292 21.3333,17.4722 21.3333,16 Z M 32,13.7292L 32,18.3542C 32,18.5208 31.9444,18.6806 31.8333,18.8333C 31.7222,18.9861 31.5833,19.0764 31.4167,19.1042L 27.5625,19.6875C 27.2986,20.4375 27.0278,21.0694 26.75,21.5833C 27.2361,22.2778 27.9792,23.2361 28.9792,24.4583C 29.1181,24.625 29.1875,24.7986 29.1875,24.9792C 29.1875,25.1597 29.125,25.3194 29,25.4583C 28.625,25.9722 27.9375,26.7222 26.9375,27.7083C 25.9375,28.6944 25.2847,29.1875 24.9792,29.1875C 24.8125,29.1875 24.6319,29.125 24.4375,29L 21.5625,26.75C 20.9514,27.0694 20.3194,27.3333 19.6667,27.5417C 19.4444,29.4306 19.2431,30.7222 19.0625,31.4167C 18.9653,31.8056 18.7153,32 18.3125,32L 13.6875,32C 13.4931,32 13.3229,31.941 13.1771,31.8229C 13.0312,31.7049 12.9514,31.5556 12.9375,31.375L 12.3542,27.5417C 11.6736,27.3194 11.0486,27.0625 10.4792,26.7708L 7.54167,29C 7.40277,29.125 7.22917,29.1875 7.02083,29.1875C 6.8264,29.1875 6.65277,29.1111 6.5,28.9583C 4.75,27.375 3.60417,26.2083 3.0625,25.4583C 2.96528,25.3194 2.91667,25.1597 2.91667,24.9792C 2.91667,24.8125 2.97222,24.6528 3.08333,24.5C 3.29167,24.2083 3.64583,23.7465 4.14583,23.1146C 4.64583,22.4826 5.02083,21.9931 5.27083,21.6458C 4.89583,20.9514 4.6111,20.2639 4.41667,19.5833L 0.604167,19.0208C 0.423614,18.9931 0.277781,18.9063 0.166667,18.7604C 0.0555521,18.6146 -1.03066e-007,18.4514 -1.03066e-007,18.2708L -1.03066e-007,13.6458C -1.03066e-007,13.4792 0.0555521,13.3194 0.166667,13.1667C 0.277781,13.0139 0.409719,12.9236 0.5625,12.8958L 4.4375,12.3125C 4.63194,11.6736 4.90277,11.0347 5.25,10.3958C 4.69444,9.60417 3.9514,8.64584 3.02083,7.52084C 2.88195,7.35417 2.8125,7.1875 2.8125,7.02084C 2.8125,6.88194 2.875,6.72223 3,6.54167C 3.36111,6.04167 4.04515,5.29514 5.05208,4.30209C 6.05902,3.30904 6.71527,2.81251 7.02083,2.81251C 7.2014,2.81251 7.38194,2.88195 7.5625,3.02084L 10.4375,5.25C 11.0486,4.93056 11.6806,4.66667 12.3333,4.45834C 12.5556,2.56945 12.7569,1.27779 12.9375,0.583338C 13.0347,0.194452 13.2847,5.72205e-006 13.6875,5.72205e-006L 18.3125,5.72205e-006C 18.5069,5.72205e-006 18.6771,0.0590363 18.8229,0.177088C 18.9687,0.295141 19.0486,0.444452 19.0625,0.625006L 19.6458,4.45834C 20.3264,4.68056 20.9514,4.9375 21.5208,5.22917L 24.4792,3.00001C 24.6042,2.87501 24.7708,2.81251 24.9792,2.81251C 25.1597,2.81251 25.3333,2.88195 25.5,3.02084C 27.2917,4.67362 28.4375,5.85417 28.9375,6.5625C 29.0347,6.67361 29.0833,6.8264 29.0833,7.02084C 29.0833,7.1875 29.0278,7.34723 28.9167,7.5C 28.7083,7.79167 28.3542,8.25348 27.8542,8.88542C 27.3542,9.51736 26.9792,10.0069 26.7292,10.3542C 27.0903,11.0486 27.375,11.7292 27.5833,12.3958L 31.3958,12.9792C 31.5764,13.0069 31.7222,13.0938 31.8333,13.2396C 31.9444,13.3854 32,13.5486 32,13.7292 Z "/>
</svg>
