<?xml version="1.0" encoding="utf-8"?>
<!DOCTYPE svg PUBLIC "-//W3C//DTD SVG 1.1//EN" "http://www.w3.org/Graphics/SVG/1.1/DTD/svg11.dtd">
<svg xmlns="http://www.w3.org/2000/svg" xmlns:xlink="http://www.w3.org/1999/xlink" version="1.1" baseProfile="full" width="32" height="32" viewBox="0 0 32.00 32.00" enable-background="new 0 0 32.00 32.00" xml:space="preserve">
	<path fill="#{color}" fill-opacity="1" stroke-width="1.33333" stroke-linejoin="miter" d="M 7.0912,13.2144L 7.0912,22.9552C 7.0912,23.5632 6.60478,24.0688 5.9968,24.0688L 5.984,24.0688C 2.6816,24.0688 0,21.3872 0,18.0848C 0,16.3331 0.754545,14.756 1.95604,13.6612C 2.94483,6.48871 8.87469,0.958397 16.0128,0.958397C 23.1598,0.958397 29.0956,6.50253 30.0732,13.688C 31.2577,14.7817 32,16.3473 32,18.0848C 32,20.8188 30.1621,23.1273 27.6556,23.841C 27.3486,24.5258 26.8535,25.4198 26.0928,26.2896C 24.9284,27.6355 22.9346,29.1311 19.7691,29.3776C 19.4697,30.3184 18.5889,31 17.5488,31C 16.2622,31 15.2192,29.957 15.2192,28.6704C 15.2192,27.3838 16.2622,26.3408 17.5488,26.3408C 18.5598,26.3408 19.4204,26.9848 19.7427,27.885C 23.1862,27.5862 24.9923,25.5879 25.8801,24.0619C 25.3309,23.9991 24.9088,23.5216 24.9088,22.9552L 24.9088,13.2144C 24.9088,12.6064 25.3952,12.1008 26.0032,12.1008L 26.016,12.1008C 26.5241,12.1008 27.0176,12.1643 27.4889,12.2838C 26.013,7.34412 21.4281,4.17762 16.0128,4.17762C 10.601,4.17762 6.01842,7.34438 4.53956,12.2767C 5.00221,12.1618 5.48605,12.1008 5.984,12.1008L 5.9968,12.1008C 6.60478,12.1008 7.0912,12.6064 7.0912,13.2144 Z "/>
</svg>