<?xml version="1.0" encoding="utf-8"?>
<!DOCTYPE svg PUBLIC "-//W3C//DTD SVG 1.1//EN" "http://www.w3.org/Graphics/SVG/1.1/DTD/svg11.dtd">
<svg xmlns="http://www.w3.org/2000/svg" xmlns:xlink="http://www.w3.org/1999/xlink" version="1.1" baseProfile="full" width="32" height="32" viewBox="0 0 32.00 32.00" enable-background="new 0 0 32.00 32.00" xml:space="preserve">
	<path fill="#{color}" fill-opacity="1" stroke-width="1.33333" stroke-linejoin="miter" d="M 27.4342,17.9758L 27.4342,27.703C 27.4342,28.0543 27.3085,28.3583 27.0571,28.615C 26.8056,28.8717 26.5079,29 26.1638,29L 18.5409,29L 18.5409,21.2182L 13.4591,21.2182L 13.4591,29L 5.83623,29C 5.49215,29 5.19438,28.8717 4.94293,28.615C 4.69147,28.3583 4.56576,28.0543 4.56576,27.703L 4.56576,17.9758C 4.56576,17.9623 4.56907,17.9421 4.57568,17.915C 4.58229,17.888 4.58561,17.8678 4.58561,17.8542L 16,8.24863L 27.4144,17.8542C 27.4276,17.8813 27.4342,17.9218 27.4342,17.9758 Z M 31.861,16.5775L 30.6303,18.0772C 30.5244,18.1987 30.3855,18.2731 30.2134,18.3001L 30.1538,18.3001C 29.9818,18.3001 29.8428,18.2528 29.737,18.1582L 16,6.46531L 2.26303,18.1582C 2.10422,18.2663 1.94541,18.3136 1.7866,18.3001C 1.61456,18.2731 1.4756,18.1987 1.36973,18.0772L 0.138957,16.5775C 0.0330813,16.4424 -0.0132316,16.2837 -7.05943e-007,16.1013C 0.0132301,15.9189 0.086024,15.7737 0.218362,15.6656L 14.4913,3.52688C 14.9148,3.17562 15.4177,2.99999 16,2.99999C 16.5823,2.99999 17.0852,3.17562 17.5087,3.52688L 22.3524,7.66094L 22.3524,3.70927C 22.3524,3.52012 22.4119,3.36476 22.531,3.24317C 22.6501,3.12158 22.8023,3.06079 22.9876,3.06079L 26.799,3.06079C 26.9843,3.06079 27.1365,3.12158 27.2556,3.24317C 27.3747,3.36476 27.4342,3.52012 27.4342,3.70927L 27.4342,11.9774L 31.7816,15.6656C 31.914,15.7737 31.9868,15.9189 32,16.1013C 32.0132,16.2837 31.9669,16.4424 31.861,16.5775 Z "/>
</svg>
