<?xml version="1.0" encoding="utf-8"?>
<!DOCTYPE svg PUBLIC "-//W3C//DTD SVG 1.1//EN" "http://www.w3.org/Graphics/SVG/1.1/DTD/svg11.dtd">
<svg xmlns="http://www.w3.org/2000/svg" xmlns:xlink="http://www.w3.org/1999/xlink" version="1.1" baseProfile="full" width="32" height="32" viewBox="0 0 32.00 32.00" enable-background="new 0 0 32.00 32.00" xml:space="preserve">
	<path fill="#{color}" d="M 16,7.62939e-006C 9.92478,7.62939e-006 4.99998,4.9248 4.99998,11C 4.99998,17.0752 16,32 16,32C 16,32 27,17.0752 27,11C 27,4.9248 22.0752,7.62939e-006 16,7.62939e-006 Z M 6.99998,11C 6.99998,6.03698 11.037,2.00001 16,2.00001C 20.9629,2.00001 25,6.03698 25,11C 25,14.457 19.998,22.8027 16,28.5596C 12.0019,22.8027 6.99998,14.457 6.99998,11 Z M 16,6.00001C 13.2383,6.00001 11,8.23828 11,11C 11,13.7617 13.2383,16 16,16C 18.7617,16 21,13.7617 21,11C 21,8.23828 18.7617,6.00001 16,6.00001 Z M 16,14C 14.3457,14 13,12.6543 13,11C 13,9.34571 14.3457,8.00001 16,8.00001C 17.6543,8.00001 19,9.34571 19,11C 19,12.6543 17.6543,14 16,14 Z "/>
</svg>
