<?xml version="1.0" encoding="utf-8"?>
<!DOCTYPE svg PUBLIC "-//W3C//DTD SVG 1.1//EN" "http://www.w3.org/Graphics/SVG/1.1/DTD/svg11.dtd">
<svg xmlns="http://www.w3.org/2000/svg" xmlns:xlink="http://www.w3.org/1999/xlink" version="1.1" baseProfile="full" width="32" height="32" viewBox="0 0 32.00 32.00" enable-background="new 0 0 32.00 32.00" xml:space="preserve">
	<path fill="#{color}" fill-opacity="1" stroke-width="1.33333" stroke-linejoin="miter" d="M 16.0208,7.41666C 11.277,7.41666 7.41666,11.277 7.41666,16.0208C 7.41666,20.7646 11.277,24.625 16.0208,24.625C 20.7646,24.625 24.625,20.7646 24.625,16.0208C 24.625,11.277 20.7646,7.41666 16.0208,7.41666 Z M 16.0208,22.1667C 12.6262,22.1667 9.875,19.4154 9.875,16.0208C 9.875,12.6262 12.6262,9.87499 16.0208,9.87499C 19.4155,9.87499 22.1667,12.6262 22.1667,16.0208C 22.1667,19.4154 19.4155,22.1667 16.0208,22.1667 Z M 16.0208,4.95833C 16.6994,4.95833 17.25,4.40774 17.25,3.72916L 17.25,1.27083C 17.25,0.592247 16.6994,0.0416584 16.0208,0.0416584C 15.3423,0.0416584 14.7917,0.592247 14.7917,1.27083L 14.7917,3.72916C 14.7917,4.40774 15.3423,4.95833 16.0208,4.95833 Z M 16.0208,27.0833C 15.3423,27.0833 14.7917,27.6339 14.7917,28.3125L 14.7917,30.7708C 14.7917,31.4494 15.3423,32 16.0208,32C 16.6994,32 17.25,31.4494 17.25,30.7708L 17.25,28.3125C 17.25,27.6339 16.6994,27.0833 16.0208,27.0833 Z M 25.5806,8.19772L 27.3187,6.4596C 27.7988,5.97946 27.7988,5.20162 27.3187,4.72148C 26.8385,4.24134 26.0607,4.24134 25.5806,4.72148L 23.8424,6.4596C 23.3623,6.93974 23.3623,7.71758 23.8424,8.19772C 24.3226,8.67786 25.1004,8.67786 25.5806,8.19772 Z M 6.46114,23.844L 4.72302,25.5821C 4.24288,26.0622 4.24288,26.84 4.72302,27.3202C 5.20316,27.8003 5.98099,27.8003 6.46114,27.3202L 8.19926,25.5821C 8.6794,25.1003 8.6794,24.3241 8.19926,23.844C 7.71919,23.3638 6.94128,23.3622 6.46114,23.844 Z M 4.95833,16.0208C 4.95833,15.3423 4.40774,14.7917 3.72916,14.7917L 1.27083,14.7917C 0.59225,14.7917 0.0416595,15.3423 0.0416595,16.0208C 0.0416595,16.6994 0.59225,17.25 1.27083,17.25L 3.72916,17.25C 4.40774,17.25 4.95833,16.6994 4.95833,16.0208 Z M 30.7708,14.7917L 28.3125,14.7917C 27.6339,14.7917 27.0833,15.3423 27.0833,16.0208C 27.0833,16.6994 27.6339,17.25 28.3125,17.25L 30.7708,17.25C 31.4494,17.25 32,16.6994 32,16.0208C 32,15.3423 31.4494,14.7917 30.7708,14.7917 Z M 6.45952,8.19772C 6.93974,8.67786 7.71758,8.67786 8.19764,8.19772C 8.67786,7.71758 8.67786,6.93974 8.19764,6.4596L 6.45952,4.72148C 5.97938,4.24134 5.20163,4.24134 4.72141,4.72148C 4.24126,5.20162 4.24126,5.97946 4.72141,6.4596L 6.45952,8.19772 Z M 25.5821,23.8424C 25.1004,23.3622 24.3241,23.3622 23.844,23.8424C 23.3638,24.3225 23.3623,25.1003 23.844,25.5805L 25.5821,27.3186C 26.0622,27.7987 26.84,27.7987 27.3202,27.3186C 27.8003,26.8385 27.8003,26.0606 27.3202,25.5805L 25.5821,23.8424 Z "/>
</svg>
