<?xml version="1.0" encoding="utf-8"?>
<!DOCTYPE svg PUBLIC "-//W3C//DTD SVG 1.1//EN" "http://www.w3.org/Graphics/SVG/1.1/DTD/svg11.dtd">
<svg xmlns="http://www.w3.org/2000/svg" xmlns:xlink="http://www.w3.org/1999/xlink" version="1.1" baseProfile="full" width="32" height="32" viewBox="0 0 32.00 32.00" enable-background="new 0 0 32.00 32.00" xml:space="preserve">
	<path fill="#{color}" fill-opacity="1" stroke-width="1.33333" stroke-linejoin="miter" d="M 22.1625,31.7017L 13.0949,25.6374L 5.45805,25.6374C 2.99996,25.6374 1,23.5723 1,21.034L 1,5.00333C 1,2.46515 2.99981,0.399994 5.45805,0.399994L 26.5419,0.399994C 29,0.399994 31,2.46493 31,5.00333L 31,21.034C 31,23.5722 29.0003,25.6374 26.5419,25.6374L 22.1626,25.6374L 22.1626,31.7017L 22.1625,31.7017 Z M 5.45805,3.10784C 4.44588,3.10784 3.62242,3.95822 3.62242,5.00333L 3.62242,21.034C 3.62242,22.0791 4.44588,22.9295 5.45805,22.9295L 13.8701,22.9295L 19.5401,26.7216L 19.5401,22.9295L 26.5419,22.9295C 27.5541,22.9295 28.3776,22.0791 28.3776,21.034L 28.3776,5.00333C 28.3776,3.95822 27.5541,3.10784 26.5419,3.10784L 5.45805,3.10784 Z "/>
</svg>
