<?xml version="1.0" encoding="utf-8"?>
<!DOCTYPE svg PUBLIC "-//W3C//DTD SVG 1.1//EN" "http://www.w3.org/Graphics/SVG/1.1/DTD/svg11.dtd">
<svg xmlns="http://www.w3.org/2000/svg" xmlns:xlink="http://www.w3.org/1999/xlink" version="1.1" baseProfile="full" width="20" height="20" viewBox="0 0 20.00 20.00" enable-background="new 0 0 20.00 20.00" xml:space="preserve">
	<path fill="#{colora}" d="M 16.4318,11.2159L 16.4318,17.2019C 16.4318,17.418 16.361,17.6051 16.2196,17.7631C 16.0782,17.921 15.9107,18 15.7171,18L 11.4293,18L 11.4293,13.2112L 8.57072,13.2112L 8.57072,18L 4.28288,18C 4.08933,18 3.92184,17.921 3.7804,17.7631C 3.63896,17.6051 3.56824,17.418 3.56824,17.2019L 3.56824,11.2159C 3.56824,11.2076 3.5701,11.1951 3.57382,11.1785C 3.57754,11.1619 3.57941,11.1494 3.57941,11.1411L 10,5.22993L 16.4206,11.1411C 16.428,11.1577 16.4318,11.1826 16.4318,11.2159 Z M 18.9218,10.3554L 18.2295,11.2783C 18.17,11.3531 18.0918,11.3988 17.995,11.4154L 17.9615,11.4154C 17.8648,11.4154 17.7866,11.3863 17.727,11.3281L 10,4.1325L 2.27295,11.3281C 2.18362,11.3946 2.09429,11.4238 2.00496,11.4154C 1.90819,11.3988 1.83003,11.3531 1.77047,11.2783L 1.07816,10.3554C 1.01861,10.2723 0.992559,10.1746 1,10.0624C 1.00744,9.95012 1.04839,9.86074 1.12283,9.79423L 9.15137,2.32424C 9.38958,2.10808 9.67246,2 10,2C 10.3275,2 10.6104,2.10808 10.8486,2.32424L 13.5732,4.86828L 13.5732,2.43648C 13.5732,2.32008 13.6067,2.22448 13.6737,2.14965C 13.7407,2.07483 13.8263,2.03741 13.9305,2.03741L 16.0744,2.03741C 16.1787,2.03741 16.2643,2.07483 16.3313,2.14965C 16.3983,2.22448 16.4318,2.32008 16.4318,2.43648L 16.4318,7.52455L 18.8772,9.79423C 18.9516,9.86074 18.9926,9.95012 19,10.0624C 19.0074,10.1746 18.9814,10.2723 18.9218,10.3554 Z "/>
</svg>
