<?xml version="1.0" encoding="utf-8"?>
<!DOCTYPE svg PUBLIC "-//W3C//DTD SVG 1.1//EN" "http://www.w3.org/Graphics/SVG/1.1/DTD/svg11.dtd">
<svg xmlns="http://www.w3.org/2000/svg" xmlns:xlink="http://www.w3.org/1999/xlink" version="1.1" baseProfile="full" width="20" height="40" viewBox="0 0 20.00 40.00" enable-background="new 0 0 20.00 40.00" xml:space="preserve">
	<path fill="#{colorb}" d="M 3,3L 7,3L 7,4L 4,4L 4,7L 3,7L 3,3 Z M 4,16L 7,16L 7,17L 3,17L 3,13L 4,13L 4,16 Z M 17,3L 17,7L 16,7L 16,4L 13,4L 13,3L 17,3 Z M 17,17L 13,17L 13,16L 16,16L 16,13L 17,13L 17,17 Z "/>
	<path fill="#{colora}" d="M 3,37L 3,23L 17,23L 17,37L 3,37 Z M 4,24L 4,36L 16,36L 16,24L 4,24 Z "/>
</svg>
