<?xml version="1.0" encoding="utf-8"?>
<!DOCTYPE svg PUBLIC "-//W3C//DTD SVG 1.1//EN" "http://www.w3.org/Graphics/SVG/1.1/DTD/svg11.dtd">
<svg xmlns="http://www.w3.org/2000/svg" xmlns:xlink="http://www.w3.org/1999/xlink" version="1.1" baseProfile="full" width="32" height="32" viewBox="0 0 32.00 32.00" enable-background="new 0 0 32.00 32.00" xml:space="preserve">
	<path fill="#ffffff" fill-opacity="0.15" d="M 22.5,16C 22.5,16.158 22.4492,16.2878 22.3477,16.3893L 16.931,21.806C 16.8294,21.9076 16.6997,21.9583 16.5417,21.9583C 16.395,21.9583 16.268,21.9047 16.1608,21.7975C 16.0536,21.6903 16,21.5634 16,21.4167L 16,18.1667L 10.0417,18.1667C 9.89496,18.1667 9.76801,18.1131 9.66081,18.0059C 9.55361,17.8987 9.5,17.7717 9.5,17.625L 9.5,14.375C 9.5,14.2283 9.55361,14.1013 9.66081,13.9941C 9.76801,13.8869 9.89496,13.8333 10.0417,13.8333L 16,13.8333L 16,10.5833C 16,10.4254 16.0508,10.2956 16.1523,10.194C 16.2539,10.0925 16.3837,10.0417 16.5417,10.0417C 16.6771,10.0417 16.8125,10.0981 16.9479,10.2109L 22.3477,15.6107C 22.4492,15.7122 22.5,15.842 22.5,16 Z M 25.2083,16C 25.2083,14.3299 24.7964,12.7895 23.9727,11.3789C 23.1489,9.96832 22.0317,8.85114 20.6211,8.02735C 19.2105,7.20357 17.6701,6.79167 16,6.79167C 14.3299,6.79167 12.7895,7.20357 11.3789,8.02735C 9.96833,8.85114 8.85114,9.96832 8.02735,11.3789C 7.20356,12.7895 6.79167,14.3299 6.79167,16C 6.79167,17.6701 7.20356,19.2105 8.02735,20.6211C 8.85114,22.0317 9.96833,23.1489 11.3789,23.9727C 12.7895,24.7964 14.3299,25.2083 16,25.2083C 17.6701,25.2083 19.2105,24.7964 20.6211,23.9727C 22.0317,23.1489 23.1489,22.0317 23.9727,20.6211C 24.7964,19.2105 25.2083,17.6701 25.2083,16 Z M 29,16C 29,18.3585 28.4188,20.5336 27.2565,22.5254C 26.0942,24.5172 24.5172,26.0942 22.5254,27.2565C 20.5336,28.4188 18.3585,29 16,29C 13.6415,29 11.4664,28.4188 9.47461,27.2565C 7.48285,26.0942 5.90583,24.5172 4.74349,22.5254C 3.58117,20.5336 3,18.3585 3,16C 3,13.6415 3.58117,11.4664 4.74349,9.47462C 5.90583,7.48286 7.48285,5.90582 9.47461,4.74349C 11.4664,3.58117 13.6415,3.00001 16,3.00001C 18.3585,3.00001 20.5336,3.58117 22.5254,4.74349C 24.5172,5.90582 26.0942,7.48286 27.2565,9.47462C 28.4188,11.4664 29,13.6415 29,16 Z "/>
</svg>
