<?xml version="1.0" encoding="utf-8"?>
<!DOCTYPE svg PUBLIC "-//W3C//DTD SVG 1.1//EN" "http://www.w3.org/Graphics/SVG/1.1/DTD/svg11.dtd">
<svg xmlns="http://www.w3.org/2000/svg" xmlns:xlink="http://www.w3.org/1999/xlink" version="1.1" baseProfile="full" width="32" height="32" viewBox="0 0 32.00 32.00" enable-background="new 0 0 32.00 32.00" xml:space="preserve">
	<path fill="#000000" fill-opacity="0.05" d="M 21.6729,6.09105L 25.8181,6.09105C 25.8181,6.09105 28,6.09105 28,8.27287L 28,19.1819C 28,21.3637 25.8181,21.3637 25.8181,21.3637L 6.18183,21.3637C 6.18183,21.3637 4.00001,21.3637 4.00001,19.1819L 4.00001,8.27287C 4.00001,6.09105 6.18183,6.09105 6.18183,6.09105L 10.3271,6.09105L 11.3514,4.38431C 11.508,4.12337 11.8808,3.90924 12.1823,3.90924L 19.8182,3.90924C 20.1122,3.90924 20.4915,4.12174 20.6491,4.38431L 21.6729,6.09105 Z M 16,18.091C 18.7113,18.091 20.9091,15.8933 20.9091,13.1819C 20.9091,10.4706 18.7113,8.27287 16,8.27287C 13.2886,8.27287 11.0909,10.4706 11.0909,13.1819C 11.0909,15.8933 13.2886,18.091 16,18.091 Z M 16,17.0001C 18.1094,17.0001 19.8182,15.2913 19.8182,13.1819C 19.8182,11.0731 18.1094,9.36377 16,9.36377C 13.8911,9.36377 12.1818,11.0731 12.1818,13.1819C 12.1818,15.2913 13.8911,17.0001 16,17.0001 Z M 22.5454,10.4547C 23.1484,10.4547 23.6363,9.96615 23.6363,9.36377C 23.6363,8.76139 23.1484,8.27287 22.5454,8.27287C 21.9425,8.27287 21.4545,8.76139 21.4545,9.36377C 21.4545,9.96615 21.9425,10.4547 22.5454,10.4547 Z M 7.5146,4.45469C 7.38083,4.45469 7.27273,4.55167 7.27273,4.67309L 7.27273,5.3272C 7.27273,5.44809 7.38083,5.5456 7.5146,5.5456L 9.21268,5.5456C 9.34645,5.5456 9.45455,5.44862 9.45455,5.3272L 9.45455,4.67309C 9.45455,4.5522 9.34645,4.45469 9.21268,4.45469L 7.5146,4.45469 Z "/>
</svg>
