<?xml version="1.0" encoding="utf-8"?>
<!DOCTYPE svg PUBLIC "-//W3C//DTD SVG 1.1//EN" "http://www.w3.org/Graphics/SVG/1.1/DTD/svg11.dtd">
<svg xmlns="http://www.w3.org/2000/svg" xmlns:xlink="http://www.w3.org/1999/xlink" version="1.1" baseProfile="full" width="32" height="32" viewBox="0 0 32.00 32.00" enable-background="new 0 0 32.00 32.00" xml:space="preserve">
	<path fill="#ffffff" fill-opacity="0.15" d="M 3.00004,18.875C 3.00004,17.0738 3.98113,15.4964 5.43918,14.6522C 5.5244,10.6877 8.7649,7.49997 12.75,7.49997C 15.3772,7.49997 17.6806,8.88537 18.97,10.9658C 19.4452,10.8254 19.9483,10.75 20.4688,10.75C 22.7318,10.75 24.6614,12.1727 25.4136,14.1721C 27.4806,14.7371 29,16.6287 29,18.875C 29,21.5616 26.8173,23.75 24.125,23.75L 7.87504,23.75C 5.18324,23.75 3.00004,21.5672 3.00004,18.875 Z M 24.1029,15.625C 23.9005,13.7968 22.3509,12.375 20.4688,12.375C 19.6103,12.375 18.82,12.6713 18.1963,13.1672C 17.4902,10.8281 15.3188,9.12497 12.75,9.12497C 9.60875,9.12497 7.06254,11.6712 7.06254,14.8125C 7.06254,15.118 7.08674,15.4175 7.13274,15.7099C 5.69584,16.0455 4.62504,17.3372 4.62504,18.875C 4.62504,20.6698 6.0826,22.125 7.87269,22.125L 24.1274,22.125C 25.9214,22.125 27.375,20.6666 27.375,18.875C 27.375,17.0801 25.9175,15.625 24.1274,15.625L 24.1029,15.625 Z "/>
</svg>
