<?xml version="1.0" encoding="utf-8"?>
<!DOCTYPE svg PUBLIC "-//W3C//DTD SVG 1.1//EN" "http://www.w3.org/Graphics/SVG/1.1/DTD/svg11.dtd">
<svg xmlns="http://www.w3.org/2000/svg" xmlns:xlink="http://www.w3.org/1999/xlink" version="1.1" baseProfile="full" width="32" height="32" viewBox="0 0 32.00 32.00" enable-background="new 0 0 32.00 32.00" xml:space="preserve">
	<path fill="#000000" fill-opacity="0.05" d="M 2.76923,30L 2.76923,29.2269C 3.84295,28.7235 4.6883,27.9343 5.30529,26.8592C 5.92228,25.7841 6.23077,24.6666 6.23077,23.507C 6.23077,23.2654 6.20072,23.0882 6.14062,22.9754C 6.10857,22.8989 6.06651,22.8607 6.01442,22.8607C 5.95833,22.8607 5.87019,22.905 5.75,22.9936C 5.39343,23.2835 4.94872,23.4284 4.41586,23.4284C 3.77083,23.4284 3.20693,23.1345 2.72416,22.5466C 2.24139,21.9587 2,21.2601 2,20.4507C 2,19.6011 2.30449,18.8541 2.91346,18.2099C 3.52244,17.5656 4.27163,17.2434 5.16106,17.2434C 6.17067,17.2434 7.05008,17.6824 7.79928,18.5602C 8.54848,19.438 8.92308,20.6158 8.92308,22.0936C 8.92308,23.8009 8.42929,25.3381 7.44171,26.7052C 6.45413,28.0722 4.89663,29.1705 2.76923,30 Z M 11.6154,30L 11.6154,29.2269C 12.6891,28.7235 13.5345,27.9343 14.1514,26.8592C 14.7684,25.7841 15.0769,24.6666 15.0769,23.507C 15.0769,23.2654 15.0469,23.0882 14.9868,22.9754C 14.9547,22.8989 14.9127,22.8607 14.8606,22.8607C 14.8045,22.8607 14.7163,22.905 14.5962,22.9936C 14.2396,23.2835 13.7949,23.4284 13.262,23.4284C 12.617,23.4284 12.0531,23.1345 11.5703,22.5466C 11.0875,21.9587 10.8462,21.2601 10.8462,20.4507C 10.8462,19.6011 11.1506,18.8541 11.7596,18.2099C 12.3686,17.5656 13.1178,17.2434 14.0072,17.2434C 15.0168,17.2434 15.8962,17.6824 16.6454,18.5602C 17.3946,19.438 17.7692,20.6158 17.7692,22.0936C 17.7692,23.8009 17.2754,25.3381 16.2879,26.7052C 15.3003,28.0722 13.7428,29.1705 11.6154,30 Z "/>
	<path fill="#000000" fill-opacity="0.05" d="M 29.2308,2L 29.2308,2.77313C 28.149,3.27646 27.3017,4.06569 26.6887,5.14082C 26.0757,6.21595 25.7692,7.33335 25.7692,8.49304C 25.7692,8.73464 25.8013,8.91182 25.8654,9.02457C 25.9054,9.10107 25.9515,9.13933 26.0036,9.13933C 26.0557,9.13933 26.1378,9.09503 26.25,9.00645C 26.6026,8.71652 27.0493,8.57156 27.5901,8.57156C 28.2232,8.57156 28.7831,8.86551 29.2698,9.45341C 29.7566,10.0413 30,10.7399 30,11.5493C 30,12.3989 29.6925,13.1459 29.0775,13.7902C 28.4625,14.4344 27.7163,14.7566 26.8389,14.7566C 25.8173,14.7566 24.9349,14.3176 24.1917,13.4398C 23.4485,12.562 23.0769,11.3842 23.0769,9.90641C 23.0769,8.18701 23.5707,6.6468 24.5583,5.28578C 25.5459,3.92476 27.1034,2.8295 29.2308,2 Z M 20.3846,2L 20.3846,2.77313C 19.3029,3.27646 18.4555,4.06569 17.8426,5.14082C 17.2296,6.21595 16.9231,7.33335 16.9231,8.49304C 16.9231,8.73464 16.9551,8.91182 17.0192,9.02457C 17.0593,9.10107 17.1054,9.13933 17.1575,9.13933C 17.2095,9.13933 17.2917,9.09503 17.4038,9.00645C 17.7564,8.71652 18.2031,8.57156 18.744,8.57156C 19.377,8.57156 19.9369,8.86551 20.4237,9.45341C 20.9105,10.0413 21.1538,10.7399 21.1538,11.5493C 21.1538,12.3989 20.8464,13.1459 20.2314,13.7902C 19.6164,14.4344 18.8702,14.7566 17.9928,14.7566C 16.9712,14.7566 16.0887,14.3176 15.3456,13.4398C 14.6024,12.562 14.2308,11.3842 14.2308,9.90641C 14.2308,8.18701 14.7246,6.6468 15.7121,5.28578C 16.6997,3.92476 18.2572,2.8295 20.3846,2 Z "/>
</svg>
