<?xml version="1.0" encoding="utf-8"?>
<!DOCTYPE svg PUBLIC "-//W3C//DTD SVG 1.1//EN" "http://www.w3.org/Graphics/SVG/1.1/DTD/svg11.dtd">
<svg xmlns="http://www.w3.org/2000/svg" xmlns:xlink="http://www.w3.org/1999/xlink" version="1.1" baseProfile="full" width="32" height="32" viewBox="0 0 32.00 32.00" enable-background="new 0 0 32.00 32.00" xml:space="preserve">
	<path fill="#ffffff" fill-opacity="0.15" stroke-linejoin="round" d="M 15.865,21.0329L 14.9692,21.0329C 14.8666,19.4304 14.5354,17.4917 13.9755,15.2166L 12.8489,10.6258C 12.1724,7.87218 11.8342,5.89728 11.8342,4.70105C 11.8342,3.62219 12.1642,2.7521 12.8244,2.09079C 13.4845,1.42948 14.3441,1.09883 15.4031,1.09883C 16.4388,1.09883 17.2972,1.43287 17.9783,2.10095C 18.6594,2.76903 19,3.61542 19,4.64011C 19,5.70543 18.6361,7.70065 17.9083,10.6258L 16.7607,15.2166C 16.3501,16.8461 16.0516,18.7849 15.865,21.0329 Z M 15.4171,24.0664C 16.4061,24.0664 17.2505,24.4038 17.9503,25.0787C 18.6501,25.7535 19,26.5762 19,27.5467C 19,28.4992 18.6501,29.3129 17.9503,29.9877C 17.2505,30.6626 16.4061,31 15.4171,31C 14.4281,31 13.5836,30.6626 12.8839,29.9877C 12.1841,29.3129 11.8342,28.4992 11.8342,27.5467C 11.8342,26.5898 12.1806,25.7705 12.8734,25.0888C 13.5662,24.4072 14.4141,24.0664 15.4171,24.0664 Z "/>
</svg>
