<?xml version="1.0" encoding="utf-8"?>
<!DOCTYPE svg PUBLIC "-//W3C//DTD SVG 1.1//EN" "http://www.w3.org/Graphics/SVG/1.1/DTD/svg11.dtd">
<svg xmlns="http://www.w3.org/2000/svg" xmlns:xlink="http://www.w3.org/1999/xlink" version="1.1" baseProfile="full" width="32" height="32" viewBox="0 0 32.00 32.00" enable-background="new 0 0 32.00 32.00" xml:space="preserve">
	<path fill="#ffffff" fill-opacity="0.15" d="M 29,29L 18.6,29L 19.0759,23.6763C 20.9524,22.9366 22.3327,21.8825 23.2167,20.5142C 24.1008,19.1459 24.5429,17.2268 24.5429,14.757C 24.5429,11.3453 23.7294,8.72691 22.1025,6.90182C 20.4755,5.07673 18.4298,4.16418 15.9652,4.16418C 13.5818,4.16418 11.568,5.08885 9.92366,6.9382C 8.27931,8.78755 7.45714,11.3069 7.45714,14.4963C 7.45714,17.0025 7.90982,19.0024 8.81517,20.496C 9.72053,21.9897 11.0844,23.0498 12.9067,23.6763L 13.4,29L 2.99999,29L 2.99999,23.5672L 3.74285,23.5672C 3.77767,24.3716 3.96532,24.9173 4.3058,25.2043C 4.83199,25.6651 5.63482,25.8955 6.71428,25.8955L 11.6183,25.8955L 11.6183,24.5798C 8.98735,23.8198 6.95513,22.5192 5.52165,20.6779C 4.08817,18.8367 3.37142,16.665 3.37142,14.1628C 3.37142,11.026 4.50119,8.3813 6.76071,6.22878C 9.02023,4.07626 12.0748,3 15.9245,3C 18.2885,3 20.461,3.45779 22.442,4.37337C 24.4229,5.28895 25.9493,6.62391 27.021,8.37827C 28.0927,10.1326 28.6286,12.0608 28.6286,14.1628C 28.6286,16.7377 27.8722,18.9812 26.3594,20.8932C 24.8466,22.8052 22.8714,24.034 20.4339,24.5798L 20.2772,25.8955L 25.2857,25.8955C 26.3574,25.8955 27.1032,25.7116 27.523,25.3438C 27.9428,24.9759 28.1875,24.3837 28.2571,23.5672L 29,23.5672L 29,29 Z "/>
</svg>
