<?xml version="1.0" encoding="utf-8"?>
<!DOCTYPE svg PUBLIC "-//W3C//DTD SVG 1.1//EN" "http://www.w3.org/Graphics/SVG/1.1/DTD/svg11.dtd">
<svg xmlns="http://www.w3.org/2000/svg" xmlns:xlink="http://www.w3.org/1999/xlink" version="1.1" baseProfile="full" width="32" height="32" viewBox="0 0 32.00 32.00" enable-background="new 0 0 32.00 32.00" xml:space="preserve">
	<path fill="#000000" fill-opacity="0.05" stroke-linejoin="round" d="M 15.3214,21.1242L 14.4535,21.1242C 14.4219,19.5319 14.4863,18.3421 14.6467,17.5549C 14.8072,16.7677 15.2174,15.6817 15.8773,14.2968C 16.5373,12.9119 16.9712,11.8002 17.1791,10.9617C 17.3871,10.1232 17.491,9.08847 17.491,7.85747C 17.491,5.94853 17.1667,4.54247 16.5181,3.63929C 15.8694,2.73611 15.1021,2.28452 14.2162,2.28452C 13.5427,2.28452 12.9483,2.50753 12.433,2.95354C 12.0352,3.29251 11.8363,3.64709 11.8363,4.01729C 11.8363,4.2626 11.9697,4.64617 12.2364,5.168C 12.8466,6.3544 13.1517,7.36239 13.1517,8.19198C 13.1517,8.94574 12.8794,9.57685 12.3347,10.0853C 11.79,10.5938 11.1109,10.848 10.2972,10.848C 9.38418,10.848 8.61915,10.5536 8.00215,9.96488C 7.38516,9.37615 7.07666,8.59562 7.07666,7.62331C 7.07666,5.86156 7.81005,4.31723 9.27683,2.99034C 10.7436,1.66344 12.7946,1 15.4298,1C 18.2233,1 20.35,1.65676 21.81,2.97027C 23.27,4.28378 24,5.87048 24,7.73035C 24,9.07732 23.644,10.3228 22.9321,11.4668C 22.2202,12.6109 20.845,13.8787 18.8064,15.2702C 17.4413,16.2069 16.5429,17.0409 16.1113,17.7724C 15.6796,18.5038 15.4163,19.6211 15.3214,21.1242 Z M 15.1044,24.1214C 16.0084,24.1214 16.7768,24.4325 17.4097,25.0547C 18.0425,25.6769 18.3589,26.434 18.3589,27.326C 18.3589,28.2136 18.0425,28.9718 17.4097,29.6007C 16.7768,30.2295 16.0084,30.544 15.1044,30.544C 14.2004,30.544 13.432,30.2295 12.7991,29.6007C 12.1663,28.9718 11.8499,28.2136 11.8499,27.326C 11.8499,26.434 12.1663,25.6769 12.7991,25.0547C 13.432,24.4325 14.2004,24.1214 15.1044,24.1214 Z "/>
</svg>
