<?xml version="1.0" encoding="utf-8"?>
<!DOCTYPE svg PUBLIC "-//W3C//DTD SVG 1.1//EN" "http://www.w3.org/Graphics/SVG/1.1/DTD/svg11.dtd">
<svg xmlns="http://www.w3.org/2000/svg" xmlns:xlink="http://www.w3.org/1999/xlink" version="1.1" baseProfile="full" width="32" height="32" viewBox="0 0 32.00 32.00" enable-background="new 0 0 32.00 32.00" xml:space="preserve">
	<path fill="#000000" fill-opacity="0.05" stroke-linejoin="round" d="M 6.14154,26.48L 6.14154,24.7938C 9.14461,23.2595 11.1138,21.8687 12.0492,20.6215C 12.9846,19.3744 13.4523,17.9303 13.4523,16.2892C 13.4523,15.5426 13.3046,14.9805 13.0092,14.6031C 12.681,14.2256 12.3241,14.0369 11.9385,14.0369C 11.6431,14.0369 11.1672,14.1395 10.5108,14.3446C 9.85436,14.558 9.20205,14.6646 8.55385,14.6646C 7.29846,14.6646 6.22564,14.2769 5.33538,13.5015C 4.44513,12.7262 4,11.7805 4,10.6646C 4,9.41744 4.49641,8.32821 5.48923,7.39692C 6.48205,6.46564 7.6882,6 9.10769,6C 10.8144,6 12.359,6.75487 13.7415,8.26462C 15.1241,9.77436 15.8154,11.6779 15.8154,13.9754C 15.8154,16.7569 14.9682,19.2985 13.2738,21.6C 11.5795,23.9015 9.20205,25.5282 6.14154,26.48 Z "/>
	<path fill="#000000" fill-opacity="0.05" stroke-linejoin="round" d="M 19.2375,26.48L 19.2375,24.7938C 21.8632,23.5795 23.7565,22.2954 24.9175,20.9415C 26.0786,19.5877 26.6591,18.119 26.6591,16.5354C 26.6591,15.5918 26.5073,14.9354 26.2037,14.5662C 25.9083,14.2133 25.576,14.0369 25.2068,14.0369C 24.8211,14.0369 24.296,14.1395 23.6314,14.3446C 22.934,14.558 22.3309,14.6646 21.8222,14.6646C 20.5832,14.6646 19.5042,14.2626 18.5852,13.4585C 17.6663,12.6544 17.2068,11.6985 17.2068,10.5908C 17.2068,9.3436 17.6868,8.26667 18.6468,7.36001C 19.6068,6.45334 20.7842,6 22.1791,6C 23.9432,6 25.5247,6.77334 26.9237,8.32C 28.3227,9.86667 29.0222,11.7641 29.0222,14.0123C 29.0222,16.6626 28.1852,19.1323 26.5114,21.4215C 24.8375,23.7108 22.4129,25.3969 19.2375,26.48 Z "/>
</svg>