<?xml version="1.0" encoding="utf-8"?>
<!DOCTYPE svg PUBLIC "-//W3C//DTD SVG 1.1//EN" "http://www.w3.org/Graphics/SVG/1.1/DTD/svg11.dtd">
<svg xmlns="http://www.w3.org/2000/svg" xmlns:xlink="http://www.w3.org/1999/xlink" version="1.1" baseProfile="full" width="48" height="48" viewBox="0 0 48.00 48.00" enable-background="new 0 0 48.00 48.00" xml:space="preserve">
	<ellipse fill="#000000" fill-opacity="0.27" cx="24" cy="24" rx="23" ry="23"/>
	<path fill="#FFFFFF" d="M 24,3C 35.598,3 45,12.402 45,24C 45,35.598 35.598,45 24,45C 12.402,45 3,35.598 3,24C 3,12.402 12.402,3 24,3 Z M 24,6C 14.0589,6 6,14.0589 6,24C 6,33.9411 14.0589,42 24,42C 33.9411,42 42,33.9411 42,24C 42,14.0589 33.9411,6 24,6 Z "/>
	<path fill="#FFFFFF" d="M 18,14L 18,34L 35,24L 18,14 Z "/>
</svg>
