<?xml version="1.0" encoding="utf-8"?>
<!DOCTYPE svg PUBLIC "-//W3C//DTD SVG 1.1//EN" "http://www.w3.org/Graphics/SVG/1.1/DTD/svg11.dtd">
<svg xmlns="http://www.w3.org/2000/svg" xmlns:xlink="http://www.w3.org/1999/xlink" version="1.1" baseProfile="full" width="18" height="18" viewBox="0 0 18.00 18.00" enable-background="new 0 0 18.00 18.00" xml:space="preserve">
	<path fill="#{color}" d="M 8,16L 8,17L 7,17L 5,17L 4,17L 4,16L 4,10L 1.45833,10L 1.33333,10L 0,10L 9,1L 18,10L 16.75,10L 16.6042,10L 14,10L 14,16L 14,17L 13,17L 11,17L 10,17L 10,16L 10,12L 8,12L 8,16 Z M 4,9L 5,9L 5,10L 5,16L 7,16L 7,11L 11,11L 11,16L 13,16L 13,10L 13,9L 14,9L 15.5959,9L 9,2.45834L 2.45833,9L 4,9 Z "/>
</svg>
