<?xml version="1.0" encoding="utf-8"?>
<!DOCTYPE svg PUBLIC "-//W3C//DTD SVG 1.1//EN" "http://www.w3.org/Graphics/SVG/1.1/DTD/svg11.dtd">
<svg xmlns="http://www.w3.org/2000/svg" xmlns:xlink="http://www.w3.org/1999/xlink" version="1.1" baseProfile="full" width="100" height="100" viewBox="0 0 100.00 100.00" enable-background="new 0 0 100.00 100.00" xml:space="preserve">
	<ellipse fill="#{colora}" fill-opacity="0.1" stroke-linejoin="round" cx="50" cy="50" rx="13" ry="13"/>
	<path fill="#{colora}" fill-opacity="0.1" stroke-linejoin="round" d="M 13,7.62939e-006C 13,7.17971 7.17971,13 1.01725e-005,13L 6.28303e-006,7.62939e-006L 13,7.62939e-006 Z "/>
	<path fill="#{colora}" fill-opacity="0.1" stroke-linejoin="round" d="M 100,13C 92.8203,13 87,7.17971 87,7.62939e-006L 100,7.62939e-006L 100,13 Z "/>
	<path fill="#{colora}" fill-opacity="0.1" stroke-linejoin="round" d="M 87,100C 87,92.8203 92.8203,87 100,87L 100,100L 87,100 Z "/>
	<path fill="#{colora}" fill-opacity="0.1" stroke-linejoin="round" d="M 1.19209e-005,87C 7.17971,87 13,92.8203 13,100L 1.19209e-005,100L 1.19209e-005,87 Z "/>
</svg>
