<?xml version="1.0" encoding="utf-8"?>
<!DOCTYPE svg PUBLIC "-//W3C//DTD SVG 1.1//EN" "http://www.w3.org/Graphics/SVG/1.1/DTD/svg11.dtd">
<svg xmlns="http://www.w3.org/2000/svg" xmlns:xlink="http://www.w3.org/1999/xlink" version="1.1" baseProfile="full" width="64" height="64" viewBox="0 0 64.00 64.00" enable-background="new 0 0 64.00 64.00" xml:space="preserve">
	<path fill="currentColor" d="M 32.0001,5C 34.9822,5 37.4001,7.41789 37.4001,10.4C 37.4001,13.3821 34.9822,15.8 32.0001,15.8C 29.0179,15.8 26.6001,13.3821 26.6001,10.4C 26.6001,7.41789 29.0179,5 32.0001,5 Z M 50.9001,34.7C 46.175,34.6735 40.8831,32.3242 37.4001,29.4344L 37.4001,38.75L 45.5,38.75C 48.469,38.75 50.9001,41.181 50.9001,44.15L 50.9001,58.9999L 45.5,58.9999L 45.5,45.4999L 32.0001,45.4999C 29.0298,45.4999 26.6001,43.0689 26.6001,40.0999L 26.6001,24.1425C 26.6001,21.308 28.6515,18.7967 31.4873,18.554C 32.675,18.446 33.7561,18.7163 34.7,19.2568L 34.7265,19.2568C 35.4015,19.5798 35.9709,19.9845 36.4297,20.4985L 39.9102,24.3587C 42.5575,27.275 46.742,29.3539 50.9001,29.3L 50.9001,34.7 Z M 34.2414,48.2L 39.8311,48.2C 38.5868,54.3568 33.1338,58.9999 26.6001,58.9999C 19.1486,58.9999 13.1001,52.9514 13.1001,45.4999C 13.1001,38.9662 17.7446,33.5133 23.9001,32.2703L 23.9001,37.8586C 20.7676,38.9924 18.5001,41.9617 18.5001,45.4999C 18.5001,49.9824 22.1176,53.5999 26.6001,53.5999C 30.1373,53.5999 33.1338,51.3324 34.2414,48.2 Z "/>
</svg>
