<?xml version="1.0" encoding="utf-8"?>
<!DOCTYPE svg PUBLIC "-//W3C//DTD SVG 1.1//EN" "http://www.w3.org/Graphics/SVG/1.1/DTD/svg11.dtd">
<svg xmlns="http://www.w3.org/2000/svg" xmlns:xlink="http://www.w3.org/1999/xlink" version="1.1" baseProfile="full" width="64" height="64" viewBox="0 0 64.00 64.00" enable-background="new 0 0 64.00 64.00" xml:space="preserve">
	<path fill="currentColor" d="M 44.2292,32.1621L 41.371,29.2999L 28.1926,42.4756L 22.4697,36.7513L 19.6076,39.6147L 28.1926,48.1999L 44.2292,32.1621 Z M 50.9001,10.3999L 48.2001,10.3999L 48.2001,4.99989L 42.8001,4.99989L 42.8001,10.3999L 21.2001,10.3999L 21.2001,4.99989L 15.8001,4.99989L 15.8001,10.3999L 13.1001,10.3999C 10.1034,10.3999 7.72656,12.8296 7.72656,15.7999L 7.70011,53.5999C 7.70011,56.5688 10.1034,58.9999 13.1001,58.9999L 50.9001,58.9999C 53.869,58.9999 56.3001,56.5688 56.3001,53.5999L 56.3001,15.7999C 56.3001,12.8296 53.869,10.3999 50.9001,10.3999 Z M 50.9001,53.5999L 13.1001,53.5999L 13.1001,23.8999L 50.9001,23.8999L 50.9001,53.5999 Z "/>
</svg>
