<?xml version="1.0" encoding="utf-8"?>
<!DOCTYPE svg PUBLIC "-//W3C//DTD SVG 1.1//EN" "http://www.w3.org/Graphics/SVG/1.1/DTD/svg11.dtd">
<svg xmlns="http://www.w3.org/2000/svg" xmlns:xlink="http://www.w3.org/1999/xlink" version="1.1" baseProfile="full" width="64" height="64" viewBox="0 0 64.00 64.00" enable-background="new 0 0 64.00 64.00" xml:space="preserve">
	<path fill="currentColor" d="M 55.8419,50.2129C 52.9612,53.2625 49.5379,55.4925 45.5723,56.8906C 41.6067,58.3009 37.4241,59 33.0245,59C 28.8179,59 24.9848,58.337 21.5375,56.9991C 18.0902,55.6733 15.1371,53.817 12.7022,51.4424C 10.2554,49.0678 8.36293,46.2232 7.01297,42.9085C 5.66294,39.5937 5,35.9777 5,32.0603C 5,28.1911 5.73528,24.6112 7.20578,21.3205C 8.67634,18.0299 10.6772,15.1732 13.2206,12.7504C 15.7638,10.3277 18.729,8.43526 22.1402,7.0491C 25.5272,5.68707 29.1674,4.99999 33.0245,4.99999C 36.3513,4.99999 39.5817,5.48213 42.7035,6.44642C 45.8375,7.41071 48.6098,8.8692 51.0326,10.7978C 53.4554,12.7384 55.3839,15.1491 56.8304,18.054C 58.2768,20.9589 59,24.3701 59,28.2875C 59,31.1924 58.6022,33.7598 57.7946,35.9777C 56.987,38.2076 55.9143,40.0639 54.5643,41.5706C 53.2143,43.0773 51.6835,44.1982 49.9478,44.9456C 48.2121,45.6928 46.392,46.0665 44.4874,46.0665C 42.5349,46.0665 40.9679,45.6085 39.7866,44.6924C 38.6175,43.7764 38.0268,42.6071 38.0268,41.209L 37.6652,41.209C 36.93,42.3661 35.8089,43.475 34.2902,44.5116C 32.7715,45.5482 30.9152,46.0785 28.7094,46.0785C 25.3826,46.0785 22.8152,44.9937 21.0071,42.8121C 19.1991,40.6303 18.2951,37.8098 18.2951,34.3143C 18.2951,32.2772 18.6326,30.2764 19.3196,28.2875C 20.0067,26.2987 20.983,24.5388 22.2487,22.9839C 23.5143,21.4411 25.0331,20.1875 26.7928,19.2473C 28.5527,18.3071 30.5054,17.837 32.6629,17.837C 34.5192,17.837 36.0862,18.2228 37.3638,18.9942C 38.6295,19.7656 39.4612,20.7178 39.8589,21.8268L 39.9312,21.8268L 40.5219,18.9219L 47.055,18.9219L 44.1741,32.6509C 44.0777,33.3259 43.945,34.0732 43.7764,34.9049C 43.6076,35.7246 43.5232,36.4959 43.5232,37.2313C 43.5232,38.0509 43.68,38.738 44.0053,39.3044C 44.3188,39.8589 44.9456,40.1362 45.8736,40.1362C 47.7782,40.1362 49.3571,39.1236 50.6108,37.0866C 51.8522,35.0495 52.4791,32.3255 52.4791,28.8902C 52.4791,25.9853 51.9848,23.4058 51.0085,21.1638C 50.0321,18.9098 48.6701,17.0294 46.9344,15.4987C 45.1987,13.9799 43.1254,12.8228 40.7388,12.0513C 38.3401,11.2799 35.7246,10.8942 32.892,10.8942C 29.8062,10.8942 26.9857,11.4366 24.4183,12.5214C 21.8509,13.6062 19.6572,15.1129 17.8491,17.0174C 16.0411,18.9339 14.6308,21.1759 13.6304,23.7674C 12.6179,26.3469 12.1116,29.1433 12.1116,32.1447C 12.1116,35.3389 12.6419,38.2196 13.6906,40.7871C 14.7393,43.3545 16.2219,45.5361 18.1263,47.3563C 20.0308,49.1763 22.3089,50.5625 24.9487,51.5268C 27.5884,52.4911 30.5054,52.9732 33.6755,52.9732C 37.641,52.9732 41.0522,52.3464 43.9089,51.0808C 46.7656,49.8273 49.3933,48.0795 51.792,45.8496L 55.8419,50.2129 Z M 32.8799,23.8036C 31.7107,23.8036 30.6741,24.141 29.7942,24.8161C 28.9143,25.4911 28.167,26.3469 27.5522,27.3955C 26.9375,28.4321 26.4795,29.5893 26.154,30.8428C 25.8406,32.0964 25.6719,33.3139 25.6719,34.471C 25.6719,35.0495 25.7321,35.6643 25.8527,36.3273C 25.9732,36.9781 26.2143,37.5808 26.588,38.1473C 26.9496,38.7017 27.4317,39.1599 28.0223,39.5215C 28.6129,39.8831 29.3964,40.0639 30.3728,40.0639C 31.6987,40.0639 32.8196,39.7384 33.7478,39.0875C 34.6759,38.4366 35.4353,37.6169 36.0259,36.6165C 36.6165,35.6281 37.0384,34.5432 37.3156,33.3862C 37.5808,32.2291 37.7134,31.1562 37.7134,30.192C 37.7134,29.4205 37.641,28.6611 37.4964,27.9018C 37.3518,27.1544 37.0986,26.4795 36.725,25.8647C 36.3634,25.2621 35.8571,24.7678 35.2183,24.3821C 34.5915,23.9964 33.808,23.8036 32.8799,23.8036 Z "/>
</svg>
