<?xml version="1.0" encoding="utf-8"?>
<!DOCTYPE svg PUBLIC "-//W3C//DTD SVG 1.1//EN" "http://www.w3.org/Graphics/SVG/1.1/DTD/svg11.dtd">
<svg xmlns="http://www.w3.org/2000/svg" xmlns:xlink="http://www.w3.org/1999/xlink" version="1.1" baseProfile="full" width="64" height="64" viewBox="0 0 64.00 64.00" enable-background="new 0 0 64.00 64.00" xml:space="preserve">
	<path fill="currentColor" d="M 5.00004,32.0003C 5.00004,23.7922 11.642,17.1503 19.85,17.1503L 48.2,17.1503C 54.167,17.1503 59,21.9833 59,27.9503C 59,33.9173 54.167,38.7503 48.2,38.7503L 25.25,38.7503C 21.5243,38.7503 18.5,35.726 18.5,32.0003C 18.5,28.2745 21.5243,25.2503 25.25,25.2503L 45.5,25.2503L 45.5,30.6503L 25.0075,30.6503C 23.5218,30.6503 23.5218,33.3503 25.0075,33.3503L 48.2,33.3503C 51.169,33.3503 53.6,30.9205 53.6,27.9503C 53.6,24.98 51.169,22.5503 48.2,22.5503L 19.85,22.5503C 14.6385,22.5503 10.4,26.7887 10.4,32.0003C 10.4,37.2104 14.6385,41.4503 19.85,41.4503L 45.5,41.4503L 45.5,46.8503L 19.85,46.8503C 11.642,46.8503 5.00004,40.2083 5.00004,32.0003 Z "/>
</svg>
