<?xml version="1.0" encoding="utf-8"?>
<!DOCTYPE svg PUBLIC "-//W3C//DTD SVG 1.1//EN" "http://www.w3.org/Graphics/SVG/1.1/DTD/svg11.dtd">
<svg xmlns="http://www.w3.org/2000/svg" xmlns:xlink="http://www.w3.org/1999/xlink" version="1.1" baseProfile="full" width="64" height="64" viewBox="0 0 64.00 64.00" enable-background="new 0 0 64.00 64.00" xml:space="preserve">
	<path fill="currentColor" d="M 39.8751,17.9373C 42.3492,17.9373 44.3751,15.9126 44.3751,13.4373C 44.3751,10.9621 42.3492,8.93734 39.8751,8.93734C 37.401,8.93734 35.3751,10.9621 35.3751,13.4373C 35.3751,15.9126 37.401,17.9373 39.8751,17.9373 Z M 16.2501,32.5623C 9.95056,32.5623 5.00012,37.5128 5.00012,43.8123C 5.00012,50.1119 9.95056,55.0623 16.2501,55.0623C 22.5497,55.0623 27.5001,50.1119 27.5001,43.8123C 27.5001,37.5128 22.5497,32.5623 16.2501,32.5623 Z M 16.2501,51.6873C 11.9753,51.6873 8.37512,48.0882 8.37512,43.8123C 8.37512,39.5365 11.9753,35.9373 16.2501,35.9373C 20.5249,35.9373 24.1251,39.5365 24.1251,43.8123C 24.1251,48.0882 20.5249,51.6873 16.2501,51.6873 Z M 29.2997,29.1873L 34.7006,23.7876L 36.5001,25.5871C 39.4247,28.5128 43.2501,30.3123 47.9742,30.3123L 47.9742,25.8123C 44.5992,25.8123 41.901,24.4621 39.8751,22.4373L 35.5992,18.1626C 34.4742,17.2628 33.3492,16.8123 32.0001,16.8123C 30.6499,16.8123 29.5249,17.2628 28.8503,18.1626L 22.5497,24.4621C 21.6499,25.3619 21.2006,26.4869 21.2006,27.6119C 21.2006,28.9621 21.6499,30.0871 22.5497,30.7628L 29.7501,37.0623L 29.7501,48.3123L 34.2501,48.3123L 34.2501,34.3619L 29.2997,29.1873 Z M 47.7501,32.5623C 41.4506,32.5623 36.5001,37.5128 36.5001,43.8123C 36.5001,50.1119 41.4506,55.0623 47.7501,55.0623C 54.0497,55.0623 59.0001,50.1119 59.0001,43.8123C 59.0001,37.5128 54.0497,32.5623 47.7501,32.5623 Z M 47.7501,51.6873C 43.4742,51.6873 39.8751,48.0882 39.8751,43.8123C 39.8751,39.5365 43.4742,35.9373 47.7501,35.9373C 52.026,35.9373 55.6251,39.5365 55.6251,43.8123C 55.6251,48.0882 52.026,51.6873 47.7501,51.6873 Z "/>
</svg>
