<?xml version="1.0" encoding="utf-8"?>
<!DOCTYPE svg PUBLIC "-//W3C//DTD SVG 1.1//EN" "http://www.w3.org/Graphics/SVG/1.1/DTD/svg11.dtd">
<svg xmlns="http://www.w3.org/2000/svg" xmlns:xlink="http://www.w3.org/1999/xlink" version="1.1" baseProfile="full" width="64" height="64" viewBox="0 0 64.00 64.00" enable-background="new 0 0 64.00 64.00" xml:space="preserve">
	<path fill="currentColor" d="M 53.0001,4.99984L 11.0001,4.99984C 7.69979,4.99984 5.00008,7.69954 5.00008,10.9998L 5.00008,52.9998C 5.00008,56.2987 7.69979,58.9998 11.0001,58.9998L 53.0001,58.9998C 56.2989,58.9998 59.0001,56.2987 59.0001,52.9998L 59.0001,10.9998C 59.0001,7.69954 56.2989,4.99984 53.0001,4.99984 Z M 41.0001,28.9998C 41.0001,32.3295 38.2989,34.9998 35.0001,34.9998L 29.0001,34.9998L 29.0001,40.9998L 41.0001,40.9998L 41.0001,46.9998L 23.0001,46.9998L 23.0001,34.9998C 23.0001,31.6702 25.6998,28.9998 29.0001,28.9998L 35.0001,28.9998L 35.0001,22.9998L 23.0001,22.9998L 23.0001,16.9998L 35.0001,16.9998C 38.2989,16.9998 41.0001,19.6702 41.0001,22.9998L 41.0001,28.9998 Z "/>
</svg>
