<?xml version="1.0" encoding="utf-8"?>
<!DOCTYPE svg PUBLIC "-//W3C//DTD SVG 1.1//EN" "http://www.w3.org/Graphics/SVG/1.1/DTD/svg11.dtd">
<svg xmlns="http://www.w3.org/2000/svg" xmlns:xlink="http://www.w3.org/1999/xlink" version="1.1" baseProfile="full" width="64" height="64" viewBox="0 0 64.00 64.00" enable-background="new 0 0 64.00 64.00" xml:space="preserve">
	<path fill="currentColor" d="M 31.9999,19.7273C 34.723,19.7273 36.9091,17.5185 36.9091,14.8182C 36.9091,13.8857 36.6646,13.0264 36.1972,12.2893L 31.9999,5.00001L 27.8027,12.2893C 27.3365,13.0264 27.0908,13.8857 27.0908,14.8182C 27.0908,17.5185 29.2997,19.7273 31.9999,19.7273 Z M 43.2899,44.2488L 40.6628,41.6217L 38.0141,44.2488C 34.8236,47.4393 29.2265,47.4633 26.011,44.2488L 23.385,41.6217L 20.7088,44.2488C 19.1135,45.8453 16.9779,46.7274 14.7199,46.7274C 12.9281,46.7274 11.2837,46.1617 9.90895,45.2316L 9.90895,56.5457C 9.90895,57.8952 11.014,59.0002 12.3635,59.0002L 51.6364,59.0002C 52.9859,59.0002 54.0909,57.8952 54.0909,56.5457L 54.0909,45.2316C 52.7152,46.1617 51.0706,46.7274 49.28,46.7274C 47.022,46.7274 44.8864,45.8453 43.2899,44.2488 Z M 46.7273,27.091L 34.4545,27.091L 34.4545,22.1819L 29.5454,22.1819L 29.5454,27.091L 17.2726,27.091C 13.1976,27.091 9.90895,30.3797 9.90895,34.4547L 9.90895,38.2347C 9.90895,40.8858 12.0687,43.0456 14.7199,43.0456C 15.9963,43.0456 17.2236,42.5542 18.1067,41.6458L 23.3599,36.4178L 28.5879,41.6458C 30.4047,43.4626 33.5723,43.4626 35.387,41.6458L 40.6388,36.4178L 45.8691,41.6458C 46.7751,42.5542 47.9786,43.0456 49.2537,43.0456C 51.9049,43.0456 54.0669,40.8858 54.0669,38.2347L 54.0669,34.4547C 54.0909,30.3797 50.8023,27.091 46.7273,27.091 Z "/>
</svg>
