<?xml version="1.0" encoding="utf-8"?>
<!DOCTYPE svg PUBLIC "-//W3C//DTD SVG 1.1//EN" "http://www.w3.org/Graphics/SVG/1.1/DTD/svg11.dtd">
<svg xmlns="http://www.w3.org/2000/svg" xmlns:xlink="http://www.w3.org/1999/xlink" version="1.1" baseProfile="full" width="64" height="64" viewBox="0 0 64.00 64.00" enable-background="new 0 0 64.00 64.00" xml:space="preserve">
	<path fill="currentColor" d="M 23.6025,29.1967L 18.0025,29.1967L 18.0025,34.7967L 23.6025,34.7967L 23.6025,29.1967 Z M 34.8026,29.1967L 29.2026,29.1967L 29.2026,34.7967L 34.8026,34.7967L 34.8026,29.1967 Z M 46.0026,29.1967L 40.4026,29.1967L 40.4026,34.7967L 46.0026,34.7967L 46.0026,29.1967 Z M 51.6026,9.59663L 48.8026,9.59663L 48.8026,3.99662L 43.2026,3.99662L 43.2026,9.59663L 20.8025,9.59663L 20.8025,3.99662L 15.2025,3.99662L 15.2025,9.59663L 12.4025,9.59663C 9.2948,9.59663 6.82993,12.1164 6.82993,15.1967L 6.8025,54.3968C 6.8025,57.4757 9.2948,59.9968 12.4025,59.9968L 51.6026,59.9968C 54.6815,59.9968 57.2026,57.4757 57.2026,54.3968L 57.2026,15.1967C 57.2026,12.1164 54.6815,9.59663 51.6026,9.59663 Z M 51.6026,54.3968L 12.4025,54.3968L 12.4025,23.5967L 51.6026,23.5967L 51.6026,54.3968 Z "/>
</svg>
