<?xml version="1.0" encoding="utf-8"?>
<!DOCTYPE svg PUBLIC "-//W3C//DTD SVG 1.1//EN" "http://www.w3.org/Graphics/SVG/1.1/DTD/svg11.dtd">
<svg xmlns="http://www.w3.org/2000/svg" xmlns:xlink="http://www.w3.org/1999/xlink" version="1.1" baseProfile="full" width="64" height="64" viewBox="0 0 64.00 64.00" enable-background="new 0 0 64.00 64.00" xml:space="preserve">
	<path fill="currentColor" d="M 23.6027,6.79634L 18.4784,12.3964L 9.60267,12.3964C 6.52239,12.3964 4.00266,14.9161 4.00266,17.9964L 4.00266,51.5965C 4.00266,54.6754 6.52239,57.1965 9.60267,57.1965L 54.4028,57.1965C 57.4817,57.1965 60.0028,54.6754 60.0028,51.5965L 60.0028,17.9964C 60.0028,14.9161 57.4817,12.3964 54.4028,12.3964L 45.5271,12.3964L 40.4028,6.79634L 23.6027,6.79634 Z M 32.0027,48.7965C 24.2753,48.7965 18.0027,42.5239 18.0027,34.7964C 18.0027,27.069 24.2753,20.7964 32.0027,20.7964C 39.7302,20.7964 46.0028,27.069 46.0028,34.7964C 46.0028,42.5239 39.7302,48.7965 32.0027,48.7965 Z "/>
</svg>
