<?xml version="1.0" encoding="utf-8"?>
<!DOCTYPE svg PUBLIC "-//W3C//DTD SVG 1.1//EN" "http://www.w3.org/Graphics/SVG/1.1/DTD/svg11.dtd">
<svg xmlns="http://www.w3.org/2000/svg" xmlns:xlink="http://www.w3.org/1999/xlink" version="1.1" baseProfile="full" width="64" height="64" viewBox="0 0 64.00 64.00" enable-background="new 0 0 64.00 64.00" xml:space="preserve">
	<path fill="currentColor" d="M 38.1364,25.25C 39.831,25.25 41.2046,26.6236 41.2046,28.3182C 41.2046,30.0128 39.831,31.3863 38.1364,31.3863C 36.4418,31.3863 35.0682,30.0128 35.0682,28.3182C 35.0682,26.6236 36.4418,25.25 38.1364,25.25 Z M 25.8636,25.25C 27.5582,25.25 28.9318,26.6236 28.9318,28.3182C 28.9318,30.0128 27.5582,31.3864 25.8636,31.3864C 24.169,31.3864 22.7954,30.0128 22.7954,28.3182C 22.7954,26.6236 24.169,25.25 25.8636,25.25 Z M 58.8515,33.6205C 58.2379,37.3501 55.5148,40.3464 51.9815,41.4012C 50.7039,44.1001 48.8629,46.5306 46.6554,48.4938C 42.7507,51.9815 37.6209,54.0909 32,54.0909C 26.3791,54.0909 21.2493,51.9815 17.3709,48.4938C 15.1621,46.5306 13.3212,44.1243 12.0448,41.4012C 8.48519,40.3464 5.76113,37.3261 5.14749,33.6205L 5,32L 5.14749,30.3795C 5.76113,26.6486 8.48519,23.6548 12.0448,22.5988C 13.3212,19.8748 15.1621,17.444 17.4202,15.4559C 21.2984,11.9957 26.4042,9.90908 32,9.90908C 37.5946,9.90908 42.7004,11.9957 46.5788,15.4559C 48.8127,17.444 50.6536,19.8495 51.9552,22.5988C 55.5148,23.6548 58.2379,26.6739 58.8515,30.3795L 59,32L 58.8515,33.6205 Z M 49.1818,36.9091C 51.8809,36.9091 54.0909,34.699 54.0909,32C 54.0909,29.2998 51.8809,27.0909 49.1818,27.0909L 48.47,27.1653C 47.9786,25.5197 47.269,23.9987 46.3581,22.5988C 43.29,17.9104 38.0141,14.8182 32,14.8182C 25.9859,14.8182 20.7089,17.9104 17.6407,22.5988C 16.7322,23.9987 16.0214,25.5197 15.53,27.1653L 14.8182,27.0909C 12.1179,27.0909 9.90909,29.2998 9.90909,32C 9.90909,34.699 12.1179,36.9091 14.8182,36.9091L 15.53,36.8347C 16.0214,38.4815 16.7322,40.0013 17.6407,41.4012C 20.7089,46.0896 25.9859,49.1818 32,49.1818C 38.0141,49.1818 43.29,46.0896 46.3581,41.4012C 47.269,40.0013 47.9786,38.4815 48.47,36.8347L 49.1818,36.9091 Z M 20.9545,36.9091L 43.0455,36.9091C 41.1805,41.2524 36.9331,44.2727 32,44.2727C 27.0669,44.2727 22.8195,41.2524 20.9545,36.9091 Z "/>
</svg>
