<?xml version="1.0" encoding="utf-8"?>
<!DOCTYPE svg PUBLIC "-//W3C//DTD SVG 1.1//EN" "http://www.w3.org/Graphics/SVG/1.1/DTD/svg11.dtd">
<svg xmlns="http://www.w3.org/2000/svg" xmlns:xlink="http://www.w3.org/1999/xlink" version="1.1" baseProfile="full" width="64" height="64" viewBox="0 0 64.00 64.00" enable-background="new 0 0 64.00 64.00" xml:space="preserve">
	<path fill="currentColor" d="M 40.5264,30.5789L 40.5264,13.5263L 32.0001,4.99996L 23.4738,13.5263L 23.4738,19.2105L 6.42114,19.2105L 6.42114,59L 57.579,59L 57.579,30.5789L 40.5264,30.5789 Z M 17.7896,53.3157L 12.1054,53.3157L 12.1054,47.6315L 17.7896,47.6315L 17.7896,53.3157 Z M 17.7896,41.9473L 12.1054,41.9473L 12.1054,36.2631L 17.7896,36.2631L 17.7896,41.9473 Z M 17.7896,30.5789L 12.1054,30.5789L 12.1054,24.8947L 17.7896,24.8947L 17.7896,30.5789 Z M 34.8422,53.3157L 29.158,53.3157L 29.158,47.6315L 34.8422,47.6315L 34.8422,53.3157 Z M 34.8422,41.9473L 29.158,41.9473L 29.158,36.2631L 34.8422,36.2631L 34.8422,41.9473 Z M 34.8422,30.5789L 29.158,30.5789L 29.158,24.8947L 34.8422,24.8947L 34.8422,30.5789 Z M 34.8422,19.2105L 29.158,19.2105L 29.158,13.5263L 34.8422,13.5263L 34.8422,19.2105 Z M 51.8948,53.3157L 46.2106,53.3157L 46.2106,47.6315L 51.8948,47.6315L 51.8948,53.3157 Z M 51.8948,41.9473L 46.2106,41.9473L 46.2106,36.2631L 51.8948,36.2631L 51.8948,41.9473 Z "/>
</svg>
