<?xml version="1.0" encoding="utf-8"?>
<!DOCTYPE svg PUBLIC "-//W3C//DTD SVG 1.1//EN" "http://www.w3.org/Graphics/SVG/1.1/DTD/svg11.dtd">
<svg xmlns="http://www.w3.org/2000/svg" xmlns:xlink="http://www.w3.org/1999/xlink" version="1.1" baseProfile="full" width="64" height="64" viewBox="0 0 64.00 64.00" enable-background="new 0 0 64.00 64.00" xml:space="preserve">
	<path fill="currentColor" d="M 40.1,45.5L 40.1,50.9L 45.5,50.9L 45.5,45.5L 50.9,45.5L 50.9,40.1L 45.5,40.1L 45.5,34.7L 40.1,34.7L 40.1,40.1L 34.7,40.1L 34.7,45.5L 40.1,45.5 Z M 53.6,5.00004L 10.4,5.00004C 7.42977,5.00004 5.00004,7.42978 5.00004,10.4L 5.00004,53.6C 5.00004,56.569 7.42977,59 10.4,59L 53.6,59C 56.569,59 59,56.569 59,53.6L 59,10.4C 59,7.42978 56.569,5.00004 53.6,5.00004 Z M 13.1,13.1L 29.3,13.1L 29.3,18.5L 13.1,18.5L 13.1,13.1 Z M 53.6,53.6L 10.4,53.6L 53.6,10.4L 53.6,53.6 Z "/>
</svg>
