<?xml version="1.0" encoding="utf-8"?>
<!DOCTYPE svg PUBLIC "-//W3C//DTD SVG 1.1//EN" "http://www.w3.org/Graphics/SVG/1.1/DTD/svg11.dtd">
<svg xmlns="http://www.w3.org/2000/svg" xmlns:xlink="http://www.w3.org/1999/xlink" version="1.1" baseProfile="full" width="64" height="64" viewBox="0 0 64.00 64.00" enable-background="new 0 0 64.00 64.00" xml:space="preserve">
	<path fill="currentColor" d="M 40.6666,22.1664L 22.6666,22.1664L 22.6666,40.1664L 40.6666,40.1664L 40.6666,22.1664 Z M 34.6666,34.1664L 28.6666,34.1664L 28.6666,28.1664L 34.6666,28.1664L 34.6666,34.1664 Z M 58.6666,28.1664L 58.6666,22.1664L 52.6666,22.1664L 52.6666,16.1664C 52.6666,12.8661 49.9654,10.1664 46.6666,10.1664L 40.6666,10.1664L 40.6666,4.16637L 34.6666,4.16637L 34.6666,10.1664L 28.6666,10.1664L 28.6666,4.16637L 22.6666,4.16637L 22.6666,10.1664L 16.6666,10.1664C 13.3663,10.1664 10.6666,12.8661 10.6666,16.1664L 10.6666,22.1664L 4.66656,22.1664L 4.66656,28.1664L 10.6666,28.1664L 10.6666,34.1664L 4.66656,34.1664L 4.66656,40.1664L 10.6666,40.1664L 10.6666,46.1664C 10.6666,49.4652 13.3663,52.1664 16.6666,52.1664L 22.6666,52.1664L 22.6666,58.1664L 28.6666,58.1664L 28.6666,52.1664L 34.6666,52.1664L 34.6666,58.1664L 40.6666,58.1664L 40.6666,52.1664L 46.6666,52.1664C 49.9654,52.1664 52.6666,49.4652 52.6666,46.1664L 52.6666,40.1664L 58.6666,40.1664L 58.6666,34.1664L 52.6666,34.1664L 52.6666,28.1664L 58.6666,28.1664 Z M 46.6666,46.1664L 16.6666,46.1664L 16.6666,16.1664L 46.6666,16.1664L 46.6666,46.1664 Z "/>
</svg>
