<?xml version="1.0" encoding="utf-8"?>
<!DOCTYPE svg PUBLIC "-//W3C//DTD SVG 1.1//EN" "http://www.w3.org/Graphics/SVG/1.1/DTD/svg11.dtd">
<svg xmlns="http://www.w3.org/2000/svg" xmlns:xlink="http://www.w3.org/1999/xlink" version="1.1" baseProfile="full" width="64" height="64" viewBox="0 0 64.00 64.00" enable-background="new 0 0 64.00 64.00" xml:space="preserve">
	<path fill="currentColor" d="M 57.4694,21.4029C 58.3129,21.4029 59.0001,22.0223 59,22.7888L 59,44.9424C 59,46.0709 58.3378,47.0639 57.3444,47.6068L 57.3132,47.6239L 36.2517,58.7969L 36.1892,58.8308C 35.9706,58.9383 35.7207,59.0001 35.4581,59.0001C 34.6094,59.0001 33.9286,58.3778 33.9286,57.6086L 33.9286,35.2064C 33.9286,34.1314 34.5282,33.1866 35.4395,32.6239L 35.4458,32.6183L 35.9144,32.3777L 56.5834,21.6574L 56.8584,21.5188L 57.4694,21.4029 Z M 55.8991,15.4287C 55.8991,15.4287 56.7916,15.7878 56.7916,16.5712C 56.7916,17.4652 55.8866,17.9517 55.8866,17.9517L 33.8415,29.5878L 33.5354,29.7462C 33.0741,29.9552 32.5492,30.0712 31.9995,30.0712C 31.4559,30.0712 30.9384,29.9553 30.4824,29.752L 30.1325,29.5737L 8.12476,17.9575C 8.12476,17.9575 7.12433,17.3623 7.12433,16.5713C 7.12433,15.8256 8.08727,15.4287 8.08727,15.4287L 30.0076,5.57719C 30.0076,5.57719 31.2862,4.99983 31.9995,4.99983C 32.7129,4.99983 33.9977,5.57719 33.9977,5.57719L 55.8991,15.4287 Z M 28.5606,32.624C 29.4716,33.1867 30.0714,34.1315 30.0715,35.2066L 30.0715,57.6087C 30.0715,58.378 29.3843,59.0002 28.5419,59.0002C 28.2482,59.0002 27.9732,58.927 27.742,58.7969L 6.67967,47.6239L 6.6546,47.6068C 5.66112,47.0641 5,46.074 5,44.9424L 5,22.7888C 5,22.0223 5.68619,21.403 6.52959,21.403L 7.14087,21.5189L 7.41567,21.6576L 28.0794,32.3778L 28.5606,32.624 Z "/>
</svg>
