<?xml version="1.0" encoding="utf-8"?>
<!DOCTYPE svg PUBLIC "-//W3C//DTD SVG 1.1//EN" "http://www.w3.org/Graphics/SVG/1.1/DTD/svg11.dtd">
<svg xmlns="http://www.w3.org/2000/svg" xmlns:xlink="http://www.w3.org/1999/xlink" version="1.1" baseProfile="full" width="64" height="64" viewBox="0 0 64.00 64.00" enable-background="new 0 0 64.00 64.00" xml:space="preserve">
	<path fill="currentColor" d="M 32.0001,5.00004C 17.0961,5.00004 5.00012,17.0961 5.00012,32C 5.00012,46.9027 17.0961,59 32.0001,59C 46.9028,59 59.0001,46.9027 59.0001,32C 59.0001,17.0961 46.9028,5.00004 32.0001,5.00004 Z M 32.0001,44.15C 25.2766,44.15 19.8501,38.7236 19.8501,32C 19.8501,25.2765 25.2766,19.85 32.0001,19.85C 38.7237,19.85 44.1501,25.2765 44.1501,32C 44.1501,38.7236 38.7237,44.15 32.0001,44.15 Z M 32.0001,29.3C 30.5156,29.3 29.3001,30.5156 29.3001,32C 29.3001,33.4845 30.5156,34.7 32.0001,34.7C 33.4846,34.7 34.7001,33.4845 34.7001,32C 34.7001,30.5156 33.4846,29.3 32.0001,29.3 Z "/>
</svg>
