<?xml version="1.0" encoding="utf-8"?>
<!DOCTYPE svg PUBLIC "-//W3C//DTD SVG 1.1//EN" "http://www.w3.org/Graphics/SVG/1.1/DTD/svg11.dtd">
<svg xmlns="http://www.w3.org/2000/svg" xmlns:xlink="http://www.w3.org/1999/xlink" version="1.1" baseProfile="full" width="64" height="64" viewBox="0 0 64.00 64.00" enable-background="new 0 0 64.00 64.00" xml:space="preserve">
	<path fill="currentColor" d="M 46.8492,19.8948C 43.6105,19.8948 40.5497,21.1551 38.3679,23.3369L 32.0001,28.985L 28.5801,31.9996L 28.6031,31.9996L 22.5497,37.3784C 21.1105,38.8178 19.1978,39.6044 17.1499,39.6044C 12.9421,39.6044 9.52216,36.2073 9.52216,31.9996C 9.52216,27.7919 12.9421,24.3948 17.1499,24.3948C 19.1978,24.3948 21.1105,25.1814 22.6397,26.7119L 25.1831,28.9619L 28.5801,25.9473L 25.7456,23.45C 23.4506,21.1551 20.3897,19.8948 17.1499,19.8948C 10.4449,19.8948 5.00012,25.3396 5.00012,31.9996C 5.00012,38.6596 10.4449,44.1044 17.1499,44.1044C 20.3897,44.1044 23.4506,42.8453 25.6324,40.6612L 32.0001,35.0362L 32.0222,35.0583L 35.419,31.9996L 35.3972,31.9996L 41.4506,26.6219C 42.8897,25.1814 44.8015,24.3948 46.8492,24.3948C 51.0592,24.3948 54.4781,27.7919 54.4781,31.9996C 54.4781,36.2073 51.0592,39.6044 46.8492,39.6044C 44.8256,39.6044 42.8897,38.8178 41.3605,37.2862L 38.794,35.0142L 35.3972,38.0289L 38.2535,40.5492C 40.5497,42.8232 43.5885,44.0823 46.8492,44.0823C 53.5554,44.0823 59.0001,38.6596 59.0001,31.9776C 59.0001,25.2946 53.5554,19.8948 46.8492,19.8948 Z "/>
</svg>
