<?xml version="1.0" encoding="utf-8"?>
<!DOCTYPE svg PUBLIC "-//W3C//DTD SVG 1.1//EN" "http://www.w3.org/Graphics/SVG/1.1/DTD/svg11.dtd">
<svg xmlns="http://www.w3.org/2000/svg" xmlns:xlink="http://www.w3.org/1999/xlink" version="1.1" baseProfile="full" width="64" height="64" viewBox="0 0 64.00 64.00" enable-background="new 0 0 64.00 64.00" xml:space="preserve">
	<path fill="currentColor" d="M 41,51.5C 33.4706,51.5 26.9594,47.2403 23.7206,41L 41,41L 41,35L 21.7403,35C 21.5894,34.0097 21.5,33.0194 21.5,32C 21.5,30.9806 21.5894,29.9903 21.7403,29L 41,29L 41,23L 23.7206,23C 26.9594,16.7597 33.5,12.5 41,12.5C 45.8282,12.5 50.2694,14.2694 53.6915,17.2094L 59,11.8994C 54.2306,7.61026 47.8994,5 41,5C 29.2403,5 19.2794,12.5294 15.56,23L 5,23L 5,29L 14.1803,29C 14.06,29.9903 14,30.9806 14,32C 14,33.0194 14.06,34.0097 14.1803,35L 5,35L 5,41L 15.56,41C 19.2794,51.4706 29.2403,59 41,59C 47.9315,59 54.2306,56.3897 59,52.1006L 53.6621,46.7891C 50.2694,49.7306 45.8603,51.5 41,51.5 Z "/>
</svg>
