<?xml version="1.0" encoding="utf-8"?>
<!DOCTYPE svg PUBLIC "-//W3C//DTD SVG 1.1//EN" "http://www.w3.org/Graphics/SVG/1.1/DTD/svg11.dtd">
<svg xmlns="http://www.w3.org/2000/svg" xmlns:xlink="http://www.w3.org/1999/xlink" version="1.1" baseProfile="full" width="64" height="64" viewBox="0 0 64.00 64.00" enable-background="new 0 0 64.00 64.00" xml:space="preserve">
	<path fill="currentColor" d="M 50.9,21.2L 13.1,21.2C 8.61753,21.2 5.00004,24.8175 5.00004,29.3L 5.00004,45.5L 15.8,45.5L 15.8,56.3L 48.2,56.3L 48.2,45.5L 59,45.5L 59,29.3C 59,24.8175 55.3825,21.2 50.9,21.2 Z M 42.8,50.9L 21.2,50.9L 21.2,37.4L 42.8,37.4L 42.8,50.9 Z M 50.9,32C 49.4156,32 48.2,30.7845 48.2,29.3C 48.2,27.8156 49.4156,26.6 50.9,26.6C 52.3845,26.6 53.6,27.8156 53.6,29.3C 53.6,30.7845 52.3845,32 50.9,32 Z M 48.2,7.70004L 15.8,7.70004L 15.8,18.5L 48.2,18.5L 48.2,7.70004 Z "/>
</svg>
