<?xml version="1.0" encoding="utf-8"?>
<!DOCTYPE svg PUBLIC "-//W3C//DTD SVG 1.1//EN" "http://www.w3.org/Graphics/SVG/1.1/DTD/svg11.dtd">
<svg xmlns="http://www.w3.org/2000/svg" xmlns:xlink="http://www.w3.org/1999/xlink" version="1.1" baseProfile="full" width="64" height="64" viewBox="0 0 64.00 64.00" enable-background="new 0 0 64.00 64.00" xml:space="preserve">
	<path fill="currentColor" d="M 53.0937,16.4509C 53.6563,17.0134 54.1384,17.7768 54.5402,18.7411C 54.9419,19.7054 55.1428,20.5893 55.1428,21.3929L 55.1428,56.1071C 55.1428,56.9107 54.8616,57.5937 54.2991,58.1563C 53.7366,58.7188 53.0536,59 52.25,59L 11.75,59C 10.9464,59 10.2634,58.7188 9.70089,58.1563C 9.13839,57.5937 8.85714,56.9107 8.85714,56.1071L 8.85714,7.89286C 8.85714,7.08929 9.13839,6.40625 9.70089,5.84375C 10.2634,5.28126 10.9464,5 11.75,5L 38.75,5C 39.5536,5 40.4375,5.20089 41.4018,5.60268C 42.3661,6.00447 43.1294,6.48662 43.692,7.04911L 53.0937,16.4509 Z M 39.7143,9.09822L 39.7143,20.4286L 51.0446,20.4286C 50.8437,19.846 50.6228,19.4342 50.3817,19.1931L 40.9498,9.76117C 40.7087,9.5201 40.2969,9.29911 39.7143,9.09822 Z M 51.2857,55.1429L 51.2857,24.2857L 38.75,24.2857C 37.9464,24.2857 37.2634,24.0045 36.7009,23.442C 36.1384,22.8795 35.8571,22.1964 35.8571,21.3929L 35.8571,8.85715L 12.7143,8.85715L 12.7143,55.1429L 51.2857,55.1429 Z "/>
</svg>
