<?xml version="1.0" encoding="utf-8"?>
<!DOCTYPE svg PUBLIC "-//W3C//DTD SVG 1.1//EN" "http://www.w3.org/Graphics/SVG/1.1/DTD/svg11.dtd">
<svg xmlns="http://www.w3.org/2000/svg" xmlns:xlink="http://www.w3.org/1999/xlink" version="1.1" baseProfile="full" width="64" height="64" viewBox="0 0 64.00 64.00" enable-background="new 0 0 64.00 64.00" xml:space="preserve">
	<path fill="currentColor" d="M 53.0937,16.4509C 53.6562,17.0134 54.1384,17.7768 54.5402,18.7411C 54.9419,19.7054 55.1428,20.5893 55.1428,21.3929L 55.1428,56.1071C 55.1428,56.9107 54.8616,57.5937 54.2991,58.1563C 53.7366,58.7188 53.0536,59 52.25,59L 11.75,59C 10.9464,59 10.2634,58.7188 9.70088,58.1563C 9.13839,57.5937 8.85713,56.9107 8.85713,56.1071L 8.85713,7.89286C 8.85713,7.08929 9.13839,6.40625 9.70088,5.84375C 10.2634,5.28126 10.9464,5 11.75,5L 38.75,5C 39.5536,5 40.4375,5.20089 41.4018,5.60268C 42.3661,6.00447 43.1294,6.48662 43.692,7.04911L 53.0937,16.4509 Z M 39.7143,9.09822L 39.7143,20.4286L 51.0446,20.4286C 50.8437,19.846 50.6228,19.4342 50.3817,19.1931L 40.9498,9.76117C 40.7087,9.5201 40.2969,9.29911 39.7143,9.09822 Z M 51.2857,55.1429L 51.2857,24.2857L 38.75,24.2857C 37.9464,24.2857 37.2634,24.0045 36.7009,23.442C 36.1384,22.8795 35.8571,22.1964 35.8571,21.3929L 35.8571,8.85715L 12.7143,8.85715L 12.7143,55.1429L 51.2857,55.1429 Z M 35.7969,37.2734C 36.4598,37.7958 37.3036,38.3583 38.3281,38.9609C 39.5134,38.8203 40.6886,38.75 41.8538,38.75C 44.8069,38.75 46.5848,39.2422 47.1875,40.2266C 47.5089,40.6685 47.529,41.1908 47.2478,41.7935C 47.2478,41.8136 47.2377,41.8337 47.2176,41.8538L 47.1574,41.9141L 47.1574,41.9442C 47.0368,42.7076 46.3236,43.0893 45.0178,43.0893C 44.0536,43.0893 42.8984,42.8884 41.5524,42.4866C 40.2065,42.0848 38.9007,41.5525 37.635,40.8895C 33.1953,41.3717 29.2578,42.2054 25.8225,43.3906C 22.7489,48.654 20.3181,51.2857 18.5301,51.2857C 18.2288,51.2857 17.9475,51.2154 17.6864,51.0748L 16.9632,50.7132C 16.9431,50.6931 16.8828,50.6429 16.7824,50.5625C 16.5815,50.3616 16.5212,50 16.6016,49.4777C 16.7824,48.6741 17.3449,47.755 18.2891,46.7204C 19.2332,45.6858 20.5591,44.7165 22.2667,43.8125C 22.548,43.6317 22.779,43.692 22.9598,43.9933C 23,44.0335 23.0201,44.0737 23.0201,44.1138C 24.0647,42.4062 25.1395,40.4275 26.2444,38.1775C 27.6105,35.4453 28.6551,32.8136 29.3783,30.2824C 28.8962,28.635 28.5898,27.0329 28.4593,25.476C 28.3287,23.9191 28.394,22.6384 28.6551,21.6339C 28.8761,20.8304 29.298,20.4286 29.9207,20.4286L 30.5837,20.4286C 31.0457,20.4286 31.3973,20.5792 31.6384,20.8806C 32,21.3025 32.0904,21.9855 31.9096,22.9297C 31.8694,23.0502 31.8292,23.1306 31.7891,23.1708C 31.8092,23.231 31.8192,23.3114 31.8192,23.4118L 31.8192,24.3159C 31.779,26.7868 31.6384,28.7154 31.3973,30.1016C 32.5022,33.3962 33.9687,35.7868 35.7969,37.2734 Z M 18.4397,49.6585C 19.4844,49.1763 20.8605,47.5893 22.5681,44.8973C 21.5435,45.7009 20.6646,46.5447 19.9314,47.4286C 19.1981,48.3125 18.7009,49.0558 18.4397,49.6585 Z M 30.433,21.9353C 30.1317,22.779 30.1116,24.1049 30.3728,25.9129C 30.3929,25.7723 30.4632,25.3304 30.5837,24.5871C 30.5837,24.5268 30.654,24.0949 30.7946,23.2913C 30.8147,23.2109 30.8549,23.1306 30.9152,23.0502C 30.8951,23.0301 30.885,23.0101 30.885,22.99C 30.885,22.9699 30.88,22.9548 30.87,22.9448C 30.8599,22.9347 30.8549,22.9197 30.8549,22.8996C 30.8348,22.4576 30.7042,22.096 30.4632,21.8147C 30.4632,21.8348 30.4531,21.8549 30.433,21.875L 30.433,21.9353 Z M 26.6964,41.8538C 29.4085,40.769 32.2612,39.9554 35.2545,39.4129C 35.2143,39.3928 35.0837,39.2974 34.8627,39.1267C 34.6417,38.9559 34.481,38.8203 34.3806,38.7199C 32.8538,37.3739 31.5781,35.606 30.5536,33.4163C 30.0111,35.144 29.1774,37.1228 28.0524,39.3527C 27.4498,40.4777 26.9978,41.3114 26.6964,41.8538 Z M 46.1629,41.3717C 45.6808,40.8895 44.2745,40.6484 41.9442,40.6484C 43.471,41.2109 44.7165,41.4922 45.6808,41.4922C 45.962,41.4922 46.1428,41.4822 46.2232,41.4621C 46.2232,41.442 46.2031,41.4118 46.1629,41.3717 Z "/>
</svg>
