<?xml version="1.0" encoding="utf-8"?>
<!DOCTYPE svg PUBLIC "-//W3C//DTD SVG 1.1//EN" "http://www.w3.org/Graphics/SVG/1.1/DTD/svg11.dtd">
<svg xmlns="http://www.w3.org/2000/svg" xmlns:xlink="http://www.w3.org/1999/xlink" version="1.1" baseProfile="full" width="64" height="64" viewBox="0 0 64.00 64.00" enable-background="new 0 0 64.00 64.00" xml:space="preserve">
	<path fill="currentColor" d="M 18.5,54.5L 45.5,54.5L 45.5,41L 18.5,41L 18.5,54.5 Z M 50,54.5L 54.5,54.5L 54.5,23C 54.5,22.6719 54.3828,22.2207 54.1484,21.6465C 53.914,21.0723 53.6797,20.668 53.4453,20.4336L 43.5664,10.5547C 43.332,10.3203 42.9336,10.0859 42.3711,9.85155C 41.8086,9.61719 41.3516,9.49999 41,9.49999L 41,24.125C 41,25.0625 40.6719,25.8594 40.0156,26.5156C 39.3594,27.1719 38.5625,27.5 37.625,27.5L 17.375,27.5C 16.4375,27.5 15.6406,27.1719 14.9844,26.5156C 14.3281,25.8594 14,25.0625 14,24.125L 14,9.49999L 9.5,9.49999L 9.5,54.5L 14,54.5L 14,39.875C 14,38.9375 14.3281,38.1406 14.9844,37.4844C 15.6406,36.8281 16.4375,36.5 17.375,36.5L 46.625,36.5C 47.5625,36.5 48.3594,36.8281 49.0156,37.4844C 49.6719,38.1406 50,38.9375 50,39.875L 50,54.5 Z M 36.5,21.875L 36.5,10.625C 36.5,10.3203 36.3887,10.0566 36.166,9.83397C 35.9434,9.61131 35.6797,9.49999 35.375,9.49999L 28.625,9.49999C 28.3203,9.49999 28.0566,9.61131 27.834,9.83397C 27.6113,10.0566 27.5,10.3203 27.5,10.625L 27.5,21.875C 27.5,22.1797 27.6113,22.4434 27.834,22.666C 28.0566,22.8887 28.3203,23 28.625,23L 35.375,23C 35.6797,23 35.9434,22.8887 36.166,22.666C 36.3887,22.4434 36.5,22.1797 36.5,21.875 Z M 59,23L 59,55.625C 59,56.5625 58.6719,57.3594 58.0156,58.0156C 57.3594,58.6719 56.5625,59 55.625,59L 8.375,59C 7.4375,59 6.64062,58.6719 5.98437,58.0156C 5.32813,57.3594 5,56.5625 5,55.625L 5,8.37499C 5,7.4375 5.32813,6.64061 5.98437,5.98436C 6.64062,5.32813 7.4375,4.99999 8.375,4.99999L 41,4.99999C 41.9375,4.99999 42.9688,5.23436 44.0938,5.70311C 45.2188,6.17188 46.1094,6.73438 46.7656,7.39061L 56.6094,17.2344C 57.2656,17.8906 57.8281,18.7812 58.2969,19.9062C 58.7656,21.0312 59,22.0625 59,23 Z "/>
</svg>
