<?xml version="1.0" encoding="utf-8"?>
<!DOCTYPE svg PUBLIC "-//W3C//DTD SVG 1.1//EN" "http://www.w3.org/Graphics/SVG/1.1/DTD/svg11.dtd">
<svg xmlns="http://www.w3.org/2000/svg" xmlns:xlink="http://www.w3.org/1999/xlink" version="1.1" baseProfile="full" viewBox="0 0 64.00 64.00" enable-background="new 0 0 64.00 64.00" xml:space="preserve">
	<path fill="currentColor" d="M 48.1672,32.9656C 47.4909,32.5803 46.7912,32.2658 46.0912,32.0007C 46.7912,31.7355 47.4909,31.4211 48.1672,31.0357C 52.7998,28.3576 55.3803,23.5072 55.406,18.5128C 51.0869,16.0269 45.5847,15.8336 40.9285,18.5128C 40.2521,18.898 39.6255,19.3564 39.0456,19.8158C 39.1682,19.0676 39.2389,18.2947 39.2389,17.5231C 39.2389,12.1671 36.3193,7.50966 32.0001,5.00019C 27.681,7.50966 24.7614,12.1671 24.7614,17.5231C 24.7614,18.2947 24.8332,19.0676 24.9546,19.8158C 24.3748,19.3328 23.7482,18.8745 23.0718,18.488C 18.4393,15.8099 12.9382,16.0031 8.59424,18.488C 8.59424,23.4823 11.1768,28.333 15.833,31.0109C 16.5094,31.3974 17.2091,31.7109 17.9091,31.977C 17.2091,32.2422 16.5094,32.5557 15.833,32.942C 11.2005,35.6201 8.61906,40.4696 8.59424,45.4651C 12.9134,47.9487 18.4156,48.142 23.0718,45.4651C 23.7482,45.0785 24.3748,44.6215 24.9546,44.1619C 24.8332,44.9325 24.7614,45.7054 24.7614,46.4783C 24.7614,51.8342 27.681,56.4929 32.0001,59.0002C 36.3193,56.4929 39.2389,51.8342 39.2389,46.4783C 39.2389,45.7054 39.1682,44.9325 39.0456,44.1855C 39.6255,44.6686 40.2521,45.1021 40.9285,45.4885C 45.561,48.1678 51.0632,47.9745 55.406,45.4885C 55.3803,40.493 52.7998,35.6437 48.1672,32.9656 Z M 32.0001,41.6524C 26.6676,41.6524 22.3484,37.3332 22.3484,32.0007C 22.3484,26.6681 26.6676,22.3489 32.0001,22.3489C 37.3327,22.3489 41.6519,26.6681 41.6519,32.0007C 41.6519,37.3332 37.3327,41.6524 32.0001,41.6524 Z "/>
</svg>
