<?xml version="1.0" encoding="utf-8"?>
<!DOCTYPE svg PUBLIC "-//W3C//DTD SVG 1.1//EN" "http://www.w3.org/Graphics/SVG/1.1/DTD/svg11.dtd">
<svg xmlns="http://www.w3.org/2000/svg" xmlns:xlink="http://www.w3.org/1999/xlink" version="1.1" baseProfile="full" width="64" height="64" viewBox="0 0 64.00 64.00" enable-background="new 0 0 64.00 64.00" xml:space="preserve">
	<path fill="currentColor" d="M 53.6,17.1501L 47.7149,17.1501C 48.0102,16.3128 48.2,15.3953 48.2,14.4501C 48.2,9.96756 44.5825,6.35006 40.1,6.35006C 37.2656,6.35006 34.8081,7.80808 33.35,9.99532L 32,11.804L 30.65,9.96756C 29.192,7.80808 26.7345,6.35006 23.9,6.35006C 19.4175,6.35006 15.8,9.96756 15.8,14.4501C 15.8,15.3953 15.9885,16.3128 16.2866,17.1501L 10.4,17.1501C 7.40332,17.1501 5.02649,19.5533 5.02649,22.5501L 5.00004,52.2501C 5.00004,55.2455 7.40332,57.6501 10.4,57.6501L 53.6,57.6501C 56.5954,57.6501 59,55.2455 59,52.2501L 59,22.5501C 59,19.5533 56.5954,17.1501 53.6,17.1501 Z M 40.1,11.7501C 41.5845,11.7501 42.8,12.9656 42.8,14.4501C 42.8,15.9345 41.5845,17.1501 40.1,17.1501C 38.6156,17.1501 37.4,15.9345 37.4,14.4501C 37.4,12.9656 38.6156,11.7501 40.1,11.7501 Z M 23.9,11.7501C 25.3845,11.7501 26.6,12.9656 26.6,14.4501C 26.6,15.9345 25.3845,17.1501 23.9,17.1501C 22.4156,17.1501 21.2,15.9345 21.2,14.4501C 21.2,12.9656 22.4156,11.7501 23.9,11.7501 Z M 53.6,52.2501L 10.4,52.2501L 10.4,46.8501L 53.6,46.8501L 53.6,52.2501 Z M 53.6,38.7501L 10.4,38.7501L 10.4,22.5501L 24.1163,22.5501L 18.5,30.1914L 22.8743,33.3501L 29.3,24.6015L 32,20.9298L 34.7,24.6015L 41.1258,33.3501L 45.5,30.1914L 39.8837,22.5501L 53.6,22.5501L 53.6,38.7501 Z "/>
</svg>
