<?xml version="1.0" encoding="utf-8"?>
<!DOCTYPE svg PUBLIC "-//W3C//DTD SVG 1.1//EN" "http://www.w3.org/Graphics/SVG/1.1/DTD/svg11.dtd">
<svg xmlns="http://www.w3.org/2000/svg" xmlns:xlink="http://www.w3.org/1999/xlink" version="1.1" baseProfile="full" width="64" height="64" viewBox="0 0 64.00 64.00" enable-background="new 0 0 64.00 64.00" xml:space="preserve">
	<path fill="currentColor" d="M 31.9736,5.00004C 17.0696,5.00004 5.00004,17.0961 5.00004,32C 5.00004,46.9027 17.0696,59 31.9736,59C 46.9027,59 59,46.9027 59,32C 59,17.0961 46.9027,5.00004 31.9736,5.00004 Z M 32,53.6C 20.0663,53.6 10.4,43.9338 10.4,32C 10.4,20.0663 20.0663,10.4 32,10.4C 43.9337,10.4 53.6,20.0663 53.6,32C 53.6,43.9338 43.9337,53.6 32,53.6 Z M 41.45,29.3C 43.6913,29.3 45.5,27.4913 45.5,25.25C 45.5,23.0088 43.6913,21.2 41.45,21.2C 39.2087,21.2 37.4,23.0088 37.4,25.25C 37.4,27.4913 39.2087,29.3 41.45,29.3 Z M 22.55,29.3C 24.7913,29.3 26.6,27.4913 26.6,25.25C 26.6,23.0088 24.7913,21.2 22.55,21.2C 20.3087,21.2 18.5,23.0088 18.5,25.25C 18.5,27.4913 20.3087,29.3 22.55,29.3 Z M 32,46.85C 38.2913,46.85 43.6384,42.9081 45.7954,37.4L 18.2033,37.4C 20.3628,42.9081 25.7087,46.85 32,46.85 Z "/>
</svg>
