<?xml version="1.0" encoding="utf-8"?>
<!DOCTYPE svg PUBLIC "-//W3C//DTD SVG 1.1//EN" "http://www.w3.org/Graphics/SVG/1.1/DTD/svg11.dtd">
<svg xmlns="http://www.w3.org/2000/svg" xmlns:xlink="http://www.w3.org/1999/xlink" version="1.1" baseProfile="full" width="64" height="64" viewBox="0 0 64.00 64.00" enable-background="new 0 0 64.00 64.00" xml:space="preserve">
	<path fill="currentColor" d="M 32,5.00016C 17.8741,5.00016 6.42102,16.4547 6.42102,30.5792L 6.42102,50.4739C 6.42102,55.1924 10.2289,59.0003 14.9474,59.0003L 23.4737,59.0003L 23.4737,36.2634L 12.1052,36.2634L 12.1052,30.5792C 12.1052,19.5799 21.0008,10.6844 32,10.6844C 42.9992,10.6844 51.8948,19.5799 51.8948,30.5792L 51.8948,36.2634L 40.5264,36.2634L 40.5264,59.0003L 49.0527,59.0003C 53.7711,59.0003 57.579,55.1924 57.579,50.4739L 57.579,30.5792C 57.579,16.4547 46.1273,5.00016 32,5.00016 Z "/>
</svg>
