<?xml version="1.0" encoding="utf-8"?>
<!DOCTYPE svg PUBLIC "-//W3C//DTD SVG 1.1//EN" "http://www.w3.org/Graphics/SVG/1.1/DTD/svg11.dtd">
<svg xmlns="http://www.w3.org/2000/svg" xmlns:xlink="http://www.w3.org/1999/xlink" version="1.1" baseProfile="full" width="64" height="64" viewBox="0 0 64.00 64.00" enable-background="new 0 0 64.00 64.00" xml:space="preserve">
	<path fill="currentColor" d="M 11.75,25.2502C 8.03717,25.2502 5,28.2873 5,32.0002C 5,35.7113 8.03717,38.7502 11.75,38.7502C 15.4628,38.7502 18.5,35.7113 18.5,32.0002C 18.5,28.2873 15.4628,25.2502 11.75,25.2502 Z M 52.25,25.2502C 48.5388,25.2502 45.5,28.2873 45.5,32.0002C 45.5,35.7113 48.5388,38.7502 52.25,38.7502C 55.9612,38.7502 59,35.7113 59,32.0002C 59,28.2873 55.9612,25.2502 52.25,25.2502 Z M 32,25.2502C 28.2872,25.2502 25.25,28.2873 25.25,32.0002C 25.25,35.7113 28.2872,38.7502 32,38.7502C 35.7112,38.7502 38.75,35.7113 38.75,32.0002C 38.75,28.2873 35.7112,25.2502 32,25.2502 Z "/>
</svg>
