<?xml version="1.0" encoding="utf-8"?>
<!DOCTYPE svg PUBLIC "-//W3C//DTD SVG 1.1//EN" "http://www.w3.org/Graphics/SVG/1.1/DTD/svg11.dtd">
<svg xmlns="http://www.w3.org/2000/svg" xmlns:xlink="http://www.w3.org/1999/xlink" version="1.1" baseProfile="full" viewBox="0 0 64.00 64.00" enable-background="new 0 0 64.00 64.00" xml:space="preserve">
	<path fill="currentColor" d="M 35.7973,5.00006C 35.7973,5.00006 37.6712,11.7086 37.6712,17.1514C 37.6712,22.3681 34.2545,26.5956 29.0381,26.5956C 23.7969,26.5956 19.8486,22.3681 19.8486,17.1514L 19.924,16.2405C 14.8101,22.3161 11.7469,30.1902 11.7469,38.7469C 11.7469,49.9364 20.8104,58.9999 31.9999,58.9999C 43.1894,58.9999 52.2529,49.9364 52.2529,38.7469C 52.2529,25.1012 45.6964,12.9238 35.7973,5.00006 Z M 31.2657,51.405C 26.7599,51.405 23.1144,47.8598 23.1144,43.4542C 23.1144,39.355 25.7721,36.4675 30.2272,35.5576C 34.7095,34.6455 39.3426,32.4946 41.9236,29.0259C 42.9124,32.2918 43.417,35.7355 43.417,39.2537C 43.417,45.961 37.973,51.405 31.2657,51.405 Z "/>
</svg>
