<?xml version="1.0" encoding="utf-8"?>
<!DOCTYPE svg PUBLIC "-//W3C//DTD SVG 1.1//EN" "http://www.w3.org/Graphics/SVG/1.1/DTD/svg11.dtd">
<svg xmlns="http://www.w3.org/2000/svg" xmlns:xlink="http://www.w3.org/1999/xlink" version="1.1" baseProfile="full" width="64" height="64" viewBox="0 0 64.00 64.00" enable-background="new 0 0 64.00 64.00" xml:space="preserve">
	<path fill="currentColor" d="M 23.6024,57.1968C 23.6024,58.7362 24.8629,59.9968 26.4024,59.9968L 37.6024,59.9968C 39.1419,59.9968 40.4024,58.7362 40.4024,57.1968L 40.4024,54.3968L 23.6024,54.3968L 23.6024,57.1968 Z M 32.0024,3.99662C 21.1947,3.99662 12.4024,12.7889 12.4024,23.5967C 12.4024,30.2604 15.7341,36.1119 20.8024,39.6693L 20.8024,45.9967C 20.8024,47.5362 22.0629,48.7967 23.6024,48.7967L 40.4024,48.7967C 41.9419,48.7967 43.2024,47.5362 43.2024,45.9967L 43.2024,39.6693C 48.2718,36.1119 51.6025,30.2604 51.6025,23.5967C 51.6025,12.7889 42.8088,3.99662 32.0024,3.99662 Z M 39.9813,35.0756L 37.6024,36.7573L 37.6024,43.1967L 26.4024,43.1967L 26.4024,36.7573L 24.0221,35.0756C 20.2418,32.4452 18.0024,28.1604 18.0024,23.5967C 18.0024,15.8692 24.275,9.59663 32.0024,9.59663C 39.7299,9.59663 46.0024,15.8692 46.0024,23.5967C 46.0024,28.1604 43.763,32.4452 39.9813,35.0756 Z "/>
</svg>
