<?xml version="1.0" encoding="utf-8"?>
<!DOCTYPE svg PUBLIC "-//W3C//DTD SVG 1.1//EN" "http://www.w3.org/Graphics/SVG/1.1/DTD/svg11.dtd">
<svg xmlns="http://www.w3.org/2000/svg" xmlns:xlink="http://www.w3.org/1999/xlink" version="1.1" baseProfile="full" viewBox="0 0 64.00 64.00" enable-background="new 0 0 64.00 64.00" xml:space="preserve">
	<path fill="currentColor" d="M 58.9998,31.9883L 53.0119,25.1639L 53.8462,16.132L 44.9844,14.1185L 40.3462,6.31378L 31.9998,9.8974L 23.6546,6.31378L 19.0152,14.1185L 10.1546,16.1081L 10.9887,25.1401L 4.99979,31.9883L 10.9887,38.8127L 10.1546,47.8685L 19.0152,49.882L 23.6546,57.6867L 31.9998,54.0792L 40.3462,57.6628L 44.9844,49.8581L 53.8462,47.8447L 53.0119,38.8127L 58.9998,31.9883 Z M 34.4543,44.261L 29.5452,44.261L 29.5452,39.3519L 34.4543,39.3519L 34.4543,44.261 Z M 34.4543,34.4429L 29.5452,34.4429L 29.5452,19.7156L 34.4543,19.7156L 34.4543,34.4429 Z "/>
</svg>
