<?xml version="1.0" encoding="utf-8"?>
<!DOCTYPE svg PUBLIC "-//W3C//DTD SVG 1.1//EN" "http://www.w3.org/Graphics/SVG/1.1/DTD/svg11.dtd">
<svg xmlns="http://www.w3.org/2000/svg" xmlns:xlink="http://www.w3.org/1999/xlink" version="1.1" baseProfile="full" viewBox="0 0 64.00 64.00" enable-background="new 0 0 64.00 64.00" xml:space="preserve">
	<path fill="currentColor" d="M 53,5L 10.9706,5C 7.63974,5 5.02939,7.69971 5.02939,11L 5,53C 5,56.2988 7.63974,59 10.9706,59L 53,59C 56.2988,59 59,56.2988 59,53L 59,11C 59,7.69971 56.2988,5 53,5 Z M 53,41L 41,41C 41,45.9806 36.9512,50 32,50C 27.0503,50 23,45.9806 23,41L 10.9706,41L 10.9706,11L 53,11L 53,41 Z M 44,26L 38,26L 38,17L 26,17L 26,26L 20,26L 32,38L 44,26 Z "/>
</svg>
