<?xml version="1.0" encoding="utf-8"?>
<!DOCTYPE svg PUBLIC "-//W3C//DTD SVG 1.1//EN" "http://www.w3.org/Graphics/SVG/1.1/DTD/svg11.dtd">
<svg xmlns="http://www.w3.org/2000/svg" xmlns:xlink="http://www.w3.org/1999/xlink" version="1.1" baseProfile="full" width="64" height="64" viewBox="0 0 64.00 64.00" enable-background="new 0 0 64.00 64.00" xml:space="preserve">
	<path fill="currentColor" d="M 29.2026,45.9964L 34.8027,45.9964L 34.8027,29.1964L 29.2026,29.1964L 29.2026,45.9964 Z M 32.0027,3.99629C 16.5466,3.99629 4.00257,16.5404 4.00257,31.9964C 4.00257,47.451 16.5466,59.9964 32.0027,59.9964C 47.4573,59.9964 60.0027,47.451 60.0027,31.9964C 60.0027,16.5404 47.4573,3.99629 32.0027,3.99629 Z M 32.0027,54.3964C 19.6541,54.3964 9.60259,44.3449 9.60259,31.9964C 9.60259,19.6478 19.6541,9.59631 32.0027,9.59631C 44.3512,9.59631 54.4027,19.6478 54.4027,31.9964C 54.4027,44.3449 44.3512,54.3964 32.0027,54.3964 Z M 29.2026,23.5963L 34.8027,23.5963L 34.8027,17.9963L 29.2026,17.9963L 29.2026,23.5963 Z "/>
</svg>
