<?xml version="1.0" encoding="utf-8"?>
<!DOCTYPE svg PUBLIC "-//W3C//DTD SVG 1.1//EN" "http://www.w3.org/Graphics/SVG/1.1/DTD/svg11.dtd">
<svg xmlns="http://www.w3.org/2000/svg" xmlns:xlink="http://www.w3.org/1999/xlink" version="1.1" baseProfile="full" width="64" height="64" viewBox="0 0 64.00 64.00" enable-background="new 0 0 64.00 64.00" xml:space="preserve">
	<path fill="currentColor" d="M 44.9932,53.8026C 44.2396,53.8026 43.5367,53.6454 43.0188,53.4117C 41.1714,52.4526 39.8721,51.1252 38.5728,47.2273C 37.248,43.1747 34.7559,41.2764 32.3642,39.4314C 30.3113,37.8455 28.1796,36.2113 26.3346,32.8575C 24.9579,30.3631 24.2043,27.6351 24.2043,25.2178C 24.2043,17.9422 29.9217,12.2248 37.1973,12.2248C 44.4729,12.2248 50.1904,17.9422 50.1904,25.2178L 55.3876,25.2178C 55.3876,15.0047 47.4091,7.02755 37.1973,7.02755C 26.9843,7.02755 19.0071,15.0047 19.0071,25.2178C 19.0071,28.4916 19.9943,32.1039 21.787,35.3534C 24.1523,39.6396 26.9323,41.7967 29.1933,43.5375C 31.2985,45.1489 32.8059,46.3188 33.637,48.8642C 35.1977,53.5944 37.1973,56.244 40.7299,58.0913C 42.057,58.6877 43.5112,58.9998 44.9932,58.9998C 50.7361,58.9998 55.3876,54.3482 55.3876,48.6053L 50.1904,48.6053C 50.1904,51.4628 47.8506,53.8026 44.9932,53.8026 Z M 20.6705,8.69093L 16.9807,4.99984C 11.8089,10.1718 8.61262,17.318 8.61262,25.2178C 8.61262,33.1176 11.8089,40.2638 16.9807,45.4358L 20.644,41.7712C 16.4339,37.5358 13.8098,31.6889 13.8098,25.2178C 13.8098,18.7468 16.4339,12.8999 20.6705,8.69093 Z M 30.7008,25.2178C 30.7008,28.8037 33.6115,31.7144 37.1973,31.7144C 40.7832,31.7144 43.6939,28.8037 43.6939,25.2178C 43.6939,21.632 40.7832,18.7213 37.1973,18.7213C 33.6115,18.7213 30.7008,21.632 30.7008,25.2178 Z "/>
</svg>
