<?xml version="1.0" encoding="utf-8"?>
<!DOCTYPE svg PUBLIC "-//W3C//DTD SVG 1.1//EN" "http://www.w3.org/Graphics/SVG/1.1/DTD/svg11.dtd">
<svg xmlns="http://www.w3.org/2000/svg" xmlns:xlink="http://www.w3.org/1999/xlink" version="1.1" baseProfile="full" width="64" height="64" viewBox="0 0 64.00 64.00" enable-background="new 0 0 64.00 64.00" xml:space="preserve">
	<path fill="currentColor" d="M 49.9999,5.00006L 13.9996,5.00006C 11.1456,5.00006 8.85674,7.31412 8.85674,10.143L 8.85674,46.1432C 8.85674,48.9708 11.1456,51.2861 13.9996,51.2861L 24.2854,51.2861L 31.9997,59.0004L 39.7141,51.2861L 49.9999,51.2861C 52.8274,51.2861 55.1427,48.9708 55.1427,46.1432L 55.1427,10.143C 55.1427,7.31412 52.8274,5.00006 49.9999,5.00006 Z M 34.5712,46.1432L 29.4283,46.1432L 29.4283,41.0003L 34.5712,41.0003L 34.5712,46.1432 Z M 39.8949,26.2145L 37.5795,28.5799C 35.7288,30.4571 34.5712,32.0002 34.5712,35.8574L 29.4283,35.8574L 29.4283,34.5717C 29.4283,31.7428 30.586,29.1714 32.4366,27.2942L 35.626,24.055C 36.5751,23.1283 37.1426,21.8425 37.1426,20.4287C 37.1426,17.5999 34.8273,15.2858 31.9997,15.2858C 29.1709,15.2858 26.8569,17.5999 26.8569,20.4287L 21.714,20.4287C 21.714,14.7459 26.3169,10.143 31.9997,10.143C 37.6826,10.143 42.2855,14.7459 42.2855,20.4287C 42.2855,22.6914 41.3613,24.7493 39.8949,26.2145 Z "/>
</svg>
