<?xml version="1.0" encoding="utf-8"?>
<!DOCTYPE svg PUBLIC "-//W3C//DTD SVG 1.1//EN" "http://www.w3.org/Graphics/SVG/1.1/DTD/svg11.dtd">
<svg xmlns="http://www.w3.org/2000/svg" xmlns:xlink="http://www.w3.org/1999/xlink" version="1.1" baseProfile="full" width="64" height="64" viewBox="0 0 64.00 64.00" enable-background="new 0 0 64.00 64.00" xml:space="preserve">
	<path fill="currentColor" d="M 48.7389,25.318L 39.673,16.2498L 29.75,16.2498L 29.75,20.7498L 37.8271,20.7498L 42.3271,25.2498L 16.25,25.2498C 9.95048,25.2498 5.00004,30.2003 5.00004,36.4998C 5.00004,42.7994 9.95048,47.7498 16.25,47.7498C 21.785,47.7498 26.263,43.9484 27.2748,38.7498L 30.9871,38.7498L 37.2207,32.5174C 36.7462,33.7312 36.5,35.0825 36.5,36.4998C 36.5,42.7994 41.4505,47.7498 47.75,47.7498C 54.0496,47.7498 59,42.7994 59,36.4998C 59,30.5376 54.566,25.7674 48.7389,25.318 Z M 22.5946,38.7498C 21.6498,41.3382 19.1296,43.2498 16.25,43.2498C 12.5827,43.2498 9.50004,40.1671 9.50004,36.4998C 9.50004,32.8325 12.5827,29.7498 16.25,29.7498C 19.1296,29.7498 21.6498,31.6626 22.5946,34.2498L 16.25,34.2498L 16.25,38.7498L 22.5946,38.7498 Z M 47.75,43.2498C 44.0146,43.2498 41,40.2353 41,36.4998C 41,32.7644 44.0146,29.7498 47.75,29.7498C 51.4855,29.7498 54.5,32.7644 54.5,36.4998C 54.5,40.2353 51.4855,43.2498 47.75,43.2498 Z "/>
</svg>
