<?xml version="1.0" encoding="utf-8"?>
<!DOCTYPE svg PUBLIC "-//W3C//DTD SVG 1.1//EN" "http://www.w3.org/Graphics/SVG/1.1/DTD/svg11.dtd">
<svg xmlns="http://www.w3.org/2000/svg" xmlns:xlink="http://www.w3.org/1999/xlink" version="1.1" baseProfile="full" width="64" height="64" viewBox="0 0 64.00 64.00" enable-background="new 0 0 64.00 64.00" xml:space="preserve">
	<path fill="currentColor" d="M 50.0001,5.00016L 50.0001,11.0002L 44.0001,11.0002L 44.0001,5.00016L 20.0001,5.00016L 20.0001,11.0002L 14.0001,11.0002L 14.0001,5.00016L 8.00008,5.00016L 8.00008,59.0002L 14.0001,59.0002L 14.0001,53.0002L 20.0001,53.0002L 20.0001,59.0002L 44.0001,59.0002L 44.0001,53.0002L 50.0001,53.0002L 50.0001,59.0002L 56.0001,59.0002L 56.0001,5.00016L 50.0001,5.00016 Z M 20.0001,47.0002L 14.0001,47.0002L 14.0001,41.0002L 20.0001,41.0002L 20.0001,47.0002 Z M 20.0001,35.0002L 14.0001,35.0002L 14.0001,29.0002L 20.0001,29.0002L 20.0001,35.0002 Z M 20.0001,23.0002L 14.0001,23.0002L 14.0001,17.0002L 20.0001,17.0002L 20.0001,23.0002 Z M 50.0001,47.0002L 44.0001,47.0002L 44.0001,41.0002L 50.0001,41.0002L 50.0001,47.0002 Z M 50.0001,35.0002L 44.0001,35.0002L 44.0001,29.0002L 50.0001,29.0002L 50.0001,35.0002 Z M 50.0001,23.0002L 44.0001,23.0002L 44.0001,17.0002L 50.0001,17.0002L 50.0001,23.0002 Z "/>
</svg>
