<?xml version="1.0" encoding="utf-8"?>
<!DOCTYPE svg PUBLIC "-//W3C//DTD SVG 1.1//EN" "http://www.w3.org/Graphics/SVG/1.1/DTD/svg11.dtd">
<svg xmlns="http://www.w3.org/2000/svg" xmlns:xlink="http://www.w3.org/1999/xlink" version="1.1" baseProfile="full" viewBox="0 0 64.00 64.00" enable-background="new 0 0 64.00 64.00" xml:space="preserve">
	<path fill="currentColor" d="M 23.9,37.4001L 40.0999,37.4001L 40.0999,41.45L 23.9,41.45L 23.9,37.4001 Z M 41.4499,21.2C 43.6858,21.2 45.4999,23.0128 45.4999,25.2501C 45.4999,27.4873 43.6858,29.3001 41.4499,29.3001C 39.2141,29.3001 37.4,27.4873 37.4,25.2501C 37.4,23.0128 39.2141,21.2 41.4499,21.2 Z M 22.55,21.2C 24.7872,21.2 26.5999,23.0128 26.5999,25.2501C 26.5999,27.4873 24.7872,29.3001 22.55,29.3001C 20.3127,29.3001 18.4999,27.4873 18.4999,25.2501C 18.4999,23.0128 20.3127,21.2 22.55,21.2 Z M 31.9735,5.00009C 46.9026,5.00009 58.9999,17.0961 58.9999,32.0001C 58.9999,46.9027 46.9026,59.0001 31.9735,59.0001C 17.0695,59.0001 4.99992,46.9027 4.99992,32.0001C 4.99992,17.0961 17.0695,5.00009 31.9735,5.00009 Z M 31.9999,53.6C 43.9337,53.6 53.5999,43.9338 53.5999,32.0001C 53.5999,20.0663 43.9337,10.4001 31.9999,10.4001C 20.0662,10.4001 10.4,20.0663 10.4,32.0001C 10.4,43.9338 20.0662,53.6 31.9999,53.6 Z "/>
</svg>
