<?xml version="1.0" encoding="utf-8"?>
<!DOCTYPE svg PUBLIC "-//W3C//DTD SVG 1.1//EN" "http://www.w3.org/Graphics/SVG/1.1/DTD/svg11.dtd">
<svg xmlns="http://www.w3.org/2000/svg" xmlns:xlink="http://www.w3.org/1999/xlink" version="1.1" baseProfile="full" width="64" height="64" viewBox="0 0 64.00 64.00" enable-background="new 0 0 64.00 64.00" xml:space="preserve">
	<path fill="currentColor" d="M 47.481,32L 58.2042,21.2755C 59.2541,20.2243 59.2541,18.5269 58.2042,17.4758L 46.5099,5.78146C 45.4601,4.73027 43.7601,4.73027 42.7102,5.78146L 31.9857,16.506L 21.2611,5.78146C 20.7217,5.26973 20.048,5 19.348,5C 18.6743,5 17.9731,5.26973 17.4612,5.78146L 5.76708,17.4758C 4.7159,18.5269 4.7159,20.2243 5.76708,21.2755L 16.4917,32L 5.76708,42.7246C 4.7159,43.7771 4.7159,45.4717 5.76708,46.5245L 17.4612,58.2186C 18.5126,59.2711 20.2099,59.2711 21.2611,58.2186L 31.9857,47.4927L 42.7102,58.2186C 43.2496,58.758 43.9233,59.0001 44.6231,59.0001C 45.3232,59.0001 45.9968,58.7293 46.5363,58.2186L 58.2331,46.5245C 59.2805,45.4717 59.2805,43.7771 58.2331,42.7246L 47.481,32 Z M 32.0396,23.8623C 33.5211,23.8623 34.7342,25.0754 34.7342,26.5569C 34.7342,28.0384 33.5211,29.2515 32.0396,29.2515C 30.558,29.2515 29.3449,28.0384 29.3449,26.5569C 29.3449,25.0754 30.558,23.8623 32.0396,23.8623 Z M 19.348,29.1437L 9.56699,19.3887L 19.348,9.60776L 29.1029,19.3626L 19.348,29.1437 Z M 26.6503,34.6407C 25.1688,34.6407 23.9557,33.4276 23.9557,31.9461C 23.9557,30.4646 25.1688,29.2515 26.6503,29.2515C 28.1318,29.2515 29.3449,30.4646 29.3449,31.9461C 29.3449,33.4276 28.1318,34.6407 26.6503,34.6407 Z M 32.0396,40.03C 30.558,40.03 29.3449,38.8169 29.3449,37.3354C 29.3449,35.8538 30.558,34.6407 32.0396,34.6407C 33.5211,34.6407 34.7342,35.8538 34.7342,37.3354C 34.7342,38.8169 33.5211,40.03 32.0396,40.03 Z M 37.4288,29.2515C 38.9103,29.2515 40.1234,30.4646 40.1234,31.9461C 40.1234,33.4276 38.9103,34.6407 37.4288,34.6407C 35.9473,34.6407 34.7342,33.4276 34.7342,31.9461C 34.7342,30.4646 35.9473,29.2515 37.4288,29.2515 Z M 44.597,54.4187L 34.8131,44.6639L 44.597,34.8827L 54.349,44.6377L 44.597,54.4187 Z "/>
</svg>
