<?xml version="1.0" encoding="utf-8"?>
<!DOCTYPE svg PUBLIC "-//W3C//DTD SVG 1.1//EN" "http://www.w3.org/Graphics/SVG/1.1/DTD/svg11.dtd">
<svg xmlns="http://www.w3.org/2000/svg" xmlns:xlink="http://www.w3.org/1999/xlink" version="1.1" baseProfile="full" width="64" height="64" viewBox="0 0 64.00 64.00" enable-background="new 0 0 64.00 64.00" xml:space="preserve">
	<path fill="currentColor" d="M 23.6025,31.2965C 21.6708,31.2965 20.1025,32.8647 20.1025,34.7965C 20.1025,36.7271 21.6708,38.2965 23.6025,38.2965C 25.5343,38.2965 27.1026,36.7271 27.1026,34.7965C 27.1026,32.8647 25.5343,31.2965 23.6025,31.2965 Z M 40.4026,31.2965C 38.472,31.2965 36.9026,32.8647 36.9026,34.7965C 36.9026,36.7271 38.472,38.2965 40.4026,38.2965C 42.3332,38.2965 43.9026,36.7271 43.9026,34.7965C 43.9026,32.8647 42.3332,31.2965 40.4026,31.2965 Z M 32.0026,3.99637C 16.5466,3.99637 4.00249,16.5404 4.00249,31.9965C 4.00249,47.4511 16.5466,59.9965 32.0026,59.9965C 47.4572,59.9965 60.0027,47.4511 60.0027,31.9965C 60.0027,16.5404 47.4572,3.99637 32.0026,3.99637 Z M 32.0026,54.3965C 19.654,54.3965 9.60251,44.345 9.60251,31.9965C 9.60251,31.1844 9.65848,30.3721 9.74196,29.5887C 16.351,26.6479 21.5859,21.2449 24.33,14.5524C 29.398,21.7207 37.742,26.3964 47.1783,26.3964C 49.3632,26.3964 51.4632,26.145 53.4783,25.669C 54.0664,27.657 54.4026,29.7844 54.4026,31.9965C 54.4026,44.345 44.3511,54.3965 32.0026,54.3965 Z "/>
</svg>
