<?xml version="1.0" encoding="utf-8"?>
<!DOCTYPE svg PUBLIC "-//W3C//DTD SVG 1.1//EN" "http://www.w3.org/Graphics/SVG/1.1/DTD/svg11.dtd">
<svg xmlns="http://www.w3.org/2000/svg" xmlns:xlink="http://www.w3.org/1999/xlink" version="1.1" baseProfile="full" width="64" height="64" viewBox="0 0 64.00 64.00" enable-background="new 0 0 64.00 64.00" xml:space="preserve">
	<path fill="currentColor" d="M 10.6621,16.3799C 14.5908,16.3799 17.7748,19.5639 17.7748,23.4926C 17.7748,27.4213 14.5908,30.6052 10.6621,30.6052C 6.73342,30.6052 3.5495,27.4213 3.5495,23.4926C 3.5495,19.5639 6.73342,16.3799 10.6621,16.3799 Z M 23.4648,4.99979C 27.3935,4.99979 30.5775,8.18371 30.5775,12.1124C 30.5775,16.0411 27.3935,19.225 23.4648,19.225C 19.5361,19.225 16.3522,16.0411 16.3522,12.1124C 16.3522,8.18371 19.5361,4.99979 23.4648,4.99979 Z M 40.5351,4.99977C 44.4638,4.99977 47.6478,8.1837 47.6478,12.1124C 47.6478,16.0411 44.4638,19.225 40.5351,19.225C 36.6064,19.225 33.4225,16.0411 33.4225,12.1124C 33.4225,8.1837 36.6064,4.99977 40.5351,4.99977 Z M 53.3379,16.38C 57.2666,16.38 60.4505,19.5639 60.4505,23.4926C 60.4505,27.4213 57.2666,30.6052 53.3379,30.6052C 49.4092,30.6052 46.2253,27.4213 46.2253,23.4926C 46.2253,19.5639 49.4092,16.38 53.3379,16.38 Z M 47.192,38.7404C 50.9207,42.4688 55.4995,46.5946 54.6187,52.3988C 53.7936,55.2715 51.7153,58.1724 47.9894,59.0002C 45.914,59.3974 39.2847,57.747 32.2279,57.747L 31.7152,57.747C 24.6595,57.747 18.0303,59.4253 15.9536,59.0002C 12.2263,58.1724 10.1494,55.2994 9.32434,52.3988C 8.47146,46.6226 13.0514,42.4966 16.7787,38.7708L 23.8345,30.4914C 25.1722,28.9548 26.8226,27.4185 28.8133,26.7362L 29.7524,26.4793C 30.4927,26.3376 31.2609,26.3376 32,26.3376L 34.2171,26.4515L 35.1563,26.7072C 37.1509,27.3905 38.8292,28.9272 40.1352,30.4635L 47.192,38.7404 Z "/>
</svg>
