<?xml version="1.0" encoding="utf-8"?>
<!DOCTYPE svg PUBLIC "-//W3C//DTD SVG 1.1//EN" "http://www.w3.org/Graphics/SVG/1.1/DTD/svg11.dtd">
<svg xmlns="http://www.w3.org/2000/svg" xmlns:xlink="http://www.w3.org/1999/xlink" version="1.1" baseProfile="full" width="64" height="64" viewBox="0 0 64.00 64.00" enable-background="new 0 0 64.00 64.00" xml:space="preserve">
	<path fill="currentColor" d="M 15.2627,28.2357C 19.7427,37.0404 26.9599,44.2258 35.7646,48.7376L 42.6096,41.8925C 43.4481,41.054 44.6938,40.7744 45.7814,41.1452C 49.2662,42.2994 53.0306,42.9195 56.889,42.9195C 58.5995,42.9195 60.0002,44.3201 60.0002,46.0306L 60.0002,56.889C 60.0002,58.5995 58.5995,60.0001 56.889,60.0001C 27.6754,60.0001 4.00017,36.3264 4.00017,7.11121C 4.00017,5.40071 5.40077,4.0001 7.11128,4.0001L 18.0002,4.0001C 19.7107,4.0001 21.1113,5.40071 21.1113,7.11121C 21.1113,11.0001 21.7341,14.734 22.884,18.2172C 23.2275,19.3064 22.9782,20.5204 22.1062,21.3906L 15.2627,28.2357 Z "/>
</svg>
