<?xml version="1.0" encoding="utf-8"?>
<!DOCTYPE svg PUBLIC "-//W3C//DTD SVG 1.1//EN" "http://www.w3.org/Graphics/SVG/1.1/DTD/svg11.dtd">
<svg xmlns="http://www.w3.org/2000/svg" xmlns:xlink="http://www.w3.org/1999/xlink" version="1.1" baseProfile="full" width="64" height="64" viewBox="0 0 64.00 64.00" enable-background="new 0 0 64.00 64.00" xml:space="preserve">
	<path fill="currentColor" d="M 32,32.7499C 35.7206,32.7499 38.75,29.7205 38.75,25.9999C 38.75,22.2793 35.7206,19.2499 32,19.2499C 28.2794,19.2499 25.25,22.2793 25.25,25.9999C 25.25,29.7205 28.2794,32.7499 32,32.7499 Z M 45.5,44.7499C 45.5,40.2499 36.5,37.9999 32,37.9999C 27.5,37.9999 18.5,40.2499 18.5,44.7499L 18.5,46.9999L 45.5,46.9999L 45.5,44.7499 Z M 53,4.99992L 11,4.99992C 7.69971,4.99992 5,7.69963 5,10.9999L 5,52.9999C 5,56.2987 7.69971,58.9999 11,58.9999L 53,58.9999C 56.2988,58.9999 59,56.2987 59,52.9999L 59,10.9999C 59,7.69963 56.2988,4.99992 53,4.99992 Z M 53,52.9999L 11,52.9999L 11,10.9999L 53,10.9999L 53,52.9999 Z "/>
</svg>
