<?xml version="1.0" encoding="utf-8"?>
<!DOCTYPE svg PUBLIC "-//W3C//DTD SVG 1.1//EN" "http://www.w3.org/Graphics/SVG/1.1/DTD/svg11.dtd">
<svg xmlns="http://www.w3.org/2000/svg" xmlns:xlink="http://www.w3.org/1999/xlink" version="1.1" baseProfile="full" width="64" height="64" viewBox="0 0 64.00 64.00" enable-background="new 0 0 64.00 64.00" xml:space="preserve">
	<path fill="currentColor" d="M 34.7,5.06721L 34.7,13.249C 43.8546,14.5712 50.9,22.4009 50.9,31.9327C 50.9,34.3638 50.4148,36.6577 49.6026,38.7908L 56.6242,42.9226C 58.1351,39.574 59,35.8483 59,31.9327C 59,17.9462 48.3344,6.41722 34.7,5.06721 Z M 32,50.8327C 21.5507,50.8327 13.1,42.382 13.1,31.9327C 13.1,22.4009 20.1467,14.5712 29.3,13.249L 29.3,5.06721C 15.6377,6.41722 4.99996,17.92 4.99996,31.9327C 4.99996,46.8354 17.0695,58.9327 31.9735,58.9327C 40.9094,58.9327 48.8223,54.5873 53.7344,47.8902L 46.7155,43.7585C 43.2587,48.0801 37.9669,50.8327 32,50.8327 Z "/>
</svg>
