<?xml version="1.0" encoding="utf-8"?>
<!DOCTYPE svg PUBLIC "-//W3C//DTD SVG 1.1//EN" "http://www.w3.org/Graphics/SVG/1.1/DTD/svg11.dtd">
<svg xmlns="http://www.w3.org/2000/svg" xmlns:xlink="http://www.w3.org/1999/xlink" version="1.1" baseProfile="full" width="64" height="64" viewBox="0 0 64.00 64.00" enable-background="new 0 0 64.00 64.00" xml:space="preserve">
	<path fill="currentColor" d="M 8.34859,17.5548C 6.37649,18.3116 5.00004,20.3088 5.00004,22.5501L 5.00004,54.9501C 5.00004,57.919 7.40332,60.3501 10.4,60.3501L 53.6,60.3501C 56.5954,60.3501 59,57.919 59,54.9501L 59,22.5501C 59,19.5533 56.5954,17.1501 53.6,17.1501L 22.0095,17.1501L 44.3134,8.13256L 42.4758,3.65006L 8.34859,17.5548 Z M 18.5,54.9501C 14.0175,54.9501 10.4,51.3326 10.4,46.8501C 10.4,42.3676 14.0175,38.7501 18.5,38.7501C 22.9825,38.7501 26.6,42.3676 26.6,46.8501C 26.6,51.3326 22.9825,54.9501 18.5,54.9501 Z M 53.6,33.3501L 48.2,33.3501L 48.2,27.9501L 42.8,27.9501L 42.8,33.3501L 10.4,33.3501L 10.4,22.5501L 53.6,22.5501L 53.6,33.3501 Z "/>
</svg>
