<?xml version="1.0" encoding="utf-8"?>
<!DOCTYPE svg PUBLIC "-//W3C//DTD SVG 1.1//EN" "http://www.w3.org/Graphics/SVG/1.1/DTD/svg11.dtd">
<svg xmlns="http://www.w3.org/2000/svg" xmlns:xlink="http://www.w3.org/1999/xlink" version="1.1" baseProfile="full" width="64" height="64" viewBox="0 0 64.00 64.00" enable-background="new 0 0 64.00 64.00" xml:space="preserve">
	<path fill="currentColor" d="M 31.9999,28.3184C 22.5257,28.3184 14.8181,36.0271 14.8181,45.5002L 19.7272,45.5002C 19.7272,38.7261 25.2259,33.2275 31.9999,33.2275C 38.774,33.2275 44.2727,38.7261 44.2727,45.5002L 49.1818,45.5002C 49.1818,36.0271 41.473,28.3184 31.9999,28.3184 Z M 31.9999,18.5002C 17.1014,18.5002 4.99994,30.6016 4.99994,45.5002L 9.90904,45.5002C 9.90904,33.3257 19.8254,23.4093 31.9999,23.4093C 44.1745,23.4093 54.0909,33.3257 54.0909,45.5002L 58.9999,45.5002C 58.9999,30.6016 46.8998,18.5002 31.9999,18.5002 Z "/>
</svg>
