<?xml version="1.0" encoding="utf-8"?>
<!DOCTYPE svg PUBLIC "-//W3C//DTD SVG 1.1//EN" "http://www.w3.org/Graphics/SVG/1.1/DTD/svg11.dtd">
<svg xmlns="http://www.w3.org/2000/svg" xmlns:xlink="http://www.w3.org/1999/xlink" version="1.1" baseProfile="full" width="64" height="64" viewBox="0 0 64.00 64.00" enable-background="new 0 0 64.00 64.00" xml:space="preserve">
	<path fill="currentColor" d="M 14.0001,18.4998L 54.5001,18.4998L 54.5001,13.9998L 14.0001,13.9998C 11.5249,13.9998 9.50008,16.0246 9.50008,18.4998L 9.50008,43.2498L 5.00008,43.2498L 5.00008,49.9998L 36.5001,49.9998L 36.5001,43.2498L 14.0001,43.2498L 14.0001,18.4998 Z M 56.7501,22.9998L 43.2501,22.9998C 42.013,22.9998 41.0001,24.0128 41.0001,25.2498L 41.0001,47.7498C 41.0001,48.9869 42.013,49.9998 43.2501,49.9998L 56.7501,49.9998C 57.9871,49.9998 59.0001,48.9869 59.0001,47.7498L 59.0001,25.2498C 59.0001,24.0128 57.9871,22.9998 56.7501,22.9998 Z M 54.5001,43.2498L 45.5001,43.2498L 45.5001,27.4998L 54.5001,27.4998L 54.5001,43.2498 Z "/>
</svg>
