<?xml version="1.0" encoding="utf-8"?>
<!DOCTYPE svg PUBLIC "-//W3C//DTD SVG 1.1//EN" "http://www.w3.org/Graphics/SVG/1.1/DTD/svg11.dtd">
<svg xmlns="http://www.w3.org/2000/svg" xmlns:xlink="http://www.w3.org/1999/xlink" version="1.1" baseProfile="full" width="64" height="64" viewBox="0 0 64.00 64.00" enable-background="new 0 0 64.00 64.00" xml:space="preserve">
	<path fill="currentColor" d="M 29.3,23.9L 23.9,23.9L 23.9,5.00004L 18.5,5.00004L 18.5,23.9L 13.1,23.9L 13.1,5.00004L 7.70004,5.00004L 7.70004,23.9C 7.70004,29.6243 12.1825,34.2675 17.825,34.6182L 17.825,59L 24.575,59L 24.575,34.6182C 30.2175,34.2675 34.7,29.6243 34.7,23.9L 34.7,5.00004L 29.3,5.00004L 29.3,23.9 Z M 42.8,15.8L 42.8,37.4L 49.55,37.4L 49.55,59L 56.3,59L 56.3,5.00004C 48.8486,5.00004 42.8,11.0486 42.8,15.8 Z "/>
</svg>
