<?xml version="1.0" encoding="utf-8"?>
<!DOCTYPE svg PUBLIC "-//W3C//DTD SVG 1.1//EN" "http://www.w3.org/Graphics/SVG/1.1/DTD/svg11.dtd">
<svg xmlns="http://www.w3.org/2000/svg" xmlns:xlink="http://www.w3.org/1999/xlink" version="1.1" baseProfile="full" width="64" height="64" viewBox="0 0 64.00 64.00" enable-background="new 0 0 64.00 64.00" xml:space="preserve">
	<path fill="currentColor" d="M 56.6007,13.6996L 59.0001,11.3002C 54.7989,7.10048 49.3995,4.99989 44.0001,4.99989C 38.6007,4.99989 33.1998,7.10048 29.0001,11.3002L 31.3995,13.6996C 35.0001,10.3993 39.5001,8.60048 44.0001,8.60048C 48.5001,8.60048 53.0001,10.3993 56.6007,13.6996 Z M 53.8995,16.1005C 51.2012,13.3993 47.6007,11.8993 44.0001,11.8993C 40.3995,11.8993 36.7989,13.3993 34.1007,16.1005L 36.5001,18.4999C 38.6007,16.3993 41.2989,15.4999 44.0001,15.4999C 46.7012,15.4999 49.3995,16.3993 51.5001,18.4999L 53.8995,16.1005 Z M 53.0001,34.9999L 47.0001,34.9999L 47.0001,22.9999L 41.0001,22.9999L 41.0001,34.9999L 11.0001,34.9999C 7.69978,34.9999 5.00007,37.7011 5.00007,40.9999L 5.00007,52.9999C 5.00007,56.2987 7.69978,58.9999 11.0001,58.9999L 53.0001,58.9999C 56.2989,58.9999 59.0001,56.2987 59.0001,52.9999L 59.0001,40.9999C 59.0001,37.7011 56.2989,34.9999 53.0001,34.9999 Z M 20.0001,49.9999L 14.0001,49.9999L 14.0001,43.9999L 20.0001,43.9999L 20.0001,49.9999 Z M 30.5001,49.9999L 24.5001,49.9999L 24.5001,43.9999L 30.5001,43.9999L 30.5001,49.9999 Z M 41.0001,49.9999L 35.0001,49.9999L 35.0001,43.9999L 41.0001,43.9999L 41.0001,49.9999 Z "/>
</svg>
