<?xml version="1.0" encoding="utf-8"?>
<!DOCTYPE svg PUBLIC "-//W3C//DTD SVG 1.1//EN" "http://www.w3.org/Graphics/SVG/1.1/DTD/svg11.dtd">
<svg xmlns="http://www.w3.org/2000/svg" xmlns:xlink="http://www.w3.org/1999/xlink" version="1.1" baseProfile="full" viewBox="0 0 64.00 64.00" enable-background="new 0 0 64.00 64.00" xml:space="preserve">
	<path fill="currentColor" d="M 31.9736,5.00004C 17.0696,5.00004 5.00004,17.0682 5.00004,32C 5.00004,46.9319 17.0696,59 31.9736,59C 46.8765,59 59,46.9319 59,32C 59,17.0682 46.9027,5.00004 31.9736,5.00004 Z M 32,53.6C 20.0663,53.6 10.4,43.9338 10.4,32C 10.4,20.0663 20.0663,10.4 32,10.4C 43.9337,10.4 53.6,20.0663 53.6,32C 53.6,43.9338 43.9337,53.6 32,53.6 Z M 43.2852,20.5515L 40.4243,23.4135L 37.5634,20.5515L 34.7,23.4135L 37.5634,26.2758L 34.7,29.1378L 37.5634,32L 40.4243,29.1378L 43.2852,32L 46.1486,29.1378L 43.2852,26.2758L 46.1486,23.4135L 43.2852,20.5515 Z M 20.7135,32L 23.5758,29.1378L 26.4378,32L 29.3,29.1378L 26.4378,26.2758L 29.3,23.4135L 26.4378,20.5515L 23.5758,23.4135L 20.7135,20.5515L 17.8515,23.4135L 20.7135,26.2758L 17.8515,29.1378L 20.7135,32 Z M 32,37.4C 25.7087,37.4 20.3628,41.342 18.2033,46.85L 45.7954,46.85C 43.6384,41.342 38.2913,37.4 32,37.4 Z "/>
</svg>
