<?xml version="1.0" encoding="utf-8"?>
<!DOCTYPE svg PUBLIC "-//W3C//DTD SVG 1.1//EN" "http://www.w3.org/Graphics/SVG/1.1/DTD/svg11.dtd">
<svg xmlns="http://www.w3.org/2000/svg" xmlns:xlink="http://www.w3.org/1999/xlink" version="1.1" baseProfile="full" viewBox="0 0 64.00 64.00" enable-background="new 0 0 64.00 64.00" xml:space="preserve">
	<path fill="currentColor" d="M 48.2648,43.1693C 46.2051,43.1693 44.3625,43.982 42.9516,45.2553L 23.6239,34.0069C 23.7589,33.3821 23.8673,32.7599 23.8673,32.1088C 23.8673,31.4576 23.7589,30.8355 23.6239,30.2107L 42.7347,19.0694C 44.1986,20.4249 46.1232,21.2655 48.2648,21.2655C 52.7653,21.2655 56.3973,17.6334 56.3973,13.133C 56.3973,8.63247 52.7653,5.00045 48.2648,5.00045C 43.7643,5.00045 40.1323,8.63247 40.1323,13.133C 40.1323,13.7841 40.2408,14.4062 40.3758,15.0311L 21.2649,26.1723C 19.8011,24.8169 17.8764,23.9763 15.7348,23.9763C 11.2343,23.9763 7.60232,27.6083 7.60232,32.1088C 7.60232,36.6093 11.2343,40.2413 15.7348,40.2413C 17.8764,40.2413 19.8011,39.3996 21.2649,38.0442L 40.5666,49.3215C 40.4289,49.8932 40.3495,50.4891 40.3495,51.0846C 40.3495,55.4474 43.902,59 48.2648,59C 52.6277,59 56.1802,55.4474 56.1802,51.0846C 56.1802,46.7218 52.6277,43.1693 48.2648,43.1693 Z "/>
</svg>
