<?xml version="1.0" encoding="utf-8"?>
<!DOCTYPE svg PUBLIC "-//W3C//DTD SVG 1.1//EN" "http://www.w3.org/Graphics/SVG/1.1/DTD/svg11.dtd">
<svg xmlns="http://www.w3.org/2000/svg" xmlns:xlink="http://www.w3.org/1999/xlink" version="1.1" baseProfile="full" width="64" height="64" viewBox="0 0 64.00 64.00" enable-background="new 0 0 64.00 64.00" xml:space="preserve">
	<path fill="currentColor" d="M 51.6365,22.1817L 44.2728,22.1817L 44.2728,12.3636L 9.9092,12.3636C 7.20896,12.3636 5.00011,14.5724 5.00011,17.2726L 5.00011,44.2726L 9.9092,44.2726C 9.9092,48.3476 13.1978,51.6363 17.2728,51.6363C 21.3478,51.6363 24.6365,48.3476 24.6365,44.2726L 39.3637,44.2726C 39.3637,48.3476 42.6524,51.6363 46.7274,51.6363C 50.8024,51.6363 54.091,48.3476 54.091,44.2726L 59.0001,44.2726L 59.0001,31.9999L 51.6365,22.1817 Z M 17.2728,47.9545C 15.2353,47.9545 13.591,46.3102 13.591,44.2726C 13.591,42.2351 15.2353,40.5908 17.2728,40.5908C 19.3104,40.5908 20.9547,42.2351 20.9547,44.2726C 20.9547,46.3102 19.3104,47.9545 17.2728,47.9545 Z M 50.4092,25.8636L 55.2201,31.9999L 44.2728,31.9999L 44.2728,25.8636L 50.4092,25.8636 Z M 46.7274,47.9545C 44.6898,47.9545 43.0456,46.3102 43.0456,44.2726C 43.0456,42.2351 44.6898,40.5908 46.7274,40.5908C 48.7649,40.5908 50.4092,42.2351 50.4092,44.2726C 50.4092,46.3102 48.7649,47.9545 46.7274,47.9545 Z "/>
</svg>
