<?xml version="1.0" encoding="utf-8"?>
<!DOCTYPE svg PUBLIC "-//W3C//DTD SVG 1.1//EN" "http://www.w3.org/Graphics/SVG/1.1/DTD/svg11.dtd">
<svg xmlns="http://www.w3.org/2000/svg" xmlns:xlink="http://www.w3.org/1999/xlink" version="1.1" baseProfile="full" width="64" height="64" viewBox="0 0 64.00 64.00" enable-background="new 0 0 64.00 64.00" xml:space="preserve">
	<path fill="currentColor" d="M 5.00004,46.8503L 45.5,46.8503L 45.5,54.9503L 5.00004,54.9503L 5.00004,46.8503 Z M 54.95,46.8503L 59,46.8503L 59,54.9503L 54.95,54.9503L 54.95,46.8503 Z M 48.2,46.8503L 52.25,46.8503L 52.25,54.9503L 48.2,54.9503L 48.2,46.8503 Z M 50.494,24.5213C 52.1709,22.8745 53.194,20.6071 53.194,18.0955C 53.194,13.1003 49.144,9.05025 44.15,9.05025L 44.15,13.1003C 46.9027,13.1003 49.144,15.3415 49.144,18.0955C 49.144,20.8495 46.9027,23.0908 44.15,23.0908L 44.15,27.1408C 50.1986,27.1408 54.95,32.0821 54.95,38.1279L 54.95,44.1503L 59,44.1503L 59,38.1017C 59,32.1083 55.5459,26.9245 50.494,24.5213 Z M 42.8791,31.1908L 38.75,31.1908C 35.9974,31.1908 33.7561,28.5434 33.7561,25.7908C 33.7561,23.0368 35.9974,21.0658 38.75,21.0658L 38.75,17.0158C 33.7561,17.0158 29.7048,21.0658 29.7048,26.0597C 29.7048,31.055 33.7561,35.105 38.75,35.105L 42.8791,35.105C 45.7163,35.105 48.2,37.1035 48.2,40.6408L 48.2,44.1503L 52.25,44.1503L 52.25,39.7206C 52.25,34.8347 47.9311,31.1908 42.8791,31.1908 Z "/>
</svg>
