<?xml version="1.0" encoding="utf-8"?>
<!DOCTYPE svg PUBLIC "-//W3C//DTD SVG 1.1//EN" "http://www.w3.org/Graphics/SVG/1.1/DTD/svg11.dtd">
<svg xmlns="http://www.w3.org/2000/svg" xmlns:xlink="http://www.w3.org/1999/xlink" version="1.1" baseProfile="full" width="64" height="64" viewBox="0 0 64.00 64.00" enable-background="new 0 0 64.00 64.00" xml:space="preserve">
	<path fill="currentColor" d="M 32,5.00001C 17.09,5.00001 5.00002,17.0897 5.00002,32C 5.00002,46.9103 17.09,59 32,59C 46.9113,59 59,46.9099 59,32C 59,17.0901 46.911,5.00001 32,5.00001 Z M 37.3417,56.1674C 35.5875,56.5124 33.4051,56.711 31.6302,56.7451C 29.917,56.7198 28.2456,56.5199 26.6326,56.1619C 26.3543,56.0906 26.0637,56.0142 25.7493,55.9313L 22.5798,47.4372L 25.1299,42.3846L 38.8704,42.3846L 38.9445,42.5243L 41.4549,47.5676L 38.3891,55.9119C 38.0429,56.0045 37.6937,56.0896 37.3417,56.1674 Z M 23.378,8.80082L 30.8318,13.9017L 30.8318,21.4496L 21.6158,29.2468L 15.2029,26.3249L 14.662,26.0783L 11.7631,17.7681C 14.6201,13.7177 18.6608,10.5597 23.378,8.80082 Z M 52.1935,17.7298L 49.2816,26.1002L 42.273,29.266L 33.0385,21.4496L 33.0385,13.9017L 40.5149,8.78534C 45.235,10.5355 49.3295,13.6858 52.1935,17.7298 Z M 7.35526,34.2605L 14.3332,28.2221L 20.7637,31.1556L 20.8363,31.1887L 23.3958,41.2212L 20.7435,46.2226L 11.6751,46.1037C 9.29344,42.682 7.75312,38.6339 7.35526,34.2605 Z M 43.2568,46.2223L 40.6044,41.221L 43.1683,31.1719L 49.6583,28.2147L 56.6449,34.2605C 56.2469,38.6339 54.7065,42.682 52.3252,46.1037L 43.2568,46.2223 Z "/>
</svg>
