<?xml version="1.0" encoding="utf-8"?>
<!DOCTYPE svg PUBLIC "-//W3C//DTD SVG 1.1//EN" "http://www.w3.org/Graphics/SVG/1.1/DTD/svg11.dtd">
<svg xmlns="http://www.w3.org/2000/svg" xmlns:xlink="http://www.w3.org/1999/xlink" version="1.1" baseProfile="full" width="64" height="64" viewBox="0 0 64.00 64.00" enable-background="new 0 0 64.00 64.00" xml:space="preserve">
	<path fill="currentColor" d="M 44.15,32C 47.8758,32 50.8736,28.9758 50.8736,25.25C 50.8736,21.5243 47.8758,18.5 44.15,18.5C 40.4243,18.5 37.4,21.5243 37.4,25.25C 37.4,28.9758 40.4243,32 44.15,32 Z M 23.9,29.3C 28.3825,29.3 31.9736,25.6825 31.9736,21.2C 31.9736,16.7175 28.3825,13.1 23.9,13.1C 19.4175,13.1 15.8,16.7175 15.8,21.2C 15.8,25.6825 19.4175,29.3 23.9,29.3 Z M 44.15,37.4C 39.2087,37.4 29.3,39.8838 29.3,44.825L 29.3,50.9L 59,50.9L 59,44.825C 59,39.8838 49.0913,37.4 44.15,37.4 Z M 23.9,34.7C 17.6087,34.7 5.00004,37.8587 5.00004,44.15L 5.00004,50.9L 23.9,50.9L 23.9,44.825C 23.9,42.5311 24.7913,38.5075 30.2993,35.4569C 27.95,34.969 25.6825,34.7 23.9,34.7 Z "/>
</svg>
