<?xml version="1.0" encoding="utf-8"?>
<!DOCTYPE svg PUBLIC "-//W3C//DTD SVG 1.1//EN" "http://www.w3.org/Graphics/SVG/1.1/DTD/svg11.dtd">
<svg xmlns="http://www.w3.org/2000/svg" xmlns:xlink="http://www.w3.org/1999/xlink" version="1.1" baseProfile="full" width="64" height="64" viewBox="0 0 64.00 64.00" enable-background="new 0 0 64.00 64.00" xml:space="preserve">
	<path fill="currentColor" d="M 9.68883,23.0261C 9.68883,27.4738 12.1116,31.3431 15.7156,33.4042L 15.3179,33.3199L 14.8116,33.2114L 14.7995,33.2114C 10.629,32.8497 7.26605,29.306 6.39823,24.9185C 5.61474,24.8583 5,24.0386 5,23.002C 5,22.0136 5.56654,21.1819 6.28976,21.0614C 7.01297,15.9506 11.1112,11.9971 16.0652,11.9971L 16.9933,11.9971C 12.7022,13.8051 9.68883,18.0841 9.68883,23.0261 Z M 57.204,12.1176C 58.3732,15.131 59,18.8676 59,22.7489C 59,26.6301 58.3732,30.3546 57.2161,33.368L 56.7942,34.4047C 56.0107,36.1404 55.0706,37.5506 53.9736,38.5752C 52.708,39.7564 51.2737,40.8412 49.791,40.9256L 49.4657,40.9377C 48.5737,40.9377 47.7058,40.7328 46.862,40.323L 45.6447,39.6962C 42.9687,38.5391 35.4835,36.3212 31.771,36.2127C 31.2286,37.1649 30.5656,38.6113 30.3125,39.865C 30.0956,40.9979 29.6254,43.1556 29.4687,47.2538C 29.3121,51.0868 29.5772,54.3051 29.8665,57.0894L 29.963,57.8729C 30.0112,58.5961 29.6375,58.994 28.8419,58.994L 19.5848,58.994C 18.8255,58.994 18.5844,58.5721 18.5603,58.2225L 18.5361,57.427C 18.7411,48.7725 21.429,40.564 21.5857,39.9855C 21.8629,38.9248 22.2969,37.8761 22.5259,36.285C 22.7308,34.8145 19.2714,34.7181 17.7045,33.4042C 14.2571,31.3551 11.9429,27.4618 11.9429,23.0261C 11.9429,18.0841 14.9563,13.8051 19.0545,11.9971L 24.1531,11.9971L 26.5036,11.9729C 33.555,11.5873 40.1964,9.51403 46.1027,6.01849L 46.5366,5.77742L 46.5487,5.77742C 47.4768,5.27121 48.4531,5.00601 49.4535,5.00601C 51.0566,5.00601 52.6116,5.68102 53.9616,6.94664C 55.0464,7.98326 55.9986,9.38142 56.7821,11.1172L 57.204,12.1176 Z M 54.4196,33.3922C 55.5165,30.7886 56.2157,26.9917 56.2157,22.773C 56.2157,18.5301 55.5165,14.7212 54.4076,12.1176C 53.4554,9.91183 52.2259,8.56181 50.8638,8.56181C 49.5138,8.56181 48.2723,9.89977 47.3322,12.1176C 46.2232,14.7212 45.5241,18.5301 45.5241,22.773C 45.5241,26.9917 46.2232,30.7886 47.32,33.3922C 48.2603,35.6341 49.5018,37.406 50.8638,37.406C 52.2259,37.406 53.4795,35.6221 54.4196,33.3922 Z "/>
</svg>
