<?xml version="1.0" encoding="utf-8"?>
<!DOCTYPE svg PUBLIC "-//W3C//DTD SVG 1.1//EN" "http://www.w3.org/Graphics/SVG/1.1/DTD/svg11.dtd">
<svg xmlns="http://www.w3.org/2000/svg" xmlns:xlink="http://www.w3.org/1999/xlink" version="1.1" baseProfile="full" width="64" height="64" viewBox="0 0 64.00 64.00" enable-background="new 0 0 64.00 64.00" xml:space="preserve">
	<path fill="currentColor" d="M 35.0001,4.99992L 29.0001,4.99992L 29.0001,34.9999L 35.0001,34.9999L 35.0001,4.99992 Z M 49.4904,11.5096L 45.2306,15.7694C 49.9707,19.5796 53.0001,25.4302 53.0001,31.9999C 53.0001,43.6102 43.6103,52.9999 32.0001,52.9999C 20.3898,52.9999 11.0001,43.6102 11.0001,31.9999C 11.0001,25.4302 14.0295,19.5796 18.7404,15.7402L 14.5098,11.5096C 8.69011,16.4593 5.00008,23.7793 5.00008,31.9999C 5.00008,46.909 17.0894,58.9999 32.0001,58.9999C 46.9122,58.9999 59.0001,46.909 59.0001,31.9999C 59.0001,23.7793 55.3086,16.4593 49.4904,11.5096 Z "/>
</svg>
