<?xml version="1.0" encoding="utf-8"?>
<!DOCTYPE svg PUBLIC "-//W3C//DTD SVG 1.1//EN" "http://www.w3.org/Graphics/SVG/1.1/DTD/svg11.dtd">
<svg xmlns="http://www.w3.org/2000/svg" xmlns:xlink="http://www.w3.org/1999/xlink" version="1.1" baseProfile="full" width="64" height="64" viewBox="0 0 64.00 64.00" enable-background="new 0 0 64.00 64.00" xml:space="preserve">
	<path fill="currentColor" d="M 31.9736,5.00008C 46.9027,5.00008 59,17.0961 59,32.0001C 59,46.9027 46.9027,59.0001 31.9736,59.0001C 17.0696,59.0001 5,46.9027 5,32.0001C 5,17.0961 17.0696,5.00008 31.9736,5.00008 Z M 32,53.6C 43.9338,53.6 53.6,43.9338 53.6,32.0001C 53.6,20.0663 43.9338,10.4001 32,10.4001C 20.0663,10.4001 10.4001,20.0663 10.4001,32.0001C 10.4001,43.9338 20.0663,53.6 32,53.6 Z M 33.35,18.5001L 33.35,32.675L 45.5,39.8838L 43.475,43.2061L 29.3,34.7L 29.3,18.5001L 33.35,18.5001 Z "/>
</svg>
