<?xml version="1.0" encoding="utf-8"?>
<!DOCTYPE svg PUBLIC "-//W3C//DTD SVG 1.1//EN" "http://www.w3.org/Graphics/SVG/1.1/DTD/svg11.dtd">
<svg xmlns="http://www.w3.org/2000/svg" xmlns:xlink="http://www.w3.org/1999/xlink" version="1.1" baseProfile="full" width="64" height="64" viewBox="0 0 64.00 64.00" enable-background="new 0 0 64.00 64.00" xml:space="preserve">
	<path fill="currentColor" d="M 23.6429,26.1892L 23.6429,16.5717C 23.6429,13.0234 26.5231,10.1432 30.0714,10.1432C 33.6197,10.1432 36.4999,13.0234 36.4999,16.5717L 36.4999,26.1892C 39.6113,24.1064 41.6427,20.5833 41.6427,16.5717C 41.6427,10.1684 36.4747,5.00038 30.0714,5.00038C 23.6681,5.00038 18.5001,10.1684 18.5001,16.5717C 18.5001,20.5833 20.5315,24.1064 23.6429,26.1892 Z M 48.945,38.0945L 37.2708,32.2814C 36.834,32.103 36.3718,32.0001 35.8823,32.0001L 33.9285,32.0001L 33.9285,16.5717C 33.9285,14.4371 32.206,12.7146 30.0714,12.7146C 27.9369,12.7146 26.2143,14.4371 26.2143,16.5717L 26.2143,44.189L 17.3939,42.3358C 17.1892,42.3109 17.0084,42.2605 16.7775,42.2605C 15.9801,42.2605 15.2607,42.5945 14.7459,43.1093L 12.7145,45.1659L 25.4169,57.8696C 26.1114,58.5629 27.0881,58.9998 28.1429,58.9998L 45.6027,58.9998C 47.5312,58.9998 49.0229,57.586 49.3068,55.7076L 51.2353,42.1576C 51.2603,41.9769 51.2855,41.7984 51.2855,41.6428C 51.2855,40.0483 50.3086,38.6595 48.945,38.0945 Z "/>
</svg>
