<?xml version="1.0" encoding="utf-8"?>
<!DOCTYPE svg PUBLIC "-//W3C//DTD SVG 1.1//EN" "http://www.w3.org/Graphics/SVG/1.1/DTD/svg11.dtd">
<svg xmlns="http://www.w3.org/2000/svg" xmlns:xlink="http://www.w3.org/1999/xlink" version="1.1" baseProfile="full" width="64" height="64" viewBox="0 0 64.00 64.00" enable-background="new 0 0 64.00 64.00" xml:space="preserve">
	<path fill="currentColor" d="M 56,26L 47,26L 47,22.5797C 52.1621,21.2306 56,16.5797 56,11L 47,11L 47,8C 47,6.35059 45.6494,5 44,5L 20,5C 18.3506,5 17,6.35059 17,8L 17,11L 8,11C 8,16.5797 11.8394,21.2306 17,22.5797L 17,26L 8,26C 8,31.5797 11.8394,36.2306 17,37.5782L 17,41L 8,41C 8,46.5782 11.8394,51.2306 17,52.5782L 17,56C 17,57.6494 18.3506,59 20,59L 44,59C 45.6494,59 47,57.6494 47,56L 47,52.5782C 52.1621,51.2306 56,46.5782 56,41L 47,41L 47,37.5782C 52.1621,36.2306 56,31.5797 56,26 Z M 32,53C 28.6703,53 26,50.2988 26,47C 26,43.7012 28.6703,41 32,41C 35.2988,41 38,43.7012 38,47C 38,50.2988 35.3282,53 32,53 Z M 32,38C 28.6703,38 26,35.2988 26,32C 26,28.6997 28.6703,26 32,26C 35.2988,26 38,28.6997 38,32C 38,35.2988 35.3282,38 32,38 Z M 32,23C 28.6703,23 26,20.3003 26,17C 26,13.6703 28.6703,11 32,11C 35.2988,11 38,13.6703 38,17C 38,20.3003 35.3282,23 32,23 Z "/>
</svg>
