<?xml version="1.0" encoding="utf-8"?>
<!DOCTYPE svg PUBLIC "-//W3C//DTD SVG 1.1//EN" "http://www.w3.org/Graphics/SVG/1.1/DTD/svg11.dtd">
<svg xmlns="http://www.w3.org/2000/svg" xmlns:xlink="http://www.w3.org/1999/xlink" version="1.1" baseProfile="full" width="64" height="64" viewBox="0 0 64.00 64.00" enable-background="new 0 0 64.00 64.00" xml:space="preserve">
	<path fill="currentColor" d="M 32.0001,5.00005C 19.4382,5.00005 9.26311,6.42111 9.26311,16.3685L 9.26311,43.3687C 9.26311,48.8531 13.7247,53.3162 19.2105,53.3162L 14.9474,57.5794L 14.9474,59.0004L 49.0529,59.0004L 49.0529,57.5794L 44.7897,53.3162C 50.2741,53.3162 54.7371,48.8531 54.7371,43.3687L 54.7371,16.3685C 54.7371,6.42111 44.562,5.00005 32.0001,5.00005 Z M 19.2105,47.6319C 16.8513,47.6319 14.9474,45.728 14.9474,43.3687C 14.9474,41.0095 16.8513,39.1055 19.2105,39.1055C 21.5698,39.1055 23.4737,41.0095 23.4737,43.3687C 23.4737,45.728 21.5698,47.6319 19.2105,47.6319 Z M 29.158,30.5792L 14.9474,30.5792L 14.9474,16.3685L 29.158,16.3685L 29.158,30.5792 Z M 44.7897,47.6319C 42.4304,47.6319 40.5265,45.728 40.5265,43.3687C 40.5265,41.0095 42.4304,39.1055 44.7897,39.1055C 47.1489,39.1055 49.0529,41.0095 49.0529,43.3687C 49.0529,45.728 47.1489,47.6319 44.7897,47.6319 Z M 49.0529,30.5792L 34.8422,30.5792L 34.8422,16.3685L 49.0529,16.3685L 49.0529,30.5792 Z "/>
</svg>
