<?xml version="1.0" encoding="utf-8"?>
<!DOCTYPE svg PUBLIC "-//W3C//DTD SVG 1.1//EN" "http://www.w3.org/Graphics/SVG/1.1/DTD/svg11.dtd">
<svg xmlns="http://www.w3.org/2000/svg" xmlns:xlink="http://www.w3.org/1999/xlink" version="1.1" baseProfile="full" width="64" height="64" viewBox="0 0 64.00 64.00" enable-background="new 0 0 64.00 64.00" xml:space="preserve">
	<path fill="currentColor" d="M 32,18.5002C 35.7112,18.5002 38.75,15.463 38.75,11.7502C 38.75,8.03733 35.7112,5.00016 32,5.00016C 28.2872,5.00016 25.25,8.03733 25.25,11.7502C 25.25,15.463 28.2872,18.5002 32,18.5002 Z M 32,25.2502C 28.2872,25.2502 25.25,28.2873 25.25,32.0002C 25.25,35.7113 28.2872,38.7502 32,38.7502C 35.7112,38.7502 38.75,35.7113 38.75,32.0002C 38.75,28.2873 35.7112,25.2502 32,25.2502 Z M 32,45.5002C 28.2872,45.5002 25.25,48.539 25.25,52.2502C 25.25,55.9613 28.2872,59.0002 32,59.0002C 35.7112,59.0002 38.75,55.9613 38.75,52.2502C 38.75,48.539 35.7112,45.5002 32,45.5002 Z "/>
</svg>
