<?xml version="1.0" encoding="utf-8"?>
<!DOCTYPE svg PUBLIC "-//W3C//DTD SVG 1.1//EN" "http://www.w3.org/Graphics/SVG/1.1/DTD/svg11.dtd">
<svg xmlns="http://www.w3.org/2000/svg" xmlns:xlink="http://www.w3.org/1999/xlink" version="1.1" baseProfile="full" viewBox="0 0 64.00 64.00" enable-background="new 0 0 64.00 64.00" xml:space="preserve">
	<path fill="currentColor" d="M 54.0908,27.091C 51.3917,27.091 49.1817,29.2999 49.1817,32.0001L 49.1817,39.3637L 14.8181,39.3637L 14.8181,32.0001C 14.8181,29.2999 12.6092,27.091 9.90896,27.091C 7.20872,27.091 4.99987,29.2999 4.99987,32.0001L 4.99987,44.2728C 4.99987,46.9719 7.20872,49.1819 9.90896,49.1819L 54.0908,49.1819C 56.7898,49.1819 58.9999,46.9719 58.9999,44.2728L 58.9999,32.0001C 58.9999,29.2999 56.7898,27.091 54.0908,27.091 Z M 46.7271,14.8183L 17.2726,14.8183C 14.5724,14.8183 12.3635,17.0271 12.3635,19.7274L 12.3635,25.0044C 15.2112,26.0112 17.2726,28.7115 17.2726,31.9257L 17.2726,36.9092L 46.7271,36.9092L 46.7271,31.9257C 46.7271,28.7353 48.7885,26.0351 51.6362,25.0044L 51.6362,19.7274C 51.6362,17.0271 49.4262,14.8183 46.7271,14.8183 Z "/>
</svg>
