<?xml version="1.0" encoding="utf-8"?>
<!DOCTYPE svg PUBLIC "-//W3C//DTD SVG 1.1//EN" "http://www.w3.org/Graphics/SVG/1.1/DTD/svg11.dtd">
<svg xmlns="http://www.w3.org/2000/svg" xmlns:xlink="http://www.w3.org/1999/xlink" version="1.1" baseProfile="full" width="64" height="64" viewBox="0 0 64.00 64.00" enable-background="new 0 0 64.00 64.00" xml:space="preserve">
	<path fill="currentColor" d="M 32.0001,28.422C 29.0299,28.422 26.6001,30.8518 26.6001,33.822C 26.6001,36.791 29.0299,39.222 32.0001,39.222C 34.9691,39.222 37.4001,36.791 37.4001,33.822C 37.4001,30.8518 34.9691,28.422 32.0001,28.422 Z M 48.2001,33.822C 48.2001,24.8848 40.9384,17.622 32.0001,17.622C 23.0629,17.622 15.8001,24.8848 15.8001,33.822C 15.8001,39.8152 19.0671,45.0281 23.9001,47.8337L 26.6001,43.1376C 23.3874,41.247 21.2001,37.8194 21.2001,33.822C 21.2001,27.8551 26.0331,23.022 32.0001,23.022C 37.9671,23.022 42.8001,27.8551 42.8001,33.822C 42.8001,37.8194 40.6118,41.247 37.4001,43.1376L 40.1001,47.8337C 44.9331,45.0281 48.2001,39.8152 48.2001,33.822 Z M 32.0001,6.82203C 17.0961,6.82203 5.00012,18.9181 5.00012,33.822C 5.00012,43.8126 10.4266,52.5057 18.4737,57.1781L 21.1737,52.5057C 14.7468,48.7539 10.4001,41.814 10.4001,33.822C 10.4001,21.8883 20.0664,12.222 32.0001,12.222C 43.9338,12.222 53.6001,21.8883 53.6001,33.822C 53.6001,41.814 49.2547,48.7539 42.8001,52.5057L 45.5001,57.1781C 53.5737,52.5057 59.0001,43.8126 59.0001,33.822C 59.0001,18.9181 46.9028,6.82203 32.0001,6.82203 Z "/>
</svg>
