<?xml version="1.0" encoding="utf-8"?>
<!DOCTYPE svg PUBLIC "-//W3C//DTD SVG 1.1//EN" "http://www.w3.org/Graphics/SVG/1.1/DTD/svg11.dtd">
<svg xmlns="http://www.w3.org/2000/svg" xmlns:xlink="http://www.w3.org/1999/xlink" version="1.1" baseProfile="full" width="16" height="16" viewBox="0 0 16.00 16.00" enable-background="new 0 0 16.00 16.00" xml:space="preserve">
	<path fill="#{colora}" fill-opacity="1" stroke-width="1.33333" stroke-linejoin="miter" d="M -8.5036e-006,1.77773L -8.5036e-006,14.2222C -8.5036e-006,15.1996 0.791197,16 1.77777,16L 14.2222,16C 15.1996,16 16,15.1996 16,14.2222L 16,1.77773C 16,0.799869 15.1996,-4.3869e-005 14.2222,-4.3869e-005L 1.77777,-4.3869e-005C 0.791197,-4.3869e-005 -8.5036e-006,0.799869 -8.5036e-006,1.77773 Z M 10.6667,5.33329C 10.6667,6.80901 9.47571,7.99995 7.99999,7.99995C 6.52427,7.99995 5.33332,6.80901 5.33332,5.33329C 5.33332,3.85757 6.52427,2.66662 7.99999,2.66662C 9.47571,2.66662 10.6667,3.85757 10.6667,5.33329 Z M 2.66666,12.4444C 2.66666,10.6666 6.22221,9.68919 7.99999,9.68919C 9.77777,9.68919 13.3333,10.6666 13.3333,12.4444L 13.3333,13.3333L 2.66666,13.3333L 2.66666,12.4444 Z "/>
</svg>
