<?xml version="1.0" encoding="utf-8"?>
<!DOCTYPE svg PUBLIC "-//W3C//DTD SVG 1.1//EN" "http://www.w3.org/Graphics/SVG/1.1/DTD/svg11.dtd">
<svg xmlns="http://www.w3.org/2000/svg" xmlns:xlink="http://www.w3.org/1999/xlink" version="1.1" baseProfile="full" width="16" height="16" viewBox="0 0 16.00 16.00" enable-background="new 0 0 16.00 16.00" xml:space="preserve">
	<path fill="#{colora}" fill-opacity="1" stroke-width="1.33333" stroke-linejoin="miter" d="M 8.00005,1.04904e-005C 3.58406,1.04904e-005 4.98295e-005,3.58402 4.98295e-005,8.00001C 4.98295e-005,12.4156 3.58406,16 8.00005,16C 12.4157,16 16.0001,12.4156 16.0001,8.00001C 16.0001,3.58402 12.4157,1.04904e-005 8.00005,1.04904e-005 Z M 8.00005,2.40001C 9.3282,2.40001 10.4001,3.47186 10.4001,4.80001C 10.4001,6.12816 9.3282,7.20001 8.00005,7.20001C 6.6719,7.20001 5.60005,6.12816 5.60005,4.80001C 5.60005,3.47186 6.6719,2.40001 8.00005,2.40001 Z M 8.00005,13.7602C 6.00005,13.7602 4.23206,12.7359 3.20005,11.1844C 3.22388,9.59217 6.40005,8.72032 8.00005,8.72032C 9.59221,8.72032 12.7766,9.59217 12.8,11.1844C 11.768,12.7359 10.0001,13.7602 8.00005,13.7602 Z "/>
</svg>
