<?xml version="1.0" encoding="utf-8"?>
<!DOCTYPE svg PUBLIC "-//W3C//DTD SVG 1.1//EN" "http://www.w3.org/Graphics/SVG/1.1/DTD/svg11.dtd">
<svg xmlns="http://www.w3.org/2000/svg" xmlns:xlink="http://www.w3.org/1999/xlink" version="1.1" baseProfile="full" width="24" height="48" viewBox="0 0 24.00 48.00" enable-background="new 0 0 24.00 48.00" xml:space="preserve">
	<path fill="#{colora}" fill-opacity="0.2" d="M 8,3.99998L 16,3.99998C 18.2092,3.99998 20,5.79084 20,7.99998L 20,16C 20,18.2091 18.2092,20 16,20L 8,20C 5.79086,20 4,18.2091 4,16L 4,7.99998C 4,5.79084 5.79086,3.99998 8,3.99998 Z "/>
	<path fill="#{colora}" fill-opacity="0.8" d="M 8,28L 16,28C 18.2091,28 20,29.7909 20,32L 20,40C 20,42.2091 18.2091,44 16,44L 8,44C 5.79086,44 4,42.2091 4,40L 4,32C 4,29.7909 5.79086,28 8,28 Z "/>
</svg>
