<?xml version="1.0" encoding="utf-8"?>
<!DOCTYPE svg PUBLIC "-//W3C//DTD SVG 1.1//EN" "http://www.w3.org/Graphics/SVG/1.1/DTD/svg11.dtd">
<svg xmlns="http://www.w3.org/2000/svg" xmlns:xlink="http://www.w3.org/1999/xlink" version="1.1" baseProfile="full" width="16" height="16" viewBox="0 0 16.00 16.00" enable-background="new 0 0 16.00 16.00" xml:space="preserve">
	<ellipse fill="#{colorb}" fill-opacity="1" stroke-width="0.2" stroke-linejoin="round" cx="8.99999" cy="3.00001" rx="2.99999" ry="2.99999"/>
	<path fill="#{colora}" fill-opacity="1" stroke-width="0.2" stroke-linejoin="miter" d="M 0.000569661,1.06575L 2.66724,1.06575L 3.20058,3.1991L 5.00486,3.1991C 5.10861,5.31574 6.85761,7 8.99999,7C 11.1424,7 12.8914,5.31574 12.9951,3.1991L 16.0006,3.1991L 14.934,10.6658L 3.20058,10.6658L 1.86724,2.13243L 0.000569661,2.13243L 0.000569661,1.06575 Z M 5.33392,11.7325C 6.2175,11.7325 6.93392,12.4491 6.93392,13.3325C 6.93392,14.2158 6.2175,14.9325 5.33392,14.9325C 4.45034,14.9325 3.73391,14.2158 3.73391,13.3325C 3.73391,12.4491 4.45034,11.7325 5.33392,11.7325 Z M 12.8006,11.7325C 13.684,11.7325 14.4006,12.4491 14.4006,13.3325C 14.4006,14.2158 13.684,14.9325 12.8006,14.9325C 11.9173,14.9325 11.2006,14.2158 11.2006,13.3325C 11.2006,12.4491 11.9173,11.7325 12.8006,11.7325 Z "/>
</svg>
