<?xml version="1.0" encoding="utf-8"?>
<!DOCTYPE svg PUBLIC "-//W3C//DTD SVG 1.1//EN" "http://www.w3.org/Graphics/SVG/1.1/DTD/svg11.dtd">
<svg xmlns="http://www.w3.org/2000/svg" xmlns:xlink="http://www.w3.org/1999/xlink" version="1.1" baseProfile="full" width="16" height="16" viewBox="0 0 16.00 16.00" enable-background="new 0 0 16.00 16.00" xml:space="preserve">
	<path fill="#{colora}" fill-opacity="1" stroke-width="1.33333" stroke-linejoin="miter" d="M 11.7891,6.17452L 8.60373,1.40355C 8.4659,1.20012 8.23259,1.09815 8.00001,1.09815C 7.76744,1.09815 7.53448,1.20012 7.3963,1.41103L 4.21093,6.17452L 0.727286,6.17452C 0.327428,6.17452 1.30335e-005,6.50194 1.30335e-005,6.9018C 1.30335e-005,6.96712 0.0071375,7.03286 0.0291102,7.09815L 1.87646,13.84C 2.04371,14.4508 2.60373,14.9018 3.27274,14.9018L 12.7273,14.9018C 13.3963,14.9018 13.956,14.4508 14.1307,13.84L 15.9787,7.09815L 16,6.9018C 16,6.50194 15.6726,6.17452 15.2727,6.17452L 11.7891,6.17452 Z M 5.81819,6.17452L 8.00001,2.9746L 10.1818,6.17452L 5.81819,6.17452 Z M 8.00001,11.9927C 7.19994,11.9927 6.54547,11.3379 6.54547,10.5382C 6.54547,9.73844 7.19994,9.08361 8.00001,9.08361C 8.79973,9.08361 9.45456,9.73844 9.45456,10.5382C 9.45456,11.3379 8.79973,11.9927 8.00001,11.9927 Z "/>
</svg>
