<?xml version="1.0" encoding="utf-8"?>
<!DOCTYPE svg PUBLIC "-//W3C//DTD SVG 1.1//EN" "http://www.w3.org/Graphics/SVG/1.1/DTD/svg11.dtd">
<svg xmlns="http://www.w3.org/2000/svg" xmlns:xlink="http://www.w3.org/1999/xlink" version="1.1" baseProfile="full" width="16" height="16" viewBox="0 0 16.00 16.00" enable-background="new 0 0 16.00 16.00" xml:space="preserve">
	<path fill="#{colora}" stroke-linejoin="miter" d="M 8.00003,1.00002C 8.00003,1.00002 3.05122,5.15321 0.285549,7.40261C 0.123074,7.54579 2.6981e-005,7.75433 2.6981e-005,8.00002C 2.6981e-005,8.4299 0.357473,8.7778 0.800027,8.7778L 2.40003,8.7778L 2.40003,14.2222C 2.40003,14.6521 2.75747,15 3.20003,15L 5.60003,15C 6.04258,15 6.40003,14.6514 6.40003,14.2222L 6.40003,11.1111L 9.60003,11.1111L 9.60003,14.2222C 9.60003,14.6514 9.95786,15 10.4,15L 12.8,15C 13.2422,15 13.6,14.6521 13.6,14.2222L 13.6,8.7778L 15.2,8.7778C 15.6422,8.7778 16,8.4299 16,8.00002C 16,7.75433 15.8766,7.54579 15.6938,7.40261C 12.9469,5.15321 8.00003,1.00002 8.00003,1.00002 Z "/>
</svg>
