<?xml version="1.0" encoding="utf-8"?>
<!DOCTYPE svg PUBLIC "-//W3C//DTD SVG 1.1//EN" "http://www.w3.org/Graphics/SVG/1.1/DTD/svg11.dtd">
<svg xmlns="http://www.w3.org/2000/svg" xmlns:xlink="http://www.w3.org/1999/xlink" version="1.1" baseProfile="full" width="30" height="16" viewBox="0 0 30.00 16.00" enable-background="new 0 0 30.00 16.00" xml:space="preserve">
	<path fill="#{colora}" fill-opacity="1" d="M 8.63351,1.58334L 8.63351,13.0085L 12.1041,9.8128C 12.3515,9.58501 12.7526,9.58501 13,9.8128C 13.2474,10.0406 13.2474,10.4099 13,10.6377L 8.44425,14.8325C 8.38564,14.8856 8.31859,14.9261 8.24711,14.954C 8.17157,14.9835 8.08853,14.9998 7.99997,15C 7.91272,15 7.82959,14.9838 7.75396,14.9544C 7.68068,14.926 7.61203,14.8843 7.54959,14.8268L 7.54839,14.8257L 3.00001,10.6377C 2.75262,10.4099 2.75262,10.0406 3.00001,9.8128C 3.2474,9.58501 3.64845,9.58501 3.89584,9.8128L 7.36645,13.0085L 7.36645,1.58334C 7.36645,1.26118 7.65009,1.00001 7.99997,1.00001C 8.34984,1.00001 8.63351,1.26118 8.63351,1.58334 Z "/>
</svg>
