<?xml version="1.0" encoding="utf-8"?>
<!DOCTYPE svg PUBLIC "-//W3C//DTD SVG 1.1//EN" "http://www.w3.org/Graphics/SVG/1.1/DTD/svg11.dtd">
<svg xmlns="http://www.w3.org/2000/svg" xmlns:xlink="http://www.w3.org/1999/xlink" version="1.1" baseProfile="full" width="16" height="16" viewBox="0 0 16.00 16.00" enable-background="new 0 0 16.00 16.00" xml:space="preserve">
	<path fill="#{colora}" fill-opacity="1" d="M 7.4,1.4C 10.7137,1.4 13.4,4.08629 13.4,7.4C 13.4,8.87685 12.8664,10.2291 11.9815,11.2744L 14.4536,13.7464L 13.7464,14.4536L 11.2744,11.9815C 10.2291,12.8664 8.87685,13.4 7.4,13.4C 4.08629,13.4 1.4,10.7137 1.4,7.4C 1.4,4.08629 4.08629,1.4 7.4,1.4 Z M 7.4,2.4C 4.63858,2.4 2.4,4.63858 2.4,7.4C 2.4,10.1614 4.63858,12.4 7.4,12.4C 10.1614,12.4 12.4,10.1614 12.4,7.4C 12.4,4.63858 10.1614,2.4 7.4,2.4 Z "/>
</svg>
