<?xml version="1.0" encoding="utf-8"?>
<!DOCTYPE svg PUBLIC "-//W3C//DTD SVG 1.1//EN" "http://www.w3.org/Graphics/SVG/1.1/DTD/svg11.dtd">
<svg xmlns="http://www.w3.org/2000/svg" xmlns:xlink="http://www.w3.org/1999/xlink" version="1.1" baseProfile="full" width="16" height="16" viewBox="0 0 16.00 16.00" enable-background="new 0 0 16.00 16.00" xml:space="preserve">
	<path fill="#{colora}" fill-opacity="1" stroke-width="1.33333" stroke-linejoin="miter" d="M 7.17201,1C 9.74521,1 11.8314,3.08583 11.8314,5.65938C 11.8314,7.08303 11.1928,8.35761 10.1865,9.21229L 13.3641,13.9876C 13.5931,14.3316 13.5189,14.7873 13.1992,15C 12.8794,15.2128 12.4305,15.1053 12.2015,14.7612L 8.99803,9.9473C 8.43728,10.1864 7.82009,10.3188 7.17201,10.3188C 4.59883,10.3188 2.51263,8.23257 2.51263,5.65938C 2.51263,3.08583 4.59883,1 7.17201,1 Z M 7.17201,9.06371C 9.05229,9.06371 10.5763,7.5393 10.5763,5.65938C 10.5763,3.77909 9.05229,2.25502 7.17201,2.25502C 5.29173,2.25502 3.76766,3.77909 3.76766,5.65938C 3.76766,7.53933 5.29173,9.06371 7.17201,9.06371 Z "/>
</svg>
