<?xml version="1.0" encoding="utf-8"?>
<!DOCTYPE svg PUBLIC "-//W3C//DTD SVG 1.1//EN" "http://www.w3.org/Graphics/SVG/1.1/DTD/svg11.dtd">
<svg xmlns="http://www.w3.org/2000/svg" xmlns:xlink="http://www.w3.org/1999/xlink" version="1.1" baseProfile="full" width="16" height="16" viewBox="0 0 16.00 16.00" enable-background="new 0 0 16.00 16.00" xml:space="preserve">
	<path fill="#{colora}" fill-opacity="1" d="M 8.42557,10.8599C 8.02057,11.1794 7.50657,11.3703 6.94736,11.3703C 5.63925,11.3703 4.57894,10.3257 4.57894,9.037C 4.57894,7.74827 5.63925,6.70367 6.94736,6.70367C 8.25548,6.70367 9.31579,7.74827 9.31579,9.037C 9.31579,9.58792 9.122,10.0943 8.79768,10.4933L 11.6123,13.2661L 11.2402,13.6328L 8.42557,10.8599 Z M 9.31579,0.999963L 4.05699,0.999963C 3.47337,0.999963 2.99999,1.4658 2.99999,2.04078L 2.99999,13.9589C 2.99999,14.5341 3.469,15 4.05135,15L 11.9484,15C 12.5292,15 13,14.5382 13,13.964L 13,5.14811L 10.3715,5.14811C 9.78863,5.14811 9.31579,4.68835 9.31579,4.11212L 9.31579,0.999963 Z M 9.8421,0.999963L 9.8421,4.10957C 9.8421,4.39668 10.0796,4.62959 10.3633,4.62959L 13,4.62959L 9.8421,0.999963 Z M 6.94736,10.8518C 7.96479,10.8518 8.78947,10.0396 8.78947,9.037C 8.78947,8.0344 7.96479,7.22218 6.94736,7.22218C 5.92994,7.22218 5.10526,8.0344 5.10526,9.037C 5.10526,10.0396 5.92994,10.8518 6.94736,10.8518 Z "/>
</svg>
