<?xml version="1.0" encoding="utf-8"?>
<!DOCTYPE svg PUBLIC "-//W3C//DTD SVG 1.1//EN" "http://www.w3.org/Graphics/SVG/1.1/DTD/svg11.dtd">
<svg xmlns="http://www.w3.org/2000/svg" xmlns:xlink="http://www.w3.org/1999/xlink" version="1.1" baseProfile="full" width="24" height="48" viewBox="0 0 24.00 48.00" enable-background="new 0 0 24.00 48.00" xml:space="preserve">
	<path fill="#{colorb}" fill-opacity="0.5" stroke-linejoin="round" d="M 12,6C 15.3137,6 18,8.68629 18,12C 18,15.3137 15.3137,18 12,18C 8.68629,18 6,15.3137 6,12C 6,8.68629 8.68629,6 12,6 Z M 12,7C 9.23858,7 7,9.23858 7,12C 7,14.7614 9.23857,17 12,17C 14.7614,17 17,14.7614 17,12C 17,9.23858 14.7614,7 12,7 Z "/>
	<ellipse fill="#{colora}" fill-opacity="0.5" stroke-linejoin="round" cx="12" cy="12" rx="5" ry="5"/>
	<path fill="#{colorb}" fill-opacity="0.8" stroke-linejoin="round" d="M 12,30C 15.3137,30 18,32.6863 18,36C 18,39.3137 15.3137,42 12,42C 8.68629,42 6,39.3137 6,36C 6,32.6863 8.68629,30 12,30 Z M 12,31C 9.23858,31 7,33.2386 7,36C 7,38.7614 9.23858,41 12,41C 14.7614,41 17,38.7614 17,36C 17,33.2386 14.7614,31 12,31 Z "/>
	<path fill="#{colora}" fill-opacity="0.8" stroke-linejoin="round" d="M 12,31C 14.7614,31 17,33.2386 17,36C 17,38.7614 14.7614,41 12,41C 9.23858,41 7,38.7614 7,36C 7,33.2386 9.23858,31 12,31 Z M 12,32C 9.79086,32 8,33.7909 8,36C 8,38.2091 9.79086,40 12,40C 14.2091,40 16,38.2091 16,36C 16,33.7909 14.2091,32 12,32 Z "/>
	<ellipse fill="#{colorb}" fill-opacity="0.8" stroke-linejoin="round" cx="12" cy="36" rx="4" ry="4"/>
</svg>
