<?xml version="1.0" encoding="utf-8"?>
<!DOCTYPE svg PUBLIC "-//W3C//DTD SVG 1.1//EN" "http://www.w3.org/Graphics/SVG/1.1/DTD/svg11.dtd">
<svg xmlns="http://www.w3.org/2000/svg" xmlns:xlink="http://www.w3.org/1999/xlink" version="1.1" baseProfile="full" width="24" height="48" viewBox="0 0 24.00 48.00" enable-background="new 0 0 24.00 48.00" xml:space="preserve">
	<ellipse fill="#{colorb}" fill-opacity="0.5" stroke-width="0.2" stroke-linejoin="round" cx="12" cy="36" rx="4" ry="4"/>
	<path fill="#{colora}" fill-opacity="0.8" stroke-width="0.2" stroke-linejoin="round" d="M 12,28C 16.4183,28 20,31.5817 20,36C 20,40.4183 16.4183,44 12,44C 7.58172,44 4,40.4183 4,36C 4,31.5817 7.58172,28 12,28 Z M 12,32C 9.79086,32 8,33.7909 8,36C 8,38.2091 9.79086,40 12,40C 14.2091,40 16,38.2091 16,36C 16,33.7909 14.2091,32 12,32 Z "/>
	<ellipse fill="#{colorb}" fill-opacity="0.8" stroke-width="0.2" stroke-linejoin="round" cx="12" cy="12" rx="4" ry="4"/>
</svg>
