<?xml version="1.0" encoding="utf-8"?>
<!-- Generator: Adobe Illustrator 15.1.0, SVG Export Plug-In . SVG Version: 6.00 Build 0)  -->
<!DOCTYPE svg PUBLIC "-//W3C//DTD SVG 1.1//EN" "http://www.w3.org/Graphics/SVG/1.1/DTD/svg11.dtd">
<svg version="1.1" id="Layer_1" xmlns="http://www.w3.org/2000/svg" xmlns:xlink="http://www.w3.org/1999/xlink" x="0px" y="0px" width="48px" height="624px" viewBox="0 0 48 624" enable-background="new 0 0 48 624" xml:space="preserve">
<path fill="#{colora}" d="M24,448c1.104,0,2,0.895,2,2s-0.896,2-2,2s-2-0.895-2-2S22.896,448,24,448z"/>
<path fill="#{colora}" d="M24,454c1.104,0,2,0.895,2,2s-0.896,2-2,2s-2-0.895-2-2S22.896,454,24,454z"/>
<path fill="#{colora}" d="M24,460c1.104,0,2,0.895,2,2s-0.896,2-2,2s-2-0.895-2-2S22.896,460,24,460z"/>
<path fill="#{colora}" d="M22.128,159.057c-2.919,0-5.286,2.366-5.286,5.286c0,2.919,2.366,5.289,5.286,5.289c2.92,0,5.29-2.37,5.29-5.289 C27.418,161.423,25.049,159.057,22.128,159.057z M22.128,168.206c-2.133,0-3.863-1.73-3.863-3.863c0-2.133,1.73-3.863,3.863-3.863 c2.136,0,3.864,1.73,3.864,3.863C25.992,166.476,24.265,168.206,22.128,168.206z"/>
<path fill="#{colora}" d="M29.157,173.795c0.259,0.39,0.173,0.905-0.188,1.148c-0.361,0.24-0.873,0.119-1.133-0.272l-3.779-5.679 c-0.259-0.39-0.176-0.908,0.188-1.148c0.362-0.243,0.87-0.121,1.131,0.27L29.157,173.795z"/>
<path fill="#{colorb}" d="M22.128,207.057c-2.919,0-5.286,2.366-5.286,5.286c0,2.919,2.366,5.289,5.286,5.289 c2.92,0,5.29-2.37,5.29-5.289C27.418,209.423,25.049,207.057,22.128,207.057z M22.128,216.206c-2.133,0-3.863-1.73-3.863-3.863 c0-2.133,1.73-3.863,3.863-3.863c2.136,0,3.864,1.73,3.864,3.863C25.992,214.476,24.265,216.206,22.128,216.206z"/>
<path fill="#{colorb}" d="M29.157,221.795c0.259,0.39,0.173,0.905-0.188,1.148c-0.361,0.24-0.873,0.119-1.133-0.272l-3.779-5.679 c-0.259-0.39-0.176-0.908,0.188-1.148c0.362-0.243,0.87-0.121,1.131,0.27L29.157,221.795z"/>
<path fill="#{colora}" d="M23.98,112l8.56,8.52h-2.16V128h-4.239v-5.32H21.86V128h-4.28v-7.48h-2.12L23.98,112z"/>
<path fill="#{colora}" d="M23,510h2l4-6l-4-6h-2l4,6L23,510z"/>
<path fill="#{colora}" d="M19,549v2l6,4l6-4v-2l-6,4L19,549z"/>
<path fill="#{colorb}" d="M28,606h2l4-6l-4-6h-2l4,6L28,606z"/>
</svg>
