<?xml version="1.0" encoding="utf-8"?>
<!DOCTYPE svg PUBLIC "-//W3C//DTD SVG 1.1//EN" "http://www.w3.org/Graphics/SVG/1.1/DTD/svg11.dtd">
<svg xmlns="http://www.w3.org/2000/svg" xmlns:xlink="http://www.w3.org/1999/xlink" version="1.1" baseProfile="full" width="32" height="128" viewBox="0 0 32.00 128.00" enable-background="new 0 0 32.00 128.00" xml:space="preserve">
	<ellipse fill="#F3F3F3" cx="16" cy="16" rx="15" ry="15"/>
	<ellipse fill="#E6E6E6" cx="16" cy="16" rx="12" ry="12"/>
	<ellipse fill="#FFFFFF" cx="16" cy="16" rx="9" ry="9"/>
	<rect x="12" y="11" fill="#{color}" width="3" height="10"/>
	<rect x="17" y="11" fill="#{color}" width="3" height="10"/>
	<ellipse fill="#E6E6E6" cx="16" cy="48" rx="12" ry="12"/>
	<ellipse fill="#FFFFFF" cx="16" cy="48" rx="9" ry="9"/>
	<path fill="#{color}" d="M 13,54L 13,42L 21,48L 13,54 Z "/>
	<path fill="#{color}" d="M 16,95C 7.71573,95 1,88.2843 1,80C 1,71.7157 7.71574,65 16,65L 16,68C 9.37259,68 4,73.3726 4,80C 4,86.6274 9.37258,92 16,92L 16,95 Z "/>
	<path fill="#{color}" fill-opacity="0.803922" d="M 16,103C 15.662,103 15.3283,103.019 15,103.055L 15,100L 17,100L 17,103.055C 16.6717,103.019 16.338,103 16,103 Z M 25,112C 25,111.662 24.9814,111.328 24.9451,111L 28,111L 28,113L 24.9451,113C 24.9814,112.672 25,112.338 25,112 Z M 16,121C 16.338,121 16.6717,120.981 17,120.945L 17,124L 15,124L 15,120.945C 15.3283,120.981 15.662,121 16,121 Z M 7,112C 7,112.338 7.01863,112.672 7.05493,113L 4,113L 4,111L 7.05493,111C 7.01863,111.328 7,111.662 7,112 Z M 6.80761,104.222L 8.22182,102.808L 10.3823,104.968C 9.86025,105.386 9.38571,105.86 8.9681,106.382L 6.80761,104.222 Z M 23.7782,102.808L 25.1924,104.222L 23.0319,106.382C 22.6143,105.86 22.1397,105.386 21.6177,104.968L 23.7782,102.808 Z M 25.1924,119.778L 23.7782,121.192L 21.6177,119.032C 22.1397,118.614 22.6143,118.14 23.0319,117.618L 25.1924,119.778 Z M 8.22183,121.192L 6.80761,119.778L 8.9681,117.618C 9.38572,118.14 9.86026,118.614 10.3823,119.032L 8.22183,121.192 Z "/>
</svg>
