<?xml version="1.0" encoding="utf-8"?>
<!DOCTYPE svg PUBLIC "-//W3C//DTD SVG 1.1//EN" "http://www.w3.org/Graphics/SVG/1.1/DTD/svg11.dtd">
<svg xmlns="http://www.w3.org/2000/svg" xmlns:xlink="http://www.w3.org/1999/xlink" version="1.1" baseProfile="full" width="32" height="32" viewBox="0 0 32.00 32.00" enable-background="new 0 0 32.00 32.00" xml:space="preserve">
	<path fill="#{colorb}" fill-opacity="0.301961" stroke-linejoin="round" d="M 30.7635,13.6744L 19.1065,25.6833C 17.4023,27.4389 14.6393,27.4389 12.9351,25.6833L 1.27813,13.6744C -0.426045,11.9188 -0.426044,9.07233 1.27813,7.31671C 2.9823,5.56109 5.74531,5.5611 7.44948,7.31672L 16.0208,16.1468L 24.5921,7.31672C 26.2963,5.5611 29.0593,5.5611 30.7635,7.31671C 32.4677,9.07233 32.4677,11.9188 30.7635,13.6744 Z "/>
	<path fill="#{colora}" fill-opacity="1" stroke-linejoin="round" d="M 29.3921,12.2616L 17.7351,24.2705C 16.7883,25.2458 15.2533,25.2458 14.3065,24.2705L 2.64954,12.2616C 1.70277,11.2862 1.70278,9.70488 2.64954,8.72954C 3.5963,7.75419 5.13131,7.75419 6.07807,8.72954L 16.0208,18.9724L 25.9635,8.72953C 26.9103,7.75419 28.4453,7.75419 29.3921,8.72953C 30.3388,9.70487 30.3388,11.2862 29.3921,12.2616 Z "/>
</svg>
