<?xml version="1.0" encoding="utf-8"?>
<!DOCTYPE svg PUBLIC "-//W3C//DTD SVG 1.1//EN" "http://www.w3.org/Graphics/SVG/1.1/DTD/svg11.dtd">
<svg xmlns="http://www.w3.org/2000/svg" xmlns:xlink="http://www.w3.org/1999/xlink" version="1.1" baseProfile="full" width="48" height="48" viewBox="0 0 48.00 48.00" enable-background="new 0 0 48.00 48.00" xml:space="preserve">
	<path fill="#{colora}" fill-opacity="1" stroke-linejoin="round" d="M 24,1.00003L 24,1.00003C 25.1046,1.00003 26,1.89546 26,3.00003L 26,12C 26,13.1046 25.1046,14 24,14L 24,14C 22.8954,14 22,13.1046 22,12L 22,3.00003C 22,1.89546 22.8954,1.00003 24,1.00003 Z "/>
	<path fill="#{colora}" fill-opacity="1" stroke-linejoin="round" d="M 24,34L 24,34C 25.1046,34 26,34.8954 26,36L 26,45C 26,46.1045 25.1046,47 24,47L 24,47C 22.8954,47 22,46.1045 22,45L 22,36C 22,34.8954 22.8954,34 24,34 Z "/>
	<path fill="#{colora}" fill-opacity="1" stroke-linejoin="round" d="M 47,24L 47,24C 47,25.1046 46.1045,26 45,26L 36,26C 34.8954,26 34,25.1046 34,24L 34,24C 34,22.8954 34.8954,22 36,22L 45,22C 46.1045,22 47,22.8954 47,24 Z "/>
	<path fill="#{colora}" fill-opacity="1" stroke-linejoin="round" d="M 14,24L 14,24C 14,25.1046 13.1046,26 12,26L 3.00003,26C 1.89546,26 1.00003,25.1046 1.00003,24L 1.00003,24C 1.00003,22.8954 1.89546,22 3.00003,22L 12,22C 13.1046,22 14,22.8954 14,24 Z "/>
	<path fill="#{colora}" fill-opacity="1" stroke-linejoin="round" d="M 40.2634,7.73656L 40.2634,7.73656C 41.0445,8.51761 41.0445,9.78394 40.2634,10.565L 33.8995,16.9289C 33.1184,17.71 31.8521,17.71 31.0711,16.9289L 31.0711,16.9289C 30.29,16.1479 30.29,14.8815 31.0711,14.1005L 37.435,7.73656C 38.216,6.95551 39.4824,6.95551 40.2634,7.73656 Z "/>
	<path fill="#{colora}" fill-opacity="1" stroke-linejoin="round" d="M 16.929,31.0711L 16.929,31.0711C 17.71,31.8521 17.71,33.1185 16.929,33.8995L 10.565,40.2634C 9.78396,41.0445 8.51763,41.0445 7.73658,40.2634L 7.73658,40.2634C 6.95553,39.4824 6.95553,38.2161 7.73658,37.435L 14.1005,31.0711C 14.8816,30.29 16.1479,30.29 16.929,31.0711 Z "/>
	<path fill="#{colora}" fill-opacity="1" stroke-linejoin="round" d="M 7.73656,7.73658L 7.73656,7.73658C 8.5176,6.95552 9.78393,6.95552 10.565,7.73657L 16.9289,14.1005C 17.71,14.8816 17.71,16.1479 16.9289,16.9289L 16.9289,16.9289C 16.1479,17.71 14.8815,17.71 14.1005,16.9289L 7.73656,10.565C 6.95551,9.78395 6.95551,8.51762 7.73656,7.73658 Z "/>
	<path fill="#{colora}" fill-opacity="1" stroke-linejoin="round" d="M 31.0711,31.071L 31.0711,31.071C 31.8521,30.29 33.1185,30.29 33.8995,31.071L 40.2634,37.435C 41.0445,38.216 41.0445,39.4824 40.2634,40.2634L 40.2634,40.2634C 39.4824,41.0445 38.2161,41.0445 37.435,40.2634L 31.0711,33.8995C 30.29,33.1184 30.29,31.8521 31.0711,31.071 Z "/>
</svg>
