<?xml version="1.0" encoding="utf-8"?>
<!DOCTYPE svg PUBLIC "-//W3C//DTD SVG 1.1//EN" "http://www.w3.org/Graphics/SVG/1.1/DTD/svg11.dtd">
<svg xmlns="http://www.w3.org/2000/svg" xmlns:xlink="http://www.w3.org/1999/xlink" version="1.1" baseProfile="full" width="48" height="48" viewBox="0 0 48.00 48.00" enable-background="new 0 0 48.00 48.00" xml:space="preserve">
	<path fill="#{colora}" fill-opacity="1" stroke-linejoin="round" d="M 25,46.9787L 25,42.9741C 29.4935,42.7411 33.574,40.947 36.7094,38.1236L 39.5411,40.9553C 35.6768,44.4991 30.5975,46.7392 25,46.9787 Z M 42.9741,25L 46.9786,25C 46.7392,30.5975 44.4991,35.6768 40.9553,39.5411L 38.1236,36.7094C 40.9469,33.574 42.7411,29.4935 42.9741,25 Z M 25,5.0259L 25,1.02137C 30.5975,1.26083 35.6768,3.50092 39.5411,7.04475L 36.7094,9.8764C 33.574,7.05307 29.4935,5.2589 25,5.0259 Z M 46.9786,23L 42.9741,23C 42.7411,18.5065 40.9469,14.4261 38.1236,11.2906L 40.9553,8.45897C 44.4991,12.3232 46.7392,17.4025 46.9786,23 Z M 23,1.02138L 23,5.02591C 18.5065,5.25891 14.426,7.05307 11.2906,9.87638L 8.45894,7.04473C 12.3232,3.50092 17.4025,1.26084 23,1.02138 Z M 5.02586,23L 1.02135,23C 1.2608,17.4025 3.50089,12.3232 7.04472,8.45895L 9.87637,11.2906C 7.05304,14.426 5.25886,18.5065 5.02586,23 Z M 23,42.9741L 23,46.9787C 17.4025,46.7392 12.3232,44.4991 8.45894,40.9553L 11.2906,38.1236C 14.426,40.947 18.5065,42.7411 23,42.9741 Z M 1.02135,25L 5.02586,25C 5.25886,29.4935 7.05304,33.574 9.87637,36.7094L 7.04472,39.5411C 3.50089,35.6769 1.2608,30.5975 1.02135,25 Z "/>
</svg>
