<?xml version="1.0" encoding="utf-8"?>
<!DOCTYPE svg PUBLIC "-//W3C//DTD SVG 1.1//EN" "http://www.w3.org/Graphics/SVG/1.1/DTD/svg11.dtd">
<svg xmlns="http://www.w3.org/2000/svg" xmlns:xlink="http://www.w3.org/1999/xlink" version="1.1" baseProfile="full" width="40" height="40" viewBox="0 0 40.00 40.00" enable-background="new 0 0 40.00 40.00" xml:space="preserve">
	<path fill="#{color}" fill-opacity="1" stroke-linejoin="round" d="M 20,8C 26.6274,8 32,13.3726 32,20C 32,26.6274 26.6274,32 20,32C 13.3726,32 8,26.6274 8,20C 8,13.3726 13.3726,8 20,8 Z M 18.375,13C 18.0528,12.6778 17.5305,12.6778 17.2083,13C 16.8862,13.3222 16.8862,13.8445 17.2083,14.1667L 23.0417,20L 17.2083,25.8333C 16.8862,26.1555 16.8862,26.6778 17.2083,27C 17.5305,27.3222 18.0528,27.3222 18.375,27L 24.7917,20.5833C 25.1138,20.2612 25.1138,19.7388 24.7917,19.4167L 18.375,13 Z "/>
</svg>
