<?xml version="1.0" encoding="utf-8"?>
<!DOCTYPE svg PUBLIC "-//W3C//DTD SVG 1.1//EN" "http://www.w3.org/Graphics/SVG/1.1/DTD/svg11.dtd">
<svg xmlns="http://www.w3.org/2000/svg" xmlns:xlink="http://www.w3.org/1999/xlink" version="1.1" baseProfile="full" width="40" height="40" viewBox="0 0 40.00 40.00" enable-background="new 0 0 40.00 40.00" xml:space="preserve">
	<path fill="#{color}" fill-opacity="1" stroke-linejoin="round" d="M 20,32C 13.3726,32 8,26.6274 8,20C 8,13.3726 13.3726,8 20,8C 26.6274,8 32,13.3726 32,20C 32,26.6274 26.6274,32 20,32 Z M 21.625,27C 21.9472,27.3222 22.4695,27.3222 22.7917,27C 23.1138,26.6778 23.1138,26.1555 22.7917,25.8333L 16.9583,20L 22.7917,14.1667C 23.1138,13.8445 23.1138,13.3222 22.7917,13C 22.4695,12.6778 21.9472,12.6778 21.625,13L 15.2083,19.4167C 14.8862,19.7388 14.8862,20.2612 15.2083,20.5833L 21.625,27 Z "/>
</svg>
