<?xml version="1.0" encoding="utf-8"?>
<!DOCTYPE svg PUBLIC "-//W3C//DTD SVG 1.1//EN" "http://www.w3.org/Graphics/SVG/1.1/DTD/svg11.dtd">
<svg xmlns="http://www.w3.org/2000/svg" xmlns:xlink="http://www.w3.org/1999/xlink" version="1.1" baseProfile="full" width="24" height="48" viewBox="0 0 24.00 48.00" enable-background="new 0 0 24.00 48.00" xml:space="preserve">
	<path fill="#{color}" fill-opacity="0.5" stroke-linejoin="round" d="M 20,10.9922L 17.9632,10.9922C 17.5384,8.46011 15.5399,6.46164 13.0078,6.03683L 13.0078,4C 16.6547,4.45477 19.5452,7.34527 20,10.9922 Z M 6.03682,10.9922L 4,10.9922C 4.45477,7.34528 7.34527,4.45478 10.9922,4.00001L 10.9922,6.03683C 8.46011,6.46164 6.46163,8.46011 6.03682,10.9922 Z M 4,13.0078L 6.03682,13.0078C 6.46162,15.5399 8.4601,17.5384 10.9922,17.9632L 10.9922,20C 7.34527,19.5452 4.45476,16.6547 4,13.0078 Z M 17.9632,13.0078L 20,13.0078C 19.5452,16.6547 16.6547,19.5452 13.0078,20L 13.0078,17.9632C 15.5399,17.5384 17.5384,15.5399 17.9632,13.0078 Z "/>
	<path fill="#{color}" fill-opacity="0.5" stroke-linejoin="round" d="M 20,34.9922L 17.9632,34.9922C 17.5384,32.4601 15.5399,30.4616 13.0078,30.0368L 13.0078,28C 16.6547,28.4548 19.5452,31.3453 20,34.9922 Z M 6.03682,34.9922L 4,34.9922C 4.45477,31.3453 7.34527,28.4548 10.9922,28L 10.9922,30.0368C 8.46011,30.4616 6.46163,32.4601 6.03682,34.9922 Z M 4,37.0078L 6.03682,37.0078C 6.46162,39.5399 8.4601,41.5384 10.9922,41.9632L 10.9922,44C 7.34527,43.5452 4.45477,40.6547 4,37.0078 Z M 17.9632,37.0078L 20,37.0078C 19.5452,40.6547 16.6547,43.5452 13.0078,44L 13.0078,41.9632C 15.5399,41.5384 17.5384,39.5399 17.9632,37.0078 Z "/>
	<ellipse fill="#{color}" fill-opacity="1" stroke-linejoin="round" cx="12" cy="36" rx="4" ry="4"/>
</svg>
