<?xml version="1.0" encoding="utf-8"?>
<!DOCTYPE svg PUBLIC "-//W3C//DTD SVG 1.1//EN" "http://www.w3.org/Graphics/SVG/1.1/DTD/svg11.dtd">
<svg xmlns="http://www.w3.org/2000/svg" xmlns:xlink="http://www.w3.org/1999/xlink" version="1.1" baseProfile="full" width="32" height="32" viewBox="0 0 32.00 32.00" enable-background="new 0 0 32.00 32.00" xml:space="preserve">
	<path fill="#{color}" fill-opacity="1" stroke-width="1.33333" stroke-linejoin="miter" d="M 16,5.72205e-006C 7.16344,5.72205e-006 -4.07298e-006,7.16345 -4.07298e-006,16C -4.07298e-006,24.8366 7.16344,32 16,32C 24.8365,32 32,24.8366 32,16C 32,7.16345 24.8365,5.72205e-006 16,5.72205e-006 Z M 16.5008,29.101C 16.3181,29.2648 16.1288,29.2993 16.0016,29.2993C 15.8732,29.2993 15.6817,29.2644 15.4962,29.0978C 13.2444,27.0721 11.5869,24.482 10.6436,21.6146C 14.1584,20.7168 17.8502,20.7043 21.3702,21.5777C 20.4287,24.4611 18.7644,27.0665 16.5008,29.101 Z M 10.0406,19.2288C 9.84816,18.1727 9.74358,17.0933 9.74358,16C 9.74358,14.9067 9.84816,13.8273 10.0402,12.7712C 12.0204,13.2762 14.0509,13.5299 16.0821,13.5299C 18.0593,13.5299 20.0365,13.2891 21.9671,12.8103C 22.1547,13.854 22.2568,14.9203 22.2568,16C 22.2568,17.0797 22.1547,18.1458 21.9671,19.1899C 18.0533,18.2192 13.9487,18.2316 10.0406,19.2288 Z M 15.4994,2.89883C 15.6817,2.73518 15.8716,2.70073 15.9984,2.70073C 16.1268,2.70073 16.3181,2.73597 16.504,2.90224C 18.7656,4.9367 20.4283,7.54048 21.3694,10.4227C 17.8494,11.2953 14.1574,11.2832 10.6428,10.3852C 11.5865,7.51684 13.2456,4.9251 15.4994,2.89883 Z M 24.3357,12.0912C 25.6843,11.6066 26.9976,10.9986 28.2612,10.2692C 29.0789,12.0106 29.5385,13.9523 29.5385,16C 29.5385,18.0477 29.0789,19.9896 28.262,21.7307C 26.9984,21.0008 25.6843,20.3934 24.3357,19.9086C 24.5837,18.6346 24.7184,17.3269 24.7184,16C 24.7179,14.6729 24.5837,13.3658 24.3357,12.0912 Z M 27.0168,8.14565C 25.9543,8.75861 24.853,9.27766 23.7232,9.69732C 22.9367,7.27386 21.6987,5.03147 20.0857,3.09255C 22.9078,3.98819 25.3301,5.78626 27.0168,8.14565 Z M 11.9147,3.09297C 10.3143,5.01662 9.08434,7.23939 8.29747,9.64103C 7.17669,9.21555 6.08373,8.6953 5.03064,8.07915C 6.71515,5.75262 9.11881,3.97999 11.9147,3.09297 Z M 3.77144,10.1949C 5.02724,10.9305 6.33313,11.5455 7.67429,12.0373C 7.41948,13.3289 7.28205,14.6542 7.28205,16C 7.28205,17.3458 7.41908,18.6711 7.67429,19.9628C 6.33313,20.4551 5.02724,21.0697 3.77144,21.8053C 2.93246,20.0449 2.46153,18.0769 2.46153,16C 2.46153,13.9233 2.93246,11.9553 3.77144,10.1949 Z M 5.03064,23.9207C 6.08332,23.3045 7.17628,22.784 8.29747,22.3586C 9.08434,24.7604 10.3143,26.9832 11.9147,28.907C 9.11881,28.02 6.71515,26.2476 5.03064,23.9207 Z M 20.0857,28.907C 21.6987,26.968 22.9363,24.726 23.7227,22.3021C 24.8525,22.722 25.9543,23.2412 27.0168,23.8542C 25.3301,26.2131 22.9078,28.0112 20.0857,28.907 Z "/>
</svg>
