<?xml version="1.0" encoding="utf-8"?>
<!DOCTYPE svg PUBLIC "-//W3C//DTD SVG 1.1//EN" "http://www.w3.org/Graphics/SVG/1.1/DTD/svg11.dtd">
<svg xmlns="http://www.w3.org/2000/svg" xmlns:xlink="http://www.w3.org/1999/xlink" version="1.1" baseProfile="full" width="32" height="32" viewBox="0 0 32.00 32.00" enable-background="new 0 0 32.00 32.00" xml:space="preserve">
	<path fill="#{color}" fill-opacity="1" stroke-width="1.33333" stroke-linejoin="miter" d="M 16,1.71661e-005C 7.1634,1.71661e-005 -5.72205e-006,7.16361 -5.72205e-006,16C -5.72205e-006,24.8364 7.1634,32 16,32C 24.8368,32 32,24.8372 32,16C 32,7.16328 24.8368,1.71661e-005 16,1.71661e-005 Z M 15.9202,24.9474C 15.9202,24.9474 15.1777,25.4412 14.6702,25.439C 14.6252,25.4596 14.5984,25.4717 14.5984,25.4717L 14.5994,25.439C 14.493,25.4342 14.3857,25.4188 14.2776,25.3919L 14.1173,25.3522C 13.231,25.1324 12.7619,24.2537 12.9825,23.368L 14.2164,18.3945L 14.7732,16.148C 15.2912,14.0624 13.1305,16.5916 12.6875,15.6307C 12.3948,14.9956 14.368,13.6629 15.8095,12.6581C 15.8095,12.6581 16.5511,12.1653 17.0588,12.1673C 17.1044,12.1462 17.1313,12.1344 17.1313,12.1344L 17.1294,12.1673C 17.2368,12.1721 17.3441,12.1872 17.4522,12.2138L 17.6125,12.2537C 18.4985,12.4735 19.0382,13.3701 18.8184,14.2559L 17.5853,19.2298L 17.0272,21.4761C 16.5103,23.5618 18.6349,21.0228 19.0776,21.985C 19.3702,22.6192 17.3614,23.9431 15.9202,24.9474 Z M 19.0471,9.4017C 18.739,10.6421 17.4838,11.3986 16.2441,11.0905C 15.0031,10.7826 14.2467,9.52778 14.5548,8.28697C 14.8627,7.04596 16.1178,6.29009 17.3581,6.59801C 18.5985,6.90573 19.3548,8.16089 19.0471,9.4017 Z "/>
</svg>
