<?xml version="1.0" encoding="utf-8"?>
<!DOCTYPE svg PUBLIC "-//W3C//DTD SVG 1.1//EN" "http://www.w3.org/Graphics/SVG/1.1/DTD/svg11.dtd">
<svg xmlns="http://www.w3.org/2000/svg" xmlns:xlink="http://www.w3.org/1999/xlink" version="1.1" baseProfile="full" width="32" height="32" viewBox="0 0 32.00 32.00" enable-background="new 0 0 32.00 32.00" xml:space="preserve">
	<path fill="#{color}" d="M 32,25.2727C 32,25.6818 31.9242,26.2159 31.7727,26.875C 31.6212,27.5341 31.4621,28.053 31.2955,28.4318C 30.9773,29.1894 30.053,29.9924 28.5227,30.8409C 27.0985,31.6136 25.6894,32 24.2955,32C 23.8864,32 23.4886,31.9735 23.1023,31.9205C 22.7159,31.8674 22.2803,31.7727 21.7955,31.6364C 21.3106,31.5 20.9507,31.3902 20.7159,31.3068C 20.4811,31.2235 20.0606,31.0682 19.4545,30.8409C 18.8485,30.6136 18.4773,30.4773 18.3409,30.4318C 16.8561,29.9015 15.5303,29.2727 14.3636,28.5455C 12.4242,27.3485 10.4205,25.7159 8.35227,23.6477C 6.28409,21.5795 4.65152,19.5757 3.45454,17.6364C 2.72727,16.4697 2.09849,15.1439 1.56818,13.6591C 1.52272,13.5227 1.38636,13.1515 1.15909,12.5455C 0.931816,11.9394 0.776509,11.5189 0.693179,11.2841C 0.60985,11.0492 0.499997,10.6894 0.363634,10.2045C 0.22727,9.7197 0.132577,9.28409 0.0795429,8.89773C 0.0265089,8.51136 -2.52947e-006,8.11363 -2.52947e-006,7.70454C -2.52947e-006,6.3106 0.386361,4.90151 1.15909,3.47727C 2.00758,1.94697 2.81061,1.02273 3.56818,0.704544C 3.94697,0.537874 4.46591,0.378784 5.125,0.227272C 5.78409,0.0757599 6.31818,0 6.72727,0C 6.93938,0 7.09847,0.0227261 7.20454,0.068182C 7.47727,0.15909 7.87879,0.73485 8.40909,1.79545C 8.57575,2.08333 8.80302,2.49242 9.09091,3.02273C 9.37879,3.55303 9.64393,4.03409 9.88636,4.46591C 10.1288,4.89773 10.3636,5.30303 10.5909,5.68182C 10.6364,5.74242 10.7689,5.93182 10.9886,6.25C 11.2083,6.56818 11.3712,6.83711 11.4773,7.05682C 11.5833,7.27652 11.6364,7.49243 11.6364,7.70454C 11.6364,8.00757 11.4205,8.38636 10.9886,8.84091C 10.5568,9.29545 10.0871,9.71211 9.57954,10.0909C 9.07197,10.4697 8.60227,10.8712 8.17045,11.2955C 7.73863,11.7197 7.52272,12.0682 7.52272,12.3409C 7.52272,12.4773 7.56061,12.6477 7.63636,12.8523C 7.71211,13.0568 7.77652,13.2121 7.82954,13.3182C 7.88257,13.4242 7.98863,13.6061 8.14773,13.8636C 8.30682,14.1212 8.39393,14.2652 8.40909,14.2955C 9.56061,16.3712 10.8788,18.1515 12.3636,19.6364C 13.8485,21.1212 15.6288,22.4394 17.7045,23.5909C 17.7348,23.6061 17.8788,23.6932 18.1364,23.8523C 18.3939,24.0114 18.5757,24.1174 18.6818,24.1705C 18.7879,24.2235 18.9432,24.2879 19.1477,24.3636C 19.3523,24.4394 19.5227,24.4773 19.6591,24.4773C 19.9318,24.4773 20.2803,24.2614 20.7045,23.8295C 21.1288,23.3977 21.5303,22.928 21.9091,22.4205C 22.2879,21.9129 22.7045,21.4432 23.1591,21.0114C 23.6136,20.5795 23.9924,20.3636 24.2955,20.3636C 24.5076,20.3636 24.7235,20.4167 24.9432,20.5227C 25.1629,20.6288 25.4318,20.7917 25.75,21.0114C 26.0682,21.2311 26.2576,21.3636 26.3182,21.4091C 26.697,21.6364 27.1023,21.8712 27.5341,22.1136C 27.9659,22.3561 28.447,22.6212 28.9773,22.9091C 29.5076,23.197 29.9167,23.4243 30.2045,23.5909C 31.2652,24.1212 31.8409,24.5227 31.9318,24.7955C 31.9773,24.9015 32,25.0606 32,25.2727 Z "/>
</svg>