<?xml version="1.0" encoding="utf-8"?>
<!DOCTYPE svg PUBLIC "-//W3C//DTD SVG 1.1//EN" "http://www.w3.org/Graphics/SVG/1.1/DTD/svg11.dtd">
<svg xmlns="http://www.w3.org/2000/svg" xmlns:xlink="http://www.w3.org/1999/xlink" version="1.1" baseProfile="full" width="32" height="32" viewBox="0 0 32.00 32.00" enable-background="new 0 0 32.00 32.00" xml:space="preserve">
	<path fill="#{color}" d="M 16,31C 7.71547,31 1,24.2845 1,16C 1,7.71546 7.71547,1 16,1C 24.2845,1 31,7.71546 31,16C 31,24.2845 24.2845,31 16,31 Z M 16,2.63179C 8.65688,2.63179 2.63179,8.65692 2.63179,16C 2.63179,23.3431 8.65688,29.3681 16,29.3681C 23.343,29.3681 29.3682,23.3431 29.3682,16C 29.3682,8.65692 23.343,2.63179 16,2.63179 Z M 15.6861,24.5983L 14.5564,23.4058L 21.0283,16.8786L 8.02926,16.8786L 8.02926,15.1213L 21.0283,15.1213L 14.5564,8.59415L 15.6861,7.40166L 24.2845,16L 15.6861,24.5983 Z "/>
</svg>
