<?xml version="1.0" encoding="utf-8"?>
<!DOCTYPE svg PUBLIC "-//W3C//DTD SVG 1.1//EN" "http://www.w3.org/Graphics/SVG/1.1/DTD/svg11.dtd">
<svg xmlns="http://www.w3.org/2000/svg" xmlns:xlink="http://www.w3.org/1999/xlink" version="1.1" baseProfile="full" width="32" height="32" viewBox="0 0 32.00 32.00" enable-background="new 0 0 32.00 32.00" xml:space="preserve">
	<path fill="#{color}" d="M 23.625,19.7292C 23.1111,21.4097 22.1528,22.7639 20.75,23.7917C 19.3472,24.8194 17.7639,25.3333 16,25.3333C 14.2361,25.3333 12.6528,24.8194 11.25,23.7917C 9.84723,22.7639 8.88889,21.4097 8.375,19.7292C 8.2639,19.3819 8.29167,19.0451 8.45833,18.7188C 8.625,18.3924 8.88889,18.1736 9.25,18.0625C 9.59723,17.9514 9.93402,17.9792 10.2604,18.1458C 10.5868,18.3125 10.8056,18.5764 10.9167,18.9375C 11.2639,20.0486 11.9062,20.9479 12.8437,21.6354C 13.7812,22.3229 14.8333,22.6667 16,22.6667C 17.1667,22.6667 18.2187,22.3229 19.1562,21.6354C 20.0937,20.9479 20.7361,20.0486 21.0833,18.9375C 21.1944,18.5764 21.4167,18.3125 21.75,18.1458C 22.0833,17.9792 22.4236,17.9514 22.7708,18.0625C 23.1181,18.1736 23.375,18.3924 23.5417,18.7188C 23.7083,19.0451 23.7361,19.3819 23.625,19.7292 Z M 13.3333,10.6667C 13.3333,11.4028 13.0729,12.0313 12.5521,12.5521C 12.0312,13.0729 11.4028,13.3333 10.6667,13.3333C 9.93056,13.3333 9.30208,13.0729 8.78125,12.5521C 8.26042,12.0313 8,11.4028 8,10.6667C 8,9.93056 8.26042,9.30209 8.78125,8.78125C 9.30208,8.26042 9.93056,8 10.6667,8C 11.4028,8 12.0312,8.26042 12.5521,8.78125C 13.0729,9.30209 13.3333,9.93056 13.3333,10.6667 Z M 24,10.6667C 24,11.4028 23.7396,12.0313 23.2187,12.5521C 22.6979,13.0729 22.0694,13.3333 21.3333,13.3333C 20.5972,13.3333 19.9687,13.0729 19.4479,12.5521C 18.9271,12.0313 18.6667,11.4028 18.6667,10.6667C 18.6667,9.93056 18.9271,9.30209 19.4479,8.78125C 19.9687,8.26042 20.5972,8 21.3333,8C 22.0694,8 22.6979,8.26042 23.2187,8.78125C 23.7396,9.30209 24,9.93056 24,10.6667 Z M 29.3333,16C 29.3333,14.1944 28.9792,12.4688 28.2708,10.8229C 27.5625,9.17709 26.6146,7.76042 25.4271,6.57292C 24.2396,5.38542 22.8229,4.4375 21.1771,3.72917C 19.5312,3.02084 17.8056,2.66667 16,2.66667C 14.1944,2.66667 12.4687,3.02084 10.8229,3.72917C 9.17708,4.4375 7.76042,5.38542 6.57292,6.57292C 5.38542,7.76042 4.4375,9.17709 3.72917,10.8229C 3.02083,12.4688 2.66667,14.1944 2.66667,16C 2.66667,17.8056 3.02083,19.5313 3.72917,21.1771C 4.4375,22.8229 5.38542,24.2396 6.57292,25.4271C 7.76042,26.6146 9.17708,27.5625 10.8229,28.2708C 12.4687,28.9792 14.1944,29.3333 16,29.3333C 17.8056,29.3333 19.5312,28.9792 21.1771,28.2708C 22.8229,27.5625 24.2396,26.6146 25.4271,25.4271C 26.6146,24.2396 27.5625,22.8229 28.2708,21.1771C 28.9792,19.5313 29.3333,17.8056 29.3333,16 Z M 32,16C 32,18.9028 31.2847,21.5799 29.8542,24.0313C 28.4236,26.4826 26.4826,28.4236 24.0312,29.8542C 21.5799,31.2847 18.9028,32 16,32C 13.0972,32 10.4201,31.2847 7.96875,29.8542C 5.51735,28.4236 3.5764,26.4826 2.14583,24.0313C 0.715281,21.5799 -1.03066e-007,18.9028 -1.03066e-007,16C -1.03066e-007,13.0972 0.715281,10.4201 2.14583,7.96875C 3.5764,5.51737 5.51735,3.57639 7.96875,2.14584C 10.4201,0.715286 13.0972,5.72205e-006 16,5.72205e-006C 18.9028,5.72205e-006 21.5799,0.715286 24.0312,2.14584C 26.4826,3.57639 28.4236,5.51737 29.8542,7.96875C 31.2847,10.4201 32,13.0972 32,16 Z "/>
</svg>
