<?xml version="1.0" encoding="utf-8"?>
<!DOCTYPE svg PUBLIC "-//W3C//DTD SVG 1.1//EN" "http://www.w3.org/Graphics/SVG/1.1/DTD/svg11.dtd">
<svg xmlns="http://www.w3.org/2000/svg" xmlns:xlink="http://www.w3.org/1999/xlink" version="1.1" baseProfile="full" width="32" height="32" viewBox="0 0 32.00 32.00" enable-background="new 0 0 32.00 32.00" xml:space="preserve">
	<path fill="#FFC800" fill-opacity="1" stroke-width="1.33333" stroke-linejoin="miter" d="M 16.4975,2.00499C 24.5037,2.00499 30.995,8.49589 30.995,16.5025C 30.995,24.5096 24.5037,31 16.4975,31C 8.4909,31 2,24.5096 2,16.5025C 2,8.49589 8.4909,2.00499 16.4975,2.00499 Z "/>
	<path fill="#FF0000" fill-opacity="1" stroke-width="1.33333" stroke-linejoin="miter" d="M 17.9744,23.599C 23.363,22.4779 26.8238,17.2006 25.7018,11.811L 6.18535,15.872C 7.3069,21.2604 12.5851,24.721 17.9744,23.599 Z "/>
	<path fill="#212731" fill-opacity="1" stroke-width="1.33333" stroke-linejoin="miter" d="M 16.4975,16.5025C 19.529,15.8729 22.5216,16.6901 24.7621,18.4855C 25.8062,16.5069 26.1929,14.1696 25.7018,11.811L 6.18535,15.872C 6.67644,18.2315 7.96308,20.2197 9.70887,21.6178C 11.0463,19.0783 13.4664,17.1334 16.4975,16.5025 Z "/>
	<path fill="#FF0000" fill-opacity="1" stroke-width="1.33333" stroke-linejoin="miter" d="M 12.0542,4.23126C 13.9053,6.58991 8.79216,10.5133 8.79216,10.5133C 8.79216,10.5133 2.53932,8.9551 3.29681,6.0528C 4.02322,3.2699 7.6476,5.01088 7.6476,5.01088C 7.6476,5.01088 10.2783,1.96874 12.0542,4.23126 Z "/>
	<path fill="#FF0000" fill-opacity="1" stroke-width="1.33333" stroke-linejoin="miter" d="M 23.5852,1.83203C 25.4372,4.1915 20.3236,8.11496 20.3236,8.11496C 20.3236,8.11496 14.0708,6.55584 14.8287,3.65437C 15.5552,0.871462 19.1795,2.61245 19.1795,2.61245C 19.1795,2.61245 21.8102,-0.429222 23.5852,1.83203 Z "/>
</svg>
