<?xml version="1.0" encoding="utf-8"?>
<!DOCTYPE svg PUBLIC "-//W3C//DTD SVG 1.1//EN" "http://www.w3.org/Graphics/SVG/1.1/DTD/svg11.dtd">
<svg xmlns="http://www.w3.org/2000/svg" xmlns:xlink="http://www.w3.org/1999/xlink" version="1.1" baseProfile="full" width="32" height="32" viewBox="0 0 32.00 32.00" enable-background="new 0 0 32.00 32.00" xml:space="preserve">
	<path fill="#FFC800" fill-opacity="1" stroke-width="0.2" stroke-linejoin="miter" d="M 16,1C 24.2837,1 31,7.71588 31,16C 31,24.2837 24.2837,31 16,31C 7.71588,31 1,24.2837 1,16C 1,7.71588 7.71588,1 16,1 Z "/>
	<path fill="#212731" fill-opacity="1" stroke-width="0.2" stroke-linejoin="miter" d="M 16,26.3125C 21.6955,26.3125 26.3125,21.6955 26.3125,16L 5.6875,16C 5.6875,21.6955 10.3045,26.3125 16,26.3125 Z "/>
	<path fill="#FF0000" fill-opacity="1" stroke-width="0.2" stroke-linejoin="miter" d="M 10.4958,21.6012C 10.4171,22.0626 10.375,22.5406 10.375,23.0313C 10.375,26.9149 12.8931,30.0625 16,30.0625C 19.1074,30.0625 21.625,26.9149 21.625,23.0313C 21.625,22.5406 21.5829,22.0626 21.5042,21.6012C 21.4181,21.0921 20.8779,20.6875 20.3597,20.6875L 11.6389,20.6875C 11.1221,20.6875 10.5824,21.0921 10.4958,21.6012 Z "/>
	<path fill="#212731" fill-opacity="1" stroke-width="0.2" stroke-linejoin="miter" d="M 6.66437,9.08133C 6.73947,8.82727 7.02054,8.69687 7.26447,8.77188L 11.8243,10.1498C 12.0774,10.2248 12.25,10.4876 12.25,10.7312L 12.25,10.9563C 12.25,11.1999 12.0774,11.4627 11.8243,11.5377L 7.26175,12.9156C 7.00863,12.9906 6.73395,12.8593 6.65799,12.6062C 6.58291,12.3626 6.71698,12.0998 6.97018,12.0248L 10.791,10.8438L 6.96512,9.66269C 6.72156,9.58768 6.58835,9.32492 6.66437,9.08133 Z "/>
	<path fill="#212731" fill-opacity="1" stroke-width="0.2" stroke-linejoin="miter" d="M 23.5,9.4375C 24.5355,9.4375 25.375,10.277 25.375,11.3125C 25.375,12.348 24.5355,13.1875 23.5,13.1875C 22.4645,13.1875 21.625,12.348 21.625,11.3125C 21.625,10.277 22.4645,9.4375 23.5,9.4375 Z "/>
</svg>
