<?xml version="1.0" encoding="utf-8"?>
<!DOCTYPE svg PUBLIC "-//W3C//DTD SVG 1.1//EN" "http://www.w3.org/Graphics/SVG/1.1/DTD/svg11.dtd">
<svg xmlns="http://www.w3.org/2000/svg" xmlns:xlink="http://www.w3.org/1999/xlink" version="1.1" baseProfile="full" width="9" height="9" viewBox="0 0 9.00 9.00" enable-background="new 0 0 9.00 9.00" xml:space="preserve">
	<path fill="#{color}" d="M 0.500001,8.5L 0.500001,6.5L 2.5,6.5L 2.5,8.5L 0.500001,8.5 Z M 0.500001,5.5L 0.500001,3.5L 2.5,3.5L 2.5,5.5L 0.500001,5.5 Z M 0.500001,2.5L 0.500001,0.500006L 2.5,0.500006L 2.5,2.5L 0.500001,2.5 Z M 3.5,8.5L 3.5,6.5L 5.5,6.5L 5.5,8.5L 3.5,8.5 Z M 3.5,5.5L 3.5,3.5L 5.5,3.5L 5.5,5.5L 3.5,5.5 Z M 3.5,2.5L 3.5,0.500004L 5.5,0.500004L 5.5,2.5L 3.5,2.5 Z M 6.5,8.5L 6.5,6.5L 8.5,6.5L 8.5,8.5L 6.5,8.5 Z M 6.5,5.5L 6.5,3.5L 8.5,3.5L 8.5,5.5L 6.5,5.5 Z M 6.5,2.5L 6.5,0.500002L 8.5,0.500002L 8.5,2.5L 6.5,2.5 Z "/>
</svg>
