<?xml version="1.0" encoding="utf-8"?>
<!DOCTYPE svg PUBLIC "-//W3C//DTD SVG 1.1//EN" "http://www.w3.org/Graphics/SVG/1.1/DTD/svg11.dtd">
<svg xmlns="http://www.w3.org/2000/svg" xmlns:xlink="http://www.w3.org/1999/xlink" version="1.1" baseProfile="full" width="96" height="96" viewBox="0 0 96.00 96.00" enable-background="new 0 0 96.00 96.00" xml:space="preserve">
	<path fill="#{colora}" fill-opacity="0.25" d="M 31.2427,32.2446C 35.2246,28.2626 35.3397,21.8781 31.5879,17.7572L 33.7111,15.634C 38.6334,20.9283 38.5177,29.2122 33.364,34.366L 31.2427,32.2446 Z "/>
	<path fill="#{colora}" fill-opacity="0.25" d="M 27,27.9994C 28.6378,26.3615 28.7492,23.7753 27.3342,22.0084L 29.4633,19.8793C 32.0455,22.8253 31.9315,27.3106 29.1213,30.1207L 27,27.9994 Z "/>
	<path fill="#{colora}" fill-opacity="0.25" d="M 73,13C 79.6274,13 85,18.3726 85,25L 88,25L 83.5001,30L 79,25L 82,25C 82,20.0294 77.9706,16 73,16C 68.0294,16 64,20.0294 64,25C 64,29.9706 68.0294,34 73,34L 73,37C 66.3726,37 61,31.6274 61,25C 61,18.3726 66.3726,13 73,13 Z "/>
	<path fill="#{colora}" fill-opacity="0.25" d="M 26.9792,76.8787L 30.8683,72.9896L 26.9792,69.1005L 29.1005,66.9792L 32.9896,70.8683L 36.8787,66.9792L 39,69.1005L 35.1109,72.9896L 39,76.8787L 36.8787,79L 32.9896,75.1109L 29.1005,79L 26.9792,76.8787 Z "/>
	<path fill="#{colora}" fill-opacity="0.25" d="M 10,30L 10,20L 16,20L 22,13L 25,13L 25,37L 22,37L 16,30L 10,30 Z "/>
	<path fill="#{colora}" fill-opacity="0.25" d="M 10,78L 10,68L 16,68L 22,61L 25,61L 25,85L 22,85L 16,78L 10,78 Z "/>
	<path fill="#{colorb}" d="M 10,29L 10,19L 16,19L 22,12L 25,12L 25,36L 22,36L 16,29L 10,29 Z "/>
	<path fill="#{colorb}" d="M 10,76.9896L 10,66.9896L 16,66.9896L 22,59.9896L 25,59.9896L 25,83.9896L 22,83.9896L 16,76.9896L 10,76.9896 Z "/>
	<path fill="#{colorb}" d="M 26.9792,75.8995L 30.8683,72.0104L 26.9792,68.1213L 29.1005,66L 32.9896,69.8891L 36.8787,66L 39,68.1213L 35.1109,72.0104L 39,75.8995L 36.8787,78.0208L 32.9896,74.1317L 29.1005,78.0208L 26.9792,75.8995 Z "/>
	<path fill="#{colorb}" d="M 73,12C 79.6274,12 85,17.3726 85,24L 88,24L 83.5001,29L 79,24L 82,24C 82,19.0294 77.9706,15 73,15C 68.0294,15 64,19.0294 64,24C 64,28.9706 68.0294,33 73,33L 73,36C 66.3726,36 61,30.6274 61,24C 61,17.3726 66.3726,12 73,12 Z "/>
	<path fill="#{colorb}" d="M 31.2427,31.2446C 35.2246,27.2626 35.3397,20.8781 31.5879,16.7572L 33.7111,14.634C 38.6334,19.9283 38.5177,28.2122 33.364,33.366L 31.2427,31.2446 Z "/>
	<path fill="#{colorb}" d="M 27,26.9994C 28.6378,25.3615 28.7492,22.7753 27.3342,21.0084L 29.4633,18.8793C 32.0455,21.8253 31.9315,26.3106 29.1213,29.1207L 27,26.9994 Z "/>
	<path fill="#{colora}" fill-opacity="0.25098" stroke-linejoin="round" d="M 63.1612,62.0398L 72,70.8787L 80.8388,62.0398L 82.9602,64.1612L 74.1213,73L 82.9602,81.8388L 80.8388,83.9602L 72,75.1213L 63.1612,83.9602L 61.0398,81.8388L 69.8787,73L 61.0398,64.1612L 63.1612,62.0398 Z "/>
	<path fill="#{colorb}" stroke-linejoin="round" d="M 63.1612,61.0398L 72,69.8787L 80.8388,61.0398L 82.9602,63.1612L 74.1213,72L 82.9602,80.8388L 80.8388,82.9602L 72,74.1213L 63.1612,82.9602L 61.0398,80.8388L 69.8787,72L 61.0398,63.1612L 63.1612,61.0398 Z "/>
</svg>