<?xml version="1.0" encoding="utf-8"?>
<!DOCTYPE svg PUBLIC "-//W3C//DTD SVG 1.1//EN" "http://www.w3.org/Graphics/SVG/1.1/DTD/svg11.dtd">
<svg xmlns="http://www.w3.org/2000/svg" xmlns:xlink="http://www.w3.org/1999/xlink" version="1.1" baseProfile="full" width="24" height="24" viewBox="0 0 24.00 24.00" enable-background="new 0 0 24.00 24.00" xml:space="preserve">
	<path fill="#000000" fill-opacity="0.3" d="M 22,22.5211C 21.6763,22.8408 21.2529,23 20.8289,23C 20.4055,23 19.9818,22.8408 19.6584,22.5211L 15.0048,17.9151C 13.6646,18.8397 12.0356,19.3839 10.2772,19.3839C 5.70558,19.3839 2,15.7167 2,11.192C 2,11.0241 2.00511,10.8574 2.01517,10.692C 2.27618,14.9838 5.87521,18.3839 10.2772,18.3839C 12.0356,18.3839 13.6646,17.8396 15.0048,16.9151L 19.6584,21.5211C 19.9818,21.8408 20.4055,22 20.8289,22C 21.2529,22 21.6763,21.8408 22,21.5211C 22.193,21.33 22.3284,21.1034 22.4061,20.8626C 22.5887,21.4281 22.4533,22.0722 22,22.5211 Z M 18.5546,11.192C 18.5546,12.5292 18.2299,13.7901 17.6558,14.9045L 17.29,14.5424C 18.0062,13.4139 18.4535,12.1015 18.5394,10.6917C 18.5495,10.8572 18.5546,11.024 18.5546,11.192 Z M 10.2771,5.65472C 7.35756,5.65472 4.96011,7.86835 4.70472,10.6923C 4.68983,10.5276 4.68222,10.3609 4.68222,10.1924C 4.68222,7.1341 7.18728,4.65472 10.2772,4.65472C 13.3672,4.65472 15.8721,7.1341 15.8721,10.1924C 15.8721,10.3609 15.8645,10.5277 15.8496,10.6924C 15.5943,7.86839 13.1969,5.65472 10.2771,5.65472 Z "/>
	<path fill="#FFFFFF" fill-opacity="0.5" d="M 21.9997,19.2038L 17.29,14.5424C 18.0902,13.2816 18.5546,11.7913 18.5546,10.192C 18.5546,5.66739 14.8485,1.99999 10.2772,1.99999C 5.70576,1.99999 2,5.66739 2,10.192C 2,14.7167 5.70558,18.3839 10.2772,18.3839C 12.0356,18.3839 13.6646,17.8397 15.0048,16.9151L 19.6584,21.5211C 19.9818,21.8408 20.4055,22 20.8289,22C 21.2529,22 21.6763,21.8408 22,21.5211C 22.6464,20.8809 22.6464,19.8438 21.9997,19.2038 Z M 10.2772,15.7298C 7.18728,15.7298 4.68222,13.2506 4.68222,10.1924C 4.68222,7.1341 7.18728,4.65472 10.2772,4.65472C 13.3672,4.65472 15.8721,7.1341 15.8721,10.1924C 15.8721,13.2506 13.3672,15.7298 10.2772,15.7298 Z "/>
</svg>
