<?xml version="1.0" encoding="utf-8"?>
<!DOCTYPE svg PUBLIC "-//W3C//DTD SVG 1.1//EN" "http://www.w3.org/Graphics/SVG/1.1/DTD/svg11.dtd">
<svg xmlns="http://www.w3.org/2000/svg" xmlns:xlink="http://www.w3.org/1999/xlink" version="1.1" baseProfile="full" width="24" height="48" viewBox="0 0 24.00 48.00" enable-background="new 0 0 24.00 48.00" xml:space="preserve">
	<path fill="#{color}" fill-opacity="1" stroke-linejoin="round" d="M 8,4.00002L 16,4.00002C 18.2091,4.00002 20,5.79088 20,8.00002L 20,16C 20,18.2092 18.2091,20 16,20L 8,20C 5.79086,20 4,18.2092 4,16L 4,8.00002C 4,5.79088 5.79086,4.00002 8,4.00002 Z "/>
	<path fill="#FFFFFF" fill-opacity="1" stroke-linejoin="round" d="M 8,5.00002L 16,5.00002C 17.6569,5.00002 19,6.34316 19,8.00001L 19,16C 19,17.6569 17.6569,19 16,19L 8,19C 6.34314,19 5,17.6569 5,16L 5,8.00001C 5,6.34316 6.34314,5.00002 8,5.00002 Z "/>
	<path fill="#{color}" fill-opacity="1" stroke-linejoin="round" d="M 8,28L 16,28C 18.2091,28 20,29.7909 20,32L 20,40C 20,42.2091 18.2091,44 16,44L 8,44C 5.79086,44 4,42.2091 4,40L 4,32C 4,29.7909 5.79086,28 8,28 Z "/>
	<path fill="#FFFFFF" fill-opacity="1" stroke-linejoin="round" d="M 8,29L 16,29C 17.6569,29 19,30.3432 19,32L 19,40C 19,41.6569 17.6569,43 16,43L 8,43C 6.34314,43 5,41.6569 5,40L 5,32C 5,30.3432 6.34314,29 8,29 Z "/>
	<path fill="#{color}" fill-opacity="1" stroke-linejoin="round" d="M 9,31L 15,31C 16.1046,31 17,31.8954 17,33L 17,39C 17,40.1046 16.1046,41 15,41L 9,41C 7.89543,41 7,40.1046 7,39L 7,33C 7,31.8954 7.89543,31 9,31 Z "/>
</svg>
