<?xml version="1.0" encoding="utf-8"?>
<!DOCTYPE svg PUBLIC "-//W3C//DTD SVG 1.1//EN" "http://www.w3.org/Graphics/SVG/1.1/DTD/svg11.dtd">
<svg xmlns="http://www.w3.org/2000/svg" xmlns:xlink="http://www.w3.org/1999/xlink" version="1.1" baseProfile="full" width="32" height="320" viewBox="0 0 32.00 320.00" enable-background="new 0 0 32.00 320.00" xml:space="preserve">
	<path fill="#000000" fill-opacity="0.2" d="M 11,112L 21,102L 22,103L 13,112L 22,121L 21,122L 11,112 Z "/>
	<path fill="#000000" fill-opacity="0.2" d="M 23,144L 13,154L 12,153L 21,144L 12,135L 13,134L 23,144 Z "/>
	<path fill="#000000" fill-opacity="0.2" d="M 17,295C 22.5228,295 27,299.477 27,305C 27,310.523 22.5228,315 17,315C 11.4772,315 7,310.523 7,305C 7,299.477 11.4772,295 17,295 Z M 17,297C 12.5817,297 9,300.582 9,305C 9,309.418 12.5817,313 17,313C 21.4183,313 25,309.418 25,305C 25,300.582 21.4183,297 17,297 Z "/>
	<path fill="#000000" fill-opacity="0.2" d="M 14.1716,300.757L 17,303.586L 19.8284,300.757L 21.2426,302.172L 18.4142,305L 21.2426,307.828L 19.8284,309.243L 17,306.414L 14.1716,309.243L 12.7574,307.828L 15.5858,305L 12.7574,302.172L 14.1716,300.757 Z "/>
	<path fill="#{color}" d="M 16,11C 18.7614,11 21,13.2386 21,16C 21,18.7614 18.7614,21 16,21C 13.2386,21 11,18.7614 11,16C 11,13.2386 13.2386,11 16,11 Z "/>
	<path fill="#{color}" d="M 16,43C 18.7614,43 21,45.2385 21,48C 21,50.7614 18.7614,53 16,53C 13.2386,53 11,50.7614 11,48C 11,45.2385 13.2386,43 16,43 Z "/>
	<path fill="#{color}" d="M 16,40C 20.4183,40 24,43.5817 24,48C 24,52.4183 20.4183,56 16,56C 11.5817,56 8,52.4183 8,48C 8,43.5817 11.5817,40 16,40 Z M 16,42C 12.6863,42 10,44.6863 10,48C 10,51.3138 12.6863,54.0001 16,54.0001C 19.3137,54.0001 22,51.3138 22,48C 22,44.6863 19.3137,42 16,42 Z "/>
	<path fill="#{color}" d="M 20,78L 18,76L 20,74L 18,72L 24,72L 24,78L 22,76L 20,78 Z "/>
	<path fill="#{color}" d="M 13.9999,76L 11.9999,78L 9.99996,76L 7.99996,78L 7.99996,72L 14,72L 12,74L 13.9999,76 Z "/>
	<path fill="#{color}" d="M 12,82L 14,84L 12,86L 14,88L 8,88L 8,82L 10,84L 12,82 Z "/>
	<path fill="#{color}" d="M 18.0001,84L 20.0001,82L 22,84L 24,82L 24,88L 18,88L 20,86L 18.0001,84 Z "/>
	<path fill="#{color}" d="M 10,112L 20,102L 21,103L 12,112L 21,121L 20,122L 10,112 Z "/>
	<path fill="#{color}" d="M 22,144L 12,154L 11,153L 20,144L 11,135L 12,134L 22,144 Z "/>
	<path fill="#{color}" d="M 8,174L 12,174L 16,170L 16,182L 12,178L 8,178L 8,174 Z "/>
	<path fill="#{color}" d="M 25,176C 25,180.08 21.9463,183.446 18,183.938L 18,181.917C 20.8377,181.441 23,178.973 23,176C 23,173.027 20.8377,170.559 18,170.083L 18,168.062C 21.9463,168.554 25,171.92 25,176 Z "/>
	<path fill="#{color}" d="M 21,176C 21,177.864 19.7252,179.43 18,179.874L 18,172.126C 19.7252,172.57 21,174.136 21,176 Z "/>
	<path fill="#{color}" d="M 8,206.062L 12,206.062L 16,202.062L 16,214.062L 12,210.062L 8,210.062L 8,206.062 Z "/>
	<path fill="#{color}" d="M 25,208.062C 25,212.142 21.9463,215.508 18,216L 18,213.979C 20.8377,213.503 23,211.035 23,208.062C 23,205.089 20.8377,202.621 18,202.145L 18,200.124C 21.9463,200.616 25,203.982 25,208.062 Z "/>
	<path fill="#{color}" d="M 21,208.062C 21,209.926 19.7252,211.492 18,211.936L 18,204.188C 19.7252,204.632 21,206.198 21,208.062 Z "/>
	<path fill="#{color}" d="M 9,201L 10,200L 25,215L 24,216L 9,201 Z "/>
	<path fill="#{color}" d="M 12,233L 12,247L 22,240L 12,233 Z "/>
	<rect x="9" y="264" fill="#{color}" width="4" height="16"/>
	<rect x="18" y="264" fill="#{color}" width="4" height="16"/>
	<path fill="#{color}" d="M 16,294C 21.5228,294 26,298.477 26,304C 26,309.523 21.5228,314 16,314C 10.4772,314 6,309.523 6,304C 6,298.477 10.4772,294 16,294 Z M 16,296C 11.5817,296 8,299.582 8,304C 8,308.418 11.5817,312 16,312C 20.4183,312 24,308.418 24,304C 24,299.582 20.4183,296 16,296 Z "/>
	<path fill="#{color}" d="M 13.1716,299.757L 16,302.586L 18.8284,299.757L 20.2426,301.172L 17.4142,304L 20.2426,306.828L 18.8284,308.243L 16,305.414L 13.1716,308.243L 11.7574,306.828L 14.5858,304L 11.7574,301.172L 13.1716,299.757 Z "/>
</svg>
