<?xml version="1.0" encoding="utf-8"?>
<!DOCTYPE svg PUBLIC "-//W3C//DTD SVG 1.1//EN" "http://www.w3.org/Graphics/SVG/1.1/DTD/svg11.dtd">
<svg xmlns="http://www.w3.org/2000/svg" xmlns:xlink="http://www.w3.org/1999/xlink" version="1.1" baseProfile="full" width="210" height="83" viewBox="0 0 210.00 83.00" enable-background="new 0 0 210.00 83.00" xml:space="preserve">
	<path fill="#FFFFFF" d="M 34.3461,18.9777L 34.3461,16.3238L 31.6923,16.3238L 31.6923,18.9777L 29.0384,18.9777L 29.0384,21.6316L 31.6923,21.6316L 31.6923,24.2854L 34.3461,24.2854L 34.3461,21.6316L 37,21.6316L 37,18.9777L 34.3461,18.9777 Z "/>
	<path fill="#FFFFFF" d="M 15.7691,18.9777L 15.7691,22.9585L 22.0669,22.9585C 20.9485,26.4287 17.2295,28.3361 13.7594,27.2179C 10.289,26.0996 8.38228,22.3806 9.49993,18.9103C 10.6176,15.4408 14.3366,13.534 17.8068,14.6515C 18.8085,14.9735 19.7182,15.5314 20.4607,16.2766L 23.2747,13.462C 19.1123,9.27389 12.3424,9.25385 8.15417,13.4167C 3.96613,17.5802 3.94597,24.3502 8.10946,28.5384C 12.2723,32.7264 19.0424,32.7459 23.2304,28.5824C 25.7548,26.0737 26.864,22.4725 26.1915,18.9777L 15.7691,18.9777 Z "/>
	<path fill="#FFFFFF" d="M 58.8484,37L 65.4599,37L 65.4599,20.9978L 69.8707,20.9978L 70.4546,15.4841L 65.4599,15.4841L 65.4665,12.7234C 65.4665,11.2859 65.6045,10.5147 67.6667,10.5147L 70.4241,10.5147L 70.4241,5.00002L 66.0123,5.00002C 60.713,5.00002 58.8484,7.67551 58.8484,12.1734L 58.8484,15.4841L 55.5454,15.4841L 55.5454,20.9988L 58.8484,20.9988L 58.8484,37 Z "/>
	<path fill="#FFFFFF" d="M 89.5181,15.6255L 96.155,15.6255L 96.155,37L 89.5181,37L 89.5181,15.6255 Z M 92.8489,5C 94.9707,5 96.6978,6.72974 96.6978,8.85484C 96.6978,10.9799 94.9707,12.7097 92.8489,12.7097C 90.7147,12.7097 89,10.9799 89,8.85484C 89,6.72974 90.7147,5 92.8489,5"/>
	<path fill="#FFFFFF" d="M 100.325,15.6255L 106.678,15.6255L 106.678,18.5537L 106.764,18.5537C 107.652,16.8734 109.811,15.1066 113.043,15.1066C 119.754,15.1066 121,19.5297 121,25.2873L 121,37L 114.375,37L 114.375,26.6093C 114.375,24.1259 114.339,20.9382 110.934,20.9382C 107.48,20.9382 106.961,23.6441 106.961,26.4239L 106.961,37L 100.337,37L 100.337,15.6255L 100.325,15.6255 Z "/>
	<path fill="#FFFFFF" d="M 131,25.5091C 131,25.5091 132.252,27.6234 134.568,28.9681C 137.197,30.4936 139.184,31.2863 142.055,31.4335C 144.925,31.5806 146.481,31.8044 150.578,30.2785C 154.976,28.6399 156.431,26.5504 157.637,24.9831C 158.843,23.4158 159.238,21.6087 159.238,21.6087C 159.238,21.6087 160.391,21.6139 161.244,21.2969C 162.273,20.9148 163,20.2104 163,20.2104C 163,20.2104 161.966,20.2795 160.983,20.1736C 160.259,20.0955 159.587,19.8424 159.587,19.8424C 159.587,19.8424 160.898,19.765 161.759,19.3272C 162.542,18.9291 162.873,18.1704 162.873,18.1704C 162.873,18.1704 162.164,18.423 161.38,18.4464C 160.279,18.4793 159.152,18.2992 159.152,18.2992C 159.152,18.2992 158.92,16.6778 157.337,14.5436C 155.755,12.4094 152.343,12.4485 152.343,12.4485C 152.343,12.4485 155.159,11.6001 155.012,11.1124C 154.866,10.6247 152.721,11.3423 152.721,11.3423C 152.721,11.3423 153.626,10.5336 153.352,10.5166C 152.903,10.4888 151.276,11.2526 151.276,11.2526L 151.373,10.7006C 151.373,10.7006 148.855,13.0936 147.795,14.8012C 146.857,16.3133 146.321,17.9289 146.321,17.9289L 143.994,16.2363C 143.994,16.2363 137.206,12.1518 135.693,12.8877C 134.181,13.6237 138.331,16.6778 138.331,16.6778C 138.331,16.6778 135.732,15.9419 136.508,17.6346C 137.284,19.3272 139.882,19.8424 139.882,19.8424C 139.882,19.8424 137.361,19.8424 138.021,21.1303C 138.68,22.4182 141.512,22.6022 141.512,22.6022C 141.512,22.6022 140.076,23.0437 140.503,24.1476C 140.93,25.2515 142.869,25.2516 142.869,25.2516C 142.869,25.2516 141.201,26.9442 137.749,27.533C 134.297,28.1217 131,25.5091 131,25.5091 Z "/>
	<path fill="#FFFFFF" d="M 192.658,37L 185.554,24.4549L 196.579,5L 204,5L 192.975,24.4549L 200.079,37L 192.658,37 Z M 180.996,27.3243L 186.508,18.1827L 182.374,10.8474L 175.378,10.8474L 179.512,18.1827L 174,27.3243L 180.996,27.3243 Z "/>
	<path fill="#FFFFFF" d="M 27.3389,62.1152L 27.3389,60.9542L 26.1779,60.9542L 26.1779,62.1152L 25.0168,62.1152L 25.0168,63.2763L 26.1779,63.2763L 26.1779,64.4374L 27.3389,64.4374L 27.3389,63.2763L 28.5,63.2763L 28.5,62.1152L 27.3389,62.1152 Z "/>
	<path fill="#FFFFFF" d="M 19.2115,62.1152L 19.2115,63.8568L 21.9667,63.8568C 21.4775,65.375 19.8504,66.2095 18.3322,65.7203C 16.814,65.231 15.9797,63.604 16.4687,62.0857C 16.9577,60.5678 18.5848,59.7336 20.103,60.2225C 20.5412,60.3634 20.9392,60.6075 21.264,60.9335L 22.4952,59.7021C 20.6741,57.8698 17.7123,57.861 15.8799,59.6823C 14.0477,61.5038 14.0389,64.4657 15.8604,66.298C 17.6816,68.1303 20.6435,68.1388 22.4758,66.3173C 23.5802,65.2197 24.0655,63.6442 23.7713,62.1152L 19.2115,62.1152 Z "/>
	<path fill="#FFFFFF" d="M 61.6837,70L 64.5762,70L 64.5762,62.999L 66.5059,62.999L 66.7614,60.5868L 64.5762,60.5868L 64.5791,59.379C 64.5791,58.7501 64.6395,58.4127 65.5417,58.4127L 66.7481,58.4127L 66.7481,56L 64.8179,56C 62.4995,56 61.6837,57.1705 61.6837,59.1384L 61.6837,60.5868L 60.2386,60.5868L 60.2386,62.9995L 61.6837,62.9995L 61.6837,70 Z "/>
	<path fill="#FFFFFF" d="M 98.7267,60.6486L 101.63,60.6486L 101.63,70L 98.7267,70L 98.7267,60.6486 Z M 100.184,56C 101.112,56 101.868,56.7568 101.868,57.6865C 101.868,58.6162 101.112,59.373 100.184,59.373C 99.2502,59.373 98.5,58.6162 98.5,57.6865C 98.5,56.7568 99.2502,56 100.184,56"/>
	<path fill="#FFFFFF" d="M 103.455,60.6486L 106.234,60.6486L 106.234,61.9298L 106.272,61.9298C 106.66,61.1946 107.605,60.4216 109.019,60.4216C 111.955,60.4216 112.5,62.3568 112.5,64.8757L 112.5,70L 109.602,70L 109.602,65.4541C 109.602,64.3676 109.586,62.973 108.096,62.973C 106.585,62.973 106.358,64.1568 106.358,65.373L 106.358,70L 103.46,70L 103.46,60.6486L 103.455,60.6486 Z "/>
	<path fill="#FFFFFF" d="M 140.5,64.9727C 140.5,64.9727 141.048,65.8978 142.061,66.486C 143.211,67.1535 144.081,67.5002 145.336,67.5647C 146.592,67.629 147.273,67.7269 149.065,67.0593C 150.99,66.3424 151.626,65.4283 152.154,64.7426C 152.681,64.0569 152.854,63.2663 152.854,63.2663C 152.854,63.2663 153.359,63.2686 153.732,63.1299C 154.182,62.9627 154.5,62.6545 154.5,62.6545C 154.5,62.6545 154.048,62.6848 153.618,62.6384C 153.301,62.6043 153.007,62.4935 153.007,62.4935C 153.007,62.4935 153.581,62.4597 153.957,62.2682C 154.299,62.094 154.445,61.7621 154.445,61.7621C 154.445,61.7621 154.134,61.8726 153.791,61.8828C 153.309,61.8972 152.817,61.8184 152.817,61.8184C 152.817,61.8184 152.715,61.1091 152.023,60.1753C 151.33,59.2416 149.838,59.2587 149.838,59.2587C 149.838,59.2587 151.07,58.8876 151.005,58.6742C 150.941,58.4608 150.003,58.7747 150.003,58.7747C 150.003,58.7747 150.399,58.421 150.279,58.4135C 150.083,58.4014 149.371,58.7355 149.371,58.7355L 149.413,58.494C 149.413,58.494 148.311,59.5409 147.848,60.288C 147.437,60.9496 147.203,61.6564 147.203,61.6564L 146.185,60.9159C 146.185,60.9159 143.215,59.1289 142.553,59.4509C 141.892,59.7729 143.707,61.1091 143.707,61.1091C 143.707,61.1091 142.57,60.7871 142.91,61.5276C 143.249,62.2682 144.386,62.4935 144.386,62.4935C 144.386,62.4935 143.283,62.4935 143.572,63.057C 143.86,63.6205 145.099,63.7009 145.099,63.7009C 145.099,63.7009 144.471,63.8941 144.658,64.3771C 144.844,64.86 145.693,64.8601 145.693,64.8601C 145.693,64.8601 144.963,65.6006 143.453,65.8582C 141.942,66.1157 140.5,64.9727 140.5,64.9727 Z "/>
	<path fill="#FFFFFF" d="M 191.1,70L 187.992,64.5115L 192.816,56L 196.063,56L 191.239,64.5115L 194.347,70L 191.1,70 Z M 185.998,65.7669L 188.41,61.7674L 186.601,58.5582L 183.54,58.5582L 185.349,61.7674L 182.938,65.7669L 185.998,65.7669 Z "/>
</svg>
