<?xml version="1.0" encoding="utf-8"?>
<!DOCTYPE svg PUBLIC "-//W3C//DTD SVG 1.1//EN" "http://www.w3.org/Graphics/SVG/1.1/DTD/svg11.dtd">
<svg xmlns="http://www.w3.org/2000/svg" xmlns:xlink="http://www.w3.org/1999/xlink" version="1.1" baseProfile="full" width="20" height="20" viewBox="0 0 20.00 20.00" enable-background="new 0 0 20.00 20.00" xml:space="preserve">
	<path fill="#{color}" fill-opacity="1" stroke-width="1.33333" stroke-linejoin="miter" d="M 12.7,4.49509C 11.6559,4.49509 10.6539,4.98114 10,5.74898C 9.34613,4.98114 8.34414,4.49509 7.30001,4.49509C 5.45195,4.49509 4.00001,5.94703 4.00001,7.79509C 4.00001,10.0633 6.03996,11.9107 9.1299,14.7191L 10,15.5049L 10.8701,14.7133C 13.9598,11.9107 16,10.0633 16,7.79509C 16,5.94703 14.5481,4.49509 12.7,4.49509 Z M 10.0601,13.825L 10,13.8853L 9.93996,13.825C 7.08408,11.2392 5.20001,9.52916 5.20001,7.79509C 5.20001,6.59509 6.10001,5.69509 7.30001,5.69509C 8.22402,5.69509 9.12402,6.28921 9.44189,7.11103L 10.5637,7.11103C 10.876,6.28921 11.776,5.69509 12.7,5.69509C 13.9,5.69509 14.8,6.59509 14.8,7.79509C 14.8,9.52916 12.9157,11.2392 10.0601,13.825 Z "/>
</svg>
