<?xml version="1.0" encoding="utf-8"?>
<!DOCTYPE svg PUBLIC "-//W3C//DTD SVG 1.1//EN" "http://www.w3.org/Graphics/SVG/1.1/DTD/svg11.dtd">
<svg xmlns="http://www.w3.org/2000/svg" xmlns:xlink="http://www.w3.org/1999/xlink" version="1.1" baseProfile="full" width="100" height="300" viewBox="0 0 100.00 300.00" enable-background="new 0 0 100.00 300.00" xml:space="preserve">
	<path fill="#{colora}" d="M 22,20L 22,30L 28,25L 22,20 Z "/>
	<path fill="#{colorb}" d="M 72,20L 72,30L 78,25L 72,20 Z "/>
	<path fill="#{colora}" d="M 23.4706,81.5L 23.4706,76.9118L 26.5294,76.9118L 26.5294,81.5L 30.3529,81.5L 30.3529,75.3824L 32.6471,75.3824L 25,68.5L 17.3529,75.3824L 19.6471,75.3824L 19.6471,81.5L 23.4706,81.5 Z "/>
	<path fill="#{colorb}" d="M 73.4706,81.5L 73.4706,76.9118L 76.5294,76.9118L 76.5294,81.5L 80.353,81.5L 80.353,75.3823L 82.6471,75.3823L 75,68.5L 67.353,75.3823L 69.6471,75.3823L 69.6471,81.5L 73.4706,81.5 Z "/>
	<path fill="#{colora}" d="M 27.7909,126.676L 27.2037,126.676L 26.9954,126.476C 27.7241,125.628 28.1625,124.528 28.1625,123.331C 28.1625,120.663 25.9995,118.5 23.3313,118.5C 20.663,118.5 18.5,120.663 18.5,123.331C 18.5,126 20.663,128.163 23.3313,128.163C 24.5279,128.163 25.6278,127.724 26.4757,126.995L 26.676,127.204L 26.676,127.791L 30.3924,131.5L 31.5,130.392L 27.7909,126.676 Z M 23.3313,126.676C 21.4804,126.676 19.9865,125.182 19.9865,123.331C 19.9865,121.48 21.4804,119.987 23.3313,119.987C 25.1822,119.987 26.676,121.48 26.676,123.331C 26.676,125.182 25.1822,126.676 23.3313,126.676 Z "/>
	<path fill="#{colorb}" d="M 77.7908,126.676L 77.2037,126.676L 76.9953,126.476C 77.7241,125.628 78.1625,124.528 78.1625,123.331C 78.1625,120.663 75.9994,118.5 73.3312,118.5C 70.663,118.5 68.4999,120.663 68.4999,123.331C 68.4999,125.999 70.663,128.163 73.3312,128.163C 74.5278,128.163 75.6278,127.724 76.4756,126.995L 76.6759,127.204L 76.6759,127.791L 80.3923,131.5L 81.4999,130.392L 77.7908,126.676 Z M 73.3312,126.676C 71.4803,126.676 69.9865,125.182 69.9865,123.331C 69.9865,121.48 71.4803,119.987 73.3312,119.987C 75.1821,119.987 76.6759,121.48 76.6759,123.331C 76.6759,125.182 75.1821,126.676 73.3312,126.676 Z "/>
	<g>
		<rect x="18" y="170" fill="#{colora}" width="14" height="2"/>
		<rect x="18" y="174" fill="#{colora}" width="14" height="2"/>
		<rect x="18" y="178" fill="#{colora}" width="14" height="2"/>
	</g>
	<g>
		<rect x="68" y="170" fill="#{colorb}" width="14" height="2"/>
		<rect x="68" y="174" fill="#{colorb}" width="14" height="2"/>
		<rect x="68" y="178" fill="#{colorb}" width="14" height="2"/>
	</g>
	<path fill="#{colora}" d="M 22.4,228.9C 21.6849,228.9 21.1064,229.485 21.1064,230.2C 21.1064,230.915 21.6849,231.5 22.4,231.5C 23.1151,231.5 23.7,230.915 23.7,230.2C 23.7,229.485 23.1151,228.9 22.4,228.9 Z M 18.5,218.5L 18.5,219.8L 19.8,219.8L 22.1401,224.733L 21.2625,226.326C 21.1584,226.508 21.1,226.723 21.1,226.95C 21.1,227.665 21.6849,228.25 22.4,228.25L 30.2,228.25L 30.2,226.95L 22.6729,226.95C 22.5818,226.95 22.5104,226.879 22.5104,226.787L 22.5301,226.709L 23.1151,225.65L 27.9574,225.65C 28.4449,225.65 28.874,225.383 29.0949,224.98L 31.4219,220.762C 31.474,220.671 31.5,220.56 31.5,220.45C 31.5,220.093 31.2074,219.8 30.85,219.8L 21.2365,219.8L 20.6255,218.5L 18.5,218.5 Z M 28.9,228.9C 28.1852,228.9 27.6064,229.485 27.6064,230.2C 27.6064,230.915 28.1852,231.5 28.9,231.5C 29.6147,231.5 30.2,230.915 30.2,230.2C 30.2,229.485 29.6147,228.9 28.9,228.9 Z "/>
	<path fill="#{colorb}" d="M 72.4,228.9C 71.6849,228.9 71.1063,229.485 71.1063,230.2C 71.1063,230.915 71.6849,231.5 72.4,231.5C 73.115,231.5 73.7,230.915 73.7,230.2C 73.7,229.485 73.115,228.9 72.4,228.9 Z M 68.5,218.5L 68.5,219.8L 69.8,219.8L 72.14,224.733L 71.2625,226.326C 71.1584,226.508 71.1,226.723 71.1,226.95C 71.1,227.665 71.6849,228.25 72.4,228.25L 80.2,228.25L 80.2,226.95L 72.6729,226.95C 72.5818,226.95 72.5104,226.879 72.5104,226.788L 72.5301,226.709L 73.115,225.65L 77.9574,225.65C 78.4448,225.65 78.874,225.383 79.0948,224.98L 81.4219,220.762C 81.474,220.671 81.5,220.56 81.5,220.45C 81.5,220.093 81.2074,219.8 80.85,219.8L 71.2365,219.8L 70.6255,218.5L 68.5,218.5 Z M 78.9,228.9C 78.1852,228.9 77.6063,229.485 77.6063,230.2C 77.6063,230.915 78.1852,231.5 78.9,231.5C 79.6147,231.5 80.2,230.915 80.2,230.2C 80.2,229.485 79.6147,228.9 78.9,228.9 Z "/>
	<path fill="#{colora}" d="M 25,275C 26.7956,275 28.25,273.546 28.25,271.75C 28.25,269.954 26.7956,268.5 25,268.5C 23.2044,268.5 21.75,269.954 21.75,271.75C 21.75,273.546 23.2044,275 25,275 Z M 25,276.625C 22.8307,276.625 18.5,277.714 18.5,279.875L 18.5,281.5L 31.5,281.5L 31.5,279.875C 31.5,277.714 27.1693,276.625 25,276.625 Z "/>
	<path fill="#{colorb}" d="M 75,275C 76.7956,275 78.25,273.546 78.25,271.75C 78.25,269.954 76.7956,268.5 75,268.5C 73.2044,268.5 71.75,269.954 71.75,271.75C 71.75,273.546 73.2044,275 75,275 Z M 75,276.625C 72.8307,276.625 68.5,277.714 68.5,279.875L 68.5,281.5L 81.5,281.5L 81.5,279.875C 81.5,277.714 77.1693,276.625 75,276.625 Z "/>
</svg>
