<?xml version="1.0" encoding="utf-8"?>
<!DOCTYPE svg PUBLIC "-//W3C//DTD SVG 1.1//EN" "http://www.w3.org/Graphics/SVG/1.1/DTD/svg11.dtd">
<svg xmlns="http://www.w3.org/2000/svg" xmlns:xlink="http://www.w3.org/1999/xlink" version="1.1" baseProfile="full" width="32" height="32" viewBox="0 0 32.00 32.00" enable-background="new 0 0 32.00 32.00" xml:space="preserve">
	<path fill="#{color}" d="M 23.4613,30.1599C 20.7803,31.4924 18.0475,32 14.7788,32C 6.77977,32 -5.38248e-006,26.4818 -5.38248e-006,17.6547C -5.38248e-006,8.18323 6.97434,-1.90735e-005 17.8057,-1.90735e-005C 26.2926,-1.90735e-005 32,5.60951 32,13.2876C 32,20.1833 27.9011,24.2285 23.318,24.2285C 21.3636,24.2285 19.5603,22.9873 19.7078,20.1836L 19.5133,20.1836C 17.8057,22.8956 15.5615,24.2285 12.6344,24.2285C 9.80647,24.2285 7.36801,22.068 7.36801,18.4372C 7.36801,12.7354 12.1458,7.53913 18.9256,7.53913C 21.0224,7.53913 22.8771,7.95267 24.1443,8.50514L 22.4879,16.8271C 21.7572,20.3219 22.3408,21.9296 23.9493,21.9769C 26.4394,22.0218 29.2199,18.8959 29.2199,13.5629C 29.2199,6.89564 24.9748,2.11542 17.4117,2.11542C 9.46461,2.11542 2.78,8.04505 2.78,17.3795C 2.78,25.058 8.09822,29.7919 15.3149,29.7919C 18.0954,29.7919 20.6808,29.2415 22.6823,28.1836L 23.4613,30.1599 Z M 20.7803,10.2984C 20.2917,10.1599 19.4615,9.97647 18.3423,9.97647C 14.0486,9.97647 10.5851,13.7932 10.5851,18.2518C 10.5851,20.2752 11.6575,21.7464 13.8059,21.7464C 16.634,21.7464 19.2195,18.3435 19.7554,15.4944L 20.7803,10.2984 Z "/>
</svg>