<?xml version="1.0" encoding="utf-8"?>
<!DOCTYPE svg PUBLIC "-//W3C//DTD SVG 1.1//EN" "http://www.w3.org/Graphics/SVG/1.1/DTD/svg11.dtd">
<svg xmlns="http://www.w3.org/2000/svg" xmlns:xlink="http://www.w3.org/1999/xlink" version="1.1" baseProfile="full" width="32" height="32" viewBox="0 0 32.00 32.00" enable-background="new 0 0 32.00 32.00" xml:space="preserve">
	<path fill="#{color}" fill-opacity="1" stroke-width="1.33333" stroke-linejoin="miter" d="M 27.7865,19.7885C 27.3635,19.0487 26.8746,17.2891 26.5377,16.0769C 25.5856,12.651 24.1116,7.36278 19.6786,5.46412C 19.7225,5.23169 19.75,4.99354 19.75,4.75C 19.75,2.67908 18.0709,0.999994 16,0.999994C 13.9291,0.999994 12.25,2.67908 12.25,4.75C 12.25,4.99354 12.2775,5.23169 12.3215,5.46412C 7.88855,7.36302 6.41456,12.651 5.46229,16.0769C 5.12526,17.2891 4.63659,19.0487 4.2135,19.7885C 2.39709,20.0485 1,21.6104 1,23.5C 1,25.5709 2.67909,27.25 4.75,27.25L 12.25,27.25C 12.25,29.3209 13.9291,31 16,31C 18.0709,31 19.75,29.3209 19.75,27.25L 27.25,27.25C 29.3209,27.25 31,25.5709 31,23.5C 31,21.6104 29.6029,20.0485 27.7865,19.7885 Z M 27.25,25.375L 16,25.375L 4.75,25.375C 3.71545,25.375 2.875,24.5346 2.875,23.5C 2.875,22.5735 3.56519,21.7751 4.47911,21.6451C 5.05214,21.5628 5.55396,21.2203 5.84154,20.7186C 6.33958,19.8471 6.78272,18.3291 7.26977,16.5786C 8.13745,13.4549 9.4485,8.73437 13.0593,7.187C 13.8686,6.84083 14.3263,5.98047 14.1635,5.11609C 14.1379,4.97703 14.125,4.85802 14.125,4.75C 14.125,3.71544 14.9655,2.875 16,2.875C 17.0346,2.875 17.875,3.71544 17.875,4.75C 17.875,4.85802 17.8622,4.97703 17.8365,5.11632C 17.6736,5.9807 18.1314,6.84107 18.9407,7.18724C 22.5515,8.73461 23.8626,13.4549 24.7323,16.5823C 25.2175,18.3291 25.6607,19.8473 26.1587,20.7186C 26.4462,21.2203 26.9479,21.5628 27.5212,21.6451C 28.4347,21.7751 29.125,22.5735 29.125,23.5C 29.125,24.5346 28.2846,25.375 27.25,25.375 Z "/>
</svg>
