<?xml version="1.0" encoding="utf-8"?>
<!DOCTYPE svg PUBLIC "-//W3C//DTD SVG 1.1//EN" "http://www.w3.org/Graphics/SVG/1.1/DTD/svg11.dtd">
<svg xmlns="http://www.w3.org/2000/svg" xmlns:xlink="http://www.w3.org/1999/xlink" version="1.1" baseProfile="full" width="32" height="32" viewBox="0 0 32.00 32.00" enable-background="new 0 0 32.00 32.00" xml:space="preserve">
	<path fill="#{color}" fill-opacity="1" stroke-width="1.33333" stroke-linejoin="miter" d="M 14.5488,26.4347L 10.8571,22.7429L 8.80027,24.7998L 15.9999,32.0001L 23.1987,24.7998L 21.142,22.7429L 17.4559,26.429L 17.4559,10.1819L 14.5488,10.1819L 14.5488,26.4347 Z M 10.1817,20.3608L 6.7988,20.3595L 5.77891,20.2785C 2.4842,19.7727 -0.000178258,17.1122 -0.000178258,13.9234C -0.000178258,11.8367 1.06876,9.94391 2.7825,8.75498C 2.36839,5.60165 5.03388,3.32528 7.81802,3.32528C 8.63838,3.32528 9.43024,3.50928 10.1376,3.84876C 11.2427,2.189 14.4147,3.24249e-005 18.2726,3.24249e-005C 23.4091,3.24249e-005 27.6959,3.56747 28.2926,8.23306C 29.9061,8.75498 31.9999,11.1386 31.9999,13.9234C 31.9999,17.1122 29.5155,19.7727 26.1107,20.2898L 25.0866,20.3637L 21.8181,20.3637L 21.8181,17.4546L 24.98,17.4546L 25.7783,17.3978C 27.7016,17.1038 29.0908,15.618 29.0908,13.9177C 29.0908,12.4404 28.0425,11.108 26.4601,10.598L 25.4714,10.2792L 25.453,9.24296C 25.3919,5.76061 22.2214,2.90913 18.2726,2.90913C 15.4736,2.90913 12.9829,4.35653 11.7981,6.56109L 10.8663,8.294L 9.48143,6.89489C 9.07011,6.48021 8.47139,6.23163 7.81802,6.23163C 6.58573,6.23163 5.6362,7.09953 5.6362,8.10304C 5.6362,8.35233 5.69235,8.59234 5.80173,8.81753L 6.45017,10.1563L 5.09221,10.7707C 3.75125,11.3772 2.90892,12.5916 2.90892,13.9177C 2.90892,15.618 4.29817,17.1038 6.10997,17.3864L 6.90893,17.4504L 10.1817,17.4517L 10.1817,20.3608 Z "/>
</svg>
