<?xml version="1.0" encoding="utf-8"?>
<!DOCTYPE svg PUBLIC "-//W3C//DTD SVG 1.1//EN" "http://www.w3.org/Graphics/SVG/1.1/DTD/svg11.dtd">
<svg xmlns="http://www.w3.org/2000/svg" xmlns:xlink="http://www.w3.org/1999/xlink" version="1.1" baseProfile="full" width="32" height="32" viewBox="0 0 32.00 32.00" enable-background="new 0 0 32.00 32.00" xml:space="preserve">
	<path fill="#{color}" d="M 28.0874,24.205C 27.8377,24.2188 27.6019,24.2188 27.3523,24.2188C 23.3163,24.2188 19.516,22.6487 16.6589,19.7864C 13.8017,16.924 12.2344,13.1169 12.2344,9.07343C 12.2344,6.76685 12.7476,4.54366 13.7046,2.5289C 14.1346,1.63964 14.6478,0.792032 15.2441,-3.8147e-006C 14.19,0.111197 13.1776,0.333529 12.1928,0.639175C 5.70186,2.69567 0.999997,8.76771 0.999997,15.9514C 0.999997,24.8164 8.17063,32 17.0194,32C 21.9154,32 26.2843,29.8046 29.2247,26.3449C 29.8904,25.5528 30.5007,24.6913 31,23.7743C 30.0569,24.0104 29.086,24.1633 28.0874,24.205 Z "/>
</svg>
