<?xml version="1.0" encoding="utf-8"?>
<!DOCTYPE svg PUBLIC "-//W3C//DTD SVG 1.1//EN" "http://www.w3.org/Graphics/SVG/1.1/DTD/svg11.dtd">
<svg xmlns="http://www.w3.org/2000/svg" xmlns:xlink="http://www.w3.org/1999/xlink" version="1.1" baseProfile="full" width="32" height="32" viewBox="0 0 32.00 32.00" enable-background="new 0 0 32.00 32.00" xml:space="preserve">
	<path fill="#{color}" fill-opacity="1" stroke-width="1.33333" stroke-linejoin="miter" d="M 11.5558,11.517L 11.5558,25.6992L 11.5558,25.6992C 11.5716,26.9956 10.5463,28.4591 8.42377,29.3792C 5.47627,30.6545 2.37601,30.0329 1.24085,28.5586C 0.106883,27.0845 0.937101,24.7596 3.88552,23.4826C 5.86771,22.6247 7.91952,22.6265 9.39534,23.1665L 9.39534,11.8811L 9.39534,4.60623L 31,0.968794L 31,2.78751L 31,8.24368L 31,23.8857L 31,23.8857C 31.0127,25.1805 29.9874,26.6422 27.8691,27.5605C 24.9193,28.8358 21.8202,28.2141 20.685,26.7399C 19.5521,25.2658 20.3813,22.9409 23.3286,21.6638C 25.3119,20.8059 27.3627,20.8078 28.8395,21.3478L 28.8395,8.60777L 11.5558,11.517 Z "/>
</svg>
