<?xml version="1.0" encoding="utf-8"?>
<!DOCTYPE svg PUBLIC "-//W3C//DTD SVG 1.1//EN" "http://www.w3.org/Graphics/SVG/1.1/DTD/svg11.dtd">
<svg xmlns="http://www.w3.org/2000/svg" xmlns:xlink="http://www.w3.org/1999/xlink" version="1.1" baseProfile="full" width="32" height="32" viewBox="0 0 32.00 32.00" enable-background="new 0 0 32.00 32.00" xml:space="preserve">
	<path fill="#{color}" fill-opacity="1" stroke-width="1.33333" stroke-linejoin="miter" d="M 8.86834,13.2875L 3.2719,13.2875L 3.2719,30.7179L 21.5293,30.7179L 21.5293,18.7878L 22.3498,18.2429L 22.728,18.4737L 22.805,18.339L 22.805,32L 1.98979,32L 1.98979,12.7554L 8.20804,6.53717L 18.5867,6.53717L 17.7919,7.8129L 8.86834,7.8129L 8.86834,13.2875 Z M 29.1065,1.96004C 30.0425,2.54342 30.3373,3.77424 29.754,4.7166L 29.5488,5.04352L 23.3818,1.22285L 23.587,0.895899C 24.1704,-0.0464706 25.4076,-0.334949 26.35,0.248407L 29.1065,1.96004 Z M 16.1508,12.8965L 22.9396,1.94722L 29.1001,5.76792L 22.3178,16.7108L 22.3048,16.7044L 22.2088,16.8069L 15.6443,21.1469C 15.5418,21.2174 15.4071,21.2174 15.2981,21.1533C 15.1956,21.0828 15.1379,20.961 15.1507,20.8392L 16.1187,13.0311L 16.1636,12.9029L 16.1508,12.8965 Z M 17.9521,18.8519L 21.4331,16.5569L 16.6828,13.6081L 16.17,17.7493L 17.9521,18.8519 Z "/>
</svg>
