<?xml version="1.0" encoding="utf-8"?>
<!DOCTYPE svg PUBLIC "-//W3C//DTD SVG 1.1//EN" "http://www.w3.org/Graphics/SVG/1.1/DTD/svg11.dtd">
<svg xmlns="http://www.w3.org/2000/svg" xmlns:xlink="http://www.w3.org/1999/xlink" version="1.1" baseProfile="full" width="32" height="32" viewBox="0 0 32.00 32.00" enable-background="new 0 0 32.00 32.00" xml:space="preserve">
	<path fill="#{color}" d="M 7.55112,30.0772C 7.4603,30.1925 7.33458,30.2813 7.18165,30.3209L 0.879613,31.9796L 0.842931,31.9858L 0.768082,31.9976L 0.700648,32L 0.632731,31.997L 0.558187,31.9858L 0.52153,31.9796L 0.426717,31.9438L 0.367676,31.9166L 0.30955,31.8802L 0.254389,31.8405L 0.204981,31.7947L 0.158997,31.7456L 0.119644,31.6897L 0.082962,31.6326L 0.0556081,31.5731L 0.0295563,31.5036L 0.0144704,31.4415L 0.00265503,31.367L -5.08626e-006,31.2989L 0.00265503,31.2318L 0.0144704,31.1569L 0.0202586,31.1202L 1.67905,24.8187C 1.719,24.666 1.80773,24.5406 1.92224,24.4489L 23.2591,3.11247L 28.8876,8.74077L 7.55112,30.0772 Z M 2.56594,29.4341C 2.72864,29.5959 2.79223,29.8177 2.76251,30.0286L 6.4267,29.0649L 2.93527,25.5736L 1.97104,29.2373C 2.18211,29.208 2.40397,29.272 2.56594,29.4341 Z M 29.8443,7.78409L 24.2161,2.15552L 26.3717,-0.000270844C 26.3717,-0.000270844 30.2055,1.36699 32,5.6286L 29.8443,7.78409 Z "/>
</svg>