<?xml version="1.0" encoding="utf-8"?>
<!DOCTYPE svg PUBLIC "-//W3C//DTD SVG 1.1//EN" "http://www.w3.org/Graphics/SVG/1.1/DTD/svg11.dtd">
<svg xmlns="http://www.w3.org/2000/svg" xmlns:xlink="http://www.w3.org/1999/xlink" version="1.1" baseProfile="full" width="32" height="32" viewBox="0 0 32.00 32.00" enable-background="new 0 0 32.00 32.00" xml:space="preserve">
	<path fill="#{color}" fill-opacity="1" stroke-width="1.33333" stroke-linejoin="miter" d="M 5.46429,10.8998L 2.48787,10.8998C 1.00001,10.8998 1.00001,12.4334 1.00001,12.4334L 1.00001,18.566C 1.00001,18.566 1.00001,20.1003 2.48787,20.1003L 5.46429,20.1003L 16.7143,27L 16.7143,4.00006L 5.46429,10.8998 Z M 26.1478,4.38817C 29.1306,7.14673 31,11.1055 31,15.5029C 31,20.0302 29.019,24.0914 25.8829,26.8583L 24.7374,25.9528C 27.6936,23.4484 29.5714,19.696 29.5714,15.5029C 29.5714,11.462 27.8276,7.831 25.0556,5.33091L 26.1478,4.38817 Z M 22.6379,7.41701C 25.1294,9.5261 26.7143,12.6876 26.7143,16.2217C 26.7143,19.5445 25.3136,22.5388 23.0731,24.6388L 21.9347,23.7376C 23.9912,21.8943 25.2857,19.2104 25.2857,16.2217C 25.2857,13.0441 23.8223,10.2105 21.5357,8.3666L 22.6379,7.41701 Z M 19.312,10.2842C 21.1939,11.5786 22.4286,13.7551 22.4286,16.2217C 22.4286,18.5435 21.3349,20.6071 19.6384,21.9211L 18.4693,20.9973C 19.9956,19.9655 21,18.2122 21,16.2217C 21,14.1081 19.8671,12.2615 18.1791,11.262L 19.312,10.2842 Z "/>
</svg>
