<?xml version="1.0" encoding="utf-8"?>
<!DOCTYPE svg PUBLIC "-//W3C//DTD SVG 1.1//EN" "http://www.w3.org/Graphics/SVG/1.1/DTD/svg11.dtd">
<svg xmlns="http://www.w3.org/2000/svg" xmlns:xlink="http://www.w3.org/1999/xlink" version="1.1" baseProfile="full" width="32" height="32" viewBox="0 0 32.00 32.00" enable-background="new 0 0 32.00 32.00" xml:space="preserve">
	<path fill="#{color}" fill-opacity="1" stroke-width="1.33333" stroke-linejoin="miter" d="M 5.085,25.3333C 5.085,24.9722 4.95818,24.6597 4.70451,24.3958C 4.45085,24.1319 4.15046,24 3.80333,24C 3.44287,24 3.13914,24.1319 2.89215,24.3958C 2.64516,24.6597 2.52167,24.9722 2.52167,25.3333C 2.52167,25.7083 2.64516,26.0243 2.89215,26.2813C 3.13914,26.5382 3.44287,26.6667 3.80333,26.6667C 4.15046,26.6667 4.45085,26.5382 4.70451,26.2813C 4.95818,26.0243 5.085,25.7083 5.085,25.3333 Z M 8.28917,14.6667L 8.28917,28C 8.28917,28.3611 8.16234,28.6736 7.90867,28.9375C 7.655,29.2014 7.35461,29.3333 7.0075,29.3333L 1.24,29.3333C 0.89288,29.3333 0.592489,29.2014 0.338829,28.9375C 0.0851692,28.6736 -0.0416657,28.3611 -0.0416657,28L -0.0416657,14.6667C -0.0416657,14.3056 0.0851692,13.9931 0.338829,13.7292C 0.592489,13.4653 0.89288,13.3333 1.24,13.3333L 7.0075,13.3333C 7.35461,13.3333 7.655,13.4653 7.90867,13.7292C 8.16234,13.9931 8.28917,14.3056 8.28917,14.6667 Z M 32,14.6667C 32,15.8611 31.6329,16.8958 30.8986,17.7708C 31.0988,18.3819 31.199,18.9097 31.199,19.3542C 31.239,20.4097 30.952,21.3611 30.3378,22.2083C 30.5648,22.9861 30.5648,23.7986 30.3378,24.6458C 30.1376,25.4375 29.7771,26.0903 29.2564,26.6042C 29.3766,28.1597 29.0495,29.4167 28.2752,30.375C 27.4207,31.4306 26.1057,31.9722 24.33,32L 21.7467,32C 20.8655,32 19.9043,31.8924 18.8629,31.6771C 17.8216,31.4618 17.0105,31.2604 16.4298,31.0729C 15.849,30.8854 15.0446,30.6111 14.0166,30.25C 12.3745,29.6528 11.3198,29.3472 10.8525,29.3333C 10.5054,29.3194 10.205,29.184 9.95133,28.9271C 9.69766,28.6701 9.57084,28.3611 9.57084,28L 9.57084,14.6458C 9.57084,14.2986 9.69099,13.9965 9.9313,13.7396C 10.1716,13.4826 10.4586,13.3403 10.7924,13.3125C 11.1128,13.2847 11.6202,12.875 12.3144,12.0833C 13.0086,11.2917 13.6828,10.4514 14.337,9.5625C 15.2449,8.35417 15.9191,7.52083 16.3597,7.0625C 16.6,6.8125 16.8069,6.47917 16.9805,6.0625C 17.154,5.64583 17.2708,5.30903 17.3309,5.05208C 17.391,4.79514 17.4811,4.375 17.6013,3.79167C 17.6947,3.25 17.7782,2.82639 17.8516,2.52083C 17.925,2.21528 18.0552,1.85417 18.2421,1.4375C 18.429,1.02083 18.656,0.673615 18.923,0.395834C 19.1767,0.131948 19.4771,0 19.8242,0C 20.4383,0 20.989,0.072916 21.4763,0.21875C 21.9636,0.364584 22.3641,0.545135 22.6779,0.760416C 22.9916,0.975698 23.2586,1.25695 23.4789,1.60417C 23.6992,1.95139 23.8594,2.26389 23.9595,2.54167C 24.0597,2.81945 24.1398,3.16667 24.1999,3.58333C 24.2599,4 24.2933,4.3125 24.3,4.52083C 24.3067,4.72917 24.31,5 24.31,5.33333C 24.31,5.86111 24.2466,6.3889 24.1198,6.91667C 23.9929,7.44444 23.8661,7.8611 23.7393,8.16667C 23.6124,8.47223 23.4289,8.8611 23.1885,9.33333C 23.1485,9.41667 23.0817,9.54167 22.9883,9.70833C 22.8948,9.875 22.8214,10.0278 22.768,10.1667C 22.7146,10.3056 22.6612,10.4722 22.6078,10.6667L 28.155,10.6667C 29.1964,10.6667 30.0975,11.0625 30.8585,11.8542C 31.6195,12.6458 32,13.5833 32,14.6667 Z "/>
</svg>
