<?xml version="1.0" encoding="utf-8"?>
<!DOCTYPE svg PUBLIC "-//W3C//DTD SVG 1.1//EN" "http://www.w3.org/Graphics/SVG/1.1/DTD/svg11.dtd">
<svg xmlns="http://www.w3.org/2000/svg" xmlns:xlink="http://www.w3.org/1999/xlink" version="1.1" baseProfile="full" width="24" height="48" viewBox="0 0 24.00 48.00" enable-background="new 0 0 24.00 48.00" xml:space="preserve">
	<path fill="#{colorb}" fill-opacity="0.5" stroke-linejoin="round" d="M 10,5L 14,5C 16.7614,5 19,7.23858 19,10L 19,14C 19,16.7614 16.7614,19 14,19L 10,19C 7.23858,19 5,16.7614 5,14L 5,10C 5,7.23858 7.23858,5 10,5 Z "/>
	<path fill="#{colora}" fill-opacity="0.8" stroke-linejoin="round" d="M 10,29L 14,29C 16.7614,29 19,31.2386 19,34L 19,38C 19,40.7614 16.7614,43 14,43L 10,43C 7.23858,43 5,40.7614 5,38L 5,34C 5,31.2386 7.23858,29 10,29 Z "/>
</svg>
