<?xml version="1.0" encoding="utf-8"?>
<!DOCTYPE svg PUBLIC "-//W3C//DTD SVG 1.1//EN" "http://www.w3.org/Graphics/SVG/1.1/DTD/svg11.dtd">
<svg xmlns="http://www.w3.org/2000/svg" xmlns:xlink="http://www.w3.org/1999/xlink" version="1.1" baseProfile="full" width="18" height="18" viewBox="0 0 18.00 18.00" enable-background="new 0 0 18.00 18.00" xml:space="preserve">
	<path fill="#{color}" d="M 7.5,2C 10.5376,2 13,4.46244 13,7.5C 13,8.6575 12.6424,9.73148 12.0317,10.6175L 15.9135,14.4993L 14.4993,15.9135L 10.6175,12.0317C 9.73148,12.6424 8.6575,13 7.5,13C 4.46243,13 2,10.5376 2,7.5C 2,4.46243 4.46243,2 7.5,2 Z M 7.5,4C 5.567,4 4,5.56701 4,7.5C 4,9.433 5.567,11 7.5,11C 9.43299,11 11,9.433 11,7.5C 11,5.56701 9.43299,4 7.5,4 Z "/>
</svg>