<?xml version="1.0" encoding="utf-8"?>
<!DOCTYPE svg PUBLIC "-//W3C//DTD SVG 1.1//EN" "http://www.w3.org/Graphics/SVG/1.1/DTD/svg11.dtd">
<svg xmlns="http://www.w3.org/2000/svg" xmlns:xlink="http://www.w3.org/1999/xlink" version="1.1" baseProfile="full" width="60" height="240" viewBox="0 0 60.00 240.00" enable-background="new 0 0 60.00 240.00" xml:space="preserve">
	<path fill="#{colora}" d="M 34.2937,32.5785L 33.3903,32.5785L 33.0698,32.2704C 34.191,30.966 34.8654,29.2737 34.8654,27.4328C 34.8654,23.3279 31.5377,20.0001 27.4327,20.0001C 23.3278,20.0001 20,23.3279 20,27.4328C 20,31.5377 23.3278,34.8655 27.4327,34.8655C 29.2736,34.8655 30.9659,34.1911 32.2703,33.0699L 32.5785,33.3904L 32.5785,34.2938L 38.2959,40.0001L 40,38.296L 34.2937,32.5785 Z M 27.4327,32.5785C 24.5852,32.5785 22.287,30.2803 22.287,27.4328C 22.287,24.5853 24.5852,22.287 27.4327,22.287C 30.2803,22.287 32.5785,24.5853 32.5785,27.4328C 32.5785,30.2803 30.2803,32.5785 27.4327,32.5785 Z "/>
	<path fill="#{colora}" d="M 20,84L 40,84L 40,86L 20,86L 20,84 Z M 20,89L 40,89L 40,91L 20,91L 20,89 Z M 20,94L 40,94L 40,96L 20,96L 20,94 Z "/>
	<path fill="#{colora}" d="M 22.2218,156.364L 28.5858,150L 22.2218,143.636L 23.636,142.222L 30,148.586L 36.3639,142.222L 37.7782,143.636L 31.4142,150L 37.7782,156.364L 36.364,157.778L 30,151.414L 23.636,157.778L 22.2218,156.364 Z "/>
	<path fill="#{colora}" d="M 28,218.5L 28,212.5L 32,212.5L 32,218.5L 37,218.5L 37,210.5L 40,210.5L 30,201.5L 20,210.5L 23,210.5L 23,218.5L 28,218.5 Z "/>
</svg>
