<?xml version="1.0" encoding="utf-8"?>
<!DOCTYPE svg PUBLIC "-//W3C//DTD SVG 1.1//EN" "http://www.w3.org/Graphics/SVG/1.1/DTD/svg11.dtd">
<svg xmlns="http://www.w3.org/2000/svg" xmlns:xlink="http://www.w3.org/1999/xlink" version="1.1" baseProfile="full" width="200" height="200" viewBox="0 0 200.00 200.00" enable-background="new 0 0 200.00 200.00" xml:space="preserve">
	<path fill="#{colora}" fill-opacity="0.3" d="M 100,42C 132.032,42 158,67.9675 158,100C 158,132.033 132.032,158 100,158C 67.9675,158 42,132.033 42,100C 42,67.9675 67.9675,42 100,42 Z M 100,52.44C 73.7333,52.44 52.44,73.7334 52.44,100C 52.44,126.267 73.7333,147.56 100,147.56C 126.267,147.56 147.56,126.267 147.56,100C 147.56,73.7334 126.267,52.44 100,52.44 Z "/>
	<path fill="#{colora}" fill-opacity="0.3" d="M 58,0C 58,32.0325 32.0325,58 -7.6294e-006,58L -1.27157e-005,47.56C 26.2666,47.56 47.5599,26.2667 47.5599,4.57764e-005L 58,0 Z "/>
	<path fill="#{colora}" fill-opacity="0.3" d="M 200,58C 167.967,58 142,32.0325 142,4.57764e-005L 152.44,4.57764e-005C 152.44,26.2667 173.733,47.56 200,47.56L 200,58 Z "/>
	<path fill="#{colora}" fill-opacity="0.3" d="M 142,200C 142,167.967 167.968,142 200,142L 200,152.44C 173.733,152.44 152.44,173.733 152.44,200L 142,200 Z "/>
	<path fill="#{colora}" fill-opacity="0.3" d="M 6.99361e-006,142C 32.0325,142 58,167.967 58,200L 47.56,200C 47.56,173.733 26.2667,152.44 4.76837e-005,152.44L 6.99361e-006,142 Z "/>
</svg>
