<?xml version="1.0" encoding="utf-8"?>
<!DOCTYPE svg PUBLIC "-//W3C//DTD SVG 1.1//EN" "http://www.w3.org/Graphics/SVG/1.1/DTD/svg11.dtd">
<svg xmlns="http://www.w3.org/2000/svg" xmlns:xlink="http://www.w3.org/1999/xlink" version="1.1" baseProfile="full" width="20" height="40" viewBox="0 0 20.00 40.00" enable-background="new 0 0 20.00 40.00" xml:space="preserve">
	<path fill="#{color}" fill-opacity="1" stroke-linejoin="round" d="M 10,5C 12.7614,5 15,7.23858 15,10C 15,12.7614 12.7614,15 10,15C 7.23858,15 5,12.7614 5,10C 5,7.23858 7.23858,5 10,5 Z M 10,6C 7.79086,6 6,7.79086 6,10C 6,12.2091 7.79086,14 10,14C 12.2091,14 14,12.2091 14,10C 14,7.79086 12.2091,6 10,6 Z "/>
	<path fill="#{color}" fill-opacity="1" stroke-linejoin="round" d="M 10,25C 12.7614,25 15,27.2386 15,30C 15,32.7614 12.7614,35 10,35C 7.23858,35 5,32.7614 5,30C 5,27.2386 7.23858,25 10,25 Z M 10,26C 7.79086,26 6,27.7909 6,30C 6,32.2091 7.79086,34 10,34C 12.2091,34 14,32.2091 14,30C 14,27.7909 12.2091,26 10,26 Z "/>
	<ellipse fill="#{color}" fill-opacity="1" stroke-linejoin="round" cx="10" cy="30" rx="3" ry="3"/>
</svg>
