<?xml version="1.0" encoding="utf-8"?>
<!DOCTYPE svg PUBLIC "-//W3C//DTD SVG 1.1//EN" "http://www.w3.org/Graphics/SVG/1.1/DTD/svg11.dtd">
<svg xmlns="http://www.w3.org/2000/svg" xmlns:xlink="http://www.w3.org/1999/xlink" version="1.1" baseProfile="full" width="32" height="32" viewBox="0 0 32.00 32.00" enable-background="new 0 0 32.00 32.00" xml:space="preserve">
	<path fill="#FFC800" fill-opacity="1" stroke-width="0.2" stroke-linejoin="miter" d="M 16,1C 24.2837,1 31,7.71588 31,16C 31,24.2837 24.2837,31 16,31C 7.71588,31 1,24.2837 1,16C 1,7.71588 7.71588,1 16,1 Z "/>
	<path fill="#FF0000" fill-opacity="1" stroke-width="0.2" stroke-linejoin="miter" d="M 22.5625,22.5625C 22.5625,23.597 21.722,24.4375 20.6875,24.4375L 11.3125,24.4375C 10.2775,24.4375 9.4375,23.597 9.4375,22.5625L 9.4375,22.5625C 9.4375,21.528 10.2775,20.6875 11.3125,20.6875L 20.6875,20.6875C 21.722,20.6875 22.5625,21.528 22.5625,22.5625 Z "/>
	<path fill="#212731" fill-opacity="1" stroke-width="0.2" stroke-linejoin="miter" d="M 20.6875,20.6875L 11.3125,20.6875C 10.2775,20.6875 9.4375,21.528 9.4375,22.5625C 9.4375,23.597 10.2775,24.4375 11.3125,24.4375L 11.6004,24.4375C 12.2454,23.8927 13.9629,23.5 16,23.5C 18.0371,23.5 19.7546,23.8927 20.4001,24.4375L 20.6875,24.4375C 21.722,24.4375 22.5625,23.597 22.5625,22.5625C 22.5625,21.528 21.722,20.6875 20.6875,20.6875 Z "/>
	<path fill="#212731" fill-opacity="1" stroke-width="0.2" stroke-linejoin="miter" d="M 25.8712,12.9623L 23.5,11.8938L 23.4927,11.6247L 25.8712,10.6002C 26.1248,10.5252 26.2658,10.2624 26.1907,10.0188C 26.1156,9.76477 25.8529,9.63437 25.6002,9.70938L 22.535,10.9243L 19.4515,9.70938C 19.2061,9.63437 18.926,9.76572 18.8509,10.0188C 18.7759,10.2624 18.9095,10.5252 19.1531,10.6002L 21.6241,11.6687L 21.6259,11.9099L 19.1577,12.9623C 18.9041,13.0373 18.7695,13.3001 18.8446,13.5437C 18.9187,13.7977 19.1952,13.9281 19.4478,13.8531L 22.5333,12.6382L 25.571,13.8531C 25.8163,13.9281 26.0964,13.7968 26.1715,13.5437C 26.2466,13.3001 26.1156,13.0373 25.8712,12.9623 Z "/>
	<path fill="#212731" fill-opacity="1" stroke-width="0.2" stroke-linejoin="miter" d="M 12.7458,12.9623L 10.375,11.8938L 10.3677,11.6247L 12.7458,10.6002C 12.9998,10.5252 13.1408,10.2624 13.0657,10.0188C 12.9906,9.76477 12.7279,9.63437 12.4752,9.70938L 9.41049,10.9243L 6.32697,9.70938C 6.08209,9.63437 5.80197,9.76572 5.72687,10.0188C 5.65179,10.2624 5.785,10.5252 6.02856,10.6002L 8.5,11.6687L 8.50189,11.9099L 6.03354,12.9623C 5.77948,13.0373 5.64541,13.3001 5.72049,13.5437C 5.7955,13.7977 6.07113,13.9281 6.32425,13.8531L 9.40958,12.6382L 12.4469,13.8531C 12.6917,13.9281 12.9719,13.7968 13.047,13.5437C 13.1221,13.3001 12.9906,13.0373 12.7458,12.9623 Z "/>
</svg>
