<?xml version="1.0" encoding="utf-8"?>
<!DOCTYPE svg PUBLIC "-//W3C//DTD SVG 1.1//EN" "http://www.w3.org/Graphics/SVG/1.1/DTD/svg11.dtd">
<svg xmlns="http://www.w3.org/2000/svg" xmlns:xlink="http://www.w3.org/1999/xlink" version="1.1" baseProfile="full" width="32" height="32" viewBox="0 0 32.00 32.00" enable-background="new 0 0 32.00 32.00" xml:space="preserve">
	<path fill="#FFC800" fill-opacity="1" stroke-width="1.33333" stroke-linejoin="miter" d="M 16,0.999954C 24.2837,0.999954 31,7.71583 31,16C 31,24.2836 24.2837,31 16,31C 7.7159,31 1.00002,24.2836 1.00002,16C 1.00002,7.71583 7.7159,0.999954 16,0.999954 Z "/>
	<path fill="#FF0000" fill-opacity="1" stroke-width="1.33333" stroke-linejoin="miter" d="M 16,27C 22.0752,27 27,22.0752 27,16L 5,16C 5,22.0752 9.9248,27 16,27 Z "/>
	<path fill="#212731" fill-opacity="1" stroke-width="1.33333" stroke-linejoin="miter" d="M 16,19C 19.416,19 22.4678,20.5566 24.4844,23C 26.0566,21.0977 27,18.6592 27,16L 5,16C 5,18.6592 5.94379,21.0977 7.51511,23C 9.5322,20.5566 12.584,19 16,19 Z "/>
	<path fill="#212731" fill-opacity="1" stroke-width="1.33333" stroke-linejoin="miter" d="M 26.8496,13.3799C 26.7695,13.6509 26.4707,13.79 26.21,13.71L 21.4004,12.2402C 21.1289,12.1602 21,11.8799 21,11.6201L 21,11.3799C 21,11.1201 21.1299,10.8398 21.4004,10.7598L 26.2402,9.29001C 26.5098,9.20999 26.79,9.3501 26.8701,9.62009C 26.9502,9.87991 26.7998,10.1602 26.5293,10.2402L 22.4502,11.5L 26.5293,12.7598C 26.79,12.8398 26.9297,13.1201 26.8496,13.3799 Z "/>
	<path fill="#212731" fill-opacity="1" stroke-width="1.33333" stroke-linejoin="miter" d="M 5.04199,9.62009C 5.1221,9.34909 5.42191,9.20999 5.6821,9.29001L 10.5459,10.7598C 10.8159,10.8398 11,11.1201 11,11.3799L 11,11.6201C 11,11.8799 10.8159,12.1602 10.5459,12.2402L 5.6792,13.71C 5.40921,13.79 5.11621,13.6499 5.03519,13.3799C 4.95511,13.1201 5.09811,12.8398 5.36819,12.7598L 9.44379,11.5L 5.36179,10.2402C 5.103,10.1602 4.96091,9.87991 5.04199,9.62009 Z "/>
</svg>
