<?xml version="1.0" encoding="utf-8"?>
<!DOCTYPE svg PUBLIC "-//W3C//DTD SVG 1.1//EN" "http://www.w3.org/Graphics/SVG/1.1/DTD/svg11.dtd">
<svg xmlns="http://www.w3.org/2000/svg" xmlns:xlink="http://www.w3.org/1999/xlink" version="1.1" baseProfile="full" width="16" height="16" viewBox="0 0 16.00 16.00" enable-background="new 0 0 16.00 16.00" xml:space="preserve">
	<path fill="#{color}" d="M 6.98184,2C 9.73324,2 11.9637,4.23045 11.9637,6.98185C 11.9637,8.081 11.6077,9.09701 11.0048,9.92089L 14,12.9161C 14.2993,13.2154 14.2993,13.7007 14,14C 13.7007,14.2993 13.2154,14.2993 12.9161,14L 9.92089,11.0048C 9.09701,11.6077 8.081,11.9637 6.98184,11.9637C 4.23045,11.9637 2,9.73324 2,6.98185C 2,4.23045 4.23045,2 6.98184,2 Z M 6.98184,3.53288C 5.07703,3.53288 3.53287,5.07704 3.53287,6.98185C 3.53287,8.88666 5.07703,10.4308 6.98184,10.4308C 8.88666,10.4308 10.4308,8.88666 10.4308,6.98185C 10.4308,5.07704 8.88666,3.53288 6.98184,3.53288 Z "/>
</svg>
