<?xml version="1.0" encoding="utf-8"?>
<!DOCTYPE svg PUBLIC "-//W3C//DTD SVG 1.1//EN" "http://www.w3.org/Graphics/SVG/1.1/DTD/svg11.dtd">
<svg xmlns="http://www.w3.org/2000/svg" xmlns:xlink="http://www.w3.org/1999/xlink" version="1.1" baseProfile="full" width="32" height="32" viewBox="0 0 32.00 32.00" enable-background="new 0 0 32.00 32.00" xml:space="preserve">
	<path fill="#ffffff" fill-opacity="0.15" d="M 20.7616,25.0697C 20.7616,24.6779 20.4414,24.3583 20.0502,24.3583L 11.8576,24.3583C 11.4667,24.3583 11.1467,24.6779 11.1467,25.0697L 11.1467,25.0697C 11.1467,25.4604 11.4665,25.7809 11.8576,25.7809L 20.0502,25.7809C 20.4414,25.7809 20.7616,25.4604 20.7616,25.0697 Z "/>
	<path fill="#ffffff" fill-opacity="0.15" d="M 20.7616,27.0225C 20.7616,26.631 20.4414,26.3115 20.0502,26.3115L 11.8576,26.3115C 11.4667,26.3115 11.1467,26.631 11.1467,27.0225L 11.1467,27.0225C 11.1467,27.4137 11.4665,27.7336 11.8576,27.7336L 20.0502,27.7336C 20.4414,27.7336 20.7616,27.4137 20.7616,27.0225 Z "/>
	<path fill="#ffffff" fill-opacity="0.15" d="M 13.5523,28.2644C 13.8862,29.2727 14.8347,30 15.9543,30C 17.0738,30 18.0221,29.2727 18.3558,28.2644L 13.5523,28.2644 Z "/>
	<path fill="#ffffff" fill-opacity="0.15" d="M 15.9543,2C 21.4841,2 25.9668,6.4834 25.9664,12.0132C 25.9664,14.9523 24.6991,17.5978 22.6805,19.4293L 22.2344,19.8069C 21.286,20.6313 20.76,21.9029 20.76,23.2591L 11.1476,23.2591C 11.1476,21.9029 10.6222,20.6313 9.67312,19.8069L 9.22756,19.4293C 7.20886,17.5978 5.94143,14.9523 5.94143,12.0132C 5.94143,6.4834 10.4245,2 15.9543,2 Z "/>
</svg>
