<?xml version="1.0" encoding="utf-8"?>
<!DOCTYPE svg PUBLIC "-//W3C//DTD SVG 1.1//EN" "http://www.w3.org/Graphics/SVG/1.1/DTD/svg11.dtd">
<svg xmlns="http://www.w3.org/2000/svg" xmlns:xlink="http://www.w3.org/1999/xlink" version="1.1" baseProfile="full" width="32" height="32" viewBox="0 0 32.00 32.00" enable-background="new 0 0 32.00 32.00" xml:space="preserve">
	<path fill="#000000" fill-opacity="0.05" d="M 15.72,6.86L 14.8012,9.19625C 13.9204,8.57208 12.5365,8.26 10.6494,8.26C 8.88479,8.26 7.46875,9.01104 6.40125,10.5131C 5.33375,12.0152 4.8,13.9519 4.8,16.3231C 4.8,18.5865 5.3476,20.4218 6.44281,21.8291C 7.53802,23.2364 8.95333,23.94 10.6888,23.94C 12.5758,23.94 14.0283,23.3362 15.0462,22.1287L 16.56,24.22C 14.9733,25.7133 12.9317,26.46 10.435,26.46C 7.81875,26.46 5.75885,25.5165 4.25531,23.6294C 2.75177,21.7423 2,19.2529 2,16.1612C 2,13.1717 2.80062,10.6874 4.40187,8.70844C 6.00312,6.72948 8.07396,5.74 10.6144,5.74C 12.7902,5.74 14.4921,6.11333 15.72,6.86 Z "/>
	<path fill="#000000" fill-opacity="0.05" d="M 19.08,11.3233C 19.6575,11.3233 20.1519,11.5282 20.5631,11.938C 20.9744,12.3478 21.18,12.84 21.18,13.4146C 21.18,13.9921 20.9744,14.4879 20.5631,14.9021C 20.1519,15.3162 19.6575,15.5233 19.08,15.5233C 18.5025,15.5233 18.0081,15.3162 17.5969,14.9021C 17.1856,14.4879 16.98,13.9921 16.98,13.4146C 16.98,12.84 17.1856,12.3478 17.5969,11.938C 18.0081,11.5282 18.5025,11.3233 19.08,11.3233 Z "/>
	<path fill="#000000" fill-opacity="0.05" d="M 19.08,22.2433C 19.6575,22.2433 20.1519,22.4482 20.5631,22.858C 20.9744,23.2678 21.18,23.76 21.18,24.3346C 21.18,24.9121 20.9744,25.4079 20.5631,25.8221C 20.1519,26.2362 19.6575,26.4433 19.08,26.4433C 18.5025,26.4433 18.0081,26.2362 17.5969,25.8221C 17.1856,25.4079 16.98,24.9121 16.98,24.3346C 16.98,23.76 17.1856,23.2678 17.5969,22.858C 18.0081,22.4482 18.5025,22.2433 19.08,22.2433 Z "/>
	<path fill="#000000" fill-opacity="0.05" d="M 28.0444,26.18L 21.0575,6.02L 23,6.02L 30,26.18L 28.0444,26.18 Z "/>
</svg>
