<?xml version="1.0" encoding="utf-8"?>
<!DOCTYPE svg PUBLIC "-//W3C//DTD SVG 1.1//EN" "http://www.w3.org/Graphics/SVG/1.1/DTD/svg11.dtd">
<svg xmlns="http://www.w3.org/2000/svg" xmlns:xlink="http://www.w3.org/1999/xlink" version="1.1" baseProfile="full" width="16" height="16" viewBox="0 0 16.00 16.00" enable-background="new 0 0 16.00 16.00" xml:space="preserve">
	<path fill="#{colora}" fill-opacity="1" stroke-width="1.33333" stroke-linejoin="miter" d="M 5.60001,7.80001C 5.04808,7.80001 4.60001,8.24808 4.60001,8.80001C 4.60001,9.35162 5.04808,9.80001 5.60001,9.80001C 6.15194,9.80001 6.60001,9.35162 6.60001,8.80001C 6.60001,8.24808 6.15194,7.80001 5.60001,7.80001 Z M 10.4,7.80001C 9.8484,7.80001 9.40001,8.24808 9.40001,8.80001C 9.40001,9.35162 9.8484,9.80001 10.4,9.80001C 10.9516,9.80001 11.4,9.35162 11.4,8.80001C 11.4,8.24808 10.9516,7.80001 10.4,7.80001 Z M 8.00001,1.04904e-005C 3.58402,1.04904e-005 9.13938e-006,3.58402 9.13938e-006,8.00001C 9.13938e-006,12.4156 3.58402,16 8.00001,16C 12.4156,16 16,12.4156 16,8.00001C 16,3.58402 12.4156,1.04904e-005 8.00001,1.04904e-005 Z M 8.00001,14.4C 4.47186,14.4 1.60001,11.5282 1.60001,8.00001C 1.60001,7.768 1.616,7.53592 1.63985,7.3121C 3.52816,6.47186 5.02384,4.92816 5.80785,3.016C 7.25584,5.0641 9.63985,6.40001 12.3359,6.40001C 12.9602,6.40001 13.5602,6.32816 14.1359,6.19217C 14.3039,6.76017 14.4,7.368 14.4,8.00001C 14.4,11.5282 11.5282,14.4 8.00001,14.4 Z "/>
</svg>
