<?xml version="1.0" encoding="utf-8"?>
<!DOCTYPE svg PUBLIC "-//W3C//DTD SVG 1.1//EN" "http://www.w3.org/Graphics/SVG/1.1/DTD/svg11.dtd">
<svg xmlns="http://www.w3.org/2000/svg" xmlns:xlink="http://www.w3.org/1999/xlink" version="1.1" baseProfile="full" width="16" height="16" viewBox="0 0 16.00 16.00" enable-background="new 0 0 16.00 16.00" xml:space="preserve">
	<path fill="#{colora}" fill-opacity="1" stroke-width="1.33333" stroke-linejoin="miter" d="M 7.99997,1.89988C 9.16016,1.89988 10.0996,2.83979 10.0996,3.99998C 10.0996,5.16016 9.16016,6.10008 7.99997,6.10008C 6.83978,6.10008 5.89987,5.16016 5.89987,3.99998C 5.89987,2.83979 6.83978,1.89988 7.99997,1.89988M 7.99997,10.9004C 10.9707,10.9004 14.0996,12.3594 14.0996,13L 14.0996,14.0996L 1.89987,14.0996L 1.89987,13C 1.89987,12.3594 5.02976,10.9004 7.99997,10.9004M 7.99997,-2.09808e-005C 5.78998,-2.09808e-005 3.99997,1.78999 3.99997,3.99998C 3.99997,6.20997 5.78998,7.99998 7.99997,7.99998C 10.21,7.99998 12,6.20997 12,3.99998C 12,1.78999 10.21,-2.09808e-005 7.99997,-2.09808e-005 Z M 7.99997,8.99998C 5.33008,8.99998 -2.83321e-005,10.3398 -2.83321e-005,13L -2.83321e-005,16L 16,16L 16,13C 16,10.3398 10.6699,8.99998 7.99997,8.99998 Z "/>
</svg>
