<?xml version="1.0" encoding="utf-8"?>
<!DOCTYPE svg PUBLIC "-//W3C//DTD SVG 1.1//EN" "http://www.w3.org/Graphics/SVG/1.1/DTD/svg11.dtd">
<svg xmlns="http://www.w3.org/2000/svg" xmlns:xlink="http://www.w3.org/1999/xlink" version="1.1" baseProfile="full" width="16" height="16" viewBox="0 0 16.00 16.00" enable-background="new 0 0 16.00 16.00" xml:space="preserve">
	<path fill="#{colora}" fill-opacity="1" stroke-width="1.33333" stroke-linejoin="miter" d="M -1.70867e-005,1.06664L 2.66665,1.06664L 3.19998,3.19998L 16,3.19998L 14.9333,10.6666L 3.19998,10.6666L 1.86665,2.13331L -1.70867e-005,2.13331L -1.70867e-005,1.06664 Z M 5.33332,11.7333C 4.44974,11.7333 3.73332,12.4499 3.73332,13.3333C 3.73332,14.2166 4.44974,14.9333 5.33332,14.9333C 6.21689,14.9333 6.93332,14.2166 6.93332,13.3333C 6.93332,12.4499 6.21689,11.7333 5.33332,11.7333M 12.8,11.7333C 11.9167,11.7333 11.2,12.4499 11.2,13.3333C 11.2,14.2166 11.9167,14.9333 12.8,14.9333C 13.6833,14.9333 14.4,14.2166 14.4,13.3333C 14.4,12.4499 13.6833,11.7333 12.8,11.7333"/>
</svg>
