<?xml version="1.0" encoding="utf-8"?>
<!DOCTYPE svg PUBLIC "-//W3C//DTD SVG 1.1//EN" "http://www.w3.org/Graphics/SVG/1.1/DTD/svg11.dtd">
<svg xmlns="http://www.w3.org/2000/svg" xmlns:xlink="http://www.w3.org/1999/xlink" version="1.1" baseProfile="full" width="16" height="16" viewBox="0 0 16.00 16.00" enable-background="new 0 0 16.00 16.00" xml:space="preserve">
	<path fill="#{colora}" fill-opacity="1" stroke-width="1.33333" stroke-linejoin="miter" d="M 14.4557,4.09049C 14.4388,3.82681 14.2207,3.62173 13.9564,3.62173L 11.3099,3.62173L 11.3099,2.83984C 11.3099,1.27408 9.82489,-1.33514e-005 8.00001,-1.33514e-005C 6.17514,-1.33514e-005 4.69012,1.27408 4.69012,2.83984L 4.69012,3.62173L 2.04363,3.62173C 1.77931,3.62173 1.56121,3.82681 1.54429,4.09049L 0.833997,15.4688C 0.825524,15.6068 0.874361,15.7415 0.968752,15.8425C 1.06316,15.9427 1.19533,16 1.33334,16L 14.6667,16C 14.8047,16 14.9369,15.9427 15.0313,15.8425C 15.1257,15.7415 15.1745,15.6068 15.166,15.4688L 14.4557,4.09049 Z M 5.69011,2.83984C 5.69011,1.82552 6.72657,0.999991 8.00001,0.999991C 9.27347,0.999991 10.3099,1.82552 10.3099,2.83984L 10.3099,3.62173L 5.69011,3.62173L 5.69011,2.83984 Z M 4.69012,4.62174L 4.69012,5.70767C 4.69012,5.98371 4.91408,6.20767 5.19012,6.20767C 5.46615,6.20767 5.69011,5.98371 5.69011,5.70767L 5.69011,4.62174L 10.3099,4.62174L 10.3099,5.70767C 10.3099,5.98371 10.5338,6.20767 10.8099,6.20767C 11.0859,6.20767 11.3099,5.98371 11.3099,5.70767L 11.3099,4.62174L 13.4864,4.62174L 13.9195,11.5554L 2.08045,11.5554L 2.51368,4.62174L 4.69012,4.62174 Z M 1.86524,15L 2.03882,12.222L 13.9612,12.222L 14.1348,15L 1.86524,15 Z "/>
</svg>
