<?xml version="1.0" encoding="utf-8"?>
<!DOCTYPE svg PUBLIC "-//W3C//DTD SVG 1.1//EN" "http://www.w3.org/Graphics/SVG/1.1/DTD/svg11.dtd">
<svg xmlns="http://www.w3.org/2000/svg" xmlns:xlink="http://www.w3.org/1999/xlink" version="1.1" baseProfile="full" width="16" height="16" viewBox="0 0 16.00 16.00" enable-background="new 0 0 16.00 16.00" xml:space="preserve">
	<path fill="#{colora}" fill-opacity="1" stroke-width="1.33333" stroke-linejoin="miter" d="M 4.80003,12.8C 3.91996,12.8 3.20787,13.5203 3.20787,14.4C 3.20787,15.2796 3.91996,16 4.80003,16C 5.68011,16 6.40003,15.2796 6.40003,14.4C 6.40003,13.5203 5.68011,12.8 4.80003,12.8 Z M 3.51667e-005,-3.62396e-005L 3.51667e-005,1.59996L 1.60004,1.59996L 4.48011,7.67181L 3.40003,9.63197C 3.27189,9.85621 3.20004,10.1203 3.20004,10.4C 3.20004,11.2796 3.91996,12 4.80003,12L 14.4,12L 14.4,10.4L 5.13595,10.4C 5.02386,10.4 4.93595,10.3124 4.93595,10.2L 4.96019,10.1039L 5.68011,8.79996L 11.6399,8.79996C 12.2399,8.79996 12.768,8.47181 13.0399,7.97572L 15.904,2.78397C 15.968,2.67181 16,2.53588 16,2.39996C 16,1.96012 15.6399,1.59996 15.2,1.59996L 3.36803,1.59996L 2.61603,-3.62396e-005L 3.51667e-005,-3.62396e-005 Z M 12.8,12.8C 11.9203,12.8 11.2079,13.5203 11.2079,14.4C 11.2079,15.2796 11.9203,16 12.8,16C 13.6797,16 14.4,15.2796 14.4,14.4C 14.4,13.5203 13.6797,12.8 12.8,12.8 Z "/>
</svg>
