<?xml version="1.0" encoding="utf-8"?>
<!DOCTYPE svg PUBLIC "-//W3C//DTD SVG 1.1//EN" "http://www.w3.org/Graphics/SVG/1.1/DTD/svg11.dtd">
<svg xmlns="http://www.w3.org/2000/svg" xmlns:xlink="http://www.w3.org/1999/xlink" version="1.1" baseProfile="full" width="16" height="16" viewBox="0 0 16.00 16.00" enable-background="new 0 0 16.00 16.00" xml:space="preserve">
	<ellipse fill="#{colorb}" fill-opacity="1" stroke-linejoin="round" cx="13" cy="13" rx="3" ry="3"/>
	<path fill="#{colora}" fill-opacity="1" stroke-width="0.2" stroke-linejoin="miter" d="M 14.4557,4.09049L 14.7885,9.42114C 14.4692,9.26125 14.1255,9.14283 13.7645,9.07297L 13.4864,4.62174L 11.3099,4.62174L 11.3099,5.70767C 11.3099,5.98371 11.0859,6.20767 10.8099,6.20767C 10.5338,6.20767 10.3099,5.98371 10.3099,5.70767L 10.3099,4.62174L 5.69011,4.62174L 5.69011,5.70767C 5.69011,5.98371 5.46615,6.20767 5.19012,6.20767C 4.91408,6.20767 4.69012,5.98371 4.69012,5.70767L 4.69012,4.62174L 2.51368,4.62174L 2.08045,11.5554L 9.26884,11.5554C 9.18595,11.7693 9.12093,11.9921 9.07562,12.222L 2.03882,12.222L 1.86524,15L 9.53513,15C 9.75286,15.3764 10.0302,15.714 10.3542,16L 1.33334,16C 1.19533,16 1.06316,15.9427 0.968752,15.8425C 0.874361,15.7415 0.825524,15.6068 0.833997,15.4688L 1.54429,4.09049C 1.56121,3.82681 1.77931,3.62173 2.04363,3.62173L 4.69012,3.62173L 4.69012,2.83984C 4.69012,1.27408 6.17514,-1.33514e-005 8.00001,-1.33514e-005C 9.82489,-1.33514e-005 11.3099,1.27408 11.3099,2.83984L 11.3099,3.62173L 13.9564,3.62173C 14.2207,3.62173 14.4388,3.82681 14.4557,4.09049 Z M 5.69011,2.83984L 5.69011,3.62173L 10.3099,3.62173L 10.3099,2.83984C 10.3099,1.82552 9.27347,0.999993 8.00001,0.999993C 6.72657,0.999993 5.69011,1.82552 5.69011,2.83984 Z "/>
</svg>
