<?xml version="1.0" encoding="utf-8"?>
<!DOCTYPE svg PUBLIC "-//W3C//DTD SVG 1.1//EN" "http://www.w3.org/Graphics/SVG/1.1/DTD/svg11.dtd">
<svg xmlns="http://www.w3.org/2000/svg" xmlns:xlink="http://www.w3.org/1999/xlink" version="1.1" baseProfile="full" width="16" height="16" viewBox="0 0 16.00 16.00" enable-background="new 0 0 16.00 16.00" xml:space="preserve">
	<ellipse fill="#{colorb}" fill-opacity="1" stroke-linejoin="round" cx="13" cy="13" rx="3" ry="3"/>
	<path fill="#{colora}" fill-opacity="1" stroke-width="0.2" stroke-linejoin="miter" d="M 11.7891,6.17452L 15.2727,6.17452C 15.6726,6.17452 16,6.50193 16,6.90179L 15.9787,7.09814L 15.2648,9.70249C 14.6209,9.25938 13.8407,9 13,9C 10.7909,9 9,10.7909 9,13C 9,13.6884 9.1739,14.3362 9.48015,14.9018L 3.27275,14.9018C 2.60372,14.9018 2.04372,14.4508 1.87646,13.84L 0.0291138,7.09814L 2.03451e-005,6.90179C 2.03451e-005,6.50193 0.327433,6.17452 0.727295,6.17452L 4.21094,6.17452L 7.3963,1.41103C 7.53448,1.20011 7.76744,1.09814 8.00002,1.09814C 8.23258,1.09814 8.4659,1.20011 8.60372,1.40354L 11.7891,6.17452 Z M 5.8182,6.17452L 10.1818,6.17452L 8.00002,2.97459L 5.8182,6.17452 Z M 8.00002,11.9927C 8.79972,11.9927 9.45455,11.3379 9.45455,10.5382C 9.45455,9.73845 8.79972,9.08362 8.00002,9.08362C 7.19995,9.08362 6.54547,9.73845 6.54547,10.5382C 6.54547,11.3379 7.19995,11.9927 8.00002,11.9927 Z "/>
</svg>
