<?xml version="1.0" encoding="utf-8"?>
<!DOCTYPE svg PUBLIC "-//W3C//DTD SVG 1.1//EN" "http://www.w3.org/Graphics/SVG/1.1/DTD/svg11.dtd">
<svg xmlns="http://www.w3.org/2000/svg" xmlns:xlink="http://www.w3.org/1999/xlink" version="1.1" baseProfile="full" width="16" height="16" viewBox="0 0 16.00 16.00" enable-background="new 0 0 16.00 16.00" xml:space="preserve">
	<ellipse fill="#{colorb}" fill-opacity="1" stroke-width="0.2" stroke-linejoin="round" cx="9.00001" cy="3.00001" rx="2.99999" ry="2.99999"/>
	<path fill="#{colora}" fill-opacity="1" stroke-width="0.2" stroke-linejoin="miter" d="M 4.79946,12.8008C 5.67952,12.8008 6.39945,13.5211 6.39945,14.4008C 6.39945,15.2805 5.67952,16.0008 4.79946,16.0008C 3.91937,16.0008 3.2073,15.2805 3.2073,14.4008C 3.2073,13.5211 3.91937,12.8008 4.79946,12.8008 Z M -0.000528971,0.000816345L 2.61546,0.000816345L 3.36745,1.60083L 5.25154,1.60083C 5.08891,2.03634 5,2.50779 5,3.00001C 5,5.20915 6.79086,7.00001 9,7.00001C 11.2091,7.00001 13,5.20915 13,3.00001C 13,2.50779 12.9111,2.03634 12.7485,1.60083L 15.1994,1.60083C 15.6393,1.60083 15.9994,1.96098 15.9994,2.4008L 15.9034,2.78483L 13.0393,7.97656C 12.7674,8.47266 12.2393,8.8008 11.6393,8.8008L 5.67952,8.8008L 4.95961,10.1047L 4.93536,10.2008C 4.93536,10.3133 5.02327,10.4008 5.13538,10.4008L 14.3994,10.4008L 14.3994,12.0008L 4.79946,12.0008C 3.91937,12.0008 3.19946,11.2805 3.19946,10.4008C 3.19946,10.1211 3.2713,9.85704 3.39945,9.63279L 4.47953,7.67265L 1.59947,1.60083L -0.000528971,1.60083L -0.000528971,0.000816345 Z M 12.7994,12.8008C 13.6791,12.8008 14.3994,13.5211 14.3994,14.4008C 14.3994,15.2805 13.6791,16.0008 12.7994,16.0008C 11.9197,16.0008 11.2073,15.2805 11.2073,14.4008C 11.2073,13.5211 11.9197,12.8008 12.7994,12.8008 Z "/>
</svg>
