<?xml version="1.0" encoding="utf-8"?>
<!DOCTYPE svg PUBLIC "-//W3C//DTD SVG 1.1//EN" "http://www.w3.org/Graphics/SVG/1.1/DTD/svg11.dtd">
<svg xmlns="http://www.w3.org/2000/svg" xmlns:xlink="http://www.w3.org/1999/xlink" version="1.1" baseProfile="full" width="16" height="16" viewBox="0 0 16.00 16.00" enable-background="new 0 0 16.00 16.00" xml:space="preserve">
	<path fill="#{colora}" fill-opacity="1" d="M 14.4095,2.45551L 14.4095,0.371445C 14.4095,0.164227 14.2466,-1.90735e-006 14.0497,-1.90735e-006L 11.6752,-1.90735e-006C 11.4745,-1.90735e-006 11.3155,0.168134 11.3155,0.371445L 11.3155,0.731182C 11.3155,0.871942 11.395,1.00489 11.5162,1.06353C 12.3797,1.49365 13.1484,2.0176 13.7847,2.70969C 14.0118,2.95602 14.4095,2.7957 14.4095,2.45551 Z "/>
	<path fill="#{colora}" fill-opacity="1" d="M 0.636197,9.20822C 0.958098,9.20822 1.23076,8.95405 1.26484,8.62563C 1.6246,5.11045 4.49892,2.3695 8.00187,2.3695C 11.5011,2.3695 14.3791,5.11045 14.739,8.62563C 14.773,8.95796 15.0419,9.20822 15.3676,9.20822L 15.3676,9.20822C 15.7425,9.20822 16.0416,8.87194 16,8.48485C 15.5645,4.31281 12.1524,1.05962 7.99812,1.05962C 3.84378,1.05962 0.427913,4.31281 -1.97544e-005,8.48485C -0.0378877,8.87194 0.2575,9.20822 0.636197,9.20822 Z "/>
	<path fill="#{colora}" fill-opacity="1" d="M 7.96402,2.99902C 4.533,3.02247 1.78744,5.96286 1.78744,9.50537L 1.78744,15.3901C 1.78744,15.7263 2.05253,16 2.37822,16L 4.93442,16C 5.26011,16 5.5252,15.7263 5.5252,15.3901L 5.5252,13.9707C 5.5252,12.5709 6.58934,11.3861 7.94129,11.3509C 9.34247,11.3118 10.4899,12.477 10.4899,13.912L 10.4899,15.3901C 10.4899,15.7263 10.755,16 11.0807,16L 13.6331,16C 13.9588,16 14.2239,15.7263 14.2239,15.3901L 14.2239,9.42327C 14.2277,5.86119 11.4215,2.97556 7.96402,2.99902 Z M 8.00569,8.51222C 7.32023,8.51222 6.76354,7.93743 6.76354,7.22972C 6.76354,6.522 7.32023,5.94721 8.00569,5.94721C 8.6911,5.94721 9.24781,6.522 9.24781,7.22972C 9.24781,7.94136 8.6911,8.51222 8.00569,8.51222 Z "/>
</svg>
