<?xml version="1.0" encoding="utf-8"?>
<!DOCTYPE svg PUBLIC "-//W3C//DTD SVG 1.1//EN" "http://www.w3.org/Graphics/SVG/1.1/DTD/svg11.dtd">
<svg xmlns="http://www.w3.org/2000/svg" xmlns:xlink="http://www.w3.org/1999/xlink" version="1.1" baseProfile="full" width="30" height="16" viewBox="0 0 30.00 16.00" enable-background="new 0 0 30.00 16.00" xml:space="preserve">
	<path fill="#{colora}" fill-opacity="1"  d="M 1.58333,7.3665L 13.0085,7.3665L 9.81279,3.89587C 9.585,3.64848 9.585,3.24739 9.81279,3.00002C 10.0406,2.75263 10.4099,2.75263 10.6376,3.00002L 14.8325,7.55576C 14.8856,7.61437 14.9261,7.68142 14.9539,7.75289C 14.9834,7.82843 14.9998,7.91148 15,8.00004C 15,8.08729 14.9838,8.17041 14.9544,8.24605C 14.926,8.31933 14.8843,8.38798 14.8268,8.45042L 14.8257,8.45162L 10.6376,13C 10.4099,13.2474 10.0406,13.2474 9.81279,13C 9.585,12.7526 9.585,12.3516 9.81279,12.1042L 13.0084,8.63356L 1.58333,8.63356C 1.26117,8.63356 1,8.34992 1,8.00004C 1,7.65016 1.26117,7.3665 1.58333,7.3665 Z "/>
</svg>
