<?xml version="1.0" encoding="utf-8"?>
<!DOCTYPE svg PUBLIC "-//W3C//DTD SVG 1.1//EN" "http://www.w3.org/Graphics/SVG/1.1/DTD/svg11.dtd">
<svg xmlns="http://www.w3.org/2000/svg" xmlns:xlink="http://www.w3.org/1999/xlink" version="1.1" baseProfile="full" width="16" height="16" viewBox="0 0 16.00 16.00" enable-background="new 0 0 16.00 16.00" xml:space="preserve">
	<path fill="#{colora}" fill-opacity="1" d="M 6.5,3.50001L 6.5,9.50001C 6.5,9.63542 6.45052,9.75261 6.35156,9.85157C 6.2526,9.95053 6.13541,10 6,10L 6,14.5C 6,14.6354 5.95052,14.7526 5.85156,14.8516C 5.7526,14.9505 5.63541,15 5.5,15L 1.5,15C 1.36458,15 1.24739,14.9505 1.14844,14.8516C 1.04948,14.7526 0.999999,14.6354 0.999999,14.5L 0.999999,10.5L 2.94531,3.6797C 2.98177,3.55991 3.0625,3.50001 3.1875,3.50001L 6.5,3.50001 Z M 9,3.50001L 9,9.00001L 7,9.00001L 7,3.50001L 9,3.50001 Z M 15,10.5L 15,14.5C 15,14.6354 14.9505,14.7526 14.8516,14.8516C 14.7526,14.9505 14.6354,15 14.5,15L 10.5,15C 10.3646,15 10.2474,14.9505 10.1484,14.8516C 10.0495,14.7526 10,14.6354 10,14.5L 10,10C 9.86458,10 9.7474,9.95053 9.64844,9.85157C 9.54948,9.75261 9.5,9.63542 9.5,9.50001L 9.5,3.50001L 12.8125,3.50001C 12.9375,3.50001 13.0182,3.55991 13.0547,3.6797L 15,10.5 Z M 6.75,1.25001L 6.75,3.00001L 4,3.00001L 4,1.25001C 4,1.17709 4.02344,1.1172 4.07031,1.07032C 4.11719,1.02345 4.17709,1.00001 4.25,1.00001L 6.5,1.00001C 6.57291,1.00001 6.63281,1.02345 6.67969,1.07032C 6.72656,1.1172 6.75,1.17709 6.75,1.25001 Z M 12,1.25001L 12,3.00001L 9.25,3.00001L 9.25,1.25001C 9.25,1.17709 9.27344,1.1172 9.32031,1.07032C 9.36719,1.02345 9.42708,1.00001 9.5,1.00001L 11.75,1.00001C 11.8229,1.00001 11.8828,1.02345 11.9297,1.07032C 11.9766,1.1172 12,1.17709 12,1.25001 Z "/>
</svg>
