<?xml version="1.0" encoding="utf-8"?>
<!DOCTYPE svg PUBLIC "-//W3C//DTD SVG 1.1//EN" "http://www.w3.org/Graphics/SVG/1.1/DTD/svg11.dtd">
<svg xmlns="http://www.w3.org/2000/svg" xmlns:xlink="http://www.w3.org/1999/xlink" version="1.1" baseProfile="full" width="16" height="16" viewBox="0 0 16.00 16.00" enable-background="new 0 0 16.00 16.00" xml:space="preserve">
	<path fill="#{colora}" fill-opacity="1" stroke-width="1.33333" stroke-linejoin="miter" d="M 6.72326,12.4466C 3.5828,12.4466 1,9.89308 1,6.72328C 1,3.58281 3.55346,1 6.72326,1C 9.89311,1 12.4465,3.55346 12.4465,6.72328C 12.4334,8.14521 11.9123,9.44312 11.0581,10.4421L 14.9706,14.3837L 14.3543,15L 10.4122,11.0869C 9.41564,11.9355 8.12818,12.4466 6.72326,12.4466 Z M 6.72326,1.85115C 4.02306,1.85115 1.8218,4.05241 1.8218,6.75263C 1.8218,9.45285 4.02306,11.6541 6.72326,11.6541C 9.42348,11.6541 11.6248,9.45285 11.6248,6.75263C 11.5954,4.05241 9.39415,1.85115 6.72326,1.85115 Z "/>
</svg>
