<?xml version="1.0" encoding="utf-8"?>
<!DOCTYPE svg PUBLIC "-//W3C//DTD SVG 1.1//EN" "http://www.w3.org/Graphics/SVG/1.1/DTD/svg11.dtd">
<svg xmlns="http://www.w3.org/2000/svg" xmlns:xlink="http://www.w3.org/1999/xlink" version="1.1" baseProfile="full" width="3200" height="2000" viewBox="0 0 3200.00 2000.00" enable-background="new 0 0 3200.00 2000.00" xml:space="preserve">
	<radialGradient id="fill" cx="1600" cy="400" r="1600" gradientUnits="userSpaceOnUse">
		<stop offset="0" stop-color="#{colora}" stop-opacity="0.2"/>
		<stop offset="1" stop-color="#{colora}" stop-opacity="0"/>
	</radialGradient>
	<path fill="url(#fill)" stroke-linejoin="round" d="M 1600,400L 1062.25,-1112.35L 1309.53,-1178.61L 1600,400L 1472,-1200L 1728,-1200L 1600,400L 1890.47,-1178.61L 2137.75,-1112.35L 1600,400L 2289.15,-1049.64L 2510.85,-921.641L 1600,400L 2640.86,-821.881L 2821.88,-640.861L 1600,400L 2921.64,-510.851L 3049.64,-289.149L 1600,400L 3112.35,-137.749L 3178.61,109.528L 1600,400L 3200,272L 3200,528L 1600,400L 3178.61,690.472L 3112.35,937.749L 1600,400L 3049.64,1089.15L 2921.64,1310.85L 1600,400L 2821.88,1440.86L 2640.86,1621.88L 1600,400L 2510.85,1721.64L 2289.15,1849.64L 1600,400L 2137.75,1912.35L 1890.47,1978.61L 1600,400L 1728,2000L 1472,2000L 1600,400L 1309.53,1978.61L 1062.25,1912.35L 1600,400L 910.851,1849.64L 689.148,1721.64L 1600,400L 559.139,1621.88L 378.119,1440.86L 1600,400L 278.359,1310.85L 150.359,1089.15L 1600,400L 87.6476,937.748L 21.3895,690.471L 1600,400L 0.000162442,528L -0.000163078,272L 1600,400L 21.3898,109.528L 87.6473,-137.75L 1600,400L 150.36,-289.149L 278.359,-510.852L 1600,400L 378.119,-640.861L 559.139,-821.881L 1600,400L 689.148,-921.641L 910.851,-1049.64L 1600,400 Z "/>
</svg>