<?xml version="1.0" encoding="utf-8"?>
<!DOCTYPE svg PUBLIC "-//W3C//DTD SVG 1.1//EN" "http://www.w3.org/Graphics/SVG/1.1/DTD/svg11.dtd">
<svg xmlns="http://www.w3.org/2000/svg" xmlns:xlink="http://www.w3.org/1999/xlink" version="1.1" baseProfile="full" width="96" height="288" viewBox="0 0 96.00 288.00" enable-background="new 0 0 96.00 288.00" xml:space="preserve">
	<g>
		<rect x="17" y="211" fill="#{colorc}" width="14" height="2"/>
		<rect x="17" y="219" fill="#{colorc}" width="14" height="2"/>
		<rect x="17" y="215" fill="#{colorc}" width="14" height="2"/>
	</g>
	<g>
		<rect x="65" y="211" fill="#{colorb}" width="14" height="2"/>
		<rect x="65" y="219" fill="#{colorb}" width="14" height="2"/>
		<rect x="65" y="215" fill="#{colorb}" width="14" height="2"/>
	</g>
	<g>
		<path fill="#{colorc}" d="M 18,271L 22,271L 22,266L 26,266L 26,271L 30,271L 30,265L 24,260L 18,265L 18,271 Z "/>
		<path fill="#{colorc}" d="M 17,265L 16,264L 24,257L 27,259.625L 27,259L 29,259L 29,261.375L 32,264L 31,265L 24,259L 17,265 Z "/>
	</g>
	<path fill="#{colorc}" d="M 22.5432,113.043C 25.5808,113.043 28.0432,115.506 28.0432,118.543C 28.0432,119.701 27.6857,120.775 27.075,121.661L 30.9568,125.543L 29.5426,126.957L 25.6608,123.075C 24.7747,123.686 23.7007,124.043 22.5432,124.043C 19.5057,124.043 17.0432,121.581 17.0432,118.543C 17.0432,115.506 19.5057,113.043 22.5432,113.043 Z M 22.5432,115.043C 20.6102,115.043 19.0432,116.61 19.0432,118.543C 19.0432,120.476 20.6102,122.043 22.5432,122.043C 24.4762,122.043 26.0432,120.476 26.0432,118.543C 26.0432,116.61 24.4762,115.043 22.5432,115.043 Z "/>
	<path fill="#{colorb}" d="M 70.5432,113.043C 73.5808,113.043 76.0432,115.506 76.0432,118.543C 76.0432,119.701 75.6857,120.775 75.075,121.661L 78.9568,125.543L 77.5425,126.957L 73.6608,123.075C 72.7747,123.686 71.7007,124.043 70.5432,124.043C 67.5057,124.043 65.0432,121.581 65.0432,118.543C 65.0432,115.506 67.5057,113.043 70.5432,113.043 Z M 70.5432,115.043C 68.6102,115.043 67.0432,116.61 67.0432,118.543C 67.0432,120.476 68.6102,122.043 70.5432,122.043C 72.4762,122.043 74.0432,120.476 74.0432,118.543C 74.0432,116.61 72.4762,115.043 70.5432,115.043 Z "/>
	<path fill="#{colora}" d="M 21.3333,174L 20.6667,173.333L 26,168L 20.6667,162.667L 21.3333,162L 26.6667,167.333L 27.3333,168L 26.6667,168.667L 21.3333,174 Z "/>
	<path fill="#{colorb}" d="M 69.3333,174L 68.6667,173.333L 74,168L 68.6667,162.667L 69.3333,162L 74.6667,167.333L 75.3333,168L 74.6667,168.667L 69.3333,174 Z "/>
	<path fill="#{colora}" d="M 70.5432,257.043C 73.5808,257.043 76.0432,259.506 76.0432,262.543C 76.0432,263.701 75.6857,264.775 75.075,265.661L 78.9568,269.543L 77.5426,270.957L 73.6608,267.075C 72.7747,267.686 71.7007,268.043 70.5432,268.043C 67.5057,268.043 65.0432,265.581 65.0432,262.543C 65.0432,259.506 67.5057,257.043 70.5432,257.043 Z M 70.5432,259.043C 68.6102,259.043 67.0432,260.61 67.0432,262.543C 67.0432,264.476 68.6102,266.043 70.5432,266.043C 72.4762,266.043 74.0432,264.476 74.0432,262.543C 74.0432,260.61 72.4762,259.043 70.5432,259.043 Z "/>
</svg>
